<?xml version="1.0" encoding="utf-8"?>
<!-- Generator: Adobe Illustrator 16.0.0, SVG Export Plug-In . SVG Version: 6.00 Build 0)  -->
<!DOCTYPE svg PUBLIC "-//W3C//DTD SVG 1.1//EN" "http://www.w3.org/Graphics/SVG/1.1/DTD/svg11.dtd">
<svg version="1.1" id="Layer_1" xmlns="http://www.w3.org/2000/svg" xmlns:xlink="http://www.w3.org/1999/xlink" x="0px" y="0px"
	 width="1664px" height="800px" viewBox="0 0 1664 800" enable-background="new 0 0 1664 800" xml:space="preserve">
<g id="Dirt">
</g>
<g id="Eggshell_3">
	<g>
		<g>
			<polygon fill="#FFE9E9" points="1236.274,72.957 1238.599,67.253 1244.754,70.796 1253.803,72.596 1256.618,82.153 
				1272.111,92.762 1271.787,105.994 1283.67,111.761 1279.527,122.426 1284.214,125.906 1285.7,137.418 1295.791,150.575 
				1299.505,164.98 1306.931,178.945 1306.469,190.073 1308.867,195.786 1302.965,203.061 1302.914,198.297 1288.64,191.4 
				1283.539,170.399 1267.058,153.718 1263.577,112.309 1250.195,106.239 			"/>
			<path fill="#FFE9E9" d="M1263.216,158.439"/>
			<path fill="#F6AF82" d="M1302.965,203.061l5.902-7.275l-2.396-5.717l0.457-11.123l-7.426-13.964l-3.709-14.412l-10.099-13.148
				l-1.483-11.516l-4.68-3.489l4.148-10.67l-11.872-5.776l0.327-13.243l-15.469-10.641l-2.77-9.6l-8.938-1.92l-5.938-3.756
				c0,0,43.774-19.234,88.103-3.822c44.336,15.408,40.347,61.792,30.53,79.931C1347.84,161.062,1339.152,176.92,1302.965,203.061z"
				/>
		</g>
	</g>
</g>
<g id="Eggshell_3_1_">
	<g>
		<g>
			<polygon fill="#FFE9E9" points="427.915,141.071 429.315,147.083 422.229,147.748 413.785,151.514 405.95,145.326 
				387.134,145.616 379.74,134.604 366.681,136.766 363.896,125.644 358.047,125.51 350.167,116.953 334.296,112.032 
				322.919,102.398 308.76,95.274 302.697,85.903 297.428,82.619 298.044,73.25 300.844,77.118 316.513,74.497 332.842,88.723 
				355.981,92.828 382.799,124.687 397.261,121.904 			"/>
			<path fill="#FFE9E9" d="M356.391,86.742"/>
			<path fill="#F6AF82" d="M298.044,73.25l-0.616,9.368l5.267,3.292l6.065,9.363l14.159,7.125l11.377,9.642l15.872,4.909
				l7.879,8.562l5.848,0.145l2.782,11.131l13.057-2.148l7.396,11.023l18.813-0.25l7.82,6.25l8.42-3.602l7.034-0.367
				c0,0-24.676,41.077-69.854,54.129c-45.188,13.061-68.776-27.19-71.246-47.711C285.648,133.583,283.575,115.583,298.044,73.25z"/>
		</g>
	</g>
</g>
<g id="Apple_1_">
	<g>
		<path fill="#2D261F" d="M98.526,97.39c2.772-15.031-3.213-44.575-11.715-57.747c0,0-1.879-2.295,0.506-3.314
			c2.394-1.007,7.631-4.141,8.801-3.737c1.176,0.417,1.705,1.019,1.688,1.836c-0.017,0.837-0.296,1.038-0.169,2.177
			c0.106,1.138,2.809,48.112,9.363,55.358"/>
		<path fill="#E8DFB1" d="M181.067,119.74"/>
		<path fill="#E8DFB1" d="M38.436,330.237c13.494,10.763,28.407,8.48,32.767,9.169c4.356,0.696,22.626-3.329,29.401-4.186
			c6.788-0.863,16.552,2.851,27.388,5.944c10.847,3.11,67.457-13.828,74.056-15.673c6.597-1.832,45.067-20.505,45.951-20.663
			c0.871-0.167,7.799-5.085,7.599-7.765c-0.195-2.688,3.76-7.35,4.234-9.65"/>
		<path fill="#E8DFB1" d="M260.678,286.828l-14.933-6.244c-5.484,1.336-13.076,0.751-15.911,0.062l-58.321-23.606l-9.798-21.071
			l-5.001-65.137l15.438-32.064l36.75-43.788c1.375-1.093,5.582-1.722,4.861-2.271c-9.313-6.939-30.305-8.601-47.368-7.07
			c-17.082,1.54-84.746,15.106-97.582,18.263c-12.843,3.157-38.843,18.301-41.35,20.265c-2.494,1.974-12.884,12.226-13.976,17.256
			c-1.094,5.038,0.363,6.752,0.363,6.752c1.003,1.878,7.416,1.2,7.416,1.2l41.181,11.211l26.31,57.233l11.351,15.877L97.73,262.7
			l-29.851,48.177l-29.444,19.355"/>
		<path fill="#F34044" d="M13.722,148.01c0,0-3.145-4.975-2.131-8.491c1.021-3.512,2.658-8.251,3.973-10.916
			c1.307-2.65,13.571-14.867,33.415-20.087c19.857-5.218,19.83-9.447,25.332-12.285c5.499-2.838,24.79-8.862,33.188-9.823
			c8.416-0.977,15.359-0.918,21.143-2.303c5.792-1.385,11.572-3.51,15.827-3.412c4.241,0.113,8.631,2.617,15.344,1.357
			c6.707-1.262,16.863-0.275,21.293,0.841c4.438,1.15,26.74,1.836,32.706,9.936c-2.12-1.113-12.834-3.728-21.646-5.101
			c-8.805-1.369-17.465,0.247-19.398,0.307c-1.942,0.058-0.926,2.884-0.239,3.371c0.677,0.466,2.239,3.385,0.602,3.2
			c-1.643-0.187-3.479,3.462-4.545,3.666c-1.079,0.202,2.009,3.542,0.825,4.478c-1.175,0.926-9.06,4.256-10.687,5.521
			c-1.616,1.253-4.026,2.418-6.43,2.213c-2.397-0.193-10.487,0.652-11.753,1.7c-1.271,1.043-4.804,7.941-5.264,10.09
			c-0.454,2.154-2.469,1.318-2.469,1.318s-4.864-2.012-7.45-2.948c-2.579-0.925-6.983-2.918-11.005-3.973
			c-4.026-1.063-13.046-5.205-19.315-7.456c-6.253-2.256-16.776-1.49-23.344-1.069c-6.56,0.425-16.229,1.431-29.444,14.768
			c-13.2,13.339-17.958,11.607-21.651,12.309C16.925,135.903,13.478,145.647,13.722,148.01z"/>
		<path fill="#F34044" d="M38.44,328.13c0,0-0.737,2.448,0.17,3.27c0.902,0.808,9.301,6.559,11.136,7.49
			c1.845,0.943,13.954,8.013,28.205,10.42c8.983,1.524,16.304,2.88,25.229,2.833c8.942,1.046,13.331-1.814,18.222-2.65
			c6.56-1.106,26.202-9.5,32.824-10.624c6.643-1.13,16.221,1.369,26.52,0.181c11.38-1.317,30.109-4.51,34.626-6.156
			c4.515-1.659,10.414-1.914,20.326-9.163c12.219-8.932,16.029-18.316,17.365-20.161c0.201-0.283,2.492-4.44,2.492-4.44
			s2.499-7.798,3.47-9.744c0.394-0.8,0.697-0.91,0.823-1.981c0.019-0.151,0.118-0.625,0-0.545c-0.396,0.254-6.414,0.596-6.867,0.63
			c-1.892,0.122-9.005,12.788-9.124,12.822c-2.677,0.772-9.707,3.774-12.994,1.529c-3.809-2.597-7.904-6.729-8.927-5.728
			c-1.018,1.003-1.712,2.888-3.828,4.494c-2.122,1.6-0.237,4.412-1.746,7.113c-1.519,2.695-20.235,3.79-26.451,4.954
			c-6.228,1.166-35.905,3.908-41.494,4.135c-5.595,0.247-17.695-6.352-18.647-4.974c-0.932,1.406-14.947,10.455-18.679,9.859
			c-3.735-0.598-19.672,4.57-24.515,4.583c-4.826,0.01-3.569-4.073-5.981-4.025c-2.406,0.042-9.991,4.683-15.537,7.34
			c-5.545,2.645-16.34,3.044-17.507,3.278C46.367,333.091,38.879,330.468,38.44,328.13z"/>
		<path fill="#D3B48C" d="M77.323,142.169c0.884-16.851,29.05,9.206,30.911,19.125c1.854,9.922-3.916,14.621,1.551,24.472
			c5.459,9.838-0.193,24.798-6.311,21.096c-6.119-3.669-19.424-19.912-17.968-25.017C86.969,176.754,77.095,146.592,77.323,142.169z
			"/>
		<path fill="#D3B48C" d="M125.436,237.171c0.88,17.625-3.365,33.63-6.354,40.224c-2.994,6.6-15.246,14.431-15.199,16.838
			c0.078,2.399,17.918,0.945,20.022-0.662c2.109-1.611,8.369-16.643,7.957-21.988c-0.399-5.365,0.957-23.937,1.218-25.8
			c0.262-1.869-4.734-9.145-4.734-9.145L125.436,237.171z"/>
		<path fill="#D3B48C" d="M152.805,121.988c-3.33-1.622-6.048-3.25-8.537,2.813c-2.494,6.064-4.197,13.024-4.197,13.024
			s15.568,2.525,15.604-0.502c0.033-3.031-8.277-5.484-1.566-8.358c6.703-2.871,9.838-2.253,14.079-5.455
			c4.231-3.206,4.754-3.64,6.204-5.552c1.467-1.923-1.823-9.768-1.823-9.768s-4.156-2.835-4.671,0.876
			c-0.51,3.722-1.376,12.008-4.005,10.85C161.258,118.77,152.805,121.988,152.805,121.988z"/>
		<path fill="#D3B48C" d="M185.462,276.68c8.655,8.038,7.556,11.868,14.417,13.001c6.854,1.12,10.457,7.492,12.479,5.401
			c2.037-2.085-2.488-0.434-2.021,2.092c0.475,2.531-2.922,3.774-5.033,5.366c-2.105,1.606-10.304,1.932-14.478,2.713
			c-4.179,0.781-12.798-0.024-12.798-0.024s-11.643-10.566-8.6-10.502c3.032,0.074,8.424-3.355,10.324-6.116
			C181.652,285.84,185.462,276.68,185.462,276.68z"/>
	</g>
</g>
<g id="Eggshell_2_1_">
	<g>
		<g>
			<polygon fill="#FFE9E9" points="1050.836,164.933 1044.939,167.668 1042.661,160.958 1037.164,153.524 1041.543,144.612 
				1037.351,126.314 1046.574,116.819 1041.744,104.522 1052.035,99.498 1050.939,93.771 1057.682,84.311 1059.196,67.802 
				1066.243,54.694 1070.271,39.404 1078.163,31.543 1080.279,25.728 1089.567,24.383 1086.357,27.926 1099.889,38.85 
				1081.215,48.102 1093.727,79.287 1063.223,107.122 1080.221,148.055 			"/>
			<path fill="#FFE9E9" d="M1088.45,84.137"/>
			<path fill="#F6AF82" d="M1089.567,24.383l-9.284,1.34l-2.12,5.82l-7.892,7.861l-4.024,15.292l-7.051,13.105l-1.518,16.509
				l-6.745,9.461l1.08,5.734l-10.3,5.016l4.797,12.31l-9.233,9.497l4.142,18.314l-4.494,8.927l5.262,7.47l1.815,6.795
				c0,0-45.199-15.597-67.277-57.012c-22.1-41.407,12.32-72.759,31.84-79.411C1028.094,24.762,1045.247,19.014,1089.567,24.383z"/>
		</g>
	</g>
</g>
<g id="Eggshell_1">
	<g>
		<polyline fill="#FFE9E9" points="37.273,729.227 32.388,728.189 43.726,693.175 58.608,694.9 60.348,665.795 87.8,662.492 
			96.259,650.784 119.453,647.01 116.986,634.865 136.933,628.668 143.367,635.951 141.154,657.375 98.036,710.169 45.488,736.396 
			31.76,732.618 		"/>
		<path fill="#F6AF82" d="M137.353,630.019l0.254,6.329l-1.752,6.252l-5.427,5.201l-0.665,2.264l-2.8,2.927l-3.618,2.299
			l-6.539,0.854l-0.118,6.753c0,0-5.044-0.378-5.809,0.305c-0.761,0.683-8.476,11.181-9.427,12.044
			c-0.943,0.839-14.654,4.75-14.654,4.75l-3.637,3.602l-1.212,9.352c0,0-7.894,2.663-8.726,4.792
			c-0.838,2.131-7.372,6.317-7.372,6.317s-7.175,9.596-7.755,10.467c-0.589,0.863-2.802,1.854-3.752,2.71
			c-0.943,0.853-1.573,5.881-1.573,5.881s-4.791,1.934-5.554,2.625c-0.751,0.678-9.054,0.271-9.054,0.271l-0.886,3.214l-4.887-1.04
			l-0.612,4.479c4.46,4.923,36.135,36.115,66.11,37.243c29.971,1.132,37.687-1.765,54.499-16.31
			c16.821-14.541,20.356-45.65,18.375-60.411C168.777,678.443,161.309,653.826,137.353,630.019z"/>
	</g>
</g>
<g id="Banana">
	<g>
		<path fill="#FFDD50" d="M60.117,495.2c0,0-7.669,62.28,91.021,54.02c22.647-1.896,55.485-7.597,82.425-40.536
			c13.347-16.328,48.027-78.115,68.402-79.475c20.363-1.34,27.429,2.029,38.217-0.733c10.783-2.757,27.616-21.559,27.616-21.559
			l16.811,12.742c0,0-20.005,11.523-23.188,23.871c-2.413,9.356,1.416,12.652,8.307,21.501
			c10.804,13.889,8.764,79.355,2.425,114.212c-6.329,34.851-17.296,66.164,8.357,101.759c5.862,8.127,26.983,19.906,33.685,21.188
			c16.015,3.044,31.25-8.667,39.552-12.797c8.515-4.254,10.62-4.438,11.885-2.383c2.057,3.34-22.725,57.664-56.77,52.973
			c-34.069-4.697-60.903-20.835-77.443-68.938c-16.127-46.908-15.149-78.805-9.61-113.625c0,0-33.975,37.144-37.158,80.524
			c-3.149,43.078-0.029,47.014,5.124,58.854c5.74,13.158,15.201,25.466,31.877,35.779c16.683,10.307,18.335,8.729,20.747,9.87
			c2.409,1.15,3.55,4.959,2.513,7.129c-1.024,2.167-3.592,11.305-12.836,14.588c-9.255,3.283-48.364-4.085-69.582-26.016
			c-21.21-21.938-44.582-56.732-34.676-106.749c9.911-50.018,26.115-82.825,27.956-86.09c0,0-16.011,12.487-28.729,21.823
			c-12.72,9.337-66.957,30.056-88.83,27.923c-21.869-2.114-92.392-7.298-103.813-54.538c0,0-8.901-26.154,6.012-39.559
			C57.124,485.933,59.475,492.814,60.117,495.2z"/>
		<path fill="#302A0F" d="M361.185,452.142c-0.688-2.435-0.673-5.092,0.234-8.61c3.179-12.336,23.188-23.871,23.188-23.871
			l-16.81-12.743c0,0-16.833,18.805-27.618,21.562c-3.22,0.819-6.108,1.1-9.114,1.117
			C334.982,436.965,343.418,447.048,361.185,452.142z"/>
	</g>
</g>
<g id="Tomato">
	<g>
		<polyline fill="#FF9076" points="1250.673,772.19 1299.02,713.307 1338.666,633.956 1338.968,633.72 1311.111,571.361 
			1187.604,637.519 1170.73,767.254 		"/>
		<path fill="#529756" d="M1320.474,724.108c-0.71,2.188-19.286-0.753-18.517,8.335c0.904,10.656,0.48,23.961-6.842,34.94
			c0.005,6.611,0.671,11.938,2.024,14.502l14.089-27.303c0,0,24.498,21.197,36.834,32.791c0,0-26.312-44.622-27.625-54.79
			l38.981-21.591c-2.412,0.571-9.17,0.154-17.256,0.149C1332.619,721.81,1320.474,724.108,1320.474,724.108z"/>
		<path fill="#FF5B29" d="M1170.73,767.254L1170.73,767.254c18.557,14.485,47.584,30.104,95.116,18.573
			c14.873-3.61,23.915-10.403,29.267-18.442c7.315-10.977,7.836-23.167,6.925-33.825c-0.767-9.083,11.407-5.281,18.262-8.113
			c0,0,12.317-3.638,21.865-14.298c2.449-2.735,4.733-6.021,6.596-9.973c9.076-19.315,18.017-51.368,4.521-86.793
			c-5.698-14.955-21.446-31.04-42.164-43.219C1311.169,571.429,1293.49,728.562,1170.73,767.254z"/>
		<path fill="#B53C1F" d="M1260.43,683.984c6.915-10.843,16.316-31.285,17.702-42.729c1.376-11.438-27.439-2.963-34.716-3.042
			c-10.488-0.115-30.196-4.298-33.55,6.191c-3.358,10.488,4.849,30.585,8.088,41.496c2.33,7.845,9.225,30.51,15.499,28.531
			C1239.733,712.455,1260.43,683.984,1260.43,683.984z"/>
		<path fill="#B53C1F" d="M1209.22,625.933c-2.696,6.433,55.822,5.396,62.075,1.302c8.257-5.412,14.312-13.07,16.52-23.654
			c1.112-5.289-5.299-16.256-11.549-13.541"/>
		<path fill="#B53C1F" d="M1185.892,650.714c6.489,2.422,17.312,11.445,20.167,20.992c3.745,12.504,18.385,36.228,17.407,44.666
			c-0.966,8.437-5.214,13.775-12.757,20.239c0,0-13.319,12.986-36.946,7.388L1185.892,650.714z"/>
		<path fill="#F9A565" d="M1266.615,620.994c1.562-6.006-3.817-5.598-7.04-5.396c-3.205,0.188-10.688,4.372-7.78,5.453
			C1254.708,622.132,1264.591,628.771,1266.615,620.994z"/>
		<path fill="#F9A565" d="M1234.699,696.78c5.126-0.217,6.022-3.383,5.646-5.992c-0.375-2.614-5.674-12.644-7.441-11.65
			c-1.776,0.998-1.892,1.309-1.969,2.807C1230.855,683.428,1226.026,697.141,1234.699,696.78z"/>
		<path fill="#F9A565" d="M1201.68,725.483c4.607-2.479,6.504-2.731,5.969-5.884c-0.541-3.155-7.51-13.755-9.97-15.249
			c-2.466-1.509-2.852-0.212-3.534,1.489c-0.683,1.695,0.418,6.296,1.351,8.719C1196.422,716.991,1197.085,727.962,1201.68,725.483z
			"/>
		<path fill="#F9A565" d="M1270.224,602.876c-1.933-5.406-7.041-3.13-10.672,0.253c-3.628,3.388-5.155,6.217-2.253,7.215
			C1260.212,611.341,1273.777,612.871,1270.224,602.876z"/>
		<path fill="#F9A565" d="M1265.679,649.614c0.779-4.628-1.079-7.358-3.105-7.529c-2.031-0.179-9.271-0.146-11.172,0.615
			c-2.242,0.908-3.462,1.578-1.977,4.997c0.82,1.857,2.963,4.091,10.415,6.578C1264.156,655.71,1265.214,652.369,1265.679,649.614z"
			/>
		<path fill="#F9A565" d="M1262.162,665.883c-3.15,3.736-4.322,3.906-6.745,2.956c-2.428-0.95-7.928-7.084-7.582-8.972
			c0.354-1.896,0.236-1.726,2.737-1.918c2.482-0.193,9.641-0.264,11.663,2.312C1264.26,662.827,1263.857,663.892,1262.162,665.883z"
			/>
		<path fill="#F9A565" d="M1212.561,712.962c-4.812,0.897-6.002-0.086-7.796-3.536c-1.794-3.461-3.886-15.616-2.604-17.312
			c1.258-1.702,1.083-1.642,3.504,0.647c2.423,2.284,9.16,9.346,9.777,14.159C1216.051,711.74,1215.145,712.489,1212.561,712.962z"
			/>
		<path fill="#F9A565" d="M1183.311,732.122c2.646,0.32,7.944,0.844,8.153-4.987c0.209-5.834-3.034-18.521-5.227-18.438
			c-2.198,0.085-6.761,8.425-6.977,15.889C1179.052,732.049,1181.197,731.854,1183.311,732.122z"/>
		<path fill="#F9A565" d="M1249.646,682.767c2.771-2.757,4.48-3.629,4.655-5.513c0.202-1.882-8.421-8.333-12.772-7.493
			c-2.463,0.479-2.124,3.827-0.894,5.384C1241.855,676.685,1245.506,686.892,1249.646,682.767z"/>
	</g>
</g>
<g id="Beet_2_">
	<g>
		<path fill="#52A76C" d="M660.622,47.577c-0.821,4.112-23.408,23.933-29.692,27.684c-10.224,6.108-20.352,9.005-30.886,14.104
			c9.365-6.931,13.104-9.786,22.399-26.451c6.598-11.834,22.363-29.025,29.606-27.845c1.102,0.18,2.116,0.479,3.017,0.911
			C660.145,38.34,661.173,44.217,660.622,47.577z"/>
		<path fill="#52A76C" d="M603.706,97.478c7.038-0.818,15.918-2.156,24.971-4.141c7.099-1.559,25.269-0.781,37.195,7.943
			c4.102,3.001,6.509,6.699,7.146,10.973c0.66,4.392,0.725,10.132-2.689,12.483c-4.252,2.913-12.771,0.459-19.325-3.269
			C641.66,116.163,623.037,103.907,603.706,97.478z"/>
		<path fill="#52A76C" d="M760.599,42.849c0.575,0.292,1.118,0.58,1.638,0.868c10.673,6.164,7.685,14.154,3.714,21.807
			c-2.538,4.883-29.298,13.023-38.745,12.701c-9.275-0.317-85.546,6.558-104.571,11.454c-11.743,3.023-17.269,4.404-19.688,4.995
			l-0.357-0.547c13.423-5.97,73.747-32.66,95.229-40.159c2.499-0.868,4.985-1.746,7.479-2.631
			C726.962,43.618,747.42,36.335,760.599,42.849z"/>
		<path fill="#E23C7B" d="M603.717,103.221c19.854,35.539,0.708,59.106-16.522,75.524c-1.257-24.184-19.562-63.585-23.548-71.165
			c-3.971-7.568-47.742-62.806-74.787-52.888c7.925-2.973,16.773-5.649,26.09-8.48c28.745-8.73,52.965,8.773,62.14,15.731
			C586.295,68.903,592.554,81.025,603.717,103.221z"/>
		<path fill="#B51561" d="M564.68,107.853c3.979,7.581,24.698,48.015,24.568,71.442l-0.004,0.006l0.004-0.006l-60.382-61.464
			l-39.647-63.208l-0.216-0.066c0.035,0.005,0.455,0.21,0.497,0.188C516.532,44.82,560.707,100.282,564.68,107.853z"/>
	</g>
</g>
<g>
	<path fill="#956034" d="M1553.541,312.273c0.847,5.318-1.398,11.685-11.939,20.396c-11.4,9.424-47.741,28.385-66.014,41.514
		c-18.268,13.128-51.514,38.185-60.84,44.107c-9.327,5.922-21.814,21.28-39.216,13.49c-10.976-4.915-13.38-12.06-21.957-25.491
		c-21.513-33.69-24.024-37.865-30.445-48.029c-6.42-10.165-11.854-16.76-11.717-22.887c0.136-6.127,0.831-12.586,4.074-16.026
		c0,0-11.99,3.35-17.188-6.029c-5.115-9.231-15.144-18.104-11.548-40.88c-5.229,0.242-9.386,2.664-13.836,5.004
		c-0.038,0.53-0.077,1.084-0.12,1.667c-0.964,12.731,5.414,20.339,7.188,24.161c8.922,19.273,12.908,18.817,12.908,18.817
		c6.574,7.076,13.188,5.516,13.188,5.516c-2.107,2.978-2.503,6.657-2.503,6.657c-1.818,5.819,0.655,10.704,4.123,16.719
		c3.47,6.016,17.756,30.047,23.405,38.642c5.646,8.595,7.381,15.856,30.398,43.529c23.021,27.669,43.331,2.774,50.771-3.368
		c7.438-6.146,48.9-36.398,53.554-40.349c4.652-3.95,30.338-19.437,34.953-22.181s35.013-21.355,41.637-26.155
		c6.625-4.799,12.865-13.141,14.982-18.275c1.122-2.722,0.666-6.413-0.585-10.284
		C1555.719,312.445,1554.625,312.358,1553.541,312.273z"/>
	<path fill="#DECAAA" d="M1465.854,303.825c-14.013,2.515-68.381-6.515-77.806-7.696c-9.425-1.181-69.872-10.473-88.264-20.216
		c-5.185-2.745-9.37-3.644-13.031-3.476c-3.596,22.776,6.431,31.649,11.548,40.88c5.196,9.379,17.188,6.029,17.188,6.029
		c-3.243,3.439-3.938,9.898-4.074,16.026c-0.137,6.127,5.297,12.722,11.717,22.887c6.421,10.164,8.936,14.339,30.445,48.029
		c8.577,13.435,10.979,20.576,21.957,25.491c17.397,7.79,29.889-7.568,39.216-13.49c9.326-5.924,42.572-30.979,60.84-44.107
		c18.271-13.129,54.61-32.09,66.013-41.514c10.542-8.711,12.787-15.077,11.94-20.396c-10.277-0.799-19.699-1.305-22.376-0.757
		C1524.539,312.872,1479.865,301.31,1465.854,303.825z"/>
	<path opacity="0.2" fill="#938572" enable-background="new    " d="M1434.956,364.456c-0.034,0.099-0.065,0.199-0.09,0.3
		c-0.147,0.388-0.12,0.84,0.076,1.206c0.469,0.871,1.506,1.297,2.458,1.157c1.156-0.169,2.246-1.067,2.047-2.329
		c-0.154-0.968-1.051-1.627-1.95-1.834C1436.373,362.697,1435.325,363.39,1434.956,364.456z"/>
	<path opacity="0.2" fill="#938572" enable-background="new    " d="M1454.488,331.735c-0.034,0.099-0.065,0.198-0.09,0.3
		c-0.146,0.388-0.119,0.838,0.076,1.205c0.47,0.871,1.505,1.297,2.457,1.158c1.155-0.17,2.245-1.067,2.048-2.33
		c-0.153-0.969-1.054-1.626-1.951-1.834C1455.905,329.976,1454.858,330.668,1454.488,331.735z"/>
	<path opacity="0.2" fill="#938572" enable-background="new    " d="M1420.334,321.023c-0.033,0.099-0.064,0.2-0.091,0.3
		c-0.146,0.389-0.119,0.838,0.077,1.205c0.469,0.872,1.506,1.297,2.458,1.157c1.157-0.168,2.246-1.066,2.048-2.328
		c-0.154-0.969-1.051-1.628-1.951-1.834C1421.752,319.265,1420.705,319.957,1420.334,321.023z"/>
	<path opacity="0.2" fill="#938572" enable-background="new    " d="M1440.094,326.725c-0.034,0.099-0.063,0.198-0.091,0.3
		c-0.146,0.388-0.119,0.838,0.078,1.206c0.467,0.87,1.504,1.296,2.456,1.156c1.158-0.168,2.247-1.066,2.047-2.33
		c-0.152-0.967-1.05-1.626-1.95-1.834C1441.511,324.965,1440.463,325.657,1440.094,326.725z"/>
	<path opacity="0.2" fill="#938572" enable-background="new    " d="M1508.32,320.839c-0.033,0.098-0.064,0.199-0.09,0.3
		c-0.146,0.389-0.12,0.84,0.074,1.205c0.473,0.872,1.507,1.297,2.457,1.158c1.157-0.169,2.246-1.067,2.051-2.33
		c-0.154-0.967-1.054-1.626-1.95-1.834C1509.737,319.08,1508.689,319.772,1508.32,320.839z"/>
	<path opacity="0.2" fill="#938572" enable-background="new    " d="M1488.587,332.571c-0.035,0.099-0.062,0.198-0.09,0.3
		c-0.147,0.388-0.12,0.839,0.076,1.205c0.47,0.872,1.506,1.298,2.458,1.157c1.158-0.168,2.245-1.066,2.046-2.328
		c-0.152-0.968-1.049-1.628-1.95-1.834C1490.004,330.812,1488.957,331.504,1488.587,332.571z"/>
	<path opacity="0.2" fill="#938572" enable-background="new    " d="M1493.657,350.881c-0.035,0.1-0.065,0.199-0.091,0.3
		c-0.146,0.389-0.119,0.839,0.078,1.205c0.469,0.872,1.504,1.297,2.453,1.157c1.158-0.168,2.246-1.066,2.051-2.329
		c-0.154-0.967-1.051-1.626-1.95-1.834C1495.074,349.121,1494.026,349.814,1493.657,350.881z"/>
	<path opacity="0.2" fill="#938572" enable-background="new    " d="M1417.582,344.205c-0.329,0.839-0.664,1.765-0.304,2.651
		c0.13,0.316,0.52,0.458,0.827,0.323c0.096-0.041,0.212-0.327,0.271-0.403c0.007-0.001,0.051-0.227,0.058-0.226
		c0.007,0,0.01,0.001,0.015,0.002c0.059,0.011,0.071,0.231,0.123,0.234c0.194,0.136,0.435,0.263,0.665,0.254
		c0.396-0.017,0.805-0.22,1.093-0.476c0.351-0.312,0.648-0.703,0.689-1.185c0.052-0.628-0.374-1.081-0.921-1.322
		c-0.57-0.249-1.25-0.265-1.863-0.257C1417.949,343.807,1417.694,343.921,1417.582,344.205z"/>
	<path opacity="0.2" fill="#938572" enable-background="new    " d="M1406.675,368.571c-0.138,0.03-0.271,0.073-0.397,0.126
		c-0.339,0.138-0.499,0.619-0.276,0.92c-0.11,0.158-0.146,0.362-0.044,0.582c0.198,0.418,0.535,0.642,0.88,0.923
		c0.164,0.135,0.438,0.169,0.628,0.073c0.038-0.02,0.075-0.041,0.112-0.062c0.207-0.001,0.416-0.029,0.617-0.083
		c0.271-0.073,0.493-0.269,0.524-0.541c0.229-0.108,0.432-0.273,0.601-0.502c0.197-0.269,0.149-0.68-0.126-0.878
		c-0.584-0.415-1.194-0.744-1.901-0.881C1407.038,368.197,1406.797,368.356,1406.675,368.571z"/>
	<path opacity="0.2" fill="#938572" enable-background="new    " d="M1429.963,356.943c1.006-0.895,0.217-2.239-0.721-2.8
		c-0.5-0.3-1.081-0.49-1.669-0.394c-0.679,0.113-1.175,0.627-1.396,1.259c-0.062,0.191-0.043,0.396,0.056,0.558
		c-0.104,0.257-0.02,0.555,0.207,0.734c0.12,0.1,0.252,0.186,0.389,0.258c0.173,0.439,0.574,0.745,1.077,0.867
		C1428.555,357.583,1429.454,357.395,1429.963,356.943z"/>
	<path opacity="0.2" fill="#938572" enable-background="new    " d="M1473.473,338.829c1.006-0.895,0.22-2.238-0.721-2.799
		c-0.499-0.299-1.08-0.491-1.67-0.395c-0.676,0.113-1.172,0.627-1.395,1.261c-0.066,0.189-0.048,0.395,0.052,0.556
		c-0.104,0.257-0.02,0.555,0.206,0.734c0.124,0.101,0.254,0.186,0.39,0.259c0.173,0.439,0.575,0.746,1.078,0.866
		C1472.064,339.471,1472.965,339.28,1473.473,338.829z"/>
	<path opacity="0.2" fill="#938572" enable-background="new    " d="M1399.265,316.176c1.005-0.893,0.216-2.238-0.722-2.798
		c-0.5-0.299-1.08-0.491-1.669-0.394c-0.678,0.112-1.175,0.627-1.394,1.259c-0.067,0.19-0.049,0.396,0.051,0.557
		c-0.104,0.258-0.02,0.557,0.205,0.735c0.124,0.099,0.253,0.184,0.39,0.258c0.173,0.438,0.576,0.746,1.078,0.866
		C1397.855,316.817,1398.755,316.628,1399.265,316.176z"/>
	<path opacity="0.2" fill="#938572" enable-background="new    " d="M1429.529,381.244c-0.35-0.749-1.053-1.308-1.885-1.392
		c-0.938-0.095-1.793,0.452-2.309,1.199c-0.354,0.515-0.377,1.177-0.055,1.679c-0.002,0.101,0,0.202,0.007,0.308
		c0.029,0.438,0.239,0.816,0.475,1.174c0.299,0.45,0.877,0.579,1.376,0.54c0.82-0.062,1.703-0.427,2.18-1.129
		C1429.794,382.919,1429.888,382.02,1429.529,381.244z"/>
	<path opacity="0.2" fill="#938572" enable-background="new    " d="M1447.109,344.981c-0.795,0.07-1.34,0.925-1.225,1.675
		c0.025,0.162,0.08,0.318,0.156,0.464c0.008,0.171,0.047,0.341,0.116,0.5c0.312,0.723,1.14,1.042,1.862,0.782
		c0.012-0.001,0.021-0.003,0.03-0.007c0.354-0.075,0.562-0.156,0.854-0.357c0.256-0.175,0.451-0.471,0.562-0.754
		c0.139-0.347,0.129-0.673,0.104-1.038c-0.034-0.49-0.462-0.979-0.913-1.137C1448.146,344.925,1447.65,344.935,1447.109,344.981z"/>
	<path opacity="0.2" fill="#938572" enable-background="new    " d="M1460.193,352.496c-0.794,0.07-1.34,0.925-1.225,1.674
		c0.026,0.164,0.079,0.32,0.156,0.466c0.008,0.168,0.046,0.338,0.115,0.5c0.312,0.723,1.141,1.04,1.861,0.781
		c0.014-0.001,0.021-0.005,0.033-0.007c0.354-0.076,0.562-0.157,0.854-0.358c0.256-0.175,0.451-0.47,0.562-0.753
		c0.141-0.347,0.129-0.673,0.104-1.04c-0.033-0.487-0.461-0.978-0.912-1.138C1461.229,352.439,1460.733,352.448,1460.193,352.496z"
		/>
	<path opacity="0.2" fill="#938572" enable-background="new    " d="M1380.184,370.135c-0.086-0.193-0.188-0.369-0.305-0.55
		c-0.18-0.281-0.467-0.464-0.762-0.599c-0.344-0.157-0.782-0.126-1.122,0.021c-0.354,0.154-0.407,0.312-0.55,0.672
		c-0.146,0.36,0.053,0.656,0.246,0.986c0.062,0.107,0.127,0.214,0.191,0.323c0.022,0.04-0.169,0.206-0.137,0.238
		c0.339,0.694,1.077,1.081,1.789,0.771C1380.271,371.677,1380.503,370.867,1380.184,370.135z"/>
	<path opacity="0.2" fill="#938572" enable-background="new    " d="M1390.404,341.268c-0.743-0.292-1.607,0.085-1.899,0.829
		c-0.291,0.743,0.085,1.606,0.829,1.898c0.742,0.292,1.605-0.084,1.898-0.828C1391.524,342.424,1391.148,341.56,1390.404,341.268z"
		/>
	<path opacity="0.2" fill="#938572" enable-background="new    " d="M1399.248,329.333c-0.743-0.292-1.607,0.085-1.899,0.828
		c-0.291,0.744,0.085,1.606,0.828,1.898s1.607-0.084,1.899-0.827C1400.369,330.488,1399.991,329.625,1399.248,329.333z"/>
	<path opacity="0.2" fill="#938572" enable-background="new    " d="M1359.473,303.009c-0.74-0.292-1.604,0.085-1.896,0.828
		c-0.292,0.744,0.084,1.607,0.828,1.899c0.741,0.292,1.604-0.084,1.896-0.828C1360.593,304.165,1360.217,303.3,1359.473,303.009z"/>
	<path opacity="0.2" fill="#938572" enable-background="new    " d="M1379.404,331.149c0.291-0.744-0.085-1.607-0.828-1.899
		c-0.744-0.292-1.607,0.085-1.899,0.828s0.085,1.606,0.828,1.899C1378.248,332.269,1379.112,331.892,1379.404,331.149z"/>
	<path opacity="0.2" fill="#938572" enable-background="new    " d="M1329.264,308.403c0.292-0.744-0.085-1.608-0.828-1.899
		c-0.74-0.293-1.604,0.084-1.896,0.828c-0.292,0.743,0.084,1.607,0.828,1.899C1328.108,309.523,1328.972,309.146,1329.264,308.403z"
		/>
	<path opacity="0.2" fill="#938572" enable-background="new    " d="M1359.162,342.752c0.293-0.744-0.085-1.608-0.828-1.9
		c-0.743-0.291-1.605,0.086-1.899,0.828c-0.291,0.744,0.087,1.607,0.829,1.898C1358.007,343.872,1358.871,343.495,1359.162,342.752z
		"/>
	<path opacity="0.2" fill="#938572" enable-background="new    " d="M1410.405,396.607c-0.744-0.291-1.607,0.085-1.899,0.826
		c-0.004,0.015-0.009,0.024-0.012,0.038c-0.143,0.142-0.258,0.31-0.334,0.5c-0.292,0.744,0.085,1.609,0.828,1.899
		c0.743,0.292,1.604-0.084,1.896-0.827c0.006-0.014,0.012-0.023,0.017-0.039c0.143-0.139,0.257-0.307,0.333-0.5
		C1411.525,397.764,1411.149,396.899,1410.405,396.607z"/>
	<path opacity="0.2" fill="#938572" enable-background="new    " d="M1360.487,397.422c-0.743-0.291-1.607,0.086-1.898,0.828
		c-0.005,0.014-0.01,0.025-0.014,0.039c-0.142,0.138-0.256,0.307-0.332,0.5c-0.292,0.744,0.084,1.607,0.828,1.898
		c0.741,0.293,1.604-0.088,1.896-0.828c0.005-0.015,0.012-0.023,0.017-0.037c0.141-0.142,0.256-0.31,0.333-0.501
		C1361.607,398.578,1361.23,397.714,1360.487,397.422z"/>
	<path opacity="0.2" fill="#938572" enable-background="new    " d="M1382.93,414.881c-0.74-0.292-1.604,0.085-1.896,0.829
		c-0.006,0.011-0.011,0.025-0.017,0.037c-0.143,0.14-0.257,0.308-0.332,0.501c-0.293,0.743,0.084,1.607,0.826,1.898
		c0.744,0.293,1.608-0.084,1.9-0.828c0.005-0.015,0.009-0.024,0.013-0.037c0.145-0.142,0.256-0.31,0.334-0.5
		C1384.049,416.037,1383.672,415.173,1382.93,414.881z"/>
	<path opacity="0.2" fill="#938572" enable-background="new    " d="M1359.991,374.296c-0.121,0.306-0.127,0.633-0.042,0.932
		c-0.044,0.434,0.105,0.869,0.408,1.182c0.051,0.151,0.125,0.296,0.227,0.422c0.243,0.308,0.605,0.509,0.997,0.55
		c0.391,0.042,0.747-0.08,1.061-0.306c0.257-0.187,0.512-0.483,0.609-0.789c0.094-0.278,0.139-0.527,0.088-0.821
		c-0.055-0.304-0.149-0.481-0.325-0.734c-0.065-0.1-0.149-0.186-0.244-0.263c-0.113-0.44-0.432-0.825-0.88-1.001
		C1361.146,373.174,1360.282,373.551,1359.991,374.296z"/>
	<path opacity="0.2" fill="#938572" enable-background="new    " d="M1345.385,347.467c0.489-0.085,0.934-0.416,1.122-0.904
		c0.293-0.744-0.085-1.606-0.828-1.899c-0.489-0.192-1.03-0.094-1.428,0.207c-0.49,0.084-0.93,0.416-1.122,0.905
		c-0.292,0.743,0.084,1.606,0.828,1.898C1344.446,347.866,1344.987,347.769,1345.385,347.467z"/>
	<path opacity="0.2" fill="#938572" enable-background="new    " d="M1384.668,386.802c0.024,0.011,0.08-0.181,0.104-0.177
		c0.006,0,0.009,0.001,0.014,0.002c0.238,0.04,0.451,0.296,0.689,0.25c0.203,0.002,0.394,0.063,0.577-0.02
		c0.354-0.154,0.628-0.396,0.771-0.758c0.142-0.359,0.13-0.739-0.024-1.095c-0.154-0.354-0.449-0.624-0.811-0.767
		c-0.023-0.008-0.05-0.013-0.071-0.02c-0.434-0.126-0.37-0.099-0.812-0.086c-0.008-0.001-0.016,0.003-0.021,0.004
		c-0.132,0.027-0.26,0.073-0.389,0.114c-0.037,0.013-0.073,0.03-0.109,0.045c-0.328,0.146-0.593,0.405-0.743,0.73
		c-0.001,0.003-0.003,0.006-0.005,0.011c-0.011,0.021-0.021,0.044-0.029,0.066c-0.009,0.022-0.018,0.047-0.022,0.069
		c-0.001,0.004-0.001,0.008-0.005,0.011c-0.108,0.34-0.095,0.713,0.052,1.041c0.143,0.328,0.4,0.595,0.729,0.744
		c0.003,0.001,0.024-0.098,0.028-0.096C1384.605,386.885,1384.646,386.794,1384.668,386.802z"/>
	<path opacity="0.2" fill="#938572" enable-background="new    " d="M1373.526,403.049c0.021,0.01,0.054-0.021,0.073-0.018
		c0.008,0.001,0.012,0.002,0.015,0.002c0.239,0.04,0.478,0.135,0.719,0.091c0.205,0.001,0.403-0.02,0.591-0.101
		c0.355-0.154,0.636-0.438,0.776-0.799c0.142-0.357,0.133-0.761-0.021-1.114c-0.152-0.354-0.448-0.636-0.809-0.776
		c-0.023-0.008-0.048-0.016-0.072-0.021c-0.432-0.129-0.368-0.104-0.808-0.093c-0.01-0.001-0.02,0.003-0.024,0.004
		c-0.132,0.028-0.26,0.071-0.387,0.114c-0.038,0.012-0.074,0.028-0.109,0.045c-0.329,0.146-0.595,0.404-0.744,0.729
		c-0.003,0.004-0.004,0.009-0.006,0.011c-0.01,0.023,0.109,0.066,0.104,0.09c-0.013,0.022,0.104,0.066,0.104,0.09
		c-0.001,0.005-0.001,0.011-0.002,0.015c-0.058,0.349-0.223,0.689-0.08,1.02c0.146,0.329,0.339,0.583,0.664,0.733
		c0.004,0.001-0.021-0.023-0.019-0.022C1373.51,403.057,1373.505,403.039,1373.526,403.049z"/>
	<path opacity="0.2" fill="#938572" enable-background="new    " d="M1398.086,420.309c0.023,0.013,0.039,0.191,0.064,0.191
		c0.003,0,0.007,0,0.01,0c0.243,0,0.491-0.07,0.732-0.115c0.2,0.001,0.405-0.122,0.597-0.202c0.354-0.153,0.637-0.484,0.779-0.849
		c0.141-0.361,0.136-0.787-0.021-1.143c-0.154-0.354-0.446-0.646-0.807-0.789c-0.023-0.011-0.047-0.023-0.071-0.029
		c-0.431-0.127-0.369-0.105-0.811-0.093c-0.01,0.001-0.017,0-0.021,0.002c-0.133,0.023-0.261,0.066-0.389,0.112
		c-0.038,0.012-0.073,0.026-0.109,0.044c-0.329,0.144-0.595,0.402-0.744,0.729c-0.003,0.003-0.003,0.007-0.006,0.01
		c-0.009,0.023,0.104,0.066,0.096,0.09c-0.008,0.021,0.104,0.064,0.103,0.091c-0.001,0.004-0.002,0.008-0.002,0.013
		c-0.061,0.348-0.222,0.688-0.075,1.021c0.145,0.328,0.343,0.584,0.666,0.732c0.004,0.004-0.027,0.081-0.024,0.081
		C1398.074,420.214,1398.062,420.301,1398.086,420.309z"/>
	<path opacity="0.2" fill="#938572" enable-background="new    " d="M1394.396,400.758c-0.144,0.36-0.135,0.77,0.021,1.12
		c0.155,0.355,0.447,0.638,0.807,0.778c0.264,0.102,0.533,0.123,0.805,0.074c0.204,0.004,0.404-0.037,0.6-0.121
		c0.354-0.154,0.638-0.446,0.778-0.81c0.142-0.356,0.133-0.766-0.021-1.12c-0.152-0.351-0.447-0.642-0.809-0.775
		c-0.456-0.174-0.953-0.143-1.399,0.047C1394.82,400.096,1394.535,400.402,1394.396,400.758z"/>
	<path opacity="0.2" fill="#938572" enable-background="new    " d="M1401.154,341.264c-0.293,0.743,0.084,1.607,0.827,1.898
		c0.743,0.292,1.604-0.085,1.896-0.828s-0.084-1.607-0.827-1.899C1402.311,340.144,1401.445,340.521,1401.154,341.264z"/>
	<path opacity="0.2" fill="#938572" enable-background="new    " d="M1473.375,360.575c-0.291,0.743,0.086,1.606,0.828,1.899
		c0.744,0.291,1.607-0.086,1.896-0.83c0.293-0.742-0.084-1.605-0.824-1.898C1474.531,359.454,1473.667,359.831,1473.375,360.575z"/>
	<path opacity="0.2" fill="#938572" enable-background="new    " d="M1410.337,384.531c-0.141,0.359-0.134,0.766,0.021,1.121
		c0.152,0.354,0.446,0.635,0.809,0.775c0.078,0.03,0.156,0.062,0.233,0.092c0.357,0.143,0.767,0.135,1.121-0.021
		c0.354-0.153,0.637-0.447,0.775-0.807c0.143-0.36,0.126-0.746-0.029-1.102c-0.152-0.354-0.451-0.617-0.812-0.758
		c-0.077-0.03-0.156-0.062-0.233-0.092c-0.357-0.142-0.759-0.154-1.112,0C1410.753,383.897,1410.479,384.172,1410.337,384.531z"/>
	<path opacity="0.2" fill="#938572" enable-background="new    " d="M1457.322,378.782c-0.145,0.359-0.135,0.766,0.021,1.121
		c0.153,0.354,0.447,0.637,0.81,0.778c0.076,0.03,0.153,0.061,0.231,0.091c0.359,0.142,0.77,0.135,1.12-0.021
		c0.354-0.155,0.637-0.447,0.778-0.809c0.142-0.358,0.126-0.746-0.028-1.1c-0.155-0.355-0.454-0.618-0.812-0.758
		c-0.077-0.032-0.156-0.062-0.235-0.092c-0.359-0.144-0.758-0.155-1.111-0.001C1457.737,378.148,1457.463,378.422,1457.322,378.782z
		"/>
	<path opacity="0.2" fill="#938572" enable-background="new    " d="M1370.934,323.513c0.101-0.614-0.062-1.166-0.397-1.675
		c-0.206-0.308-0.541-0.512-0.837-0.72c-0.652-0.46-1.563-0.359-2.053,0.293c-0.267,0.352-0.348,0.814-0.248,1.232
		c-0.089,0.389-0.022,0.81,0.214,1.148c0.068,0.161,0.136,0.325,0.27,0.46c0.332,0.331,0.224,0.247,0.64,0.474
		c0.146,0.079,0.315,0.092,0.477,0.128c0.221,0.051,0.488,0.008,0.71-0.049c0.253-0.041,0.479-0.14,0.683-0.297
		C1370.705,324.257,1370.871,323.909,1370.934,323.513z"/>
	<path opacity="0.2" fill="#938572" enable-background="new    " d="M1399.2,356.293c-0.089,0.089-0.179,0.18-0.269,0.271
		c-0.158,0.217-0.254,0.458-0.281,0.725c-0.041,0.378,0.069,0.763,0.306,1.061c0.041,0.052,0.085,0.1,0.13,0.145
		c0.082,0.325,0.273,0.618,0.543,0.819c0.314,0.234,0.718,0.335,1.105,0.274c0.397-0.062,0.686-0.273,0.943-0.569
		c0.562-0.629,0.953-1.637,0.562-2.451c-0.326-0.681-1.039-1.077-1.794-0.949C1399.973,355.698,1399.54,355.961,1399.2,356.293z"/>
	<path opacity="0.2" fill="#938572" enable-background="new    " d="M1475.173,311.986c-0.089,0.091-0.18,0.182-0.268,0.271
		c-0.159,0.216-0.253,0.458-0.284,0.726c-0.04,0.377,0.072,0.763,0.307,1.061c0.041,0.051,0.084,0.099,0.131,0.145
		c0.081,0.323,0.272,0.617,0.542,0.817c0.313,0.236,0.721,0.336,1.104,0.275c0.4-0.062,0.686-0.273,0.947-0.568
		c0.557-0.631,0.953-1.636,0.562-2.451c-0.326-0.681-1.041-1.077-1.795-0.949C1475.947,311.392,1475.513,311.656,1475.173,311.986z"
		/>
	<path opacity="0.2" fill="#938572" enable-background="new    " d="M1435.455,310.398c-0.088,0.09-0.177,0.182-0.264,0.271
		c-0.161,0.216-0.259,0.458-0.285,0.725c-0.041,0.379,0.069,0.764,0.306,1.062c0.04,0.051,0.083,0.098,0.131,0.143
		c0.081,0.324,0.272,0.618,0.542,0.818c0.313,0.236,0.718,0.337,1.104,0.276c0.397-0.064,0.686-0.273,0.943-0.569
		c0.562-0.63,0.955-1.637,0.562-2.452c-0.326-0.681-1.041-1.076-1.794-0.948C1436.229,309.804,1435.797,310.067,1435.455,310.398z"
		/>
	<path opacity="0.2" fill="#938572" enable-background="new    " d="M1381.536,356.99c-0.173,0.251-0.245,0.505-0.302,0.782
		c-0.23,0.741,0.093,1.555,0.844,1.85c0.447,0.176,0.971,0.104,1.367-0.154c0.548,0.123,1.153-0.08,1.506-0.547
		c0.481-0.646,0.338-1.565-0.293-2.052c-0.58-0.447-1.258-0.565-1.969-0.533C1382.243,356.357,1381.79,356.623,1381.536,356.99z"/>
	<path opacity="0.2" fill="#938572" enable-background="new    " d="M1347.051,325.798c-0.173,0.25-0.243,0.504-0.301,0.782
		c-0.229,0.741,0.094,1.554,0.844,1.85c0.447,0.176,0.971,0.105,1.366-0.154c0.549,0.123,1.157-0.081,1.507-0.547
		c0.484-0.646,0.338-1.564-0.294-2.053c-0.579-0.445-1.257-0.565-1.967-0.532C1347.759,325.164,1347.307,325.431,1347.051,325.798z"
		/>
	<path opacity="0.2" fill="#938572" enable-background="new    " d="M1307.338,292.329c-0.174,0.25-0.244,0.504-0.302,0.782
		c-0.229,0.742,0.093,1.555,0.845,1.85c0.445,0.175,0.97,0.105,1.365-0.154c0.549,0.123,1.156-0.08,1.506-0.547
		c0.484-0.646,0.339-1.565-0.293-2.052c-0.578-0.446-1.258-0.565-1.969-0.532C1308.044,291.696,1307.592,291.962,1307.338,292.329z"
		/>
	<path opacity="0.2" fill="#938572" enable-background="new    " d="M1364.381,356.487c-0.729,0.327-1.078,1.19-0.757,1.929
		c0.179,0.41,0.538,0.703,0.947,0.82c0.144,0.15,0.316,0.271,0.516,0.349c0.731,0.287,1.515-0.062,1.855-0.739
		c0.003-0.001,0.003-0.004,0.005-0.006c0.21-0.313,0.258-0.471,0.331-0.837c0.056-0.277-0.041-0.58-0.129-0.834
		c-0.146-0.41-0.553-0.682-0.927-0.857c-0.307-0.144-0.739-0.194-1.072-0.111C1364.863,356.272,1364.645,356.368,1364.381,356.487z"
		/>
	<path opacity="0.2" fill="#938572" enable-background="new    " d="M1346.867,369.053c-0.729,0.327-1.079,1.192-0.76,1.93
		c0.182,0.409,0.536,0.701,0.946,0.819c0.146,0.151,0.318,0.273,0.519,0.351c0.729,0.286,1.514-0.064,1.854-0.739
		c0.002-0.001,0.003-0.004,0.005-0.006c0.21-0.315,0.257-0.473,0.331-0.838c0.059-0.276-0.041-0.579-0.131-0.834
		c-0.144-0.41-0.549-0.682-0.921-0.855c-0.309-0.145-0.744-0.197-1.076-0.113C1347.348,368.839,1347.129,368.936,1346.867,369.053z"
		/>
	<path opacity="0.2" fill="#938572" enable-background="new    " d="M1324.854,339.276c-0.728,0.325-1.075,1.189-0.757,1.928
		c0.182,0.41,0.539,0.702,0.949,0.821c0.146,0.15,0.316,0.271,0.515,0.351c0.73,0.285,1.515-0.065,1.855-0.741
		c0.002-0.001,0.004-0.003,0.005-0.005c0.209-0.313,0.257-0.472,0.332-0.838c0.056-0.276-0.043-0.58-0.132-0.833
		c-0.143-0.41-0.548-0.682-0.922-0.855c-0.309-0.146-0.744-0.196-1.075-0.112C1325.337,339.062,1325.118,339.158,1324.854,339.276z"
		/>
	<path opacity="0.2" fill="#938572" enable-background="new    " d="M1529.605,328.259c-0.729,0.326-1.077,1.191-0.76,1.929
		c0.183,0.409,0.538,0.701,0.95,0.819c0.143,0.151,0.316,0.272,0.513,0.352c0.731,0.285,1.518-0.065,1.857-0.74
		c0.003-0.003,0.003-0.003,0.004-0.006c0.211-0.315,0.258-0.471,0.333-0.838c0.054-0.275-0.043-0.579-0.132-0.833
		c-0.145-0.41-0.549-0.683-0.922-0.855c-0.312-0.145-0.744-0.196-1.075-0.114C1530.088,328.044,1529.869,328.142,1529.605,328.259z"
		/>
</g>
<g>
	<polygon fill="#E5A045" points="1549.564,115.11 1545.027,160.833 1558.48,159.85 1565.486,150.416 1562.938,145.662 
		1566.924,137.928 1570.788,132.513 1566.75,128.965 1569.03,126.376 1563.239,122.56 1566.968,118.688 1558.727,113.109 	"/>
	<polygon opacity="0.2" fill="#6D4B22" enable-background="new    " points="1549.564,115.11 1545.027,160.833 1558.48,159.85 
		1565.486,150.416 1562.938,145.662 1566.924,137.928 1570.788,132.513 1566.75,128.965 1569.03,126.376 1563.239,122.56 
		1566.968,118.688 1558.727,113.109 	"/>
	<path fill="#E5A045" d="M1543.649,142.206l-0.029-0.436c-0.253-3.794-0.104-7.729,0.438-11.699l0.077-0.566l-0.569-0.027
		c-3.041-0.144-6.105-0.477-9.354-0.827l-0.342-0.037c-8.144-0.881-17.312-1.873-28.288-0.019l-0.388,0.066l-0.045,0.387
		c-0.832,6.974-0.553,13.854,0.842,20.448c0.312,1.452,0.699,2.944,1.145,4.439l0.121,0.409l0.429-0.037
		c11.604-1.015,18.582-4.5,24.741-7.575c3.656-1.819,6.994-3.479,10.793-4.419L1543.649,142.206z"/>
	<path fill="#E5A045" d="M1505.308,127.781l0.707-0.114c10.815-1.742,19.524-0.789,27.944,0.133l0.835,0.089
		c3.129,0.333,6.081,0.647,9.022,0.769l0.463,0.018l0.076-0.454c0.819-4.892,2.275-9.827,4.325-14.667
		c0.411-0.968,1.365-2.855,2.125-4.353c-0.782-0.418-1.519-0.796-2.151-1.067c-4.073-1.721-25.646-4.484-37.202,1.728
		c-0.37,0.198-0.73,0.423-1.099,0.633c-0.152,0.088-0.31,0.179-0.464,0.267c-1.627,4.556-3.711,11.137-4.479,16.311
		L1505.308,127.781z"/>
	<path fill="#E5A045" d="M1544.275,147.31c-0.193-1.125-0.358-2.353-0.493-3.651l-0.065-0.602l-0.587,0.151
		c-3.612,0.924-6.874,2.552-10.325,4.276c-6.151,3.08-13.131,6.569-24.612,7.64l-0.656,0.062l0.208,0.625
		c1.587,4.78,4.597,10.79,7.633,15.52c0.207-0.016,0.464-0.037,0.615-0.051c0.021-0.001,0.062-0.004,0.081-0.006
		c-0.001,0-0.001,0-0.001-0.002c9.312-0.851,18.67-4.48,23.177-6.235l1.439-0.555c2.338-0.898,5.192-1.987,8.109-2.89
		C1547.283,158.161,1545.164,152.604,1544.275,147.31z"/>
	<path fill="#E5A045" d="M1506.801,155.633l-0.125-0.389l-0.408,0.027c-7.604,0.5-17.146-0.249-27.268-1.995
		c1.549,3.281,4.526,6.585,6.938,8.162c0.504,0.332,1.062,0.723,1.685,1.155c4.167,2.911,11.141,7.781,21.596,8.733
		c1.696,0.155,3.44,0.142,5.192,0.045C1511.38,166.576,1508.379,160.492,1506.801,155.633z"/>
	<path fill="#E5A045" d="M1544.977,129.531l-0.062,0.459c-0.546,3.836-0.708,7.693-0.485,11.463l0.035,0.585l0.575-0.099
		c2.221-0.38,5.069-0.365,8.028-0.083c-0.175-0.409-2.646-2.64-2.593-2.774c0.149-0.352,3.447-1.841,3.447-1.841
		s-1.729-3.795-1.917-5.177c-0.134-0.993,2.345-2.683,2.603-3.337c-3.065,0.537-6.323,0.864-9.165,0.812L1544.977,129.531z"/>
	<path fill="#E5A045" d="M1545.215,128.086l-0.104,0.604l0.609,0.009c2.879,0.042,6.228-0.323,9.349-0.894
		c0.25-0.446,0.587-1.061,0.688-1.195c0.135-0.18-1.602-4.055-1.602-4.055s2.003-2.352,2.553-2.95
		c0.55-0.597-0.829-2.662-0.629-2.992c0.148-0.252,1.85-2.464,2.646-3.503c-2.279-0.856-4.52-2.05-6.529-3.155
		c-0.246-0.136-0.487-0.265-0.729-0.396c-0.729,1.496-1.622,3.371-2.017,4.302C1547.464,118.551,1546.038,123.339,1545.215,128.086z
		"/>
	<path fill="#E5A045" d="M1506.419,154.414l-0.181-0.628c-0.391-1.353-0.738-2.751-1.038-4.16c-1.368-6.427-1.686-13.19-0.936-20.1
		l0.076-0.706l-0.694,0.136c-5.873,1.142-12.48,3.271-18.72,5.935c-1.454,1.783-2.938,3.565-3.235,4.011
		c-0.623,0.939-2.411,3.245-3.646,9.421c-0.245,1.229,0.016,2.649,0.586,4.101c10.202,1.821,19.428,2.5,27.137,2.03
		L1506.419,154.414z"/>
	<path fill="#E5A045" d="M1504.456,127.954l0.052-0.375c0.833-5.965,2.583-12.047,3.958-15.918
		c-11.657,7.4-20.641,19.525-21.049,20.081c-0.354,0.485-0.846,1.116-1.395,1.799c6.021-2.474,12.409-4.465,18.062-5.517
		L1504.456,127.954z"/>
	<path fill="#E5A045" d="M1551.135,150.815c-0.128-0.726-0.149-2.158-0.149-2.158s-0.146-1.56,0.089-2.094
		c0.23-0.535,0.392-1.559,0.392-1.559l0.87-1.42c0,0,1.254-0.523,1.104-0.877c-3.062-0.347-6.006-0.36-8.426,0.071l-0.474,0.083
		l0.043,0.479c0.112,1.237,0.27,2.459,0.479,3.735c0.95,5.664,3.212,11.171,4.646,14.235c0.146-0.044,0.291-0.087,0.438-0.128
		c2.944-0.838,5.882-1.417,8.343-1.333c-0.107-0.599-0.182-1.261-0.038-1.524c0.284-0.532-4.896-1.644-4.786-1.898
		c0.104-0.253-0.153-2.949,0.131-3.479C1553.787,152.948,1551.263,151.542,1551.135,150.815z"/>
	<path fill="#E5A045" d="M1545.059,147.076c-0.208-1.276-0.362-2.498-0.478-3.735l-0.043-0.479l0.474-0.083
		c2.42-0.432,5.362-0.418,8.424-0.071c-0.114-0.268-0.253-0.568-0.371-0.85c-2.959-0.282-5.808-0.297-8.025,0.083l-0.575,0.099
		l-0.035-0.585c-0.223-3.77-0.061-7.627,0.485-11.463l0.062-0.459l0.463,0.009c2.845,0.051,6.103-0.275,9.166-0.812
		c0.103-0.255,0.192-0.451,0.248-0.544c0.055-0.086,0.132-0.224,0.219-0.378c-3.121,0.571-6.471,0.936-9.348,0.894l-0.61-0.009
		l0.104-0.604c0.823-4.748,2.249-9.535,4.235-14.226c0.395-0.931,1.289-2.807,2.017-4.302c-0.225-0.123-0.439-0.239-0.655-0.355
		c-0.763,1.498-1.717,3.385-2.125,4.353c-2.053,4.84-3.509,9.775-4.328,14.667l-0.076,0.454l-0.462-0.018
		c-2.942-0.122-5.896-0.436-9.023-0.769l-0.835-0.089c-8.42-0.922-17.129-1.875-27.943-0.133l-0.707,0.114l0.104-0.707
		c0.771-5.174,2.854-11.755,4.479-16.311c-0.088,0.05-0.174,0.097-0.259,0.147c-0.153,0.095-0.312,0.184-0.469,0.282
		c-0.003,0.007-0.005,0.013-0.008,0.02c-0.234,0.143-0.461,0.301-0.693,0.448c-1.375,3.872-3.125,9.954-3.958,15.918l-0.052,0.375
		l-0.372,0.069c-5.651,1.052-12.037,3.043-18.062,5.517c-0.351,0.437-0.722,0.894-1.095,1.35c6.236-2.664,12.845-4.792,18.718-5.935
		l0.696-0.136l-0.076,0.706c-0.75,6.91-0.436,13.673,0.936,20.1c0.3,1.408,0.649,2.807,1.038,4.16l0.181,0.628l-0.649,0.038
		c-7.709,0.47-16.936-0.208-27.138-2.03c0.111,0.286,0.234,0.568,0.368,0.854c10.121,1.747,19.66,2.495,27.27,1.995l0.406-0.027
		l0.125,0.389c1.578,4.858,4.579,10.942,7.609,15.739c0.233-0.014,0.466-0.011,0.7-0.026c0.001,0.002,0.002,0.002,0.002,0.006
		c0,0,0.108-0.01,0.246-0.021c0.006,0,0.011-0.001,0.016,0c-3.036-4.73-6.046-10.74-7.633-15.52l-0.208-0.625l0.654-0.062
		c11.483-1.071,18.462-4.56,24.614-7.64c3.451-1.724,6.713-3.352,10.325-4.276l0.587-0.151l0.063,0.602
		c0.137,1.299,0.302,2.527,0.492,3.651c0.892,5.294,3.011,10.852,4.522,14.282c0.178-0.055,0.353-0.116,0.532-0.169
		c0.124-0.037,0.248-0.073,0.373-0.111C1548.27,158.247,1546.01,152.739,1545.059,147.076z M1532.43,146.731
		c-6.156,3.075-13.139,6.56-24.739,7.575l-0.431,0.037l-0.121-0.409c-0.442-1.495-0.828-2.987-1.145-4.439
		c-1.393-6.595-1.674-13.474-0.842-20.448l0.045-0.387l0.388-0.066c10.979-1.854,20.146-0.862,28.288,0.019l0.342,0.037
		c3.246,0.351,6.312,0.684,9.354,0.827l0.569,0.027l-0.074,0.566c-0.549,3.97-0.694,7.905-0.441,11.699l0.029,0.436l-0.43,0.106
		C1539.424,143.252,1536.086,144.913,1532.43,146.731z"/>
	<path fill="#C88B43" d="M1545.059,147.076c-0.208-1.276-0.362-2.498-0.478-3.735l-0.043-0.479l0.474-0.083
		c2.42-0.432,5.362-0.418,8.424-0.071c-0.114-0.268-0.253-0.568-0.371-0.85c-2.959-0.282-5.808-0.297-8.025,0.083l-0.575,0.099
		l-0.035-0.585c-0.223-3.77-0.061-7.627,0.485-11.463l0.062-0.459l0.463,0.009c2.845,0.051,6.103-0.275,9.166-0.812
		c0.103-0.255,0.192-0.451,0.248-0.544c0.055-0.086,0.132-0.224,0.219-0.378c-3.121,0.571-6.471,0.936-9.348,0.894l-0.61-0.009
		l0.104-0.604c0.823-4.748,2.249-9.535,4.235-14.226c0.395-0.931,1.289-2.807,2.017-4.302c-0.225-0.123-0.439-0.239-0.655-0.355
		c-0.763,1.498-1.717,3.385-2.125,4.353c-2.053,4.84-3.509,9.775-4.328,14.667l-0.076,0.454l-0.462-0.018
		c-2.942-0.122-5.896-0.436-9.023-0.769l-0.835-0.089c-8.42-0.922-17.129-1.875-27.943-0.133l-0.707,0.114l0.104-0.707
		c0.771-5.174,2.854-11.755,4.479-16.311c-0.088,0.05-0.174,0.097-0.259,0.147c-0.153,0.095-0.312,0.184-0.469,0.282
		c-0.003,0.007-0.005,0.013-0.008,0.02c-0.234,0.143-0.461,0.301-0.693,0.448c-1.375,3.872-3.125,9.954-3.958,15.918l-0.052,0.375
		l-0.372,0.069c-5.651,1.052-12.037,3.043-18.062,5.517c-0.351,0.437-0.722,0.894-1.095,1.35c6.236-2.664,12.845-4.792,18.718-5.935
		l0.696-0.136l-0.076,0.706c-0.75,6.91-0.436,13.673,0.936,20.1c0.3,1.408,0.649,2.807,1.038,4.16l0.181,0.628l-0.649,0.038
		c-7.709,0.47-16.936-0.208-27.138-2.03c0.111,0.286,0.234,0.568,0.368,0.854c10.121,1.747,19.66,2.495,27.27,1.995l0.406-0.027
		l0.125,0.389c1.578,4.858,4.579,10.942,7.609,15.739c0.233-0.014,0.466-0.011,0.7-0.026c0.001,0.002,0.002,0.002,0.002,0.006
		c0,0,0.108-0.01,0.246-0.021c0.006,0,0.011-0.001,0.016,0c-3.036-4.73-6.046-10.74-7.633-15.52l-0.208-0.625l0.654-0.062
		c11.483-1.071,18.462-4.56,24.614-7.64c3.451-1.724,6.713-3.352,10.325-4.276l0.587-0.151l0.063,0.602
		c0.137,1.299,0.302,2.527,0.492,3.651c0.892,5.294,3.011,10.852,4.522,14.282c0.178-0.055,0.353-0.116,0.532-0.169
		c0.124-0.037,0.248-0.073,0.373-0.111C1548.27,158.247,1546.01,152.739,1545.059,147.076z M1532.43,146.731
		c-6.156,3.075-13.139,6.56-24.739,7.575l-0.431,0.037l-0.121-0.409c-0.442-1.495-0.828-2.987-1.145-4.439
		c-1.393-6.595-1.674-13.474-0.842-20.448l0.045-0.387l0.388-0.066c10.979-1.854,20.146-0.862,28.288,0.019l0.342,0.037
		c3.246,0.351,6.312,0.684,9.354,0.827l0.569,0.027l-0.074,0.566c-0.549,3.97-0.694,7.905-0.441,11.699l0.029,0.436l-0.43,0.106
		C1539.424,143.252,1536.086,144.913,1532.43,146.731z"/>
</g>
<g>
	<polygon fill="#E5A045" points="1565.566,476.166 1526.36,452.206 1521.396,464.749 1526.849,475.159 1532.239,474.929 
		1537.472,481.882 1540.669,487.716 1545.618,485.621 1546.959,488.8 1552.913,485.243 1554.779,490.284 1563.386,485.286 	"/>
	<polygon opacity="0.2" fill="#6D4B22" enable-background="new    " points="1565.566,476.166 1526.36,452.206 1521.396,464.749 
		1526.849,475.159 1532.239,474.929 1537.472,481.882 1540.669,487.716 1545.618,485.621 1546.959,488.8 1552.913,485.243 
		1554.779,490.284 1563.386,485.286 	"/>
	<path fill="#E5A045" d="M1543.735,459.062l0.402,0.16c3.526,1.424,7.009,3.269,10.348,5.482l0.477,0.314l0.272-0.506
		c1.451-2.676,3.083-5.291,4.81-8.062l0.183-0.292c4.334-6.949,9.213-14.773,12.313-25.467l0.109-0.379l-0.33-0.209
		c-5.919-3.78-12.237-6.519-18.781-8.133c-1.443-0.349-2.955-0.646-4.496-0.896l-0.42-0.069l-0.153,0.402
		c-4.13,10.891-4.021,18.689-3.933,25.574c0.049,4.084,0.094,7.812-0.711,11.641L1543.735,459.062z"/>
	<path fill="#E5A045" d="M1573.392,430.801l-0.204,0.688c-3.133,10.497-7.773,17.926-12.267,25.104l-0.442,0.715
		c-1.658,2.675-3.228,5.195-4.612,7.791l-0.22,0.409l0.377,0.269c4.049,2.863,7.858,6.32,11.326,10.271
		c0.692,0.791,1.979,2.471,2.997,3.809c0.718-0.524,1.376-1.021,1.896-1.479c3.317-2.92,15.186-21.146,14.614-34.256
		c-0.02-0.418-0.063-0.841-0.096-1.263c-0.014-0.18-0.024-0.354-0.039-0.532c-3.396-3.445-8.418-8.187-12.739-11.125
		L1573.392,430.801z"/>
	<path fill="#E5A045" d="M1538.866,457.407c1.098,0.312,2.272,0.699,3.504,1.143l0.569,0.202l0.117-0.594
		c0.738-3.655,0.689-7.3,0.64-11.157c-0.101-6.881-0.208-14.681,3.817-25.489l0.229-0.618l-0.654-0.084
		c-4.994-0.646-11.715-0.551-17.295,0.127c-0.076,0.193-0.168,0.438-0.221,0.578c-0.013,0.021-0.025,0.062-0.029,0.074
		c0,0,0,0,0.001,0c-3.282,8.76-4.079,18.762-4.458,23.584l-0.126,1.537c-0.207,2.496-0.47,5.543-0.923,8.562
		C1527.786,455.398,1533.712,455.905,1538.866,457.407z"/>
	<path fill="#E5A045" d="M1547.659,420.04l0.404,0.056l0.15-0.38c2.856-7.065,7.679-15.334,13.649-23.688
		c-3.628-0.031-7.898,1.215-10.367,2.697c-0.518,0.312-1.113,0.646-1.771,1.018c-4.436,2.488-11.853,6.647-17.252,15.65
		c-0.877,1.463-1.623,3.036-2.3,4.656C1535.812,419.407,1542.599,419.349,1547.659,420.04z"/>
	<path fill="#E5A045" d="M1554.573,465.766l-0.386-0.259c-3.221-2.158-6.621-3.979-10.112-5.42l-0.542-0.223l-0.161,0.562
		c-0.623,2.165-1.875,4.727-3.415,7.27c0.441,0.021,3.527-1.236,3.624-1.127c0.252,0.284,0.16,3.902,0.16,3.902
		s4.17,0.089,5.494,0.523c0.952,0.312,1.396,3.277,1.877,3.792c0.848-2.994,1.971-6.07,3.252-8.607L1554.573,465.766z"/>
	<path fill="#E5A045" d="M1555.771,466.608l-0.498-0.355l-0.274,0.547c-1.288,2.574-2.415,5.747-3.257,8.81
		c0.293,0.418,0.699,0.985,0.774,1.138c0.104,0.199,4.351,0.32,4.351,0.32s1.248,2.822,1.547,3.581
		c0.299,0.755,2.758,0.407,2.969,0.731c0.16,0.246,1.416,2.736,2.004,3.906c1.762-1.681,3.812-3.179,5.683-4.51
		c0.229-0.164,0.448-0.324,0.674-0.484c-1.031-1.305-2.33-2.926-2.998-3.687C1563.38,472.778,1559.688,469.413,1555.771,466.608z"/>
	<path fill="#E5A045" d="M1548.923,420.226l0.646,0.109c1.387,0.239,2.799,0.531,4.194,0.874c6.387,1.562,12.611,4.218,18.51,7.897
		l0.604,0.375l0.181-0.688c1.523-5.785,2.479-12.661,2.793-19.436c-0.976-2.084-1.935-4.198-2.207-4.658
		c-0.572-0.97-1.873-3.583-6.896-7.379c-1-0.755-2.393-1.142-3.948-1.256c-6.074,8.396-10.692,16.407-13.622,23.557
		L1548.923,420.226z"/>
	<path fill="#E5A045" d="M1573.605,429.958l0.312,0.21c5.01,3.343,9.729,7.563,12.615,10.483c-1.6-13.718-8.611-27.075-8.938-27.687
		c-0.282-0.531-0.637-1.246-1.014-2.038c-0.392,6.501-1.373,13.117-2.881,18.664L1573.605,429.958z"/>
	<path fill="#E5A045" d="M1532.729,462.061c0.709,0.2,2.012,0.804,2.012,0.804s1.468,0.546,1.848,0.989
		c0.38,0.44,1.234,1.028,1.234,1.028l0.897,1.401c0,0-0.071,1.354,0.312,1.374c1.644-2.606,2.935-5.25,3.598-7.618l0.131-0.462
		l-0.448-0.17c-1.162-0.438-2.33-0.826-3.57-1.193c-5.516-1.604-11.457-1.965-14.84-2.005c-0.023,0.151-0.047,0.3-0.074,0.45
		c-0.525,3.016-1.279,5.91-2.426,8.09c0.587,0.163,1.215,0.387,1.391,0.628c0.355,0.487,3.607-3.692,3.789-3.485
		s2.723,1.146,3.077,1.634C1529.654,463.522,1532.02,461.86,1532.729,462.061z"/>
	<path fill="#E5A045" d="M1538.737,458.214c1.239,0.367,2.407,0.757,3.571,1.193l0.447,0.17l-0.131,0.462
		c-0.663,2.368-1.954,5.012-3.598,7.618c0.292,0.011,0.623,0.019,0.927,0.035c1.54-2.543,2.792-5.104,3.415-7.27l0.161-0.562
		l0.542,0.223c3.491,1.438,6.895,3.262,10.112,5.42l0.386,0.259l-0.209,0.413c-1.281,2.537-2.404,5.613-3.252,8.607
		c0.186,0.201,0.322,0.369,0.382,0.459c0.056,0.086,0.146,0.215,0.247,0.359c0.842-3.061,1.969-6.23,3.257-8.808l0.274-0.547
		l0.498,0.354c3.918,2.807,7.606,6.171,10.971,9.997c0.668,0.763,1.967,2.384,2.998,3.688c0.209-0.148,0.408-0.294,0.605-0.438
		c-1.021-1.336-2.306-3.016-2.996-3.807c-3.47-3.949-7.279-7.406-11.326-10.271l-0.376-0.268l0.217-0.409
		c1.388-2.596,2.954-5.117,4.614-7.791l0.44-0.715c4.49-7.182,9.136-14.608,12.269-25.104l0.205-0.688l0.592,0.401
		c4.324,2.938,9.346,7.68,12.742,11.125c-0.011-0.103-0.016-0.196-0.021-0.296c-0.018-0.185-0.03-0.361-0.051-0.544
		c-0.005-0.007-0.01-0.013-0.018-0.019c-0.023-0.271-0.067-0.547-0.103-0.818c-2.89-2.92-7.604-7.143-12.615-10.482l-0.312-0.21
		l0.1-0.364c1.508-5.547,2.49-12.163,2.881-18.664c-0.241-0.505-0.491-1.037-0.737-1.569c-0.312,6.772-1.27,13.648-2.793,19.437
		l-0.181,0.688l-0.604-0.375c-5.896-3.682-12.125-6.338-18.511-7.896c-1.396-0.343-2.811-0.635-4.194-0.874l-0.646-0.109l0.25-0.604
		c2.928-7.146,7.547-15.159,13.622-23.558c-0.306-0.022-0.614-0.034-0.929-0.038c-5.976,8.354-10.793,16.62-13.649,23.688
		l-0.151,0.38l-0.403-0.056c-5.062-0.691-11.847-0.633-17.481,0.011c-0.089,0.218-0.189,0.425-0.278,0.646
		c-0.005,0-0.005,0-0.01-0.002c0,0-0.038,0.104-0.088,0.23c-0.002,0.004-0.002,0.008-0.006,0.012
		c5.58-0.678,12.301-0.772,17.295-0.127l0.654,0.084l-0.229,0.618c-4.025,10.812-3.918,18.608-3.817,25.489
		c0.053,3.856,0.102,7.502-0.637,11.157l-0.119,0.594l-0.57-0.202c-1.229-0.441-2.406-0.828-3.504-1.143
		c-5.154-1.502-11.08-2.01-14.826-2.138c-0.029,0.187-0.05,0.367-0.08,0.556c-0.021,0.127-0.043,0.254-0.062,0.384
		C1527.28,456.249,1533.223,456.608,1538.737,458.214z M1544.536,446.989c-0.092-6.883-0.197-14.687,3.933-25.574l0.153-0.402
		l0.42,0.069c1.541,0.249,3.053,0.55,4.496,0.898c6.544,1.611,12.862,4.35,18.781,8.13l0.329,0.209l-0.108,0.379
		c-3.104,10.69-7.98,18.518-12.313,25.467l-0.183,0.292c-1.728,2.771-3.358,5.386-4.81,8.062l-0.272,0.504l-0.478-0.315
		c-3.34-2.217-6.817-4.062-10.347-5.482l-0.403-0.16l0.091-0.435C1544.63,454.802,1544.585,451.073,1544.536,446.989z"/>
	<path fill="#C88B43" d="M1538.737,458.214c1.239,0.367,2.407,0.757,3.571,1.193l0.447,0.17l-0.131,0.462
		c-0.663,2.368-1.954,5.012-3.598,7.618c0.292,0.011,0.623,0.019,0.927,0.035c1.54-2.543,2.792-5.104,3.415-7.27l0.161-0.562
		l0.542,0.223c3.491,1.438,6.895,3.262,10.112,5.42l0.386,0.259l-0.209,0.413c-1.281,2.537-2.404,5.613-3.252,8.607
		c0.186,0.201,0.322,0.369,0.382,0.459c0.056,0.086,0.146,0.215,0.247,0.359c0.842-3.061,1.969-6.23,3.257-8.808l0.274-0.547
		l0.498,0.354c3.918,2.807,7.606,6.171,10.971,9.997c0.668,0.763,1.967,2.384,2.998,3.688c0.209-0.148,0.408-0.294,0.605-0.438
		c-1.021-1.336-2.306-3.016-2.996-3.807c-3.47-3.949-7.279-7.406-11.326-10.271l-0.376-0.268l0.217-0.409
		c1.388-2.596,2.954-5.117,4.614-7.791l0.44-0.715c4.49-7.182,9.136-14.608,12.269-25.104l0.205-0.688l0.592,0.401
		c4.324,2.938,9.346,7.68,12.742,11.125c-0.011-0.103-0.016-0.196-0.021-0.296c-0.018-0.185-0.03-0.361-0.051-0.544
		c-0.005-0.007-0.01-0.013-0.018-0.019c-0.023-0.271-0.067-0.547-0.103-0.818c-2.89-2.92-7.604-7.143-12.615-10.482l-0.312-0.21
		l0.1-0.364c1.508-5.547,2.49-12.163,2.881-18.664c-0.241-0.505-0.491-1.037-0.737-1.569c-0.312,6.772-1.27,13.648-2.793,19.437
		l-0.181,0.688l-0.604-0.375c-5.896-3.682-12.125-6.338-18.511-7.896c-1.396-0.343-2.811-0.635-4.194-0.874l-0.646-0.109l0.25-0.604
		c2.928-7.146,7.547-15.159,13.622-23.558c-0.306-0.022-0.614-0.034-0.929-0.038c-5.976,8.354-10.793,16.62-13.649,23.688
		l-0.151,0.38l-0.403-0.056c-5.062-0.691-11.847-0.633-17.481,0.011c-0.089,0.218-0.189,0.425-0.278,0.646
		c-0.005,0-0.005,0-0.01-0.002c0,0-0.038,0.104-0.088,0.23c-0.002,0.004-0.002,0.008-0.006,0.012
		c5.58-0.678,12.301-0.772,17.295-0.127l0.654,0.084l-0.229,0.618c-4.025,10.812-3.918,18.608-3.817,25.489
		c0.053,3.856,0.102,7.502-0.637,11.157l-0.119,0.594l-0.57-0.202c-1.229-0.441-2.406-0.828-3.504-1.143
		c-5.154-1.502-11.08-2.01-14.826-2.138c-0.029,0.187-0.05,0.367-0.08,0.556c-0.021,0.127-0.043,0.254-0.062,0.384
		C1527.28,456.249,1533.223,456.608,1538.737,458.214z M1544.536,446.989c-0.092-6.883-0.197-14.687,3.933-25.574l0.153-0.402
		l0.42,0.069c1.541,0.249,3.053,0.55,4.496,0.898c6.544,1.611,12.862,4.35,18.781,8.13l0.329,0.209l-0.108,0.379
		c-3.104,10.69-7.98,18.518-12.313,25.467l-0.183,0.292c-1.728,2.771-3.358,5.386-4.81,8.062l-0.272,0.504l-0.478-0.315
		c-3.34-2.217-6.817-4.062-10.347-5.482l-0.403-0.16l0.091-0.435C1544.63,454.802,1544.585,451.073,1544.536,446.989z"/>
</g>
<g id="Layer_6">
</g>
<g id="Layer_2">
</g>
<g id="Layer_3">
</g>
<g id="Layer_5">
</g>
<g id="Layer_4">
</g>
<g id="Layer_9">
	<g>
		<path fill="none" stroke="#706649" stroke-width="2" stroke-linecap="round" stroke-linejoin="round" stroke-miterlimit="10" d="
			M1562.311,645.675c13.192,5.667,27.644,9.998,49.609-4.166"/>
		<path fill="none" stroke="#706649" stroke-width="3" stroke-linecap="round" stroke-linejoin="round" stroke-miterlimit="10" d="
			M1544.337,565.01c17.166,6.667,45.274,66.225,24.441,83.333"/>
		<path fill="#FFE2B8" d="M1620.73,704.692c0.103,1.094-2.854,6.358-6.123,7.504c-3.271,1.143-24.847,12.069-33.532,17.084
			c-8.688,5.014-58.769,25.625-61.281,26.506c-2.514,0.879-13.275,2.383-15.312,1.401c-2.037-0.98-7.527-7.811-8.821-9.896
			s-1.329-10.258-2.484-14.369c-1.154-4.111-9.569-26.563-10.098-28.074c-0.527-1.51-5.49-6.828-7.691-7.471
			c-2.199-0.642-11.117-22.92-13.127-27.862c-2.01-4.938-17.702-29.646-18.819-31.229s1.448-10.382,2.005-12.835
			c0.554-2.45,3.843-25.328,4.296-28.873c0.454-3.545,1.436-5.582,2.769-6.611c1.333-1.031,25.35-12.249,25.35-12.249
			s33.295-16.155,34.375-17.097c1.082-0.942,6.196-2.449,7.293-2.55c1.094-0.104,10.923,3.8,13.812,5.608
			c2.891,1.812,17.044,7.586,19.08,8.567c2.036,0.979,9.075,4.164,9.515,5.421c0.44,1.257,20.214,40.06,20.353,43.679
			c0.137,3.62,5.459,27.724,7.042,32.247c1.582,4.526,4.054,18.057,4.33,19.65c0.273,1.596,2.397,2.829,5.304,5.481
			c2.901,2.651,15.909,16.446,17.203,18.534C1617.453,699.35,1620.632,703.599,1620.73,704.692z"/>
		<path opacity="0.2" fill="#6D4B22" enable-background="new    " d="M1477.854,577.715c0,0-24.014,11.218-25.347,12.249
			c-1.333,1.029-2.312,3.066-2.769,6.611c-0.453,3.545-3.742,26.423-4.297,28.873c-0.556,2.453-3.121,11.251-2.005,12.835
			c1.118,1.585,16.812,26.292,18.82,31.229c2.01,4.942,10.928,27.224,13.127,27.862c2.201,0.645,7.164,5.961,7.691,7.471
			c0.524,1.511,8.94,23.966,10.098,28.074c1.155,4.111,1.188,12.281,2.484,14.369c1.294,2.088,6.782,8.916,8.818,9.896
			c2.036,0.979,12.798-0.523,15.312-1.402c2.516-0.881,52.593-21.492,61.28-26.506s30.265-15.941,33.531-17.084
			c3.271-1.146,6.228-6.41,6.123-7.504c-0.1-1.097-3.275-5.346-4.57-7.433c-1.293-2.088-14.303-15.883-17.202-18.534
			c-2.903-2.652-5.027-3.888-5.306-5.481c-0.275-1.596-2.748-15.124-4.329-19.65c-1.584-4.523-6.904-28.627-7.043-32.247
			c-0.138-3.617-19.909-42.422-20.351-43.679c-0.438-1.257-7.479-4.439-9.515-5.421c-2.036-0.982-16.189-6.756-19.08-8.567
			c-2.892-1.811-12.72-5.712-13.813-5.608c-1.093,0.101-6.211,1.604-7.293,2.55C1511.149,561.56,1477.854,577.715,1477.854,577.715z
			"/>
		<path opacity="0.6" enable-background="new    " d="M1581.075,729.28c8.688-5.015,30.264-15.941,33.532-17.084
			c3.269-1.146,6.226-6.41,6.123-7.504c-0.102-1.097-3.277-5.346-4.571-7.433c-1.294-2.088-14.302-15.883-17.203-18.535
			c-2.903-2.651-5.027-3.887-5.304-5.48c-0.277-1.596-2.748-15.124-4.33-19.65c-1.464-4.187-6.126-25.115-6.928-31.101
			c0,0-10.575,3.64-13.743,5.877c-3.169,2.236-18.942,29.762-38.271,39.058c-19.325,9.296-63.646,12.938-63.651,12.938
			c3.296,7.781,7.283,16.613,8.656,17.016c2.201,0.645,7.164,5.961,7.691,7.471c0.525,1.511,8.941,23.965,10.098,28.074
			c1.155,4.111,1.19,12.281,2.484,14.369s6.785,8.916,8.821,9.896c2.034,0.979,12.798-0.522,15.312-1.401
			C1522.311,754.905,1572.387,734.294,1581.075,729.28z"/>
		<path opacity="0.3" fill="#30200F" enable-background="new    " d="M1616.159,697.263c-1.294-2.088-14.301-15.883-17.203-18.534
			c-2.903-2.652-5.027-3.888-5.304-5.481c-0.277-1.596-2.748-15.124-4.33-19.65c-1.464-4.187-6.126-25.114-6.927-31.101
			c-0.001,0-10.576,3.64-13.744,5.877c-2.634,1.855-13.975,21.18-28.819,32.992c-0.349-0.673-0.721-1.342-1.12-1.996
			c-3.582-5.877-25.835-48.799-35.912-68.34c-3.683,0.797-5.942,1.279-5.942,1.279s-0.793,0.553-2.137,1.489
			c9.808,20.261,31.084,64.066,34.762,70.248c0.602,1.013,1.285,1.95,2.021,2.818c-0.372,0.19-0.745,0.384-1.119,0.562
			c-19.322,9.296-63.646,12.938-63.65,12.938c3.295,7.783,7.285,16.614,8.657,17.016c2.199,0.645,7.162,5.961,7.689,7.471
			c0.527,1.511,8.943,23.966,10.099,28.074c1.154,4.111,1.189,12.281,2.483,14.369s6.785,8.916,8.821,9.896
			c2.036,0.979,12.798-0.523,15.312-1.402c2.519-0.881,52.596-21.492,61.281-26.506c8.688-5.013,30.265-15.941,33.533-17.084
			c3.268-1.146,6.225-6.41,6.123-7.504C1620.632,703.599,1617.453,699.35,1616.159,697.263z"/>
		<path opacity="0.3" fill="#6D4B22" enable-background="new    " d="M1616.159,697.263c-1.294-2.088-14.301-15.883-17.203-18.534
			c-2.903-2.652-5.027-3.888-5.304-5.481c-0.277-1.596-2.748-15.124-4.33-19.65c-1.464-4.187-6.126-25.114-6.927-31.101
			c-0.001,0-10.576,3.64-13.744,5.877c-2.634,1.855-13.975,21.18-28.819,32.992c-0.349-0.673-0.721-1.342-1.12-1.996
			c-3.582-5.877-25.835-48.799-35.912-68.34c14.397-3.113,50.496-11.002,57.907-13.425l0.975-0.292
			c-1.347-1.425-7.398-4.164-9.266-5.062c-2.036-0.979-16.188-6.756-19.08-8.567c-2.891-1.811-12.72-5.712-13.812-5.608
			c-1.095,0.101-6.211,1.604-7.293,2.55c-1.08,0.94-34.375,17.097-34.375,17.097s-24.017,11.221-25.35,12.249
			c-1.333,1.029-2.312,3.066-2.769,6.611c-0.453,3.545-3.742,26.423-4.296,28.873c-0.557,2.453-3.122,11.251-2.003,12.835
			c0.059,0.083,0.155,0.232,0.293,0.438c1.434-1.562,14.471-15.744,18.935-20.701c3.952-4.394,25.202-19.418,32.053-24.222
			c9.808,20.263,31.084,64.066,34.762,70.248c0.602,1.015,1.284,1.95,2.021,2.818c-0.372,0.192-0.745,0.384-1.119,0.562
			c-19.324,9.297-63.646,12.938-63.65,12.938c3.295,7.783,7.283,16.615,8.655,17.016c2.201,0.645,7.164,5.961,7.691,7.474
			c0.527,1.508,8.943,23.963,10.098,28.071c1.155,4.111,1.19,12.281,2.484,14.369s6.785,8.916,8.821,9.896
			c2.036,0.979,12.798-0.523,15.312-1.402c2.519-0.881,52.593-21.492,61.281-26.506c8.688-5.012,30.264-15.941,33.533-17.084
			c3.268-1.144,6.225-6.41,6.123-7.504C1620.632,703.599,1617.453,699.35,1616.159,697.263z"/>
		<path fill="none" stroke="#706649" stroke-width="3" stroke-linecap="round" stroke-linejoin="round" stroke-miterlimit="10" d="
			M1562.311,645.675"/>
		<path opacity="0.2" fill="#6D4B22" enable-background="new    " d="M1631.873,617.207c0,0,11.289,22.335,11.337,23.876
			c0.015,0.431,0.381,0.729-0.68,1.438c-2.74,1.834-9.522,4.571-13.705,6.632c-5.801,2.854-12.562,5.271-13.675,5.424
			c-1.062,0.145-10.326-19.277-11.981-23.361c0,0-0.508-0.672,0.562-1.086c1.203-0.468,24.119-13.137,25.297-13.801
			c0,0,1.529-0.874,1.604-0.818C1630.708,615.562,1631.271,615.911,1631.873,617.207z"/>
		<path opacity="0.1" fill="#0C0804" enable-background="new    " d="M1620.73,704.692c-0.102-1.097-3.277-5.346-4.571-7.433
			c-1.294-2.088-14.302-15.883-17.203-18.535c-2.903-2.651-5.027-3.887-5.304-5.48c-0.277-1.596-2.748-15.124-4.33-19.65
			c-1.583-4.523-6.905-28.627-7.042-32.247c-0.138-3.62-19.91-42.422-20.353-43.679c-0.438-1.257-7.479-4.439-9.515-5.421
			c-2.036-0.982-16.188-6.756-19.08-8.567c-2.891-1.811-12.72-5.712-13.812-5.608c-1.096,0.101-6.213,1.604-7.293,2.55
			c-0.336,0.291-3.771,2.048-8.349,4.33l0,0c0,0,16.688,2.186,20.84,3.166c4.152,0.979,16.365,9.244,18.877,9.803
			c2.513,0.559,6.938-0.078,8.709,1.938c1.773,2.019,18.462,34.912,18.496,39.559c0.036,4.643-1.438,8.502-1.438,8.502
			s1.713,23.146,3.189,29.193c1.479,6.043,2.121,24.229,5.873,25.883c3.752,1.647,10.183,9.139,11.33,10.006
			c1.147,0.868,13.9,21.479,18.177,22.268l0,0c3.25-1.588,5.729-2.733,6.673-3.063
			C1617.876,711.054,1620.833,705.786,1620.73,704.692z"/>
		<path fill="none" stroke="#706649" stroke-width="2" stroke-linecap="round" stroke-linejoin="round" stroke-miterlimit="10" d="
			M1492.417,583.614c0,0,1.785-6.605,9.008-10.965c7.227-4.36,23.745-15.31,42.912-7.643"/>
		<path fill="#B1BCBB" d="M1484.327,586.349c11.401-5.113,16.526-7.61,16.526-7.61l0.568,1.635l-16.468,7.781L1484.327,586.349z"/>
	</g>
</g>
<g id="Layer_8">
</g>
<g id="Layer_7">
</g>
<g>
	<path fill="#E5A045" d="M967.432,690.101l0.759-2.842l-5.511-4.429l0.063-4.453l-1.198-5.121l-4.645-2.186l-2.011-2.396
		l-2.013-1.85l-3.658,0.304l-1.298-5.015l-8.122-0.127l-3.146,0.112l-0.087,0.087c-0.733,0.186-3.775,1.169-5.789,1.946
		c-4.955,1.925-11.123,4.322-16.809,8.214c-7.789,5.347-10.585,11.644-13.819,18.93c-0.312,0.694-0.628,1.402-0.947,2.115v0.002
		l-0.002-0.003l-0.023,0.053c-0.074,0.166-0.149,0.33-0.226,0.495l-0.225,0.492c-0.232,0.512-0.465,1.021-0.712,1.541
		c-4.172,8.806-2.334,21.514-0.723,31.267c-0.002,0.004-0.004,0.009-0.006,0.013c0.078,0.48,0.158,0.96,0.234,1.426
		c0.001-0.001,0.001-0.003,0.003-0.004v0.006c0.002-0.001,0.002-0.002,0.002-0.002c0.005,0.022,0.008,0.046,0.012,0.066
		c0.155,0.932,0.397,1.896,0.724,2.872c1.494,4.463,5.138,10.075,10.868,12.454c1.123,0.464,2.554,0.748,4.173,0.885h0.002
		c-0.001,0.001-0.002,0.002-0.003,0.003c0.016,0.002,0.026,0.004,0.039,0.005c0.172,0.016,0.358,0.024,0.538,0.037
		c0.031,0.002,0.062,0.002,0.094,0.003c0.152,0.012,0.3,0.024,0.464,0.032c0.006-0.005,0.012-0.012,0.017-0.017h0.001
		c0.001-0.001,0.001-0.001,0.002-0.002c7.507,0.298,18.49-2.303,25.113-6.413c1.449-0.898,2.86-2.01,4.226-3.235
		c0.004,0.001,0.009,0.001,0.013,0.002c0.255-0.226,0.505-0.453,0.751-0.688c0.005-0.004,0.009-0.009,0.015-0.014
		c0.018-0.015,0.034-0.03,0.053-0.047c-0.001,0-0.002,0-0.003-0.001c5.917-5.604,10.747-13.472,12.69-18.379
		c0.688-1.742,1.271-3.417,1.837-5.05c-0.001,0-0.002-0.002-0.003-0.002c0.012-0.027,0.021-0.061,0.03-0.09l0.241-0.699
		l-0.004,0.002l0.006-0.005l-0.241,0.699c0.04-0.115,0.084-0.237,0.124-0.354c1.27-3.669,2.466-7.136,4.533-10.815
		c1.146-2.033,3.121-3.402,5.391-4.416l0.016-0.004l0.334-3.073L967.432,690.101z"/>
	<polyline opacity="0.2" fill="#6D4B22" enable-background="new    " points="936.567,662.186 935.028,680.447 962.801,697.29 
		969.242,695.507 969.576,692.434 967.432,690.101 968.189,687.259 962.68,682.83 962.743,678.377 961.545,673.256 956.9,671.07 
		954.891,668.674 952.878,666.824 949.22,667.128 947.922,662.113 939.8,661.986 936.654,662.1 	"/>
	<path fill="#C88B43" d="M949.188,706.134l0.342-0.482c2.972-4.249,5.415-8.264,7.296-11.984l-0.704-0.427
		c-1.88,3.72-4.358,7.775-7.399,12.104l-0.271,0.389l-0.412-0.229c-1.108-0.617-2.341-1.368-3.765-2.297
		c-6.123-4.039-11.673-9.212-16.497-15.376l-0.309-0.389l0.373-0.327c2.631-2.307,5.306-4.356,8.004-6.172l-0.806-0.488
		c-2.595,1.759-5.156,3.729-7.67,5.93l-0.427,0.373l-0.339-0.454c-3.6-4.837-6.718-10.229-9.271-16.037
		c-0.17,0.104-0.72,0.438-0.72,0.438c2.622,5.906,5.792,11.367,9.429,16.236l0.284,0.383c0,0-1.387,1.265-1.903,1.745
		c-5.56,5.312-10.912,11.694-15.919,18.979c0,0-0.399,0.593-0.511,0.735l-0.45,0.602l-0.407-0.632
		c-4.148-6.412-6.724-12.28-7.938-15.356c-0.08,0.183-0.165,0.361-0.247,0.543l-0.224,0.492c1.264,3.115,3.938,9.088,8.146,15.46
		l0.19,0.288l-0.188,0.291c-4.438,6.75-7.653,12.823-9.59,16.78c0.078,0.48,0.158,0.96,0.235,1.426
		c1.805-3.77,5.046-10.051,9.628-17.088l0.429-0.658l0.443,0.647c0.229,0.339,0.479,0.678,0.728,1.02l0.415,0.572
		c4.669,6.357,9.876,11.447,15.479,15.131c0.873,0.58,1.791,1.146,2.727,1.672l0.581,0.33l-0.459,0.486
		c-6.346,6.705-11.796,11.921-14.19,14.168c0.016,0.002,0.026,0.004,0.039,0.005c0.172,0.017,0.358,0.024,0.538,0.037
		c0.033,0.002,0.067,0.002,0.102,0.004c0.157,0.006,0.315,0.009,0.474,0.017c0.001-0.001,0.001-0.001,0.002-0.002
		c4.736-4.486,9.573-9.334,13.998-14.024l0.27-0.286l0.354,0.178c4.643,2.385,9.596,3.895,14.719,4.483
		c0.004,0.001,0.009,0.001,0.014,0.002c0.255-0.225,0.505-0.453,0.751-0.688c0.007-0.006,0.013-0.013,0.02-0.019
		c0.014-0.014,0.028-0.027,0.043-0.042c-5.08-0.493-10.016-1.915-14.682-4.239l-0.633-0.312l0.48-0.517
		c0.599-0.64,1.192-1.271,1.794-1.932c6.676-7.279,12.348-14.15,16.854-20.425l0.268-0.372l0.405,0.217
		c4.493,2.392,8.07,3.599,10.039,4.148v-0.001c0.011-0.028,0.021-0.062,0.03-0.091l0.24-0.699h-0.001
		c-1.953-0.554-5.426-1.729-9.707-3.986L949.188,706.134z M947.621,706.896c-4.962,6.868-11.288,14.432-18.802,22.472l-0.28,0.298
		l-0.354-0.196c-1.154-0.639-2.156-1.243-3.062-1.846c-5.521-3.63-10.655-8.644-15.264-14.901l-0.126-0.174
		c-0.503-0.703-0.992-1.39-1.465-2.089l-0.198-0.296l0.202-0.293c0.301-0.438,0.604-0.884,0.913-1.354
		c5.385-7.832,11.186-14.604,17.238-20.139l0.418-0.381l0.351,0.442c4.844,6.156,10.438,11.357,16.621,15.456
		c1.26,0.821,2.478,1.562,3.646,2.24l0.501,0.291L947.621,706.896z"/>
</g>
<g>
	<path fill="#E5A045" d="M585.273,688.076l-2.583-1.406l-5.604,4.311l-4.312-1.109l-5.26-0.042l-3.218,3.999l-2.803,1.388
		l-2.272,1.521l-0.565,3.627l-5.179,0.08l-2.037,7.862l-0.631,3.084l0.062,0.104c0.007,0.756,0.246,3.944,0.528,6.085
		c0.703,5.269,1.58,11.828,4.021,18.27c3.36,8.829,8.821,13.03,15.141,17.892c0.602,0.467,1.216,0.939,1.833,1.42h0.001
		l-0.003,0.001l0.046,0.035c0.144,0.11,0.284,0.224,0.428,0.336l0.427,0.334c0.441,0.347,0.883,0.691,1.33,1.055
		c7.574,6.129,20.357,7.337,30.215,8.068c0.003,0.003,0.008,0.006,0.011,0.009c0.485,0.038,0.971,0.073,1.441,0.106
		c-0.001-0.001-0.003-0.002-0.003-0.003l0.006,0.001c0-0.002-0.001-0.002-0.001-0.002c0.023,0.001,0.046,0.004,0.067,0.005
		c0.941,0.068,1.937,0.061,2.961-0.026c4.688-0.4,11.002-2.618,14.664-7.628c0.715-0.981,1.329-2.306,1.843-3.848v-0.002
		c0,0.002,0.001,0.003,0.002,0.005c0.005-0.015,0.01-0.024,0.014-0.037c0.057-0.163,0.108-0.344,0.163-0.515
		c0.009-0.029,0.018-0.061,0.025-0.091c0.047-0.146,0.095-0.285,0.141-0.443c-0.003-0.006-0.008-0.013-0.011-0.019v-0.001
		c0-0.001,0-0.001-0.001-0.002c2.058-7.226,2.119-18.513-0.315-25.918c-0.531-1.621-1.278-3.254-2.148-4.869
		c0.002-0.003,0.003-0.008,0.005-0.012c-0.158-0.301-0.322-0.599-0.492-0.893c-0.003-0.006-0.006-0.011-0.01-0.017
		c-0.01-0.021-0.021-0.042-0.033-0.062c0,0.001,0,0.003-0.001,0.003c-4.052-7.07-10.56-13.618-14.871-16.664
		c-1.53-1.079-3.021-2.04-4.475-2.976c0,0.001-0.001,0.002-0.001,0.003c-0.025-0.018-0.054-0.034-0.08-0.051l-0.624-0.399
		l0.001,0.005l-0.002-0.008l0.623,0.399c-0.104-0.066-0.211-0.138-0.314-0.204c-3.267-2.097-6.353-4.077-9.442-6.953
		c-1.706-1.594-2.571-3.835-3.021-6.279v-0.016l-2.908-1.049L585.273,688.076z"/>
	<polyline opacity="0.2" fill="#6D4B22" enable-background="new    " points="550.872,711.494 568.257,717.292 591.169,694.271 
		590.954,687.59 588.045,686.541 585.273,688.076 582.69,686.67 577.087,690.98 572.775,689.87 567.516,689.828 564.297,693.827 
		561.495,695.215 559.223,696.735 558.656,700.362 553.477,700.442 551.44,708.306 550.809,711.39 	"/>
	<path fill="#C88B43" d="M596.557,709.583l-0.39-0.445c-3.429-3.889-6.754-7.209-9.928-9.914l-0.581,0.584
		c3.172,2.703,6.531,6.067,10.021,10.043l0.313,0.354l-0.319,0.347c-0.86,0.933-1.881,1.952-3.119,3.117
		c-5.368,4.999-11.703,9.174-18.83,12.41l-0.449,0.207l-0.23-0.439c-1.621-3.1-2.984-6.182-4.112-9.231l-0.664,0.668
		c1.099,2.936,2.41,5.89,3.956,8.851l0.263,0.503l-0.521,0.224c-5.549,2.356-11.522,4.116-17.77,5.23
		c0.061,0.189,0.255,0.803,0.255,0.803c6.357-1.156,12.412-2.95,18.001-5.338l0.438-0.186c0,0,0.902,1.646,1.248,2.261
		c3.853,6.654,8.795,13.36,14.693,19.942c0,0,0.481,0.527,0.594,0.669l0.479,0.579l-0.71,0.247
		c-7.209,2.521-13.52,3.642-16.794,4.096c0.157,0.121,0.312,0.246,0.468,0.368l0.427,0.334c3.325-0.494,9.76-1.688,16.944-4.275
		l0.325-0.117l0.237,0.251c5.516,5.903,10.659,10.459,14.049,13.273c0.485,0.038,0.971,0.073,1.441,0.106
		c-3.238-2.642-8.579-7.271-14.338-13.383l-0.539-0.57l0.733-0.279c0.383-0.143,0.771-0.305,1.162-0.467l0.654-0.27
		c7.278-3.039,13.452-6.899,18.353-11.479c0.77-0.712,1.533-1.472,2.267-2.255l0.458-0.486l0.365,0.561
		c5.021,7.747,8.806,14.272,10.425,17.129c0.005-0.014,0.01-0.023,0.014-0.036c0.057-0.163,0.108-0.344,0.163-0.515
		c0.01-0.031,0.019-0.064,0.028-0.097c0.043-0.153,0.083-0.306,0.126-0.457c0-0.001,0-0.001-0.001-0.002
		c-3.244-5.66-6.815-11.503-10.332-16.909l-0.214-0.329l0.256-0.301c3.411-3.95,6.045-8.408,7.825-13.248
		c0.002-0.003,0.003-0.008,0.005-0.012c-0.158-0.301-0.322-0.599-0.492-0.893c-0.004-0.009-0.009-0.016-0.014-0.022
		c-0.011-0.018-0.021-0.034-0.031-0.052c-1.676,4.819-4.221,9.281-7.579,13.27l-0.452,0.541l-0.388-0.589
		c-0.48-0.732-0.956-1.459-1.455-2.198c-5.501-8.203-10.843-15.334-15.879-21.19l-0.298-0.35l0.306-0.342
		c3.383-3.804,5.398-6.996,6.397-8.779h-0.001c-0.025-0.018-0.055-0.033-0.08-0.051l-0.624-0.398v0.001
		c-0.998,1.769-2.958,4.865-6.161,8.493L596.557,709.583z M596.927,711.286c5.507,6.439,11.366,14.37,17.409,23.565l0.224,0.344
		l-0.273,0.298c-0.894,0.973-1.716,1.804-2.515,2.541c-4.829,4.511-10.91,8.317-18.078,11.323l-0.198,0.08
		c-0.802,0.322-1.584,0.638-2.375,0.932l-0.335,0.124l-0.237-0.267c-0.354-0.396-0.717-0.795-1.101-1.206
		c-6.344-7.078-11.559-14.312-15.511-21.498l-0.271-0.496l0.513-0.235c7.124-3.257,13.497-7.468,18.938-12.512
		c1.095-1.031,2.102-2.04,3.036-3.016l0.4-0.419L596.927,711.286z"/>
</g>
</svg>
