<?xml version="1.0" encoding="utf-8"?>
<!-- Generator: Adobe Illustrator 16.0.0, SVG Export Plug-In . SVG Version: 6.00 Build 0)  -->
<!DOCTYPE svg PUBLIC "-//W3C//DTD SVG 1.1//EN" "http://www.w3.org/Graphics/SVG/1.1/DTD/svg11.dtd">
<svg version="1.1" xmlns="http://www.w3.org/2000/svg" xmlns:xlink="http://www.w3.org/1999/xlink" x="0px" y="0px" width="1664px"
	 height="800px" viewBox="0 0 1664 800" enable-background="new 0 0 1664 800" xml:space="preserve">
<g id="Layer_1">
	<g id="Dirt">
	</g>
	<g id="Eggshell_3">
		<g>
			<g>
				<polygon fill="#FFE9E9" points="1236.274,72.957 1238.599,67.253 1244.754,70.796 1253.803,72.596 1256.618,82.153 
					1272.111,92.762 1271.787,105.994 1283.67,111.761 1279.527,122.426 1284.214,125.906 1285.7,137.418 1295.791,150.575 
					1299.505,164.98 1306.931,178.945 1306.469,190.073 1308.867,195.786 1302.965,203.061 1302.914,198.297 1288.64,191.4 
					1283.539,170.399 1267.058,153.718 1263.577,112.309 1250.195,106.239 				"/>
				<path fill="#FFE9E9" d="M1263.216,158.439"/>
				<path fill="#F6AF82" d="M1302.965,203.061l5.902-7.275l-2.394-5.717l0.457-11.123l-7.426-13.964l-3.709-14.412l-10.099-13.148
					l-1.483-11.516l-4.68-3.489l4.151-10.67l-11.872-5.776l0.327-13.243l-15.469-10.641l-2.77-9.6l-8.935-1.92l-5.94-3.756
					c0,0,43.777-19.234,88.103-3.822c44.336,15.408,40.347,61.792,30.53,79.931C1347.84,161.062,1339.152,176.92,1302.965,203.061z"
					/>
			</g>
		</g>
	</g>
	<g id="Eggshell_3_1_">
		<g>
			<g>
				<polygon fill="#FFE9E9" points="427.915,141.071 429.315,147.083 422.229,147.748 413.785,151.514 405.95,145.326 
					387.134,145.616 379.74,134.604 366.681,136.766 363.896,125.644 358.047,125.51 350.167,116.953 334.296,112.032 
					322.919,102.398 308.76,95.274 302.697,85.903 297.428,82.619 298.044,73.25 300.844,77.118 316.513,74.497 332.842,88.723 
					355.981,92.828 382.799,124.687 397.261,121.904 				"/>
				<path fill="#FFE9E9" d="M356.391,86.742"/>
				<path fill="#F6AF82" d="M298.044,73.25l-0.616,9.368l5.267,3.292l6.065,9.363l14.159,7.125l11.377,9.642l15.872,4.909
					l7.879,8.562l5.848,0.145l2.782,11.131l13.055-2.148l7.398,11.023l18.813-0.25l7.823,6.25l8.42-3.602l7.034-0.367
					c0,0-24.676,41.077-69.856,54.129c-45.188,13.061-68.776-27.19-71.246-47.711C285.648,133.583,283.575,115.583,298.044,73.25z"
					/>
			</g>
		</g>
	</g>
	<g id="Apple_1_">
		<g>
			<path fill="#2D261F" d="M98.526,97.39c2.772-15.031-3.213-44.575-11.715-57.747c0,0-1.879-2.295,0.506-3.314
				c2.394-1.007,7.631-4.141,8.801-3.737c1.176,0.417,1.705,1.019,1.688,1.836c-0.017,0.837-0.296,1.038-0.169,2.177
				c0.106,1.138,2.809,48.112,9.363,55.358"/>
			<path fill="#E8DFB1" d="M181.067,119.74"/>
			<path fill="#E8DFB1" d="M38.436,330.237c13.494,10.763,28.407,8.481,32.767,9.169c4.356,0.697,22.626-3.329,29.401-4.185
				c6.788-0.864,16.552,2.85,27.388,5.944c10.847,3.11,67.457-13.828,74.056-15.673c6.597-1.832,45.067-20.505,45.951-20.663
				c0.871-0.167,7.799-5.085,7.599-7.765c-0.195-2.688,3.76-7.35,4.234-9.65"/>
			<path fill="#E8DFB1" d="M260.678,286.828l-14.933-6.244c-5.484,1.336-13.076,0.751-15.911,0.062l-58.321-23.606l-9.798-21.071
				l-5.001-65.137l15.438-32.064l36.75-43.788c1.375-1.093,5.582-1.722,4.861-2.271c-9.313-6.939-30.305-8.601-47.368-7.07
				c-17.082,1.54-84.746,15.106-97.582,18.263c-12.843,3.157-38.843,18.301-41.35,20.265c-2.494,1.974-12.884,12.226-13.976,17.256
				c-1.094,5.038,0.363,6.752,0.363,6.752c1.003,1.878,7.416,1.2,7.416,1.2l41.181,11.211l26.31,57.233l11.351,15.877L97.73,262.7
				l-29.851,48.177l-29.444,19.355"/>
			<path fill="#F34044" d="M13.722,148.01c0,0-3.145-4.975-2.131-8.491c1.021-3.512,2.658-8.251,3.973-10.916
				c1.307-2.65,13.571-14.867,33.415-20.087c19.857-5.218,19.83-9.447,25.332-12.285c5.499-2.838,24.79-8.862,33.188-9.823
				c8.416-0.977,15.359-0.918,21.143-2.303c5.792-1.385,11.572-3.51,15.827-3.412c4.241,0.113,8.631,2.617,15.344,1.357
				c6.707-1.262,16.863-0.275,21.293,0.841c4.438,1.15,26.74,1.836,32.706,9.936c-2.12-1.113-12.834-3.728-21.646-5.101
				c-8.805-1.369-17.465,0.247-19.398,0.307c-1.942,0.058-0.926,2.884-0.239,3.371c0.677,0.466,2.239,3.385,0.602,3.2
				c-1.643-0.187-3.479,3.462-4.545,3.666c-1.079,0.202,2.009,3.542,0.825,4.478c-1.175,0.926-9.06,4.256-10.687,5.521
				c-1.616,1.253-4.026,2.418-6.43,2.213c-2.397-0.193-10.487,0.652-11.753,1.7c-1.271,1.043-4.804,7.941-5.264,10.09
				c-0.454,2.154-2.469,1.318-2.469,1.318s-4.864-2.012-7.45-2.948c-2.579-0.925-6.983-2.918-11.005-3.973
				c-4.026-1.063-13.046-5.205-19.315-7.456c-6.253-2.256-16.776-1.49-23.344-1.069c-6.56,0.425-16.229,1.431-29.444,14.768
				c-13.2,13.339-17.958,11.607-21.651,12.309C16.925,135.903,13.478,145.647,13.722,148.01z"/>
			<path fill="#F34044" d="M38.44,328.13c0,0-0.737,2.448,0.17,3.269c0.902,0.808,9.301,6.559,11.136,7.491
				c1.845,0.943,13.954,8.012,28.205,10.42c8.983,1.524,16.304,2.879,25.229,2.833c8.942,1.045,13.331-1.815,18.222-2.651
				c6.56-1.106,26.202-9.5,32.824-10.624c6.643-1.13,16.221,1.369,26.52,0.181c11.38-1.318,30.109-4.51,34.626-6.156
				c4.515-1.66,10.414-1.915,20.326-9.164c12.219-8.931,16.029-18.316,17.365-20.16c0.201-0.283,2.492-4.44,2.492-4.44
				s2.499-7.798,3.47-9.744c0.394-0.8,0.697-0.91,0.823-1.981c0.019-0.151,0.118-0.625,0-0.545c-0.396,0.254-6.414,0.596-6.867,0.63
				c-1.892,0.122-9.005,12.788-9.124,12.822c-2.677,0.772-9.707,3.774-12.994,1.529c-3.809-2.597-7.904-6.729-8.927-5.728
				c-1.018,1.003-1.712,2.888-3.828,4.494c-2.122,1.6-0.237,4.412-1.746,7.113c-1.519,2.695-20.235,3.79-26.451,4.954
				c-6.228,1.166-35.905,3.908-41.494,4.135c-5.595,0.247-17.695-6.352-18.647-4.974c-0.932,1.406-14.947,10.455-18.679,9.859
				c-3.735-0.597-19.672,4.571-24.515,4.583c-4.826,0.01-3.569-4.073-5.981-4.025c-2.406,0.042-9.991,4.683-15.537,7.34
				c-5.545,2.644-16.34,3.044-17.507,3.278C46.367,333.091,38.879,330.468,38.44,328.13z"/>
			<path fill="#D3B48C" d="M77.323,142.169c0.884-16.851,29.05,9.206,30.911,19.125c1.854,9.922-3.916,14.621,1.551,24.472
				c5.459,9.838-0.193,24.798-6.311,21.096c-6.119-3.669-19.424-19.912-17.968-25.017C86.969,176.754,77.095,146.592,77.323,142.169
				z"/>
			<path fill="#D3B48C" d="M125.436,237.171c0.88,17.625-3.365,33.63-6.354,40.224c-2.994,6.6-15.246,14.431-15.199,16.838
				c0.078,2.399,17.918,0.945,20.022-0.662c2.109-1.611,8.369-16.643,7.957-21.988c-0.399-5.365,0.957-23.937,1.218-25.8
				c0.262-1.869-4.734-9.145-4.734-9.145L125.436,237.171z"/>
			<path fill="#D3B48C" d="M152.805,121.988c-3.33-1.622-6.048-3.25-8.537,2.813c-2.494,6.064-4.197,13.024-4.197,13.024
				s15.568,2.525,15.604-0.502c0.033-3.031-8.277-5.484-1.566-8.358c6.703-2.871,9.838-2.253,14.079-5.455
				c4.231-3.206,4.754-3.64,6.204-5.552c1.467-1.923-1.823-9.768-1.823-9.768s-4.156-2.835-4.671,0.876
				c-0.51,3.722-1.376,12.008-4.005,10.85C161.258,118.77,152.805,121.988,152.805,121.988z"/>
			<path fill="#D3B48C" d="M185.462,276.68c8.655,8.038,7.556,11.868,14.417,13.001c6.854,1.12,10.457,7.492,12.479,5.401
				c2.037-2.085-2.488-0.434-2.021,2.092c0.475,2.531-2.922,3.774-5.033,5.366c-2.105,1.606-10.304,1.932-14.478,2.713
				c-4.179,0.781-12.798-0.024-12.798-0.024s-11.643-10.566-8.6-10.502c3.032,0.074,8.424-3.355,10.324-6.116
				C181.652,285.84,185.462,276.68,185.462,276.68z"/>
		</g>
	</g>
	<g id="Eggshell_2_1_">
		<g>
			<g>
				<polygon fill="#FFE9E9" points="1050.836,164.933 1044.939,167.668 1042.661,160.958 1037.164,153.524 1041.543,144.612 
					1037.351,126.314 1046.574,116.819 1041.744,104.522 1052.035,99.498 1050.939,93.771 1057.682,84.311 1059.196,67.802 
					1066.243,54.694 1070.271,39.404 1078.163,31.543 1080.279,25.728 1089.567,24.383 1086.357,27.926 1099.889,38.85 
					1081.215,48.102 1093.727,79.287 1063.223,107.122 1080.221,148.055 				"/>
				<path fill="#FFE9E9" d="M1088.45,84.137"/>
				<path fill="#F6AF82" d="M1089.567,24.383l-9.284,1.34l-2.12,5.82l-7.892,7.861l-4.024,15.292l-7.051,13.105l-1.515,16.509
					l-6.745,9.461l1.08,5.734l-10.3,5.016l4.797,12.31l-9.236,9.497l4.142,18.314l-4.494,8.927l5.262,7.47l1.815,6.795
					c0,0-45.199-15.597-67.277-57.012c-22.1-41.407,12.32-72.759,31.84-79.411C1028.094,24.762,1045.247,19.014,1089.567,24.383z"/>
			</g>
		</g>
	</g>
	<g id="Eggshell_1">
		<g>
			<polyline fill="#FFE9E9" points="37.273,729.227 32.388,728.189 43.726,693.175 58.608,694.9 60.348,665.795 87.8,662.492 
				96.259,650.784 119.453,647.01 116.986,634.865 136.933,628.668 143.367,635.951 141.154,657.375 98.036,710.169 45.488,736.396 
				31.76,732.618 			"/>
			<path fill="#F6AF82" d="M137.353,630.019l0.254,6.329l-1.752,6.252l-5.427,5.201l-0.665,2.264l-2.8,2.924l-3.618,2.299
				l-6.539,0.856l-0.118,6.753c0,0-5.044-0.378-5.809,0.302c-0.761,0.683-8.476,11.181-9.427,12.044
				c-0.943,0.839-14.654,4.75-14.654,4.75l-3.637,3.602l-1.212,9.349c0,0-7.894,2.663-8.726,4.792
				c-0.838,2.131-7.372,6.32-7.372,6.32s-7.175,9.594-7.755,10.465c-0.589,0.865-2.802,1.855-3.752,2.71
				c-0.943,0.852-1.573,5.88-1.573,5.88s-4.791,1.934-5.554,2.625c-0.751,0.678-9.054,0.271-9.054,0.271l-0.886,3.214l-4.887-1.04
				l-0.612,4.479c4.46,4.923,36.135,36.115,66.11,37.243c29.971,1.132,37.687-1.762,54.499-16.307
				c16.821-14.541,20.356-45.653,18.375-60.411C168.777,678.443,161.309,653.826,137.353,630.019z"/>
		</g>
	</g>
	<g id="Banana">
		<g>
			<path fill="#FFDD50" d="M60.117,495.2c0,0-7.669,62.28,91.021,54.02c22.647-1.899,55.485-7.597,82.425-40.536
				c13.347-16.331,48.027-78.118,68.402-79.475c20.363-1.34,27.429,2.029,38.217-0.733c10.783-2.757,27.616-21.559,27.616-21.559
				l16.809,12.742c0,0-20.003,11.526-23.188,23.871c-2.413,9.359,1.416,12.655,8.307,21.501
				c10.802,13.889,8.762,79.358,2.423,114.212c-6.329,34.851-17.295,66.164,8.359,101.759c5.862,8.127,26.983,19.906,33.682,21.185
				c16.015,3.044,31.25-8.667,39.552-12.795c8.515-4.253,10.62-4.438,11.885-2.382c2.056,3.34-22.725,57.664-56.77,52.97
				c-34.069-4.697-60.903-20.835-77.443-68.938c-16.127-46.908-15.149-78.805-9.61-113.625c0,0-33.975,37.141-37.158,80.524
				c-3.149,43.078-0.029,47.014,5.124,58.854c5.74,13.158,15.201,25.466,31.877,35.779c16.683,10.307,18.335,8.729,20.747,9.87
				c2.411,1.153,3.55,4.959,2.513,7.129c-1.024,2.167-3.592,11.305-12.836,14.588c-9.255,3.283-48.364-4.085-69.582-26.016
				c-21.21-21.938-44.582-56.732-34.676-106.749c9.911-50.015,26.115-82.825,27.956-86.088c0,0-16.011,12.488-28.729,21.824
				c-12.72,9.337-66.957,30.053-88.83,27.923c-21.869-2.117-92.392-7.298-103.813-54.538c0,0-8.901-26.157,6.012-39.559
				C57.124,485.933,59.475,492.814,60.117,495.2z"/>
			<path fill="#302A0F" d="M361.185,452.142c-0.688-2.435-0.673-5.092,0.234-8.613c3.179-12.336,23.188-23.871,23.188-23.871
				l-16.808-12.743c0,0-16.833,18.805-27.618,21.562c-3.22,0.819-6.11,1.097-9.116,1.117
				C334.982,436.965,343.418,447.048,361.185,452.142z"/>
		</g>
	</g>
	<g id="Tomato">
		<g>
			<polyline fill="#FF9076" points="1250.673,772.19 1299.02,713.307 1338.666,633.956 1338.968,633.72 1311.111,571.361 
				1187.603,637.519 1170.73,767.254 			"/>
			<path fill="#529756" d="M1320.474,724.108c-0.71,2.191-19.287-0.753-18.517,8.335c0.904,10.659,0.481,23.961-6.842,34.943
				c0.005,6.611,0.671,11.937,2.027,14.502l14.086-27.303c0,0,24.498,21.197,36.835,32.791c0,0-26.31-44.622-27.625-54.79
				l38.983-21.591c-2.412,0.571-9.17,0.154-17.256,0.15C1332.619,721.81,1320.474,724.108,1320.474,724.108z"/>
			<path fill="#FF5B29" d="M1170.73,767.254L1170.73,767.254c18.557,14.485,47.585,30.103,95.119,18.573
				c14.873-3.61,23.915-10.403,29.264-18.442c7.318-10.977,7.836-23.167,6.925-33.825c-0.767-9.083,11.407-5.284,18.262-8.116
				c0,0,12.317-3.635,21.865-14.297c2.449-2.736,4.733-6.019,6.596-9.971c9.076-19.318,18.014-51.368,4.519-86.793
				c-5.698-14.955-21.446-31.04-42.164-43.219C1311.169,571.429,1293.49,728.562,1170.73,767.254z"/>
			<path fill="#B53C1F" d="M1260.43,683.984c6.915-10.84,16.316-31.285,17.702-42.729c1.376-11.438-27.442-2.963-34.716-3.042
				c-10.488-0.115-30.196-4.298-33.55,6.191c-3.358,10.491,4.849,30.585,8.088,41.496c2.33,7.845,9.225,30.51,15.499,28.534
				C1239.733,712.455,1260.43,683.984,1260.43,683.984z"/>
			<path fill="#B53C1F" d="M1209.22,625.933c-2.696,6.43,55.822,5.396,62.075,1.299c8.257-5.412,14.312-13.07,16.519-23.654
				c1.113-5.289-5.298-16.256-11.548-13.541"/>
			<path fill="#B53C1F" d="M1185.892,650.714c6.489,2.422,17.309,11.445,20.167,20.992c3.745,12.504,18.382,36.228,17.407,44.666
				c-0.966,8.437-5.214,13.775-12.757,20.239c0,0-13.319,12.989-36.946,7.388L1185.892,650.714z"/>
			<path fill="#F9A565" d="M1266.615,620.994c1.562-6.006-3.817-5.598-7.04-5.394c-3.205,0.188-10.687,4.372-7.78,5.453
				C1254.708,622.132,1264.591,628.772,1266.615,620.994z"/>
			<path fill="#F9A565" d="M1234.699,696.78c5.126-0.217,6.025-3.383,5.649-5.992c-0.375-2.614-5.674-12.643-7.444-11.65
				c-1.776,0.998-1.889,1.306-1.967,2.804C1230.856,683.428,1226.026,697.141,1234.699,696.78z"/>
			<path fill="#F9A565" d="M1201.68,725.483c4.607-2.479,6.504-2.731,5.966-5.881c-0.54-3.158-7.507-13.755-9.967-15.249
				c-2.466-1.509-2.852-0.212-3.534,1.489c-0.683,1.695,0.418,6.296,1.348,8.719C1196.422,716.991,1197.085,727.962,1201.68,725.483
				z"/>
			<path fill="#F9A565" d="M1270.224,602.876c-1.933-5.406-7.041-3.13-10.672,0.253c-3.628,3.388-5.155,6.217-2.253,7.215
				C1260.212,611.341,1273.777,612.871,1270.224,602.876z"/>
			<path fill="#F9A565" d="M1265.679,649.614c0.779-4.628-1.079-7.358-3.108-7.529c-2.031-0.179-9.271-0.146-11.171,0.615
				c-2.243,0.908-3.46,1.578-1.975,4.997c0.82,1.86,2.963,4.091,10.415,6.578C1264.156,655.71,1265.214,652.369,1265.679,649.614z"
				/>
			<path fill="#F9A565" d="M1262.162,665.883c-3.15,3.736-4.322,3.906-6.745,2.956c-2.428-0.95-7.928-7.084-7.582-8.972
				c0.355-1.893,0.236-1.723,2.737-1.918c2.485-0.193,9.641-0.261,11.663,2.313C1264.26,662.827,1263.857,663.892,1262.162,665.883z
				"/>
			<path fill="#F9A565" d="M1212.56,712.962c-4.814,0.897-6.001-0.086-7.795-3.536c-1.794-3.461-3.886-15.616-2.605-17.312
				c1.258-1.702,1.083-1.639,3.504,0.65c2.423,2.284,9.16,9.344,9.777,14.159C1216.051,711.74,1215.144,712.489,1212.56,712.962z"/>
			<path fill="#F9A565" d="M1183.311,732.122c2.643,0.32,7.944,0.844,8.153-4.987c0.209-5.834-3.034-18.523-5.227-18.438
				c-2.198,0.085-6.758,8.425-6.974,15.889C1179.052,732.049,1181.197,731.853,1183.311,732.122z"/>
			<path fill="#F9A565" d="M1249.647,682.767c2.77-2.757,4.482-3.629,4.657-5.513c0.202-1.882-8.421-8.333-12.775-7.493
				c-2.463,0.479-2.124,3.827-0.891,5.384C1241.855,676.685,1245.506,686.892,1249.647,682.767z"/>
		</g>
	</g>
	<g id="Beet_2_">
		<g>
			<path fill="#52A76C" d="M660.622,47.577c-0.821,4.112-23.408,23.933-29.692,27.684c-10.224,6.108-20.352,9.005-30.886,14.104
				c9.365-6.931,13.104-9.786,22.399-26.451c6.598-11.834,22.366-29.025,29.609-27.845c1.099,0.18,2.116,0.479,3.014,0.911
				C660.145,38.34,661.173,44.217,660.622,47.577z"/>
			<path fill="#52A76C" d="M603.706,97.478c7.038-0.818,15.918-2.156,24.971-4.141c7.096-1.559,25.266-0.781,37.195,7.943
				c4.102,3.001,6.509,6.699,7.147,10.973c0.66,4.392,0.722,10.132-2.692,12.483c-4.252,2.913-12.768,0.459-19.325-3.269
				C641.66,116.163,623.037,103.907,603.706,97.478z"/>
			<path fill="#52A76C" d="M760.599,42.849c0.575,0.292,1.118,0.58,1.635,0.868c10.673,6.164,7.685,14.154,3.714,21.807
				c-2.538,4.883-29.298,13.023-38.745,12.701c-9.275-0.317-85.546,6.558-104.571,11.454c-11.743,3.023-17.269,4.404-19.688,4.995
				l-0.357-0.547c13.423-5.97,73.747-32.66,95.228-40.159c2.499-0.868,4.988-1.746,7.479-2.631
				C726.962,43.618,747.42,36.335,760.599,42.849z"/>
			<path fill="#E23C7B" d="M603.717,103.221c19.854,35.539,0.708,59.106-16.525,75.524c-1.254-24.184-19.562-63.585-23.546-71.165
				c-3.97-7.568-47.744-62.806-74.789-52.888c7.925-2.973,16.776-5.649,26.09-8.48c28.745-8.73,52.965,8.773,62.14,15.731
				C586.295,68.903,592.554,81.025,603.717,103.221z"/>
			<path fill="#B51561" d="M564.68,107.853c3.977,7.581,24.698,48.015,24.568,71.442l-0.004,0.006l0.004-0.006l-60.382-61.464
				l-39.647-63.208l-0.216-0.066c0.035,0.005,0.455,0.21,0.497,0.188C516.532,44.82,560.707,100.282,564.68,107.853z"/>
		</g>
	</g>
	<g>
		<path fill="#956034" d="M1553.541,312.273c0.847,5.319-1.398,11.685-11.94,20.396c-11.402,9.424-47.743,28.385-66.013,41.514
			c-18.268,13.128-51.514,38.184-60.84,44.107c-9.327,5.922-21.815,21.28-39.216,13.49c-10.976-4.915-13.38-12.057-21.957-25.491
			c-21.513-33.69-24.024-37.865-30.445-48.029c-6.42-10.165-11.854-16.76-11.717-22.887c0.136-6.127,0.831-12.586,4.074-16.026
			c0,0-11.99,3.349-17.187-6.03c-5.117-9.231-15.144-18.104-11.548-40.88c-5.229,0.242-9.386,2.664-13.836,5.004
			c-0.038,0.53-0.077,1.084-0.12,1.667c-0.964,12.731,5.414,20.339,7.185,24.161c8.922,19.273,12.91,18.817,12.91,18.817
			c6.575,7.076,13.187,5.516,13.187,5.516c-2.107,2.977-2.503,6.657-2.503,6.657c-1.818,5.819,0.655,10.704,4.123,16.719
			c3.47,6.015,17.756,30.046,23.405,38.641c5.648,8.595,7.381,15.859,30.401,43.529c23.021,27.669,43.331,2.777,50.771-3.368
			c7.438-6.146,48.902-36.398,53.554-40.348c4.652-3.951,30.338-19.437,34.953-22.181c4.615-2.744,35.013-21.355,41.637-26.155
			c6.625-4.799,12.865-13.141,14.982-18.276c1.122-2.721,0.666-6.413-0.585-10.284
			C1555.719,312.445,1554.625,312.358,1553.541,312.273z"/>
		<path fill="#DECAAA" d="M1465.854,303.825c-14.013,2.515-68.381-6.515-77.806-7.696c-9.425-1.181-69.872-10.473-88.264-20.216
			c-5.182-2.745-9.37-3.644-13.031-3.476c-3.596,22.776,6.431,31.649,11.548,40.88c5.196,9.379,17.187,6.03,17.187,6.03
			c-3.243,3.439-3.938,9.898-4.074,16.026c-0.137,6.127,5.297,12.722,11.717,22.887c6.421,10.164,8.933,14.339,30.445,48.029
			c8.577,13.435,10.981,20.576,21.957,25.491c17.4,7.79,29.889-7.568,39.216-13.49c9.326-5.924,42.572-30.979,60.84-44.107
			c18.27-13.129,54.61-32.09,66.013-41.514c10.542-8.711,12.787-15.077,11.94-20.396c-10.277-0.798-19.699-1.304-22.376-0.756
			C1524.539,312.872,1479.865,301.31,1465.854,303.825z"/>
		<path opacity="0.2" fill="#938572" d="M1434.956,364.456c-0.034,0.099-0.065,0.199-0.09,0.3c-0.147,0.388-0.12,0.84,0.076,1.206
			c0.469,0.871,1.506,1.297,2.458,1.157c1.156-0.169,2.246-1.067,2.047-2.329c-0.154-0.968-1.051-1.627-1.95-1.834
			C1436.373,362.697,1435.325,363.39,1434.956,364.456z"/>
		<path opacity="0.2" fill="#938572" d="M1454.488,331.735c-0.034,0.099-0.065,0.199-0.09,0.3c-0.146,0.388-0.119,0.838,0.077,1.205
			c0.469,0.871,1.504,1.297,2.457,1.158c1.157-0.169,2.247-1.067,2.047-2.33c-0.153-0.968-1.051-1.626-1.951-1.834
			C1455.905,329.976,1454.858,330.668,1454.488,331.735z"/>
		<path opacity="0.2" fill="#938572" d="M1420.334,321.023c-0.033,0.099-0.065,0.201-0.091,0.3
			c-0.146,0.389-0.119,0.838,0.077,1.205c0.469,0.872,1.506,1.297,2.458,1.158c1.158-0.168,2.246-1.067,2.048-2.329
			c-0.154-0.968-1.051-1.627-1.951-1.834C1421.752,319.265,1420.705,319.957,1420.334,321.023z"/>
		<path opacity="0.2" fill="#938572" d="M1440.094,326.725c-0.034,0.098-0.066,0.198-0.091,0.299
			c-0.146,0.388-0.119,0.838,0.078,1.206c0.467,0.871,1.504,1.296,2.456,1.157c1.158-0.168,2.247-1.067,2.047-2.33
			c-0.153-0.967-1.05-1.626-1.95-1.834C1441.511,324.965,1440.463,325.657,1440.094,326.725z"/>
		<path opacity="0.2" fill="#938572" d="M1508.32,320.839c-0.033,0.098-0.064,0.199-0.09,0.3c-0.146,0.388-0.12,0.84,0.077,1.205
			c0.47,0.872,1.506,1.297,2.457,1.158c1.157-0.169,2.246-1.067,2.048-2.33c-0.154-0.967-1.051-1.626-1.95-1.834
			C1509.737,319.08,1508.69,319.772,1508.32,320.839z"/>
		<path opacity="0.2" fill="#938572" d="M1488.587,332.571c-0.035,0.099-0.065,0.199-0.09,0.3c-0.147,0.388-0.12,0.839,0.076,1.205
			c0.47,0.872,1.506,1.298,2.458,1.157c1.158-0.168,2.245-1.066,2.046-2.328c-0.152-0.968-1.049-1.628-1.95-1.834
			C1490.004,330.812,1488.957,331.504,1488.587,332.571z"/>
		<path opacity="0.2" fill="#938572" d="M1493.657,350.881c-0.035,0.099-0.065,0.199-0.091,0.3
			c-0.146,0.388-0.119,0.839,0.078,1.205c0.469,0.872,1.504,1.297,2.456,1.157c1.158-0.168,2.246-1.066,2.048-2.329
			c-0.154-0.967-1.049-1.626-1.95-1.834C1495.074,349.121,1494.026,349.814,1493.657,350.881z"/>
		<path opacity="0.2" fill="#938572" d="M1417.582,344.205c-0.329,0.839-0.664,1.765-0.304,2.651c0.13,0.317,0.52,0.458,0.827,0.324
			c0.096-0.041,0.212-0.327,0.273-0.404c0.007-0.001,0.051-0.226,0.056-0.225c0.006,0,0.009,0.001,0.014,0.002
			c0.059,0.01,0.071,0.231,0.123,0.234c0.195,0.136,0.435,0.263,0.665,0.254c0.396-0.017,0.805-0.22,1.093-0.476
			c0.35-0.312,0.648-0.703,0.689-1.184c0.052-0.628-0.374-1.081-0.921-1.322c-0.57-0.249-1.25-0.265-1.863-0.257
			C1417.949,343.807,1417.694,343.921,1417.582,344.205z"/>
		<path opacity="0.2" fill="#938572" d="M1406.675,368.571c-0.138,0.031-0.272,0.074-0.4,0.126c-0.338,0.138-0.499,0.619-0.276,0.92
			c-0.11,0.158-0.148,0.362-0.044,0.582c0.198,0.418,0.535,0.642,0.88,0.923c0.164,0.135,0.437,0.169,0.628,0.073
			c0.038-0.019,0.075-0.041,0.112-0.062c0.207-0.001,0.416-0.03,0.617-0.083c0.274-0.073,0.493-0.269,0.526-0.541
			c0.227-0.109,0.43-0.274,0.599-0.502c0.199-0.269,0.152-0.68-0.126-0.878c-0.584-0.415-1.194-0.744-1.901-0.881
			C1407.038,368.197,1406.797,368.356,1406.675,368.571z"/>
		<path opacity="0.2" fill="#938572" d="M1429.963,356.943c1.006-0.894,0.217-2.239-0.721-2.799c-0.5-0.3-1.081-0.491-1.669-0.394
			c-0.679,0.113-1.175,0.627-1.396,1.259c-0.064,0.191-0.043,0.395,0.053,0.557c-0.103,0.257-0.017,0.555,0.207,0.735
			c0.122,0.099,0.252,0.185,0.389,0.258c0.173,0.439,0.574,0.745,1.077,0.867C1428.555,357.583,1429.454,357.395,1429.963,356.943z"
			/>
		<path opacity="0.2" fill="#938572" d="M1473.473,338.829c1.005-0.894,0.217-2.238-0.721-2.799c-0.499-0.299-1.08-0.491-1.67-0.394
			c-0.676,0.113-1.172,0.627-1.395,1.26c-0.066,0.19-0.045,0.395,0.052,0.556c-0.102,0.257-0.017,0.555,0.206,0.735
			c0.124,0.1,0.254,0.185,0.39,0.258c0.173,0.44,0.575,0.746,1.078,0.867C1472.064,339.471,1472.965,339.28,1473.473,338.829z"/>
		<path opacity="0.2" fill="#938572" d="M1399.265,316.176c1.004-0.893,0.216-2.238-0.722-2.798c-0.5-0.299-1.08-0.491-1.669-0.394
			c-0.678,0.113-1.175,0.627-1.394,1.259c-0.067,0.191-0.046,0.396,0.051,0.557c-0.103,0.258-0.017,0.556,0.205,0.735
			c0.124,0.099,0.253,0.184,0.39,0.258c0.173,0.438,0.576,0.746,1.078,0.866C1397.855,316.817,1398.755,316.628,1399.265,316.176z"
			/>
		<path opacity="0.2" fill="#938572" d="M1429.529,381.244c-0.347-0.749-1.053-1.307-1.885-1.391
			c-0.936-0.095-1.792,0.452-2.306,1.199c-0.354,0.514-0.377,1.177-0.055,1.678c-0.002,0.101,0,0.203,0.007,0.308
			c0.029,0.438,0.239,0.816,0.475,1.174c0.299,0.45,0.877,0.579,1.376,0.54c0.82-0.063,1.703-0.427,2.177-1.129
			C1429.794,382.919,1429.888,382.02,1429.529,381.244z"/>
		<path opacity="0.2" fill="#938572" d="M1447.109,344.981c-0.795,0.071-1.339,0.925-1.222,1.675
			c0.025,0.162,0.08,0.319,0.156,0.464c0.008,0.171,0.047,0.341,0.116,0.5c0.315,0.723,1.14,1.042,1.864,0.782
			c0.01-0.001,0.021-0.003,0.031-0.006c0.352-0.076,0.559-0.157,0.853-0.358c0.256-0.175,0.451-0.471,0.565-0.754
			c0.137-0.346,0.129-0.673,0.104-1.038c-0.034-0.49-0.462-0.979-0.913-1.137C1448.146,344.925,1447.65,344.935,1447.109,344.981z"
			/>
		<path opacity="0.2" fill="#938572" d="M1460.193,352.496c-0.794,0.07-1.34,0.925-1.222,1.674c0.026,0.164,0.079,0.32,0.156,0.466
			c0.008,0.168,0.046,0.338,0.115,0.5c0.315,0.722,1.141,1.04,1.864,0.781c0.011-0.001,0.021-0.005,0.033-0.007
			c0.352-0.076,0.559-0.157,0.851-0.358c0.256-0.175,0.452-0.47,0.565-0.753c0.139-0.347,0.129-0.673,0.103-1.04
			c-0.033-0.488-0.461-0.978-0.912-1.138C1461.229,352.439,1460.733,352.448,1460.193,352.496z"/>
		<path opacity="0.2" fill="#938572" d="M1380.184,370.135c-0.086-0.194-0.188-0.369-0.305-0.55
			c-0.18-0.281-0.467-0.464-0.762-0.599c-0.343-0.157-0.782-0.126-1.122,0.021c-0.354,0.154-0.407,0.312-0.55,0.672
			c-0.143,0.36,0.053,0.656,0.247,0.986c0.063,0.107,0.127,0.214,0.193,0.323c0.022,0.04-0.169,0.206-0.137,0.239
			c0.339,0.694,1.077,1.081,1.789,0.77C1380.271,371.677,1380.503,370.867,1380.184,370.135z"/>
		<path opacity="0.2" fill="#938572" d="M1390.404,341.268c-0.743-0.292-1.607,0.085-1.899,0.829
			c-0.291,0.743,0.085,1.606,0.829,1.898c0.742,0.292,1.606-0.084,1.898-0.828C1391.524,342.424,1391.148,341.56,1390.404,341.268z"
			/>
		<path opacity="0.2" fill="#938572" d="M1399.248,329.333c-0.743-0.292-1.607,0.085-1.899,0.828
			c-0.291,0.744,0.085,1.607,0.828,1.899c0.743,0.292,1.607-0.084,1.899-0.828C1400.369,330.488,1399.991,329.625,1399.248,329.333z
			"/>
		<path opacity="0.2" fill="#938572" d="M1359.473,303.009c-0.743-0.292-1.606,0.085-1.897,0.828
			c-0.292,0.744,0.084,1.607,0.828,1.899c0.742,0.292,1.606-0.084,1.898-0.828C1360.593,304.165,1360.217,303.3,1359.473,303.009z"
			/>
		<path opacity="0.2" fill="#938572" d="M1379.404,331.149c0.291-0.744-0.085-1.607-0.828-1.899
			c-0.744-0.292-1.607,0.085-1.899,0.828c-0.292,0.743,0.085,1.607,0.828,1.9C1378.248,332.269,1379.112,331.892,1379.404,331.149z"
			/>
		<path opacity="0.2" fill="#938572" d="M1329.264,308.403c0.292-0.744-0.085-1.608-0.828-1.899
			c-0.743-0.293-1.607,0.084-1.899,0.828c-0.292,0.743,0.084,1.607,0.828,1.899C1328.108,309.523,1328.972,309.146,1329.264,308.403
			z"/>
		<path opacity="0.2" fill="#938572" d="M1359.162,342.752c0.293-0.744-0.085-1.608-0.828-1.9c-0.743-0.291-1.606,0.085-1.899,0.828
			c-0.291,0.744,0.086,1.607,0.829,1.898C1358.007,343.872,1358.871,343.495,1359.162,342.752z"/>
		<path opacity="0.2" fill="#938572" d="M1410.405,396.607c-0.744-0.291-1.607,0.085-1.899,0.829
			c-0.004,0.012-0.009,0.024-0.012,0.038c-0.142,0.139-0.258,0.307-0.334,0.5c-0.292,0.744,0.085,1.609,0.828,1.899
			c0.743,0.292,1.607-0.084,1.899-0.827c0.005-0.014,0.01-0.025,0.014-0.039c0.143-0.139,0.257-0.307,0.333-0.5
			C1411.525,397.764,1411.149,396.899,1410.405,396.607z"/>
		<path opacity="0.2" fill="#938572" d="M1360.487,397.422c-0.743-0.291-1.607,0.086-1.898,0.828
			c-0.005,0.014-0.01,0.025-0.014,0.039c-0.142,0.138-0.256,0.307-0.332,0.5c-0.292,0.744,0.084,1.607,0.828,1.898
			c0.742,0.293,1.605-0.085,1.898-0.828c0.005-0.012,0.01-0.023,0.014-0.037c0.141-0.139,0.256-0.307,0.333-0.501
			C1361.607,398.578,1361.23,397.714,1360.487,397.422z"/>
		<path opacity="0.2" fill="#938572" d="M1382.93,414.881c-0.743-0.292-1.607,0.085-1.898,0.829
			c-0.006,0.011-0.011,0.025-0.015,0.037c-0.142,0.14-0.256,0.308-0.331,0.501c-0.293,0.743,0.083,1.607,0.826,1.898
			c0.744,0.293,1.608-0.084,1.9-0.828c0.005-0.012,0.009-0.024,0.013-0.037c0.142-0.139,0.256-0.307,0.334-0.5
			C1384.049,416.037,1383.672,415.173,1382.93,414.881z"/>
		<path opacity="0.2" fill="#938572" d="M1359.991,374.296c-0.121,0.306-0.127,0.633-0.042,0.932
			c-0.044,0.433,0.108,0.869,0.408,1.181c0.051,0.152,0.126,0.296,0.227,0.422c0.243,0.308,0.605,0.509,0.997,0.55
			c0.391,0.042,0.747-0.08,1.061-0.306c0.257-0.186,0.509-0.483,0.609-0.789c0.094-0.278,0.139-0.527,0.088-0.821
			c-0.055-0.304-0.149-0.482-0.325-0.735c-0.068-0.099-0.152-0.185-0.245-0.262c-0.115-0.441-0.431-0.825-0.879-1.001
			C1361.146,373.174,1360.282,373.551,1359.991,374.296z"/>
		<path opacity="0.2" fill="#938572" d="M1345.385,347.467c0.489-0.085,0.931-0.416,1.122-0.905
			c0.293-0.744-0.085-1.606-0.828-1.899c-0.489-0.192-1.031-0.094-1.428,0.207c-0.49,0.084-0.93,0.416-1.122,0.905
			c-0.292,0.744,0.084,1.607,0.828,1.899C1344.446,347.866,1344.987,347.769,1345.385,347.467z"/>
		<path opacity="0.2" fill="#938572" d="M1384.668,386.802c0.024,0.01,0.08-0.181,0.103-0.177c0.004,0,0.007,0.001,0.012,0.002
			c0.24,0.04,0.451,0.296,0.692,0.25c0.203,0.002,0.391,0.063,0.577-0.02c0.354-0.154,0.628-0.396,0.77-0.757
			c0.142-0.36,0.13-0.74-0.024-1.095c-0.154-0.354-0.449-0.624-0.81-0.767c-0.024-0.008-0.048-0.012-0.072-0.019
			c-0.432-0.126-0.37-0.099-0.81-0.086c-0.008-0.001-0.016,0.003-0.023,0.004c-0.132,0.027-0.26,0.073-0.388,0.114
			c-0.038,0.013-0.074,0.03-0.11,0.045c-0.328,0.145-0.593,0.405-0.743,0.73c-0.001,0.003-0.003,0.006-0.005,0.011
			c-0.011,0.022-0.02,0.044-0.029,0.066c-0.009,0.023-0.018,0.047-0.025,0.07c-0.001,0.004-0.001,0.008-0.004,0.011
			c-0.109,0.339-0.093,0.712,0.051,1.041c0.143,0.328,0.403,0.594,0.729,0.744c0.003,0.001,0.024-0.098,0.028-0.096
			C1384.606,386.885,1384.646,386.794,1384.668,386.802z"/>
		<path opacity="0.2" fill="#938572" d="M1373.526,403.049c0.024,0.01,0.054-0.021,0.076-0.018c0.005,0.001,0.009,0.002,0.012,0.002
			c0.241,0.04,0.478,0.135,0.719,0.091c0.205,0.001,0.403-0.02,0.591-0.101c0.355-0.154,0.636-0.437,0.776-0.796
			c0.142-0.36,0.133-0.761-0.021-1.117c-0.154-0.354-0.448-0.633-0.809-0.776c-0.023-0.008-0.048-0.016-0.072-0.022
			c-0.432-0.126-0.368-0.103-0.808-0.09c-0.008-0.001-0.017,0.003-0.024,0.004c-0.132,0.028-0.26,0.071-0.387,0.114
			c-0.038,0.012-0.074,0.028-0.109,0.045c-0.329,0.143-0.595,0.404-0.744,0.728c-0.003,0.004-0.004,0.009-0.006,0.011
			c-0.01,0.023,0.109,0.066,0.101,0.09c-0.011,0.022,0.107,0.066,0.104,0.09c-0.001,0.005-0.001,0.008-0.002,0.012
			c-0.058,0.349-0.223,0.692-0.08,1.02c0.144,0.329,0.339,0.583,0.664,0.733c0.004,0.001-0.022-0.023-0.019-0.022
			C1373.51,403.057,1373.505,403.039,1373.526,403.049z"/>
		<path opacity="0.2" fill="#938572" d="M1398.086,420.309c0.023,0.01,0.039,0.191,0.064,0.191c0.003,0,0.007,0,0.01,0
			c0.243,0,0.491-0.07,0.732-0.115c0.203,0.001,0.408-0.122,0.597-0.202c0.354-0.156,0.637-0.487,0.779-0.849
			c0.141-0.361,0.136-0.787-0.021-1.143c-0.154-0.354-0.446-0.646-0.807-0.789c-0.023-0.008-0.047-0.023-0.071-0.029
			c-0.431-0.127-0.369-0.105-0.81-0.093c-0.008,0.001-0.015,0-0.021,0.002c-0.133,0.026-0.261,0.069-0.389,0.112
			c-0.038,0.012-0.073,0.029-0.109,0.044c-0.329,0.144-0.595,0.405-0.744,0.729c-0.003,0.003-0.003,0.007-0.006,0.01
			c-0.009,0.023,0.105,0.066,0.096,0.09c-0.008,0.021,0.103,0.064,0.1,0.088c-0.001,0.004-0.002,0.008-0.002,0.013
			c-0.058,0.348-0.219,0.69-0.075,1.021c0.144,0.328,0.343,0.584,0.666,0.732c0.004,0.004-0.027,0.081-0.024,0.081
			C1398.074,420.214,1398.062,420.301,1398.086,420.309z"/>
		<path opacity="0.2" fill="#938572" d="M1394.397,400.758c-0.142,0.36-0.133,0.767,0.021,1.12c0.155,0.355,0.447,0.638,0.807,0.778
			c0.261,0.102,0.533,0.123,0.802,0.074c0.205,0.004,0.407-0.037,0.6-0.121c0.354-0.154,0.638-0.446,0.778-0.807
			c0.142-0.359,0.133-0.766-0.021-1.12c-0.153-0.351-0.447-0.642-0.809-0.778c-0.456-0.174-0.953-0.14-1.399,0.047
			C1394.82,400.096,1394.535,400.402,1394.397,400.758z"/>
		<path opacity="0.2" fill="#938572" d="M1401.154,341.264c-0.293,0.743,0.084,1.607,0.827,1.898
			c0.744,0.292,1.606-0.085,1.898-0.828c0.292-0.743-0.084-1.607-0.827-1.899C1402.311,340.144,1401.445,340.521,1401.154,341.264z"
			/>
		<path opacity="0.2" fill="#938572" d="M1473.375,360.575c-0.291,0.743,0.086,1.607,0.828,1.9c0.744,0.291,1.608-0.086,1.899-0.83
			c0.292-0.743-0.085-1.606-0.827-1.899C1474.531,359.454,1473.667,359.831,1473.375,360.575z"/>
		<path opacity="0.2" fill="#938572" d="M1410.337,384.531c-0.141,0.36-0.134,0.766,0.021,1.121
			c0.155,0.354,0.449,0.635,0.809,0.776c0.078,0.03,0.156,0.062,0.233,0.092c0.36,0.142,0.767,0.134,1.121-0.021
			c0.354-0.153,0.637-0.447,0.778-0.807c0.141-0.36,0.126-0.746-0.029-1.101c-0.155-0.355-0.454-0.617-0.815-0.758
			c-0.077-0.03-0.156-0.062-0.233-0.092c-0.36-0.141-0.759-0.154-1.112,0C1410.753,383.897,1410.479,384.172,1410.337,384.531z"/>
		<path opacity="0.2" fill="#938572" d="M1457.322,378.782c-0.142,0.36-0.135,0.766,0.021,1.121
			c0.153,0.354,0.447,0.637,0.807,0.779c0.078,0.03,0.156,0.06,0.234,0.09c0.359,0.142,0.767,0.135,1.12-0.02
			c0.354-0.155,0.637-0.447,0.778-0.809c0.142-0.358,0.126-0.746-0.028-1.099c-0.155-0.356-0.454-0.618-0.815-0.758
			c-0.077-0.032-0.156-0.062-0.235-0.092c-0.359-0.143-0.758-0.155-1.111-0.001C1457.737,378.148,1457.463,378.422,1457.322,378.782
			z"/>
		<path opacity="0.2" fill="#938572" d="M1370.934,323.513c0.098-0.615-0.063-1.166-0.4-1.675c-0.206-0.308-0.541-0.512-0.837-0.72
			c-0.652-0.46-1.563-0.359-2.051,0.293c-0.266,0.352-0.347,0.815-0.248,1.233c-0.088,0.388-0.024,0.809,0.213,1.148
			c0.07,0.161,0.135,0.325,0.269,0.46c0.332,0.331,0.224,0.247,0.639,0.474c0.145,0.079,0.316,0.091,0.475,0.127
			c0.221,0.051,0.488,0.008,0.71-0.048c0.253-0.041,0.48-0.14,0.683-0.297C1370.705,324.257,1370.871,323.909,1370.934,323.513z"/>
		<path opacity="0.2" fill="#938572" d="M1399.2,356.293c-0.089,0.089-0.178,0.18-0.266,0.271c-0.16,0.217-0.254,0.458-0.284,0.725
			c-0.041,0.378,0.072,0.763,0.306,1.061c0.041,0.051,0.085,0.099,0.13,0.144c0.082,0.325,0.273,0.618,0.543,0.819
			c0.314,0.235,0.718,0.335,1.105,0.275c0.4-0.063,0.686-0.274,0.946-0.569c0.559-0.629,0.953-1.637,0.562-2.452
			c-0.326-0.68-1.039-1.077-1.794-0.949C1399.973,355.698,1399.54,355.961,1399.2,356.293z"/>
		<path opacity="0.2" fill="#938572" d="M1475.173,311.986c-0.089,0.091-0.18,0.182-0.268,0.272
			c-0.159,0.216-0.253,0.458-0.284,0.725c-0.04,0.377,0.072,0.763,0.307,1.061c0.041,0.051,0.084,0.099,0.131,0.144
			c0.081,0.324,0.272,0.618,0.542,0.818c0.313,0.236,0.718,0.336,1.104,0.275c0.401-0.062,0.686-0.273,0.947-0.568
			c0.557-0.631,0.953-1.636,0.562-2.451c-0.326-0.681-1.041-1.077-1.795-0.95C1475.947,311.392,1475.513,311.656,1475.173,311.986z"
			/>
		<path opacity="0.2" fill="#938572" d="M1435.455,310.398c-0.088,0.09-0.177,0.182-0.264,0.271
			c-0.161,0.216-0.256,0.458-0.285,0.725c-0.041,0.378,0.072,0.763,0.306,1.062c0.04,0.051,0.083,0.098,0.131,0.143
			c0.081,0.324,0.272,0.618,0.542,0.818c0.313,0.236,0.718,0.337,1.104,0.276c0.4-0.064,0.686-0.273,0.946-0.569
			c0.559-0.63,0.955-1.637,0.562-2.452c-0.326-0.681-1.041-1.076-1.794-0.948C1436.229,309.804,1435.797,310.067,1435.455,310.398z"
			/>
		<path opacity="0.2" fill="#938572" d="M1381.536,356.99c-0.173,0.251-0.245,0.505-0.302,0.782c-0.23,0.742,0.093,1.555,0.844,1.85
			c0.447,0.176,0.971,0.104,1.367-0.154c0.548,0.123,1.156-0.08,1.506-0.547c0.484-0.646,0.338-1.566-0.293-2.052
			c-0.58-0.447-1.258-0.565-1.969-0.533C1382.243,356.357,1381.79,356.623,1381.536,356.99z"/>
		<path opacity="0.2" fill="#938572" d="M1347.051,325.798c-0.173,0.25-0.243,0.504-0.301,0.782
			c-0.229,0.741,0.094,1.554,0.844,1.85c0.447,0.175,0.971,0.105,1.366-0.155c0.549,0.123,1.157-0.081,1.507-0.547
			c0.484-0.646,0.338-1.564-0.294-2.052c-0.579-0.446-1.257-0.566-1.967-0.532C1347.759,325.164,1347.307,325.431,1347.051,325.798z
			"/>
		<path opacity="0.2" fill="#938572" d="M1307.338,292.329c-0.174,0.25-0.244,0.504-0.302,0.782
			c-0.229,0.742,0.093,1.555,0.845,1.85c0.445,0.175,0.97,0.105,1.365-0.154c0.549,0.123,1.156-0.08,1.506-0.547
			c0.484-0.646,0.339-1.565-0.293-2.052c-0.578-0.446-1.258-0.565-1.969-0.532C1308.044,291.696,1307.592,291.962,1307.338,292.329z
			"/>
		<path opacity="0.2" fill="#938572" d="M1364.381,356.487c-0.729,0.327-1.078,1.191-0.757,1.929c0.179,0.41,0.538,0.703,0.947,0.82
			c0.144,0.151,0.319,0.272,0.516,0.349c0.731,0.287,1.514-0.063,1.855-0.739c0.003-0.001,0.003-0.004,0.005-0.006
			c0.21-0.314,0.258-0.471,0.331-0.837c0.056-0.277-0.041-0.58-0.129-0.834c-0.146-0.41-0.55-0.682-0.924-0.857
			c-0.307-0.144-0.742-0.195-1.075-0.112C1364.863,356.272,1364.644,356.368,1364.381,356.487z"/>
		<path opacity="0.2" fill="#938572" d="M1346.867,369.053c-0.729,0.327-1.079,1.192-0.759,1.929c0.181,0.41,0.538,0.702,0.948,0.82
			c0.144,0.151,0.318,0.273,0.516,0.35c0.73,0.286,1.514-0.064,1.856-0.739c0.002-0.001,0.003-0.004,0.005-0.006
			c0.21-0.315,0.257-0.472,0.331-0.838c0.056-0.276-0.041-0.579-0.131-0.834c-0.144-0.41-0.549-0.681-0.921-0.855
			c-0.309-0.145-0.744-0.197-1.076-0.113C1347.348,368.839,1347.129,368.936,1346.867,369.053z"/>
		<path opacity="0.2" fill="#938572" d="M1324.854,339.276c-0.728,0.326-1.078,1.19-0.757,1.928c0.179,0.41,0.539,0.702,0.949,0.821
			c0.144,0.151,0.316,0.272,0.514,0.351c0.731,0.285,1.513-0.065,1.856-0.741c0.002-0.001,0.004-0.003,0.005-0.005
			c0.209-0.314,0.257-0.472,0.332-0.838c0.055-0.276-0.043-0.58-0.132-0.833c-0.143-0.41-0.548-0.682-0.922-0.856
			c-0.309-0.145-0.744-0.196-1.075-0.112C1325.337,339.062,1325.118,339.158,1324.854,339.276z"/>
		<path opacity="0.2" fill="#938572" d="M1529.606,328.259c-0.729,0.326-1.078,1.191-0.758,1.929c0.18,0.409,0.538,0.701,0.95,0.819
			c0.143,0.151,0.316,0.272,0.513,0.351c0.731,0.286,1.515-0.065,1.857-0.74c0.003-0.003,0.003-0.003,0.004-0.006
			c0.211-0.315,0.258-0.47,0.333-0.838c0.054-0.275-0.043-0.579-0.132-0.833c-0.143-0.41-0.549-0.682-0.922-0.855
			c-0.309-0.145-0.744-0.196-1.075-0.114C1530.088,328.044,1529.869,328.142,1529.606,328.259z"/>
	</g>
	<g>
		<polyline fill="#E5A045" points="574.841,722.047 592.766,718.232 600.845,686.771 597.272,681.123 594.234,681.693 
			592.622,684.422 589.683,684.52 587.039,691.076 582.759,692.305 578.203,694.934 577.456,700.012 575.745,702.63 
			574.558,705.092 575.907,708.506 571.483,711.2 573.714,719.01 574.733,721.988 		"/>
		<polyline opacity="0.2" fill="#6D4B22" points="574.841,722.047 592.766,718.232 600.845,686.771 597.272,681.123 
			594.234,681.693 592.622,684.422 589.683,684.52 587.039,691.076 582.759,692.305 578.203,694.934 577.456,700.012 
			575.745,702.63 574.558,705.092 575.907,708.506 571.483,711.2 573.714,719.01 574.733,721.988 		"/>
		<g>
			<path fill="#E5A045" d="M614.436,698.519l-0.547-0.188l-0.134,0.563c-0.312,1.317-0.666,2.696-1.088,4.14
				c-2.132,7.105-5.49,13.967-9.982,20.385l-0.324,0.463l0.486,0.289c7.049,4.193,15.213,7.785,24.268,10.67
				c0.54,0.159,1.057,0.321,1.562,0.482l0.339,0.109l0.226-0.277c0.533-0.654,1.048-1.321,1.575-2.005l0.13-0.171
				c4.657-6.225,7.968-12.59,9.844-18.926c0.314-1.039,0.604-2.174,0.879-3.465l0.085-0.398l-0.365-0.182
				C631.516,705.145,622.447,701.279,614.436,698.519z"/>
			<path fill="#E5A045" d="M660.791,720.305c-0.037-0.174-0.079-0.35-0.12-0.525C660.711,719.955,660.756,720.137,660.791,720.305z"
				/>
			<path fill="#E5A045" d="M629.648,736.479l-0.333-0.098l-0.221,0.266c-4.881,5.874-9.821,10.166-12.438,12.277l-0.537-0.07
				c0.732,0.098,1.469,0.197,2.223,0.311c9.637,1.445,21.272-3.998,30.145-8.366C644.14,740.092,637.395,738.772,629.648,736.479z"
				/>
			<path fill="#E5A045" d="M628.417,736.156l-0.706-0.256c-0.168-0.062-0.852-0.277-0.852-0.277
				c-8.421-2.682-16.083-5.957-22.777-9.74c-0.609-0.355-2.222-1.315-2.222-1.315l-0.283,0.382
				c-3.608,4.891-7.917,9.506-12.811,13.727c0,0-0.479-0.43-0.626-0.562c4.817-4.128,9.077-8.677,12.665-13.519l0.337-0.457
				l-0.48-0.3c-6.81-4.251-10.626-7.786-15.041-13.139c-0.065-0.078-0.008,0.827-0.073,0.75c-0.35,0.769-0.192,1.49-0.447,1.671
				c-0.533,0.379-1.869,1.325-2.671,1.893c-0.801,0.568,0.437,3.509-1.053,4.43c-1.486,0.922-6.988,1.848-6.536,2.604
				c0.389,0.648,2.211,3.275,3.541,4.977c3.277,4.186,7.357,9.395,12.729,13.707c7.37,5.908,14.206,6.762,22.118,7.75
				c0.757,0.095,1.526,0.192,2.302,0.293c2.593-2.053,7.465-6.215,12.4-12.043L628.417,736.156z"/>
			<path fill="#E5A045" d="M595.57,689.018c-0.664,1.141-0.551,1.863-0.971,2.027c-0.325,0.127-0.444,0.918-1.315,1.674
				c0.595,0.09,1.189,0.176,1.799,0.241c5.085,0.555,11.007,1.933,17.604,4.093l0.563,0.186l0.114-0.582
				c0.924-4.752,1.043-8.416,1.006-10.447l0.74,0.029c-0.123-0.006-0.253-0.012-0.376-0.017c-3.879-0.149-7.543-0.294-11.665-1.208
				c-2.282-0.509-4.168-2.006-5.797-3.891c0.086,0.725,0.28,1.512,0.652,2.346C599.284,686.519,596.234,687.879,595.57,689.018z"/>
			<path fill="#E5A045" d="M642.529,710.564l-0.147,0.652c-0.236,1.049-0.509,2.09-0.812,3.094
				c-1.903,6.428-5.268,12.886-10.001,19.196l-0.427,0.562c-0.256,0.338-0.508,0.674-0.766,0.992l-0.491,0.611l0.754,0.221
				c8.062,2.348,15.014,3.631,19.144,4.268c0.021-0.012,0.044-0.021,0.063-0.031c0.847-0.419,1.701-0.932,2.539-1.525
				c3.839-2.723,8.157-7.831,8.773-14.008c0.119-1.211-0.023-2.662-0.361-4.252c-2.845-1.641-9.415-5.347-17.67-9.48
				L642.529,710.564z"/>
			<path fill="#E5A045" d="M614.142,697.053l-0.091,0.45l0.434,0.147c7.311,2.498,15.529,5.937,24.431,10.219
				c0.803,0.385,1.582,0.77,2.368,1.156l0.631,0.312l0.117-0.693c0.873-5.141,0.806-10.275-0.193-15.281
				c-7.075-4.041-16.006-6.385-21.268-6.827c-1.866-0.153-3.639-0.228-5.364-0.294C615.248,688.285,615.129,692.059,614.142,697.053
				z"/>
			<path fill="#E5A045" d="M642.763,709.327l-0.069,0.387l0.353,0.175c5.773,2.877,11.813,6.104,17.481,9.338
				c-1.89-7.271-7.559-17.034-13.413-22.184c-1.521-1.336-3.296-2.544-5.2-3.637c0.296,0.168,0.588,0.34,0.875,0.52
				C643.71,699.006,643.7,704.186,642.763,709.327z"/>
			<path fill="#E5A045" d="M590.218,696.783c-0.776,0.416-0.79,3.949-0.767,4.735c0.022,0.786-1.8,2.747-2.6,3.314
				c-0.803,0.568-2.607,1.984-2.597,2.378c0.004,0.135-0.14,0.566-0.343,1.08c0.156,0.186,0.312,0.355,0.468,0.544
				c4.357,5.268,10.024,10.094,16.843,14.342l0.421,0.263l0.284-0.406c4.503-6.401,7.847-13.213,9.939-20.242
				c0.477-1.632,0.839-3.027,1.108-4.269l0.102-0.462l-0.449-0.146c-6.681-2.201-12.611-3.594-17.627-4.133
				c-0.931-0.1-1.841-0.234-2.738-0.393C590.56,694.281,590.981,696.373,590.218,696.783z"/>
			<path opacity="0.2" fill="#6D4B22" d="M615.529,748.775l0.591,0.078c-0.196-0.027-0.395-0.055-0.59-0.08L615.529,748.775z"/>
			<path opacity="0.2" fill="#6D4B22" d="M648.495,740.799l1.294-0.639c-0.002,0-0.003,0-0.006,0
				c-0.423,0.209-0.857,0.424-1.296,0.638C648.49,740.799,648.492,740.799,648.495,740.799z"/>
			<path opacity="0.2" fill="#6D4B22" d="M563.12,716.328l0.816,0.223c0-0.002,0-0.006,0-0.008c-0.27-0.078-0.545-0.15-0.816-0.224
				C563.12,716.322,563.12,716.325,563.12,716.328z"/>
			<path opacity="0.2" fill="#6D4B22" d="M615.206,686.242l-0.096-0.004C615.142,686.239,615.175,686.24,615.206,686.242
				L615.206,686.242z"/>
			<path opacity="0.2" fill="#6D4B22" d="M660.8,720.344c-0.002-0.012-0.006-0.025-0.009-0.039c0.003,0.014,0.005,0.025,0.007,0.039
				C660.8,720.343,660.8,720.344,660.8,720.344z"/>
			<path opacity="0.2" fill="#6D4B22" d="M641.838,693.359c0,0.002,0.001,0.002,0,0.004c0.026,0.014,0.053,0.029,0.076,0.043
				C641.89,693.391,641.863,693.375,641.838,693.359z"/>
			<path opacity="0.2" fill="#6D4B22" d="M660.547,719.237c-0.007-0.003-0.015-0.007-0.02-0.011
				c0.048,0.186,0.102,0.371,0.144,0.553C660.63,719.598,660.595,719.428,660.547,719.237z"/>
			<path fill="#E5A045" d="M660.527,719.227c-5.668-3.234-11.708-6.461-17.481-9.338l-0.353-0.175l0.069-0.387
				c0.938-5.142,0.947-10.321,0.026-15.401c-0.287-0.18-0.579-0.352-0.875-0.52c-0.023-0.014-0.05-0.029-0.076-0.043
				c0.999,5.006,1.066,10.141,0.193,15.281l-0.117,0.693l-0.631-0.312c-0.786-0.387-1.565-0.771-2.368-1.156
				c-8.901-4.282-17.12-7.721-24.431-10.219l-0.434-0.147l0.091-0.45c0.987-4.994,1.106-8.768,1.064-10.811
				c-0.031-0.002-0.064-0.003-0.096-0.004l-0.74-0.029c0.037,2.031-0.082,5.695-1.006,10.447l-0.114,0.582l-0.563-0.186
				c-6.597-2.16-12.519-3.538-17.604-4.093c-0.609-0.065-1.204-0.151-1.799-0.241c-0.252,0.217-0.555,0.434-0.955,0.627
				c-0.025,0.012-0.041,0.031-0.066,0.043c0.897,0.158,1.808,0.293,2.738,0.393c5.016,0.539,10.946,1.932,17.627,4.133l0.449,0.146
				l-0.102,0.462c-0.27,1.241-0.632,2.637-1.108,4.269c-2.093,7.029-5.437,13.841-9.939,20.242l-0.284,0.406l-0.421-0.263
				c-6.818-4.248-12.485-9.074-16.843-14.342c-0.156-0.188-0.312-0.358-0.468-0.544c-0.107,0.271-0.23,0.559-0.361,0.85
				c0.063,0.078,0.129,0.146,0.192,0.227c4.416,5.352,10.109,10.221,16.919,14.472l0.48,0.3l-0.337,0.457
				c-3.588,4.842-7.848,9.391-12.665,13.519c0.146,0.132,0.626,0.562,0.626,0.562c4.894-4.221,9.202-8.836,12.811-13.727
				l0.283-0.382c0,0,1.612,0.96,2.222,1.315c6.694,3.783,14.356,7.059,22.777,9.74c0,0,0.684,0.215,0.852,0.277l0.706,0.256
				l-0.486,0.574c-4.936,5.828-9.808,9.99-12.4,12.043c0.195,0.025,0.394,0.053,0.59,0.08l0.537,0.07
				c2.616-2.111,7.557-6.403,12.438-12.277l0.221-0.266l0.333,0.098c7.746,2.294,14.491,3.613,18.839,4.319
				c0.438-0.214,0.873-0.429,1.296-0.638c-4.13-0.637-11.081-1.92-19.144-4.268l-0.754-0.221l0.491-0.611
				c0.258-0.318,0.51-0.654,0.766-0.992l0.427-0.562c4.733-6.311,8.098-12.769,10.001-19.196c0.303-1.004,0.575-2.045,0.812-3.094
				l0.147-0.652l0.599,0.299c8.255,4.134,14.825,7.84,17.67,9.48c-0.002-0.014-0.004-0.025-0.007-0.039
				c-0.035-0.168-0.08-0.35-0.12-0.525C660.629,719.598,660.575,719.412,660.527,719.227z M641.668,710.588
				c-0.275,1.291-0.564,2.426-0.879,3.465c-1.876,6.336-5.187,12.701-9.844,18.926l-0.13,0.171
				c-0.527,0.684-1.042,1.351-1.575,2.005l-0.226,0.277l-0.339-0.109c-0.505-0.161-1.021-0.323-1.562-0.482
				c-9.055-2.885-17.219-6.477-24.268-10.67l-0.486-0.289l0.324-0.463c4.492-6.418,7.851-13.279,9.982-20.385
				c0.422-1.443,0.775-2.822,1.088-4.14l0.134-0.563l0.547,0.188c8.012,2.761,17.08,6.626,26.952,11.489l0.365,0.182
				L641.668,710.588z"/>
			<path opacity="0.2" fill="#6D4B22" d="M660.527,719.227c-5.668-3.234-11.708-6.461-17.481-9.338l-0.353-0.175l0.069-0.387
				c0.938-5.142,0.947-10.321,0.026-15.401c-0.287-0.18-0.579-0.352-0.875-0.52c-0.023-0.014-0.05-0.029-0.076-0.043
				c0.999,5.006,1.066,10.141,0.193,15.281l-0.117,0.693l-0.631-0.312c-0.786-0.387-1.565-0.771-2.368-1.156
				c-8.901-4.282-17.12-7.721-24.431-10.219l-0.434-0.147l0.091-0.45c0.987-4.994,1.106-8.768,1.064-10.811
				c-0.031-0.002-0.064-0.003-0.096-0.004l-0.74-0.029c0.037,2.031-0.082,5.695-1.006,10.447l-0.114,0.582l-0.563-0.186
				c-6.597-2.16-12.519-3.538-17.604-4.093c-0.609-0.065-1.204-0.151-1.799-0.241c-0.252,0.217-0.555,0.434-0.955,0.627
				c-0.025,0.012-0.041,0.031-0.066,0.043c0.897,0.158,1.808,0.293,2.738,0.393c5.016,0.539,10.946,1.932,17.627,4.133l0.449,0.146
				l-0.102,0.462c-0.27,1.241-0.632,2.637-1.108,4.269c-2.093,7.029-5.437,13.841-9.939,20.242l-0.284,0.406l-0.421-0.263
				c-6.818-4.248-12.485-9.074-16.843-14.342c-0.156-0.188-0.312-0.358-0.468-0.544c-0.107,0.271-0.23,0.559-0.361,0.85
				c0.063,0.078,0.129,0.146,0.192,0.227c4.416,5.352,10.109,10.221,16.919,14.472l0.48,0.3l-0.337,0.457
				c-3.588,4.842-7.848,9.391-12.665,13.519c0.146,0.132,0.626,0.562,0.626,0.562c4.894-4.221,9.202-8.836,12.811-13.727
				l0.283-0.382c0,0,1.612,0.96,2.222,1.315c6.694,3.783,14.356,7.059,22.777,9.74c0,0,0.684,0.215,0.852,0.277l0.706,0.256
				l-0.486,0.574c-4.936,5.828-9.808,9.99-12.4,12.043c0.195,0.025,0.394,0.053,0.59,0.08l0.537,0.07
				c2.616-2.111,7.557-6.403,12.438-12.277l0.221-0.266l0.333,0.098c7.746,2.294,14.491,3.613,18.839,4.319
				c0.438-0.214,0.873-0.429,1.296-0.638c-4.13-0.637-11.081-1.92-19.144-4.268l-0.754-0.221l0.491-0.611
				c0.258-0.318,0.51-0.654,0.766-0.992l0.427-0.562c4.733-6.311,8.098-12.769,10.001-19.196c0.303-1.004,0.575-2.045,0.812-3.094
				l0.147-0.652l0.599,0.299c8.255,4.134,14.825,7.84,17.67,9.48c-0.002-0.014-0.004-0.025-0.007-0.039
				c-0.035-0.168-0.08-0.35-0.12-0.525C660.629,719.598,660.575,719.412,660.527,719.227z M641.668,710.588
				c-0.275,1.291-0.564,2.426-0.879,3.465c-1.876,6.336-5.187,12.701-9.844,18.926l-0.13,0.171
				c-0.527,0.684-1.042,1.351-1.575,2.005l-0.226,0.277l-0.339-0.109c-0.505-0.161-1.021-0.323-1.562-0.482
				c-9.055-2.885-17.219-6.477-24.268-10.67l-0.486-0.289l0.324-0.463c4.492-6.418,7.851-13.279,9.982-20.385
				c0.422-1.443,0.775-2.822,1.088-4.14l0.134-0.563l0.547,0.188c8.012,2.761,17.08,6.626,26.952,11.489l0.365,0.182
				L641.668,710.588z"/>
		</g>
	</g>
	<g>
		<polyline fill="#E5A045" points="936.567,662.186 935.028,680.447 962.801,697.29 969.242,695.507 969.576,692.434 
			967.432,690.101 968.189,687.259 962.68,682.83 962.743,678.377 961.545,673.256 956.9,671.07 954.891,668.674 952.878,666.824 
			949.22,667.128 947.922,662.113 939.8,661.986 936.654,662.1 		"/>
		<polyline opacity="0.2" fill="#6D4B22" points="936.567,662.186 935.028,680.447 962.801,697.29 969.242,695.507 969.576,692.434 
			967.432,690.101 968.189,687.259 962.68,682.83 962.743,678.377 961.545,673.256 956.9,671.07 954.891,668.674 952.878,666.824 
			949.22,667.128 947.922,662.113 939.8,661.986 936.654,662.1 		"/>
		<g>
			<path fill="#E5A045" d="M947.622,706.897l0.339-0.469l-0.501-0.291c-1.17-0.681-2.388-1.419-3.647-2.24
				c-6.184-4.099-11.777-9.3-16.621-15.458l-0.348-0.443l-0.418,0.381c-6.056,5.532-11.856,12.307-17.24,20.139
				c-0.309,0.471-0.613,0.918-0.914,1.354l-0.202,0.293l0.2,0.296c0.471,0.699,0.961,1.386,1.463,2.089l0.126,0.174
				c4.608,6.26,9.743,11.271,15.264,14.901c0.903,0.603,1.905,1.207,3.062,1.846l0.355,0.196l0.28-0.298
				C936.334,721.327,942.66,713.767,947.622,706.897z"/>
			<path fill="#E5A045" d="M913.346,744.958c0.177,0.015,0.357,0.025,0.538,0.037C913.704,744.982,913.517,744.973,913.346,744.958z
				"/>
			<path fill="#E5A045" d="M906.884,710.467l0.188-0.291l-0.19-0.288c-4.208-6.372-6.886-12.345-8.149-15.46l0.224-0.493
				c-0.306,0.673-0.615,1.348-0.941,2.037c-4.173,8.806-2.333,21.519-0.721,31.275C899.229,723.29,902.445,717.217,906.884,710.467z
				"/>
			<path fill="#E5A045" d="M907.548,709.381l0.45-0.602c0.108-0.143,0.511-0.735,0.511-0.735
				c5.006-7.283,10.359-13.669,15.919-18.98c0.517-0.48,1.903-1.745,1.903-1.745l-0.284-0.383
				c-3.637-4.869-6.807-10.33-9.429-16.236c0,0,0.55-0.334,0.72-0.436c2.556,5.807,5.675,11.2,9.271,16.037l0.339,0.454l0.427-0.373
				c6.04-5.287,10.529-7.916,16.932-10.592c0.094-0.04-0.79-0.247-0.696-0.287c-0.636-0.558-1.371-0.616-1.471-0.912
				c-0.208-0.62-0.727-2.173-1.038-3.104c-0.312-0.932-3.484-0.598-3.936-2.291c-0.452-1.689,0.255-7.224-0.599-7.01
				c-0.733,0.185-3.775,1.168-5.789,1.948c-4.955,1.925-11.123,4.322-16.806,8.214c-7.789,5.344-10.585,11.641-13.822,18.927
				c-0.31,0.697-0.626,1.405-0.947,2.118c1.214,3.076,3.786,8.944,7.937,15.356L907.548,709.381z"/>
			<path fill="#E5A045" d="M962.179,691.592c-0.898-0.966-1.624-1.066-1.659-1.517c-0.027-0.348-0.75-0.69-1.221-1.743
				c-0.259,0.543-0.514,1.087-0.753,1.651c-2.003,4.707-5.036,9.976-9.015,15.664l-0.341,0.485l0.524,0.278
				c4.281,2.261,7.754,3.436,9.708,3.988l-0.241,0.7c0.04-0.116,0.084-0.239,0.124-0.355c1.267-3.669,2.465-7.135,4.533-10.815
				c1.148-2.037,3.128-3.408,5.403-4.422c-0.719-0.128-1.528-0.169-2.435-0.055C963.495,695.87,963.076,692.557,962.179,691.592z"/>
			<path fill="#E5A045" d="M927.956,730.299l-0.581-0.33c-0.935-0.529-1.853-1.092-2.726-1.672
				c-5.602-3.684-10.809-8.773-15.478-15.131l-0.415-0.572c-0.249-0.342-0.497-0.681-0.728-1.02l-0.443-0.647l-0.429,0.658
				c-4.582,7.037-7.823,13.318-9.628,17.088c0.005,0.023,0.008,0.048,0.012,0.069c0.155,0.932,0.399,1.898,0.724,2.872
				c1.494,4.463,5.135,10.075,10.868,12.454c1.123,0.464,2.554,0.748,4.173,0.885c2.396-2.247,7.846-7.463,14.191-14.168
				L927.956,730.299z"/>
			<path fill="#E5A045" d="M949.11,707.04l-0.405-0.217l-0.267,0.372c-4.508,6.274-10.179,13.146-16.854,20.425
				c-0.601,0.657-1.195,1.292-1.794,1.932l-0.481,0.514l0.631,0.313c4.667,2.324,9.602,3.746,14.682,4.239
				c5.917-5.602,10.747-13.471,12.693-18.379c0.687-1.742,1.271-3.417,1.835-5.05C957.183,710.639,953.604,709.432,949.11,707.04z"
				/>
			<path fill="#E5A045" d="M929.074,730.881l-0.351-0.178l-0.27,0.286c-4.426,4.693-9.263,9.54-14,14.028
				c7.507,0.297,18.493-2.302,25.117-6.414c1.72-1.068,3.39-2.418,4.987-3.925c-0.247,0.234-0.496,0.465-0.751,0.688
				C938.678,734.776,933.723,733.267,929.074,730.881z"/>
			<path fill="#E5A045" d="M956.296,684.22c-0.174-0.864-3.552-1.899-4.311-2.104c-0.76-0.207-2.108-2.52-2.42-3.448
				c-0.312-0.933-1.144-3.07-1.523-3.175c-0.13-0.035-0.503-0.297-0.936-0.641c-0.223,0.096-0.43,0.195-0.655,0.291
				c-6.304,2.645-12.563,6.672-18.604,11.968l-0.373,0.327l0.306,0.389c4.824,6.164,10.374,11.337,16.497,15.376
				c1.424,0.929,2.655,1.68,3.765,2.297l0.412,0.23l0.271-0.388c4.042-5.757,7.092-11.03,9.061-15.674
				c0.364-0.863,0.758-1.695,1.168-2.508C958.591,685.271,956.468,685.069,956.296,684.22z"/>
			<path opacity="0.2" fill="#6D4B22" d="M899.201,693.391l-0.245,0.544c0.082-0.181,0.167-0.362,0.247-0.542L899.201,693.391z"/>
			<path opacity="0.2" fill="#6D4B22" d="M897.29,727.254l0.236,1.424c0.001-0.002,0.001-0.003,0.003-0.005
				c-0.077-0.466-0.157-0.944-0.235-1.426C897.292,727.25,897.292,727.252,897.29,727.254z"/>
			<path opacity="0.2" fill="#6D4B22" d="M945.436,652.623l-0.45,0.717c0.003,0.001,0.005,0.002,0.008,0.003
				c0.152-0.235,0.301-0.479,0.451-0.717C945.441,652.625,945.438,652.625,945.436,652.623z"/>
			<path opacity="0.2" fill="#6D4B22" d="M959.149,711.189l0.032-0.09C959.171,711.129,959.16,711.16,959.149,711.189
				L959.149,711.189z"/>
			<path opacity="0.2" fill="#6D4B22" d="M913.306,744.955c0.013,0.002,0.027,0.002,0.04,0.003c-0.013-0.001-0.026-0.003-0.04-0.005
				C913.308,744.956,913.307,744.955,913.306,744.955z"/>
			<path opacity="0.2" fill="#6D4B22" d="M944.625,734.619c-0.001,0-0.002,0.001-0.004-0.001c-0.021,0.021-0.042,0.042-0.062,0.061
				C944.58,734.66,944.603,734.64,944.625,734.619z"/>
			<path opacity="0.2" fill="#6D4B22" d="M914.438,745.033c0.004-0.006,0.01-0.012,0.016-0.016c-0.19-0.008-0.385-0.01-0.57-0.022
				C914.069,745.009,914.242,745.024,914.438,745.033z"/>
			<path fill="#E5A045" d="M914.454,745.018c4.737-4.488,9.574-9.335,14-14.028l0.27-0.286l0.351,0.178
				c4.648,2.386,9.604,3.896,14.733,4.485c0.255-0.223,0.504-0.453,0.751-0.688c0.021-0.019,0.042-0.039,0.062-0.061
				c-5.08-0.493-10.015-1.915-14.682-4.239l-0.631-0.313l0.481-0.514c0.599-0.64,1.193-1.274,1.794-1.932
				c6.676-7.279,12.347-14.15,16.854-20.425l0.267-0.372l0.405,0.217c4.494,2.392,8.072,3.599,10.039,4.149
				c0.011-0.029,0.021-0.061,0.032-0.09l0.241-0.7c-1.954-0.553-5.427-1.728-9.708-3.988l-0.524-0.278l0.341-0.485
				c3.979-5.688,7.012-10.957,9.015-15.664c0.239-0.564,0.494-1.108,0.753-1.651c-0.136-0.305-0.255-0.656-0.324-1.096
				c-0.004-0.027-0.018-0.049-0.022-0.076c-0.41,0.812-0.804,1.645-1.168,2.508c-1.969,4.644-5.019,9.917-9.061,15.674l-0.271,0.388
				l-0.412-0.23c-1.109-0.617-2.341-1.368-3.765-2.297c-6.123-4.039-11.673-9.212-16.497-15.376l-0.306-0.389l0.373-0.327
				c6.041-5.296,12.301-9.323,18.604-11.968c0.226-0.096,0.433-0.195,0.655-0.291c-0.228-0.182-0.468-0.383-0.709-0.592
				c-0.093,0.038-0.177,0.081-0.272,0.119c-6.399,2.677-12.71,6.716-18.75,12.003l-0.427,0.373l-0.339-0.454
				c-3.597-4.837-6.716-10.23-9.271-16.037c-0.17,0.102-0.72,0.436-0.72,0.436c2.622,5.906,5.792,11.367,9.429,16.236l0.284,0.383
				c0,0-1.387,1.265-1.903,1.745c-5.56,5.312-10.913,11.697-15.919,18.98c0,0-0.402,0.593-0.511,0.735l-0.45,0.602l-0.408-0.632
				c-4.15-6.412-6.723-12.28-7.937-15.356c-0.08,0.18-0.165,0.361-0.247,0.542l-0.224,0.493c1.264,3.115,3.941,9.088,8.149,15.46
				l0.19,0.288l-0.188,0.291c-4.438,6.75-7.655,12.823-9.59,16.78c0.078,0.481,0.158,0.96,0.235,1.426
				c1.805-3.77,5.046-10.051,9.628-17.088l0.429-0.658l0.443,0.647c0.23,0.339,0.479,0.678,0.728,1.02l0.415,0.572
				c4.669,6.357,9.876,11.447,15.478,15.131c0.873,0.58,1.791,1.143,2.726,1.672l0.581,0.33l-0.459,0.486
				c-6.346,6.705-11.796,11.921-14.191,14.168c0.014,0.002,0.027,0.004,0.04,0.005c0.171,0.015,0.358,0.024,0.538,0.037
				C914.069,745.008,914.264,745.01,914.454,745.018z M928.185,729.469c-1.157-0.639-2.159-1.243-3.062-1.846
				c-5.521-3.63-10.655-8.642-15.264-14.901l-0.126-0.174c-0.502-0.703-0.992-1.39-1.463-2.089l-0.2-0.296l0.202-0.293
				c0.301-0.437,0.605-0.884,0.914-1.354c5.384-7.832,11.185-14.606,17.24-20.139l0.418-0.381l0.348,0.443
				c4.844,6.158,10.438,11.359,16.621,15.458c1.26,0.821,2.478,1.56,3.647,2.24l0.501,0.291l-0.339,0.469
				c-4.962,6.869-11.288,14.43-18.802,22.47l-0.28,0.298L928.185,729.469z"/>
			<path opacity="0.2" fill="#6D4B22" d="M914.454,745.018c4.737-4.488,9.574-9.335,14-14.028l0.27-0.286l0.351,0.178
				c4.648,2.386,9.604,3.896,14.733,4.485c0.255-0.223,0.504-0.453,0.751-0.688c0.021-0.019,0.042-0.039,0.062-0.061
				c-5.08-0.493-10.015-1.915-14.682-4.239l-0.631-0.313l0.481-0.514c0.599-0.64,1.193-1.274,1.794-1.932
				c6.676-7.279,12.347-14.15,16.854-20.425l0.267-0.372l0.405,0.217c4.494,2.392,8.072,3.599,10.039,4.149
				c0.011-0.029,0.021-0.061,0.032-0.09l0.241-0.7c-1.954-0.553-5.427-1.728-9.708-3.988l-0.524-0.278l0.341-0.485
				c3.979-5.688,7.012-10.957,9.015-15.664c0.239-0.564,0.494-1.108,0.753-1.651c-0.136-0.305-0.255-0.656-0.324-1.096
				c-0.004-0.027-0.018-0.049-0.022-0.076c-0.41,0.812-0.804,1.645-1.168,2.508c-1.969,4.644-5.019,9.917-9.061,15.674l-0.271,0.388
				l-0.412-0.23c-1.109-0.617-2.341-1.368-3.765-2.297c-6.123-4.039-11.673-9.212-16.497-15.376l-0.306-0.389l0.373-0.327
				c6.041-5.296,12.301-9.323,18.604-11.968c0.226-0.096,0.433-0.195,0.655-0.291c-0.228-0.182-0.468-0.383-0.709-0.592
				c-0.093,0.038-0.177,0.081-0.272,0.119c-6.399,2.677-12.71,6.716-18.75,12.003l-0.427,0.373l-0.339-0.454
				c-3.597-4.837-6.716-10.23-9.271-16.037c-0.17,0.102-0.72,0.436-0.72,0.436c2.622,5.906,5.792,11.367,9.429,16.236l0.284,0.383
				c0,0-1.387,1.265-1.903,1.745c-5.56,5.312-10.913,11.697-15.919,18.98c0,0-0.402,0.593-0.511,0.735l-0.45,0.602l-0.408-0.632
				c-4.15-6.412-6.723-12.28-7.937-15.356c-0.08,0.18-0.165,0.361-0.247,0.542l-0.224,0.493c1.264,3.115,3.941,9.088,8.149,15.46
				l0.19,0.288l-0.188,0.291c-4.438,6.75-7.655,12.823-9.59,16.78c0.078,0.481,0.158,0.96,0.235,1.426
				c1.805-3.77,5.046-10.051,9.628-17.088l0.429-0.658l0.443,0.647c0.23,0.339,0.479,0.678,0.728,1.02l0.415,0.572
				c4.669,6.357,9.876,11.447,15.478,15.131c0.873,0.58,1.791,1.143,2.726,1.672l0.581,0.33l-0.459,0.486
				c-6.346,6.705-11.796,11.921-14.191,14.168c0.014,0.002,0.027,0.004,0.04,0.005c0.171,0.015,0.358,0.024,0.538,0.037
				C914.069,745.008,914.264,745.01,914.454,745.018z M928.185,729.469c-1.157-0.639-2.159-1.243-3.062-1.846
				c-5.521-3.63-10.655-8.642-15.264-14.901l-0.126-0.174c-0.502-0.703-0.992-1.39-1.463-2.089l-0.2-0.296l0.202-0.293
				c0.301-0.437,0.605-0.884,0.914-1.354c5.384-7.832,11.185-14.606,17.24-20.139l0.418-0.381l0.348,0.443
				c4.844,6.158,10.438,11.359,16.621,15.458c1.26,0.821,2.478,1.56,3.647,2.24l0.501,0.291l-0.339,0.469
				c-4.962,6.869-11.288,14.43-18.802,22.47l-0.28,0.298L928.185,729.469z"/>
		</g>
	</g>
	<g>
		<polygon fill="#E5A045" points="1549.564,115.11 1545.027,160.833 1558.48,159.85 1565.486,150.416 1562.937,145.662 
			1566.924,137.928 1570.788,132.513 1566.75,128.965 1569.03,126.376 1563.239,122.56 1566.968,118.688 1558.727,113.109 		"/>
		<polygon opacity="0.2" fill="#6D4B22" points="1549.564,115.11 1545.027,160.833 1558.48,159.85 1565.486,150.416 
			1562.937,145.662 1566.924,137.928 1570.788,132.513 1566.75,128.965 1569.03,126.376 1563.239,122.56 1566.968,118.688 
			1558.727,113.109 		"/>
		<path fill="#E5A045" d="M1543.649,142.206l-0.029-0.436c-0.253-3.794-0.104-7.729,0.441-11.699l0.077-0.566l-0.572-0.027
			c-3.04-0.144-6.105-0.477-9.352-0.827l-0.342-0.037c-8.142-0.881-17.309-1.873-28.288-0.019l-0.388,0.066l-0.045,0.387
			c-0.832,6.974-0.55,13.854,0.842,20.448c0.313,1.452,0.699,2.944,1.145,4.439l0.121,0.409l0.428-0.037
			c11.604-1.015,18.583-4.5,24.742-7.575c3.656-1.819,6.994-3.479,10.793-4.419L1543.649,142.206z"/>
		<path fill="#E5A045" d="M1505.308,127.781l0.707-0.114c10.815-1.742,19.524-0.789,27.944,0.133l0.835,0.089
			c3.129,0.333,6.081,0.647,9.023,0.769l0.462,0.018l0.076-0.454c0.822-4.892,2.278-9.827,4.328-14.667
			c0.411-0.968,1.365-2.855,2.125-4.353c-0.784-0.418-1.519-0.796-2.154-1.067c-4.073-1.721-25.645-4.484-37.202,1.728
			c-0.37,0.198-0.73,0.423-1.098,0.633c-0.153,0.088-0.308,0.179-0.462,0.267c-1.627,4.556-3.711,11.137-4.48,16.311
			L1505.308,127.781z"/>
		<path fill="#E5A045" d="M1544.275,147.31c-0.193-1.125-0.358-2.353-0.493-3.651l-0.065-0.602l-0.587,0.151
			c-3.612,0.924-6.874,2.552-10.325,4.276c-6.154,3.08-13.131,6.569-24.615,7.64l-0.656,0.062l0.208,0.625
			c1.587,4.78,4.597,10.79,7.633,15.52c0.207-0.016,0.464-0.037,0.615-0.051c0.024-0.001,0.064-0.004,0.081-0.006
			c-0.001,0-0.001,0-0.001-0.002c9.315-0.851,18.67-4.48,23.177-6.235l1.439-0.555c2.338-0.898,5.195-1.987,8.112-2.89
			C1547.283,158.161,1545.164,152.604,1544.275,147.31z"/>
		<path fill="#E5A045" d="M1506.801,155.633l-0.125-0.389l-0.408,0.027c-7.607,0.5-17.146-0.249-27.268-1.995
			c1.549,3.281,4.526,6.585,6.938,8.162c0.504,0.332,1.065,0.723,1.685,1.155c4.167,2.911,11.14,7.781,21.596,8.733
			c1.696,0.155,3.44,0.142,5.192,0.045C1511.38,166.576,1508.379,160.492,1506.801,155.633z"/>
		<path fill="#E5A045" d="M1544.977,129.531l-0.065,0.459c-0.546,3.836-0.708,7.693-0.485,11.463l0.035,0.585l0.575-0.099
			c2.221-0.38,5.069-0.365,8.028-0.083c-0.172-0.409-2.646-2.64-2.591-2.774c0.15-0.352,3.448-1.841,3.448-1.841
			s-1.732-3.795-1.917-5.177c-0.134-0.993,2.345-2.683,2.6-3.337c-3.065,0.537-6.323,0.864-9.165,0.812L1544.977,129.531z"/>
		<path fill="#E5A045" d="M1545.215,128.086l-0.104,0.604l0.612,0.009c2.878,0.042,6.225-0.323,9.346-0.894
			c0.25-0.446,0.587-1.061,0.688-1.195c0.135-0.18-1.602-4.055-1.602-4.055s2.003-2.352,2.553-2.95
			c0.55-0.597-0.829-2.662-0.629-2.992c0.151-0.252,1.85-2.464,2.647-3.503c-2.28-0.856-4.52-2.05-6.531-3.155
			c-0.247-0.136-0.488-0.265-0.729-0.396c-0.728,1.496-1.622,3.371-2.017,4.302C1547.464,118.551,1546.038,123.339,1545.215,128.086
			z"/>
		<path fill="#E5A045" d="M1506.419,154.414l-0.181-0.628c-0.388-1.353-0.738-2.751-1.038-4.16c-1.368-6.427-1.683-13.19-0.933-20.1
			l0.076-0.706l-0.697,0.136c-5.873,1.142-12.48,3.271-18.717,5.935c-1.454,1.783-2.941,3.565-3.237,4.011
			c-0.623,0.939-2.412,3.245-3.646,9.421c-0.245,1.229,0.016,2.649,0.586,4.101c10.202,1.821,19.428,2.5,27.136,2.03
			L1506.419,154.414z"/>
		<path fill="#E5A045" d="M1504.456,127.954l0.052-0.375c0.833-5.965,2.583-12.047,3.958-15.918
			c-11.658,7.4-20.641,19.525-21.049,20.081c-0.354,0.485-0.846,1.116-1.395,1.799c6.024-2.474,12.41-4.465,18.062-5.517
			L1504.456,127.954z"/>
		<path fill="#E5A045" d="M1551.135,150.815c-0.128-0.726-0.152-2.158-0.152-2.158s-0.146-1.56,0.089-2.094
			c0.233-0.535,0.392-1.559,0.392-1.559l0.87-1.42c0,0,1.254-0.523,1.103-0.877c-3.062-0.347-6.004-0.36-8.424,0.071l-0.474,0.083
			l0.043,0.479c0.112,1.237,0.27,2.459,0.478,3.735c0.951,5.664,3.211,11.171,4.645,14.235c0.146-0.044,0.291-0.087,0.438-0.128
			c2.944-0.838,5.879-1.417,8.34-1.333c-0.107-0.599-0.179-1.261-0.038-1.524c0.284-0.532-4.894-1.644-4.786-1.898
			c0.107-0.253-0.153-2.949,0.131-3.479C1553.787,152.948,1551.263,151.542,1551.135,150.815z"/>
		<path fill="#E5A045" d="M1545.059,147.076c-0.208-1.276-0.365-2.498-0.478-3.735l-0.043-0.479l0.474-0.083
			c2.42-0.432,5.362-0.418,8.424-0.071c-0.117-0.268-0.253-0.568-0.371-0.85c-2.959-0.282-5.808-0.297-8.028,0.083l-0.575,0.099
			l-0.035-0.585c-0.223-3.77-0.061-7.627,0.485-11.463l0.065-0.459l0.463,0.009c2.842,0.051,6.1-0.275,9.165-0.812
			c0.101-0.255,0.193-0.451,0.248-0.544c0.053-0.086,0.13-0.224,0.217-0.378c-3.121,0.571-6.468,0.936-9.346,0.894l-0.612-0.009
			l0.104-0.604c0.823-4.748,2.249-9.535,4.235-14.226c0.395-0.931,1.289-2.807,2.017-4.302c-0.225-0.123-0.442-0.239-0.658-0.355
			c-0.76,1.498-1.714,3.385-2.125,4.353c-2.05,4.84-3.506,9.775-4.328,14.667l-0.076,0.454l-0.462-0.018
			c-2.942-0.122-5.895-0.436-9.023-0.769l-0.835-0.089c-8.42-0.922-17.129-1.875-27.944-0.133l-0.707,0.114l0.104-0.707
			c0.77-5.174,2.854-11.755,4.48-16.311c-0.086,0.05-0.172,0.097-0.257,0.147c-0.156,0.095-0.312,0.184-0.469,0.282
			c-0.003,0.007-0.005,0.013-0.008,0.02c-0.234,0.143-0.461,0.301-0.693,0.448c-1.375,3.872-3.125,9.954-3.958,15.918l-0.052,0.375
			l-0.372,0.069c-5.651,1.052-12.037,3.043-18.062,5.517c-0.349,0.437-0.72,0.894-1.093,1.35c6.236-2.664,12.844-4.792,18.717-5.935
			l0.697-0.136l-0.076,0.706c-0.75,6.91-0.436,13.673,0.933,20.1c0.3,1.408,0.65,2.807,1.038,4.16l0.181,0.628l-0.651,0.038
			c-7.708,0.47-16.934-0.208-27.136-2.03c0.111,0.286,0.234,0.568,0.368,0.854c10.121,1.747,19.66,2.495,27.268,1.995l0.408-0.027
			l0.125,0.389c1.578,4.858,4.579,10.942,7.609,15.739c0.234-0.014,0.466-0.011,0.7-0.026c0.001,0.002,0.002,0.002,0.002,0.006
			c0,0,0.111-0.01,0.247-0.021c0.005,0,0.01-0.001,0.015,0c-3.036-4.73-6.046-10.74-7.633-15.52l-0.208-0.625l0.656-0.062
			c11.484-1.071,18.461-4.56,24.615-7.64c3.451-1.724,6.713-3.352,10.325-4.276l0.587-0.151l0.065,0.602
			c0.135,1.299,0.3,2.527,0.493,3.651c0.889,5.294,3.008,10.852,4.522,14.282c0.178-0.055,0.353-0.116,0.532-0.169
			c0.124-0.037,0.248-0.073,0.373-0.111C1548.27,158.247,1546.01,152.739,1545.059,147.076z M1532.43,146.731
			c-6.159,3.075-13.139,6.56-24.742,7.575l-0.428,0.037l-0.121-0.409c-0.445-1.495-0.831-2.987-1.145-4.439
			c-1.392-6.595-1.674-13.474-0.842-20.448l0.045-0.387l0.388-0.066c10.979-1.854,20.146-0.862,28.288,0.019l0.342,0.037
			c3.246,0.351,6.312,0.684,9.352,0.827l0.572,0.027l-0.077,0.566c-0.546,3.97-0.694,7.905-0.441,11.699l0.029,0.436l-0.427,0.106
			C1539.424,143.252,1536.086,144.913,1532.43,146.731z"/>
		<path opacity="0.2" fill="#6D4B22" d="M1545.059,147.076c-0.208-1.276-0.365-2.498-0.478-3.735l-0.043-0.479l0.474-0.083
			c2.42-0.432,5.362-0.418,8.424-0.071c-0.117-0.268-0.253-0.568-0.371-0.85c-2.959-0.282-5.808-0.297-8.028,0.083l-0.575,0.099
			l-0.035-0.585c-0.223-3.77-0.061-7.627,0.485-11.463l0.065-0.459l0.463,0.009c2.842,0.051,6.1-0.275,9.165-0.812
			c0.101-0.255,0.193-0.451,0.248-0.544c0.053-0.086,0.13-0.224,0.217-0.378c-3.121,0.571-6.468,0.936-9.346,0.894l-0.612-0.009
			l0.104-0.604c0.823-4.748,2.249-9.535,4.235-14.226c0.395-0.931,1.289-2.807,2.017-4.302c-0.225-0.123-0.442-0.239-0.658-0.355
			c-0.76,1.498-1.714,3.385-2.125,4.353c-2.05,4.84-3.506,9.775-4.328,14.667l-0.076,0.454l-0.462-0.018
			c-2.942-0.122-5.895-0.436-9.023-0.769l-0.835-0.089c-8.42-0.922-17.129-1.875-27.944-0.133l-0.707,0.114l0.104-0.707
			c0.77-5.174,2.854-11.755,4.48-16.311c-0.086,0.05-0.172,0.097-0.257,0.147c-0.156,0.095-0.312,0.184-0.469,0.282
			c-0.003,0.007-0.005,0.013-0.008,0.02c-0.234,0.143-0.461,0.301-0.693,0.448c-1.375,3.872-3.125,9.954-3.958,15.918l-0.052,0.375
			l-0.372,0.069c-5.651,1.052-12.037,3.043-18.062,5.517c-0.349,0.437-0.72,0.894-1.093,1.35c6.236-2.664,12.844-4.792,18.717-5.935
			l0.697-0.136l-0.076,0.706c-0.75,6.91-0.436,13.673,0.933,20.1c0.3,1.408,0.65,2.807,1.038,4.16l0.181,0.628l-0.651,0.038
			c-7.708,0.47-16.934-0.208-27.136-2.03c0.111,0.286,0.234,0.568,0.368,0.854c10.121,1.747,19.66,2.495,27.268,1.995l0.408-0.027
			l0.125,0.389c1.578,4.858,4.579,10.942,7.609,15.739c0.234-0.014,0.466-0.011,0.7-0.026c0.001,0.002,0.002,0.002,0.002,0.006
			c0,0,0.111-0.01,0.247-0.021c0.005,0,0.01-0.001,0.015,0c-3.036-4.73-6.046-10.74-7.633-15.52l-0.208-0.625l0.656-0.062
			c11.484-1.071,18.461-4.56,24.615-7.64c3.451-1.724,6.713-3.352,10.325-4.276l0.587-0.151l0.065,0.602
			c0.135,1.299,0.3,2.527,0.493,3.651c0.889,5.294,3.008,10.852,4.522,14.282c0.178-0.055,0.353-0.116,0.532-0.169
			c0.124-0.037,0.248-0.073,0.373-0.111C1548.27,158.247,1546.01,152.739,1545.059,147.076z M1532.43,146.731
			c-6.159,3.075-13.139,6.56-24.742,7.575l-0.428,0.037l-0.121-0.409c-0.445-1.495-0.831-2.987-1.145-4.439
			c-1.392-6.595-1.674-13.474-0.842-20.448l0.045-0.387l0.388-0.066c10.979-1.854,20.146-0.862,28.288,0.019l0.342,0.037
			c3.246,0.351,6.312,0.684,9.352,0.827l0.572,0.027l-0.077,0.566c-0.546,3.97-0.694,7.905-0.441,11.699l0.029,0.436l-0.427,0.106
			C1539.424,143.252,1536.086,144.913,1532.43,146.731z"/>
	</g>
	<g>
		<polygon fill="#E5A045" points="1565.566,476.166 1526.36,452.206 1521.397,464.749 1526.849,475.159 1532.239,474.929 
			1537.472,481.882 1540.669,487.716 1545.618,485.621 1546.959,488.8 1552.913,485.243 1554.779,490.284 1563.386,485.286 		"/>
		<polygon opacity="0.2" fill="#6D4B22" points="1565.566,476.166 1526.36,452.206 1521.397,464.749 1526.849,475.159 
			1532.239,474.929 1537.472,481.882 1540.669,487.716 1545.618,485.621 1546.959,488.8 1552.913,485.243 1554.779,490.284 
			1563.386,485.286 		"/>
		<path fill="#E5A045" d="M1543.735,459.062l0.405,0.163c3.526,1.421,7.007,3.266,10.345,5.482l0.477,0.315l0.272-0.504
			c1.451-2.676,3.083-5.291,4.81-8.062l0.183-0.292c4.333-6.949,9.21-14.773,12.313-25.467l0.109-0.379l-0.33-0.209
			c-5.919-3.78-12.237-6.516-18.781-8.13c-1.443-0.349-2.955-0.649-4.496-0.898l-0.42-0.069l-0.153,0.402
			c-4.13,10.891-4.024,18.691-3.933,25.574c0.049,4.084,0.094,7.812-0.711,11.641L1543.735,459.062z"/>
		<path fill="#E5A045" d="M1573.392,430.801l-0.205,0.687c-3.132,10.497-7.775,17.926-12.266,25.107l-0.443,0.715
			c-1.66,2.672-3.227,5.195-4.614,7.791l-0.217,0.409l0.376,0.266c4.047,2.866,7.859,6.323,11.327,10.272
			c0.692,0.791,1.978,2.471,2.997,3.807c0.717-0.525,1.376-1.021,1.896-1.477c3.32-2.92,15.186-21.146,14.614-34.256
			c-0.017-0.418-0.063-0.841-0.093-1.263c-0.014-0.177-0.027-0.354-0.039-0.532c-3.396-3.445-8.418-8.184-12.742-11.125
			L1573.392,430.801z"/>
		<path fill="#E5A045" d="M1538.866,457.407c1.098,0.314,2.275,0.699,3.504,1.143l0.57,0.202l0.119-0.594
			c0.738-3.655,0.689-7.3,0.637-11.157c-0.098-6.881-0.208-14.681,3.82-25.489l0.229-0.618l-0.654-0.084
			c-4.994-0.648-11.715-0.551-17.295,0.127c-0.076,0.193-0.168,0.435-0.221,0.578c-0.01,0.021-0.025,0.059-0.029,0.074
			c0,0,0,0,0.001,0c-3.282,8.76-4.079,18.762-4.458,23.584l-0.126,1.537c-0.207,2.496-0.47,5.543-0.923,8.562
			C1527.786,455.398,1533.712,455.905,1538.866,457.407z"/>
		<path fill="#E5A045" d="M1547.659,420.04l0.404,0.056l0.153-0.38c2.856-7.068,7.677-15.334,13.649-23.689
			c-3.628-0.031-7.898,1.215-10.367,2.7c-0.518,0.31-1.113,0.646-1.771,1.015c-4.433,2.488-11.85,6.65-17.252,15.653
			c-0.877,1.46-1.623,3.036-2.298,4.656C1535.813,419.407,1542.599,419.349,1547.659,420.04z"/>
		<path fill="#E5A045" d="M1554.573,465.766l-0.386-0.259c-3.218-2.158-6.621-3.981-10.112-5.42l-0.542-0.223l-0.161,0.562
			c-0.623,2.165-1.875,4.724-3.415,7.267c0.442,0.022,3.528-1.236,3.624-1.127c0.252,0.287,0.16,3.905,0.16,3.905
			s4.17,0.089,5.494,0.523c0.953,0.312,1.396,3.277,1.877,3.792c0.848-2.994,1.971-6.07,3.252-8.607L1554.573,465.766z"/>
		<path fill="#E5A045" d="M1555.771,466.608l-0.498-0.355l-0.274,0.547c-1.288,2.574-2.415,5.747-3.257,8.807
			c0.293,0.418,0.7,0.988,0.777,1.138c0.104,0.199,4.348,0.32,4.348,0.32s1.248,2.825,1.547,3.581
			c0.299,0.755,2.758,0.41,2.969,0.734c0.16,0.246,1.416,2.736,2.004,3.906c1.762-1.681,3.811-3.179,5.68-4.51
			c0.23-0.164,0.451-0.324,0.674-0.484c-1.031-1.305-2.33-2.926-2.998-3.686C1563.38,472.778,1559.688,469.413,1555.771,466.608z"/>
		<path fill="#E5A045" d="M1548.923,420.226l0.645,0.109c1.387,0.239,2.799,0.531,4.197,0.874
			c6.384,1.562,12.611,4.218,18.508,7.897l0.604,0.375l0.18-0.688c1.524-5.785,2.48-12.661,2.792-19.436
			c-0.974-2.084-1.933-4.198-2.206-4.658c-0.574-0.97-1.873-3.583-6.898-7.379c-1-0.755-2.393-1.139-3.948-1.256
			c-6.075,8.397-10.694,16.41-13.622,23.557L1548.923,420.226z"/>
		<path fill="#E5A045" d="M1573.606,429.958l0.314,0.21c5.01,3.343,9.727,7.563,12.615,10.483
			c-1.597-13.715-8.611-27.075-8.936-27.684c-0.282-0.531-0.637-1.246-1.014-2.038c-0.391,6.501-1.373,13.117-2.881,18.664
			L1573.606,429.958z"/>
		<path fill="#E5A045" d="M1532.728,462.061c0.709,0.2,2.01,0.801,2.01,0.801s1.468,0.546,1.848,0.991
			c0.38,0.441,1.234,1.029,1.234,1.029l0.9,1.401c0,0-0.073,1.356,0.311,1.374c1.644-2.606,2.935-5.25,3.598-7.618l0.131-0.462
			l-0.45-0.17c-1.163-0.437-2.331-0.826-3.571-1.193c-5.515-1.605-11.457-1.965-14.84-2.005c-0.023,0.151-0.047,0.3-0.074,0.45
			c-0.525,3.016-1.279,5.91-2.426,8.09c0.587,0.163,1.215,0.387,1.391,0.628c0.355,0.487,3.607-3.692,3.789-3.485
			s2.723,1.145,3.077,1.631C1529.654,463.522,1532.019,461.86,1532.728,462.061z"/>
		<path fill="#E5A045" d="M1538.737,458.214c1.24,0.367,2.408,0.757,3.571,1.193l0.45,0.17l-0.131,0.462
			c-0.663,2.368-1.954,5.012-3.598,7.618c0.292,0.011,0.623,0.019,0.927,0.035c1.54-2.543,2.792-5.102,3.415-7.267l0.161-0.562
			l0.542,0.223c3.491,1.438,6.895,3.262,10.112,5.42l0.386,0.259l-0.209,0.413c-1.281,2.537-2.404,5.613-3.252,8.607
			c0.186,0.201,0.322,0.369,0.382,0.459c0.056,0.086,0.146,0.215,0.247,0.361c0.842-3.06,1.969-6.232,3.257-8.807l0.274-0.547
			l0.498,0.355c3.918,2.805,7.609,6.17,10.971,9.998c0.668,0.76,1.967,2.381,2.998,3.686c0.209-0.148,0.408-0.294,0.607-0.438
			c-1.02-1.336-2.305-3.016-2.997-3.807c-3.468-3.949-7.28-7.406-11.327-10.272l-0.376-0.266l0.217-0.409
			c1.388-2.596,2.954-5.119,4.614-7.791l0.443-0.715c4.49-7.182,9.134-14.61,12.266-25.107l0.205-0.687l0.592,0.401
			c4.324,2.941,9.346,7.68,12.742,11.125c-0.008-0.1-0.013-0.196-0.021-0.296c-0.018-0.182-0.03-0.361-0.051-0.544
			c-0.005-0.006-0.01-0.01-0.015-0.016c-0.026-0.273-0.07-0.547-0.103-0.82c-2.889-2.92-7.605-7.141-12.615-10.483l-0.314-0.21
			l0.1-0.364c1.508-5.547,2.49-12.163,2.881-18.664c-0.242-0.505-0.492-1.037-0.739-1.571c-0.312,6.774-1.268,13.65-2.792,19.436
			l-0.18,0.688l-0.604-0.375c-5.896-3.68-12.124-6.336-18.508-7.897c-1.398-0.343-2.811-0.635-4.197-0.874l-0.645-0.109l0.25-0.604
			c2.928-7.146,7.547-15.159,13.622-23.557c-0.306-0.023-0.614-0.035-0.929-0.039c-5.973,8.355-10.793,16.621-13.649,23.689
			l-0.153,0.38l-0.404-0.056c-5.061-0.691-11.846-0.633-17.481,0.011c-0.089,0.218-0.192,0.425-0.28,0.643
			c-0.004,0-0.004,0-0.008-0.001c0,0-0.039,0.104-0.088,0.232c-0.002,0.004-0.002,0.008-0.006,0.012
			c5.58-0.678,12.301-0.775,17.295-0.127l0.654,0.084l-0.229,0.618c-4.028,10.809-3.918,18.608-3.82,25.489
			c0.053,3.857,0.102,7.502-0.637,11.157l-0.119,0.594l-0.57-0.202c-1.229-0.443-2.406-0.828-3.504-1.143
			c-5.154-1.502-11.08-2.009-14.826-2.135c-0.029,0.184-0.05,0.367-0.08,0.553c-0.021,0.127-0.043,0.254-0.062,0.384
			C1527.28,456.249,1533.223,456.608,1538.737,458.214z M1544.536,446.989c-0.092-6.883-0.197-14.684,3.933-25.574l0.153-0.402
			l0.42,0.069c1.541,0.249,3.053,0.55,4.496,0.898c6.544,1.614,12.862,4.35,18.781,8.13l0.33,0.209l-0.109,0.379
			c-3.104,10.693-7.98,18.518-12.313,25.467l-0.183,0.292c-1.727,2.771-3.358,5.386-4.81,8.062l-0.272,0.504l-0.477-0.315
			c-3.338-2.217-6.818-4.062-10.345-5.482l-0.405-0.163l0.09-0.432C1544.63,454.802,1544.585,451.073,1544.536,446.989z"/>
		<path opacity="0.2" fill="#6D4B22" d="M1538.737,458.214c1.24,0.367,2.408,0.757,3.571,1.193l0.45,0.17l-0.131,0.462
			c-0.663,2.368-1.954,5.012-3.598,7.618c0.292,0.011,0.623,0.019,0.927,0.035c1.54-2.543,2.792-5.102,3.415-7.267l0.161-0.562
			l0.542,0.223c3.491,1.438,6.895,3.262,10.112,5.42l0.386,0.259l-0.209,0.413c-1.281,2.537-2.404,5.613-3.252,8.607
			c0.186,0.201,0.322,0.369,0.382,0.459c0.056,0.086,0.146,0.215,0.247,0.361c0.842-3.06,1.969-6.232,3.257-8.807l0.274-0.547
			l0.498,0.355c3.918,2.805,7.609,6.17,10.971,9.998c0.668,0.76,1.967,2.381,2.998,3.686c0.209-0.148,0.408-0.294,0.607-0.438
			c-1.02-1.336-2.305-3.016-2.997-3.807c-3.468-3.949-7.28-7.406-11.327-10.272l-0.376-0.266l0.217-0.409
			c1.388-2.596,2.954-5.119,4.614-7.791l0.443-0.715c4.49-7.182,9.134-14.61,12.266-25.107l0.205-0.687l0.592,0.401
			c4.324,2.941,9.346,7.68,12.742,11.125c-0.008-0.1-0.013-0.196-0.021-0.296c-0.018-0.182-0.03-0.361-0.051-0.544
			c-0.005-0.006-0.01-0.01-0.015-0.016c-0.026-0.273-0.07-0.547-0.103-0.82c-2.889-2.92-7.605-7.141-12.615-10.483l-0.314-0.21
			l0.1-0.364c1.508-5.547,2.49-12.163,2.881-18.664c-0.242-0.505-0.492-1.037-0.739-1.571c-0.312,6.774-1.268,13.65-2.792,19.436
			l-0.18,0.688l-0.604-0.375c-5.896-3.68-12.124-6.336-18.508-7.897c-1.398-0.343-2.811-0.635-4.197-0.874l-0.645-0.109l0.25-0.604
			c2.928-7.146,7.547-15.159,13.622-23.557c-0.306-0.023-0.614-0.035-0.929-0.039c-5.973,8.355-10.793,16.621-13.649,23.689
			l-0.153,0.38l-0.404-0.056c-5.061-0.691-11.846-0.633-17.481,0.011c-0.089,0.218-0.192,0.425-0.28,0.643
			c-0.004,0-0.004,0-0.008-0.001c0,0-0.039,0.104-0.088,0.232c-0.002,0.004-0.002,0.008-0.006,0.012
			c5.58-0.678,12.301-0.775,17.295-0.127l0.654,0.084l-0.229,0.618c-4.028,10.809-3.918,18.608-3.82,25.489
			c0.053,3.857,0.102,7.502-0.637,11.157l-0.119,0.594l-0.57-0.202c-1.229-0.443-2.406-0.828-3.504-1.143
			c-5.154-1.502-11.08-2.009-14.826-2.135c-0.029,0.184-0.05,0.367-0.08,0.553c-0.021,0.127-0.043,0.254-0.062,0.384
			C1527.28,456.249,1533.223,456.608,1538.737,458.214z M1544.536,446.989c-0.092-6.883-0.197-14.684,3.933-25.574l0.153-0.402
			l0.42,0.069c1.541,0.249,3.053,0.55,4.496,0.898c6.544,1.614,12.862,4.35,18.781,8.13l0.33,0.209l-0.109,0.379
			c-3.104,10.693-7.98,18.518-12.313,25.467l-0.183,0.292c-1.727,2.771-3.358,5.386-4.81,8.062l-0.272,0.504l-0.477-0.315
			c-3.338-2.217-6.818-4.062-10.345-5.482l-0.405-0.163l0.09-0.432C1544.63,454.802,1544.585,451.073,1544.536,446.989z"/>
	</g>
</g>
<g id="Layer_6">
</g>
<g id="Layer_2">
</g>
<g id="Layer_3">
</g>
<g id="Layer_5">
</g>
<g id="Layer_4">
</g>
<g id="Layer_9">
	<g>
		<path fill="none" stroke="#706649" stroke-width="2" stroke-linecap="round" stroke-linejoin="round" stroke-miterlimit="10" d="
			M1562.31,645.675c13.193,5.667,27.642,9.998,49.61-4.166"/>
		<path fill="none" stroke="#706649" stroke-width="3" stroke-linecap="round" stroke-linejoin="round" stroke-miterlimit="10" d="
			M1544.337,565.01c17.166,6.667,45.274,66.222,24.441,83.333"/>
		<path fill="#FFE2B8" d="M1620.731,704.692c0.102,1.094-2.855,6.361-6.123,7.504c-3.27,1.143-24.845,12.072-33.533,17.084
			c-8.688,5.014-58.766,25.625-61.281,26.506c-2.514,0.879-13.275,2.383-15.312,1.402s-7.527-7.809-8.821-9.896
			s-1.329-10.258-2.484-14.369c-1.154-4.111-9.57-26.566-10.098-28.074c-0.527-1.51-5.49-6.829-7.691-7.471
			c-2.199-0.642-11.117-22.92-13.127-27.862c-2.01-4.94-17.702-29.647-18.82-31.232c-1.119-1.584,1.449-10.382,2.003-12.835
			c0.554-2.45,3.843-25.328,4.296-28.873c0.454-3.545,1.436-5.582,2.769-6.611c1.333-1.031,25.347-12.249,25.347-12.249
			s33.295-16.155,34.375-17.097c1.082-0.942,6.199-2.449,7.293-2.55s10.923,3.8,13.813,5.611s17.044,7.586,19.08,8.567
			c2.036,0.98,9.075,4.164,9.515,5.421s20.213,40.059,20.35,43.679s5.459,27.721,7.042,32.247c1.582,4.526,4.054,18.054,4.33,19.65
			s2.4,2.829,5.304,5.483c2.902,2.652,15.909,16.447,17.203,18.535C1617.453,699.35,1620.632,703.599,1620.731,704.692z"/>
		<path opacity="0.2" fill="#6D4B22" d="M1477.854,577.715c0,0-24.014,11.218-25.347,12.249c-1.333,1.029-2.314,3.066-2.769,6.611
			c-0.453,3.545-3.742,26.423-4.296,28.873c-0.554,2.453-3.122,11.251-2.003,12.835c1.118,1.585,16.811,26.292,18.82,31.232
			c2.01,4.942,10.928,27.221,13.127,27.862c2.201,0.642,7.164,5.961,7.691,7.471c0.527,1.508,8.943,23.963,10.098,28.074
			c1.155,4.111,1.19,12.281,2.484,14.369s6.785,8.916,8.821,9.896s12.798-0.523,15.312-1.402
			c2.516-0.881,52.593-21.492,61.281-26.506c8.688-5.012,30.264-15.941,33.533-17.084c3.268-1.143,6.225-6.41,6.123-7.504
			c-0.1-1.094-3.278-5.343-4.572-7.43c-1.294-2.088-14.301-15.883-17.203-18.535c-2.903-2.654-5.027-3.887-5.304-5.483
			s-2.748-15.124-4.33-19.65c-1.583-4.526-6.905-28.627-7.042-32.247s-19.91-42.422-20.35-43.679s-7.479-4.44-9.515-5.421
			c-2.036-0.981-16.189-6.756-19.08-8.567s-12.72-5.712-13.813-5.611s-6.211,1.607-7.293,2.55
			C1511.149,561.56,1477.854,577.715,1477.854,577.715z"/>
		<path opacity="0.6" d="M1581.075,729.28c8.688-5.012,30.264-15.941,33.533-17.084c3.268-1.143,6.225-6.41,6.123-7.504
			c-0.1-1.094-3.278-5.343-4.572-7.43c-1.294-2.088-14.301-15.883-17.203-18.535c-2.903-2.654-5.027-3.887-5.304-5.483
			s-2.748-15.124-4.33-19.65c-1.464-4.187-6.126-25.116-6.927-31.101c-0.001,0-10.576,3.64-13.744,5.877
			c-3.169,2.236-18.942,29.762-38.269,39.058c-19.325,9.296-63.648,12.935-63.653,12.935c3.295,7.783,7.285,16.615,8.658,17.016
			c2.201,0.642,7.164,5.961,7.691,7.471c0.527,1.508,8.943,23.963,10.098,28.074c1.155,4.111,1.19,12.281,2.484,14.369
			s6.785,8.916,8.821,9.896s12.798-0.523,15.312-1.402C1522.31,754.905,1572.387,734.294,1581.075,729.28z"/>
		<path opacity="0.3" fill="#30200F" d="M1616.159,697.263c-1.294-2.088-14.301-15.883-17.203-18.535
			c-2.903-2.654-5.027-3.887-5.304-5.483s-2.748-15.124-4.33-19.65c-1.464-4.187-6.126-25.116-6.927-31.101
			c-0.001,0-10.576,3.64-13.744,5.877c-2.634,1.857-13.972,21.18-28.819,32.992c-0.349-0.673-0.721-1.342-1.12-1.996
			c-3.582-5.877-25.835-48.799-35.912-68.34c-3.683,0.797-5.945,1.281-5.945,1.281s-0.793,0.551-2.134,1.49
			c9.805,20.26,31.084,64.066,34.759,70.248c0.602,1.012,1.285,1.95,2.022,2.818c-0.372,0.193-0.745,0.384-1.119,0.563
			c-19.325,9.296-63.648,12.935-63.653,12.935c3.295,7.783,7.285,16.615,8.658,17.016c2.201,0.642,7.164,5.961,7.691,7.471
			c0.527,1.508,8.943,23.963,10.098,28.074c1.155,4.111,1.19,12.281,2.484,14.369s6.785,8.916,8.821,9.896
			s12.798-0.523,15.312-1.402c2.516-0.881,52.593-21.492,61.281-26.506c8.688-5.012,30.264-15.941,33.533-17.084
			c3.268-1.143,6.225-6.41,6.123-7.504C1620.632,703.599,1617.453,699.35,1616.159,697.263z"/>
		<path opacity="0.3" fill="#6D4B22" d="M1616.159,697.263c-1.294-2.088-14.301-15.883-17.203-18.535
			c-2.903-2.654-5.027-3.887-5.304-5.483s-2.748-15.124-4.33-19.65c-1.464-4.187-6.126-25.116-6.927-31.101
			c-0.001,0-10.576,3.64-13.744,5.877c-2.634,1.857-13.972,21.18-28.819,32.992c-0.349-0.673-0.721-1.342-1.12-1.996
			c-3.582-5.877-25.835-48.799-35.912-68.34c14.397-3.113,50.496-11.002,57.907-13.425l0.974-0.292
			c-1.346-1.422-7.4-4.164-9.265-5.062c-2.036-0.981-16.189-6.756-19.08-8.567s-12.72-5.712-13.813-5.611s-6.211,1.607-7.293,2.55
			c-1.08,0.941-34.375,17.097-34.375,17.097s-24.014,11.218-25.347,12.249c-1.333,1.029-2.314,3.066-2.769,6.611
			c-0.453,3.545-3.742,26.423-4.296,28.873c-0.554,2.453-3.122,11.251-2.003,12.835c0.059,0.083,0.158,0.233,0.293,0.437
			c1.434-1.561,14.471-15.746,18.935-20.703c3.952-4.391,25.202-19.418,32.053-24.219c9.805,20.26,31.084,64.066,34.759,70.248
			c0.602,1.012,1.285,1.95,2.022,2.818c-0.372,0.193-0.745,0.384-1.119,0.563c-19.325,9.296-63.648,12.935-63.653,12.935
			c3.295,7.783,7.285,16.615,8.658,17.016c2.201,0.642,7.164,5.961,7.691,7.471c0.527,1.508,8.943,23.963,10.098,28.074
			c1.155,4.111,1.19,12.281,2.484,14.369s6.785,8.916,8.821,9.896s12.798-0.523,15.312-1.402
			c2.516-0.881,52.593-21.492,61.281-26.506c8.688-5.012,30.264-15.941,33.533-17.084c3.268-1.143,6.225-6.41,6.123-7.504
			C1620.632,703.599,1617.453,699.35,1616.159,697.263z"/>
		<path fill="none" stroke="#706649" stroke-width="3" stroke-linecap="round" stroke-linejoin="round" stroke-miterlimit="10" d="
			M1562.31,645.675"/>
		<path opacity="0.2" fill="#6D4B22" d="M1631.873,617.207c0,0,11.289,22.335,11.337,23.876c0.014,0.431,0.381,0.729-0.68,1.438
			c-2.74,1.834-9.522,4.571-13.705,6.629c-5.801,2.854-12.56,5.273-13.675,5.424c-1.06,0.145-10.326-19.277-11.981-23.361
			c0,0-0.508-0.672,0.559-1.086c1.205-0.468,24.122-13.137,25.297-13.801c0,0,1.532-0.874,1.607-0.818
			C1630.708,615.563,1631.272,615.911,1631.873,617.207z"/>
		<g>
			<path fill="#6D4B22" d="M1628.975,628.573c-1.497-1.226-3.724-2.053-5.81-2.053c-2.643,0-5.956,1.387-7.549,3.248
				c-1.301,1.52-1.252,3.492-1.252,5.648c0,2.508,1.225,4.914,2.923,6.499c1.553,1.45,3.761,2.38,6.052,2.38
				c3.146,0,5.615-1.861,7.141-4.365c0.801-1.315,1.486-2.766,1.486-4.418C1631.966,632.799,1630.923,630.165,1628.975,628.573z
				 M1628.369,636.253c-0.276,1.776-1.238,3.41-3.021,4.148c-1.297,0.537-2.766,0.529-3.985,0.072
				c-1.335-0.5-2.593-1.574-3.181-2.996c-0.506-1.221-0.997-2.328-0.617-3.491c0.467-1.429,2.018-2.993,3.514-3.612
				c1.182-0.49,2.638-0.544,3.773-0.201c1.477,0.445,2.686,1.692,3.322,3.229C1628.562,634.339,1628.515,635.319,1628.369,636.253z"
				/>
		</g>
		<path opacity="0.1" fill="#0C0804" d="M1620.731,704.692c-0.1-1.094-3.278-5.343-4.572-7.43
			c-1.294-2.088-14.301-15.883-17.203-18.535c-2.903-2.654-5.027-3.887-5.304-5.483s-2.748-15.124-4.33-19.65
			c-1.583-4.526-6.905-28.627-7.042-32.247s-19.91-42.422-20.35-43.679s-7.479-4.44-9.515-5.421
			c-2.036-0.981-16.189-6.756-19.08-8.567s-12.72-5.712-13.813-5.611s-6.211,1.607-7.293,2.55c-0.335,0.291-3.77,2.048-8.346,4.33
			l0,0c0,0,16.688,2.186,20.84,3.166c4.152,0.982,16.365,9.244,18.877,9.803c2.511,0.559,6.936-0.078,8.709,1.938
			c1.773,2.017,18.461,34.913,18.496,39.557c0.036,4.643-1.44,8.502-1.44,8.502s1.713,23.148,3.191,29.193
			c1.478,6.043,2.122,24.23,5.874,25.883c3.752,1.65,10.18,9.139,11.33,10.006c1.148,0.868,13.9,21.482,18.176,22.268l0,0
			c3.25-1.588,5.727-2.736,6.672-3.066C1617.876,711.054,1620.833,705.786,1620.731,704.692z"/>
		<path fill="none" stroke="#706649" stroke-width="2" stroke-linecap="round" stroke-linejoin="round" stroke-miterlimit="10" d="
			M1492.417,583.614c0,0,1.785-6.605,9.008-10.965c7.224-4.36,23.745-15.307,42.912-7.64"/>
		<path fill="#B1BCBB" d="M1484.327,586.349c11.402-5.116,16.526-7.613,16.526-7.613l0.571,1.635l-16.468,7.781L1484.327,586.349z"
			/>
	</g>
</g>
<g id="Layer_8">
</g>
<g id="Layer_7">
</g>
</svg>
