<?xml version="1.0" encoding="utf-8"?>
<!-- Generator: Adobe Illustrator 16.0.0, SVG Export Plug-In . SVG Version: 6.00 Build 0)  -->
<!DOCTYPE svg PUBLIC "-//W3C//DTD SVG 1.1//EN" "http://www.w3.org/Graphics/SVG/1.1/DTD/svg11.dtd">
<svg version="1.1" id="Layer_1" xmlns="http://www.w3.org/2000/svg" xmlns:xlink="http://www.w3.org/1999/xlink" x="0px" y="0px"
	 width="1664px" height="800px" viewBox="-582 -265 1664 800" enable-background="new -582 -265 1664 800" xml:space="preserve">
<g id="S">
	<path fill="#228BE0" d="M654.903-588.521c3.002,1.801,5.671,3.567,8.02,5.304c2.345,1.736,4.287,3.682,5.827,5.838
		c1.535,2.158,2.593,4.629,3.171,7.415c0.577,2.788,0.575,6.051-0.011,9.788c-0.639,4.044-1.915,7.575-3.833,10.594
		c-1.922,3.021-4.438,5.482-7.549,7.377c-3.112,1.896-6.77,3.156-10.973,3.785c-4.203,0.631-8.896,0.539-14.084-0.274
		c-4.729-0.741-8.846-1.782-12.351-3.111s-7.229-3.13-11.171-5.39c0.723-2.621,1.704-5.381,2.939-8.272
		c1.235-2.893,2.63-5.819,4.191-8.78c6.539,4.153,12.397,6.637,17.589,7.451c3.89,0.611,7.017,0.498,9.375-0.345
		c2.359-0.841,3.766-2.708,4.224-5.609c0.189-1.219,0.126-2.304-0.191-3.252c-0.319-0.951-0.814-1.79-1.48-2.521
		c-0.667-0.729-1.443-1.379-2.333-1.948c-0.888-0.57-1.797-1.122-2.728-1.661l-6.03-3.41c-2.592-1.421-4.904-2.997-6.938-4.723
		s-3.704-3.648-5.015-5.77c-1.31-2.121-2.211-4.47-2.704-7.049c-0.494-2.579-0.483-5.507,0.032-8.79
		c0.633-4.041,1.883-7.519,3.747-10.432c1.864-2.911,4.205-5.259,7.027-7.045c2.817-1.785,6.07-2.954,9.755-3.508
		c3.683-0.554,7.695-0.492,12.046,0.191c3.891,0.61,7.587,1.583,11.091,2.913c3.504,1.333,7.2,3.047,11.092,5.142
		c-0.688,2.394-1.662,4.996-2.926,7.806c-1.262,2.811-2.707,5.418-4.333,7.819c-1.855-1.149-4.041-2.393-6.567-3.728
		c-2.524-1.334-5.771-2.312-9.735-2.936c-1.225-0.193-2.404-0.259-3.546-0.205c-1.145,0.056-2.191,0.263-3.146,0.62
		c-0.956,0.36-1.769,0.936-2.438,1.728c-0.677,0.794-1.11,1.838-1.314,3.135c-0.347,2.212,0.119,3.968,1.403,5.262
		c1.277,1.296,2.852,2.48,4.717,3.555L654.903-588.521z"/>
</g>
<g id="T">
	<path fill="#FFE045" d="M697.362-555.246l-17.019-9.194c0.966-3.25,2.111-6.1,3.433-8.545c1.212-2.242,2.931-4.692,5.156-7.352
		l52.072,28.133c-0.536,1.643-1.084,3.146-1.646,4.508c-0.562,1.365-1.151,2.626-1.774,3.779c-1.214,2.244-2.937,4.776-5.165,7.609
		l-17.021-9.193l-30.828,57.065c-3.935-1.334-7.089-2.646-9.465-3.929c-2.514-1.359-5.372-3.299-8.572-5.815L697.362-555.246z"/>
</g>
<g id="Eggshell_3">
	<g>
		<g>
			<polygon fill="#FFE9E9" points="731.623,-130.423 733.479,-134.977 738.394,-132.148 745.618,-130.711 747.866,-123.08 
				760.237,-114.609 759.979,-104.044 769.466,-99.439 766.158,-90.924 769.9,-88.145 771.087,-78.953 779.145,-68.448 
				782.109,-56.946 788.039,-45.796 787.67,-36.91 789.585,-32.349 784.872,-26.54 784.832,-30.344 773.435,-35.851 
				769.361,-52.619 756.202,-65.938 753.423,-99.002 742.738,-103.848 			"/>
			<path fill="#FFE9E9" d="M753.135-62.169"/>
			<path fill="#F6AF82" d="M784.872-26.54l4.713-5.809l-1.911-4.565l0.365-8.881l-5.93-11.15l-2.961-11.507l-8.063-10.498
				l-1.185-9.195l-3.736-2.786l3.315-8.52l-9.48-4.612l0.262-10.574l-12.352-8.496l-2.211-7.665l-7.134-1.533l-4.743-2.999
				c0,0,34.954-15.358,70.346-3.052c35.4,12.303,32.215,49.338,24.377,63.822C820.703-60.074,813.767-47.412,784.872-26.54z"/>
		</g>
	</g>
</g>
<g id="Apple">
	<g>
		<path fill="#2D261F" d="M-249.479-198.488c7.213-8.784,13.953-30.163,13.161-41.794c0,0-0.397-2.17,1.522-1.975
			c1.92,0.207,6.456,0.052,7.072,0.736c0.615,0.693,0.742,1.276,0.438,1.803c-0.312,0.538-0.566,0.567-0.894,1.354
			c-0.341,0.779-15.49,32.318-13.834,39.394"/>
		<path fill="#E8DFB1" d="M-203.813-154.236"/>
		<path fill="#E8DFB1" d="M-372.39-68.597c4.905,11.859,15.431,15.742,18.021,17.759c2.583,2.023,15.921,5.979,20.639,7.86
			c4.726,1.881,9.743,7.811,15.681,13.726c5.939,5.927,48.873,15.28,53.831,16.455c4.952,1.182,36.707,2.878,37.339,3.094
			c0.627,0.206,6.905-0.501,7.739-2.318c0.841-1.818,5.092-3.428,6.229-4.753"/>
		<path fill="#E8DFB1" d="M-212.149-16.853l-7.471-9.439c-4.049-1.104-8.777-4.218-10.376-5.687l-29.452-36.353l1.208-17.238
			l20.19-44.184l21.588-15.309l39.674-15.267c1.288-0.214,4.253,0.89,3.981,0.272c-3.562-7.869-16.624-16.504-28.278-21.651
			c-11.67-5.145-60.582-20.671-70.071-23.238c-9.494-2.569-31.863-2.073-34.201-1.697c-2.334,0.387-12.784,3.318-15.305,6.198
			c-2.526,2.885-2.193,4.525-2.193,4.525c-0.024,1.583,4.395,3.451,4.395,3.451l22.762,22.117l-3.48,46.711l1.672,14.417
			l-11.987,18.021l-36.766,20.604l-26.125,1.998"/>
		<path fill="#F34044" d="M-322.882-196.072c0,0-0.256-4.368,1.67-6.293c1.929-1.917,4.699-4.412,6.514-5.673
			c1.805-1.253,14.182-4.79,28.974-1.044c14.8,3.753,16.305,0.99,20.906,1.124c4.6,0.133,19.32,3.157,25.131,5.553
			c5.827,2.395,10.324,4.932,14.586,6.111c4.268,1.184,8.795,1.883,11.527,3.478c2.719,1.599,4.674,4.81,9.496,6.405
			c4.817,1.594,11.072,5.892,13.553,8.211c2.474,2.347,16.74,10.819,17.707,18.237c-0.979-1.487-7.01-7.046-12.25-11.111
			c-5.236-4.059-11.454-6.127-12.732-6.783c-1.285-0.662-1.642,1.543-1.369,2.107c0.272,0.547,0.239,3.009-0.76,2.299
			c-1.001-0.711-3.511,1.001-4.277,0.75c-0.774-0.255,0.033,3.027-1.074,3.211c-1.098,0.179-7.428-0.492-8.941-0.254
			c-1.503,0.233-3.49,0.124-4.98-0.875c-1.491-0.989-7.06-3.351-8.26-3.125c-1.203,0.222-5.984,3.439-7.057,4.672
			c-1.07,1.237-2.081-0.031-2.081-0.031s-2.441-3.06-3.787-4.601c-1.346-1.529-3.494-4.413-5.73-6.546
			c-2.237-2.142-6.616-8.083-9.885-11.805c-3.259-3.717-10.381-7.008-14.807-9.098c-4.421-2.084-11.076-4.91-24.475-0.987
			c-13.392,3.928-15.864,1.089-18.52,0.217C-316.441-202.797-322.191-197.698-322.882-196.072z"/>
		<path fill="#F34044" d="M-371.628-69.969c0,0-1.362,1.329-1.067,2.188c0.297,0.85,3.691,7.615,4.551,8.883
			c0.86,1.278,6.195,10.235,14.601,16.932c5.298,4.226,9.574,7.742,15.398,10.925c5.443,3.899,9.328,3.617,12.811,4.833
			c4.666,1.642,20.471,3.25,25.185,4.901c4.729,1.657,10.062,6.73,17.191,9.663c7.879,3.239,21.215,7.904,24.747,8.458
			c3.536,0.544,7.466,2.502,16.526,1.354c11.164-1.414,17.023-6.15,18.556-6.869c0.232-0.111,3.22-1.992,3.22-1.992
			s4.434-4.175,5.765-5.092c0.544-0.379,0.781-0.341,1.25-0.994c0.065-0.092,0.301-0.364,0.196-0.354
			c-0.35,0.023-4.389-1.92-4.696-2.062c-1.275-0.602-10.462,5.079-10.553,5.06c-2.02-0.461-7.675-1.039-9.006-3.684
			c-1.544-3.06-2.723-7.222-3.747-6.938c-1.023,0.286-2.153,1.263-4.107,1.546c-1.958,0.277-1.743,2.787-3.697,4.002
			c-1.957,1.206-14.532-4.818-18.995-6.3c-4.472-1.482-24.771-10.379-28.49-12.244c-3.729-1.854-9.228-10.502-10.343-9.948
			c-1.113,0.579-13.49,1.423-15.704-0.307c-2.216-1.733-14.445-4.104-17.601-5.841c-3.145-1.731-0.856-3.936-2.444-4.772
			c-1.58-0.839-8.187-0.549-12.75-0.817c-4.56-0.275-11.729-3.9-12.572-4.168C-368.257-63.886-372.185-68.289-371.628-69.969z"/>
		<path fill="#D3B48C" d="M-279.394-176.982c6.64-10.646,15.59,16.447,13.23,23.571c-2.364,7.124-7.811,8.104-7.798,16.484
			c0.011,8.365-9.052,16.065-11.7,11.456c-2.66-4.591-5.473-19.948-2.688-22.746C-285.565-151.004-281.134-174.185-279.394-176.982z
			"/>
		<path fill="#D3B48C" d="M-282.281-97.843c-5.771,11.786-14.293,20.671-18.611,23.887c-4.324,3.217-15.114,3.904-15.951,5.486
			c-0.812,1.59,11.319,7.064,13.268,6.776c1.952-0.289,11.436-7.818,13.093-11.444c1.671-3.635,9.237-15.231,10.077-16.349
			c0.844-1.122,0.211-7.654,0.211-7.654L-282.281-97.843z"/>
		<path fill="#D3B48C" d="M-223.012-162.944c-1.584-2.254-2.766-4.292-6.568-1.242c-3.806,3.048-7.419,6.964-7.419,6.964
			s9.222,7.246,10.336,5.292c1.112-1.961-3.412-6.549,1.989-6.005c5.395,0.545,7.212,2.077,11.124,1.519
			c3.908-0.563,4.404-0.656,6.035-1.38c1.646-0.722,2.329-7.011,2.329-7.011s-1.684-3.342-3.354-1.111
			c-1.671,2.238-5.219,7.318-6.512,5.618C-216.354-161.996-223.012-162.944-223.012-162.944z"/>
		<path fill="#D3B48C" d="M-257.44-50.53c2.738,8.346,0.644,10.442,4.701,13.649c4.056,3.196,4.108,8.64,6.176,8.005
			c2.076-0.624-1.464-1.178-2.067,0.634c-0.604,1.818-3.26,1.403-5.207,1.68c-1.948,0.288-7.4-2.453-10.397-3.445
			c-3.001-0.995-8.317-4.623-8.317-4.623s-3.773-11.066-1.817-9.93c1.946,1.142,6.689,0.851,8.919-0.262
			C-263.217-45.941-257.44-50.53-257.44-50.53z"/>
	</g>
</g>
<g id="Apple_1_">
	<g>
		<path fill="#2D261F" d="M913.679,175.58c2.061-11.177-2.39-33.147-8.712-42.942c0,0-1.398-1.707,0.376-2.465
			c1.78-0.749,5.675-3.079,6.545-2.779c0.874,0.309,1.267,0.758,1.256,1.365c-0.013,0.622-0.221,0.771-0.126,1.618
			c0.079,0.847,2.088,35.778,6.962,41.167"/>
		<path fill="#E8DFB1" d="M975.059,192.2"/>
		<path fill="#E8DFB1" d="M868.994,348.733c10.034,8.003,21.124,6.306,24.366,6.818c3.24,0.519,16.826-2.476,21.864-3.112
			c5.047-0.643,12.308,2.119,20.366,4.421c8.066,2.312,50.163-10.284,55.07-11.656c4.905-1.362,33.514-15.248,34.171-15.365
			c0.647-0.124,5.799-3.781,5.65-5.774c-0.145-1.999,2.796-5.465,3.149-7.176"/>
		<path fill="#E8DFB1" d="M1034.26,316.452l-11.105-4.643c-4.078,0.993-9.723,0.558-11.832,0.046L967.954,294.3l-7.286-15.669
			l-3.719-48.437l11.481-23.845l27.328-32.562c1.022-0.812,4.151-1.28,3.615-1.689c-6.926-5.16-22.535-6.396-35.225-5.258
			c-12.702,1.146-63.019,11.233-72.564,13.581c-9.551,2.348-28.885,13.609-30.749,15.069c-1.855,1.468-9.581,9.091-10.393,12.832
			c-0.813,3.747,0.271,5.021,0.271,5.021c0.745,1.396,5.515,0.893,5.515,0.893l30.623,8.336l19.564,42.561l8.44,11.807l-1.768,21.57
			l-22.198,35.825l-21.896,14.394"/>
		<path fill="#F34044" d="M850.616,213.223c0,0-2.339-3.699-1.585-6.315c0.76-2.611,1.977-6.135,2.954-8.117
			c0.972-1.971,10.092-11.055,24.849-14.937c14.767-3.88,14.746-7.026,18.838-9.136c4.089-2.11,18.434-6.59,24.679-7.305
			c6.258-0.726,11.421-0.682,15.722-1.713c4.307-1.029,8.606-2.609,11.77-2.537c3.153,0.084,6.418,1.947,11.41,1.01
			c4.987-0.938,12.54-0.205,15.834,0.625c3.3,0.856,19.885,1.365,24.321,7.389c-1.577-0.828-9.544-2.773-16.097-3.793
			c-6.547-1.019-12.988,0.183-14.425,0.227c-1.445,0.043-0.689,2.145-0.178,2.507c0.503,0.347,1.665,2.518,0.447,2.38
			c-1.221-0.139-2.588,2.574-3.38,2.727c-0.802,0.15,1.494,2.633,0.614,3.329c-0.873,0.688-6.737,3.165-7.947,4.105
			c-1.202,0.932-2.994,1.798-4.781,1.646c-1.783-0.144-7.799,0.485-8.74,1.264c-0.945,0.776-3.572,5.906-3.914,7.503
			c-0.338,1.602-1.836,0.981-1.836,0.981s-3.617-1.496-5.54-2.193c-1.918-0.687-5.194-2.17-8.184-2.954
			c-2.994-0.791-9.701-3.871-14.363-5.545c-4.65-1.677-12.476-1.108-17.359-0.795c-4.878,0.316-12.069,1.064-21.896,10.982
			c-9.816,9.919-13.354,8.632-16.101,9.153C852.998,204.22,850.435,211.466,850.616,213.223z"/>
		<path fill="#F34044" d="M868.997,347.165c0,0-0.549,1.821,0.126,2.431c0.671,0.6,6.916,4.877,8.281,5.57
			c1.371,0.702,10.376,5.958,20.974,7.749c6.681,1.134,12.124,2.141,18.762,2.107c6.649,0.777,9.913-1.35,13.549-1.972
			c4.878-0.822,19.486-7.064,24.41-7.9c4.939-0.84,12.062,1.018,19.72,0.134c8.463-0.98,22.391-3.353,25.749-4.578
			c3.358-1.234,7.744-1.424,15.116-6.814c9.085-6.642,11.92-13.621,12.913-14.992c0.149-0.21,1.853-3.302,1.853-3.302
			s1.859-5.799,2.58-7.246c0.293-0.595,0.519-0.677,0.613-1.474c0.013-0.112,0.087-0.465,0-0.405
			c-0.295,0.189-4.77,0.443-5.107,0.469c-1.407,0.09-6.696,9.509-6.785,9.535c-1.99,0.574-7.219,2.806-9.663,1.136
			c-2.832-1.93-5.878-5.002-6.638-4.258c-0.757,0.746-1.273,2.147-2.846,3.341c-1.579,1.19-0.177,3.282-1.299,5.291
			c-1.129,2.003-15.048,2.818-19.67,3.683c-4.631,0.867-26.7,2.906-30.857,3.075c-4.16,0.184-13.158-4.723-13.866-3.699
			c-0.693,1.046-11.115,7.775-13.891,7.332c-2.777-0.443-14.627,3.4-18.229,3.408c-3.589,0.007-2.654-3.029-4.448-2.993
			c-1.789,0.031-7.43,3.482-11.554,5.458c-4.123,1.966-12.15,2.264-13.019,2.438C874.892,350.855,869.323,348.904,868.997,347.165z"
			/>
		<path fill="#D3B48C" d="M897.911,208.879c0.657-12.53,21.603,6.846,22.986,14.222c1.379,7.379-2.912,10.873,1.154,18.198
			c4.059,7.315-0.144,18.44-4.693,15.688c-4.55-2.729-14.444-14.808-13.361-18.604C905.085,234.598,897.742,212.168,897.911,208.879
			z"/>
		<path fill="#D3B48C" d="M933.689,279.526c0.655,13.106-2.502,25.007-4.724,29.911c-2.227,4.908-11.337,10.731-11.303,12.521
			c0.059,1.784,13.324,0.703,14.89-0.492c1.568-1.198,6.223-12.376,5.917-16.352c-0.297-3.989,0.712-17.799,0.905-19.185
			c0.195-1.39-3.521-6.8-3.521-6.8L933.689,279.526z"/>
		<path fill="#D3B48C" d="M954.042,193.872c-2.477-1.206-4.497-2.417-6.349,2.092c-1.854,4.51-3.121,9.686-3.121,9.686
			s11.577,1.878,11.605-0.373c0.024-2.254-6.155-4.079-1.165-6.216c4.984-2.135,7.315-1.675,10.469-4.057
			c3.147-2.384,3.536-2.706,4.614-4.128c1.09-1.429-1.356-7.263-1.356-7.263s-3.091-2.109-3.473,0.651
			c-0.379,2.767-1.024,8.93-2.979,8.068C960.328,191.479,954.042,193.872,954.042,193.872z"/>
		<path fill="#D3B48C" d="M978.327,308.905c6.437,5.978,5.618,8.826,10.721,9.668c5.096,0.833,7.776,5.572,9.279,4.017
			c1.515-1.551-1.851-0.322-1.503,1.556c0.353,1.882-2.173,2.806-3.743,3.99c-1.565,1.194-7.662,1.436-10.766,2.018
			c-3.107,0.581-9.516-0.019-9.516-0.019s-8.658-7.857-6.396-7.81c2.255,0.056,6.265-2.495,7.678-4.547
			C975.493,315.717,978.327,308.905,978.327,308.905z"/>
	</g>
</g>
<g id="Apple_2_">
	<g>
		<path fill="#2D261F" d="M263.467,389.324c8.711,7.301,30.021,14.255,41.66,13.58c0,0,2.174-0.375,1.96,1.543
			c-0.226,1.918-0.118,6.455-0.808,7.064c-0.699,0.607-1.283,0.729-1.807,0.42c-0.535-0.317-0.562-0.572-1.346-0.907
			c-0.775-0.349-32.16-15.814-39.252-14.229"/>
		<path fill="#E8DFB1" d="M218.758,434.543"/>
		<path fill="#E8DFB1" d="M134.82,265.111c-11.909,4.788-15.897,15.273-17.94,17.843c-2.048,2.563-6.138,15.86-8.067,20.559
			c-1.928,4.708-7.909,9.665-13.883,15.543c-5.986,5.88-15.771,48.717-16.996,53.663c-1.232,4.939-3.248,36.676-3.47,37.306
			c-0.211,0.624,0.433,6.909,2.24,7.763c1.811,0.859,3.377,5.125,4.692,6.276"/>
		<path fill="#E8DFB1" d="M81.466,424.824l9.513-7.375c1.146-4.038,4.306-8.734,5.791-10.318l36.648-29.085l17.225,1.382
			l43.979,20.634l15.09,21.741l14.866,39.825c0.203,1.29-0.932,4.243-0.312,3.979c7.903-3.483,16.67-16.457,21.934-28.06
			c5.262-11.617,21.28-60.371,23.942-69.834c2.664-9.468,2.393-31.841,2.04-34.182c-0.362-2.338-3.188-12.817-6.044-15.367
			c-2.859-2.555-4.502-2.238-4.502-2.238c-1.583-0.039-3.494,4.359-3.494,4.359l-22.345,22.538l-46.675-3.95l-14.433,1.526
			l-17.898-12.168l-20.233-36.97l-1.734-26.146"/>
		<path fill="#F34044" d="M261.79,315.9c0,0,4.372-0.213,6.276,1.732c1.898,1.948,4.364,4.743,5.607,6.57
			c1.236,1.817,4.646,14.229,0.752,28.983c-3.901,14.761-1.153,16.294-1.334,20.894c-0.179,4.598-3.35,19.287-5.806,25.074
			c-2.452,5.803-5.035,10.273-6.257,14.523c-1.227,4.255-1.971,8.775-3.593,11.492c-1.627,2.702-4.856,4.625-6.501,9.43
			c-1.643,4.803-6.002,11.014-8.347,13.471c-2.372,2.449-10.987,16.63-18.415,17.521c1.498-0.964,7.117-6.938,11.233-12.137
			c4.113-5.195,6.242-11.393,6.912-12.664c0.675-1.278-1.526-1.656-2.094-1.39c-0.55,0.267-3.011,0.208-2.292-0.784
			c0.722-0.993-0.964-3.52-0.707-4.284c0.265-0.771-3.027,0.003-3.199-1.106c-0.169-1.099,0.566-7.422,0.344-8.938
			c-0.218-1.506-0.089-3.492,0.924-4.972c1.003-1.481,3.421-7.025,3.208-8.228c-0.21-1.205-3.379-6.02-4.6-7.104
			c-1.227-1.084,0.051-2.081,0.051-2.081s3.084-2.411,4.639-3.74c1.543-1.331,4.448-3.45,6.604-5.665
			c2.164-2.215,8.149-6.533,11.903-9.766c3.751-3.221,7.112-10.309,9.246-14.713c2.128-4.4,5.021-11.027,1.233-24.465
			c-3.793-13.43-0.93-15.874-0.029-18.521C268.45,322.409,263.408,316.607,261.79,315.9z"/>
		<path fill="#F34044" d="M136.183,265.887c0,0-1.314-1.375-2.177-1.088c-0.853,0.289-7.652,3.615-8.928,4.461
			c-1.287,0.848-10.298,6.093-17.079,14.432c-4.279,5.254-7.837,9.494-11.08,15.287c-3.953,5.402-3.711,9.291-4.961,12.761
			c-1.688,4.649-3.456,20.437-5.155,25.134c-1.703,4.712-6.83,9.994-9.834,17.093c-3.317,7.847-8.117,21.136-8.706,24.661
			c-0.581,3.531-2.577,7.44-1.52,16.512c1.302,11.178,5.978,17.084,6.682,18.625c0.109,0.232,1.96,3.238,1.96,3.238
			s4.129,4.477,5.034,5.816c0.373,0.548,0.333,0.785,0.98,1.26c0.092,0.066,0.362,0.305,0.353,0.199
			c-0.02-0.35,1.964-4.368,2.109-4.675c0.615-1.269-4.974-10.513-4.953-10.603c0.481-2.016,1.116-7.664,3.773-8.969
			c3.075-1.514,7.249-2.649,6.976-3.678c-0.276-1.025-1.241-2.166-1.505-4.122c-0.257-1.96-2.769-1.771-3.964-3.737
			c-1.187-1.97,4.963-14.482,6.489-18.931c1.527-4.457,10.629-24.665,12.53-28.366c1.891-3.71,10.594-9.121,10.052-10.242
			c-0.568-1.119-1.288-13.504,0.465-15.7c1.754-2.198,4.25-14.403,6.018-17.541c1.763-3.126,3.944-0.816,4.796-2.396
			c0.854-1.572,0.631-8.181,0.944-12.743c0.321-4.556,4.018-11.688,4.295-12.528C130.067,269.197,134.509,265.314,136.183,265.887z"
			/>
		<path fill="#D3B48C" d="M242.263,359.193c10.579,6.748-16.603,15.424-23.703,12.994c-7.101-2.438-8.026-7.893-16.404-7.965
			c-8.366-0.072-15.975-9.212-11.338-11.814c4.617-2.614,20.003-5.271,22.772-2.459
			C216.349,352.762,239.484,357.426,242.263,359.193z"/>
		<path fill="#D3B48C" d="M163.158,355.512c-11.728-5.889-20.527-14.501-23.699-18.852c-3.174-4.355-3.751-15.152-5.326-16.005
			c-1.582-0.828-7.178,11.247-6.909,13.198c0.27,1.955,7.702,11.514,11.312,13.207c3.618,1.707,15.137,9.391,16.248,10.242
			c1.113,0.854,7.651,0.287,7.651,0.287L163.158,355.512z"/>
		<path fill="#D3B48C" d="M227.66,415.432c2.27-1.561,4.319-2.723,1.309-6.556c-3.01-3.836-6.89-7.489-6.89-7.489
			s-7.339,9.148-5.395,10.283c1.949,1.132,6.583-3.346,5.983,2.049c-0.599,5.389-2.148,7.191-1.629,11.108
			c0.523,3.913,0.612,4.411,1.318,6.05c0.706,1.652,6.988,2.398,6.988,2.398s3.358-1.65,1.145-3.343
			c-2.221-1.692-7.265-5.292-5.553-6.567C226.644,422.08,227.66,415.432,227.66,415.432z"/>
		<path fill="#D3B48C" d="M115.597,379.875c-8.373,2.654-10.449,0.539-13.695,4.563c-3.236,4.024-8.681,4.021-8.068,6.095
			c0.603,2.082,1.192-1.451-0.613-2.074c-1.811-0.62-1.371-3.273-1.627-5.223c-0.268-1.951,2.527-7.375,3.55-10.362
			c1.026-2.99,4.706-8.271,4.706-8.271s11.104-3.662,9.947-1.718c-1.16,1.935-0.916,6.681,0.173,8.921
			C111.066,374.052,115.597,379.875,115.597,379.875z"/>
	</g>
</g>
<g id="Eggshell_2">
	<g>
		<g>
			<polygon fill="#FFE9E9" points="481.038,410.538 482.635,415.476 477.097,416.633 470.673,420.271 464.033,415.938 
				449.125,417.49 442.492,409.262 432.278,411.899 429.292,403.258 424.646,403.571 417.802,397.312 404.863,394.515 
				395.156,387.661 383.428,382.989 377.961,375.974 373.557,373.734 373.389,366.243 375.887,369.129 385.854,359.462 
				391.381,375.158 417.307,368.259 436.418,395.128 470.504,385.616 			"/>
			<path fill="#FFE9E9" d="M420.641,372.909"/>
			<path fill="#F6AF82" d="M373.389,366.243l0.164,7.488l4.408,2.242l5.467,7.016l11.73,4.67l9.705,6.855l12.938,2.798l6.846,6.261
				l4.649-0.302l2.979,8.648l10.221-2.61l6.634,8.239l14.916-1.511l6.641,4.426l6.43-3.448l5.562-0.78
				c0,0-16.735,34.313-51.696,47.805c-34.956,13.509-56.475-16.804-59.858-32.918C367.742,415.002,364.846,400.852,373.389,366.243z
				"/>
		</g>
	</g>
</g>
<g id="Eggshell_2_2_">
	<g>
		<g>
			<polygon fill="#FFE9E9" points="726.797,136.338 731.497,138.537 728.567,143.377 726.849,150.557 719.151,152.459 
				710.122,164.423 699.58,163.664 694.545,172.934 686.188,169.226 683.25,172.838 674.004,173.577 663.136,181.134 
				651.504,183.562 640.09,188.954 631.229,188.171 626.588,189.865 620.994,184.88 624.809,185.021 624.532,171.139 
				639.783,177.798 652.414,154.129 685.1,158.47 701.384,127.051 			"/>
			<path fill="#FFE9E9" d="M658.089,154.861"/>
			<path fill="#F6AF82" d="M620.994,184.88l5.59,4.986l4.645-1.695l8.861,0.783l11.414-5.396l11.632-2.425l10.868-7.557l9.248-0.738
				l2.949-3.607l8.357,3.718l5.06-9.256l10.551,0.765l9.065-11.94l7.766-1.84l1.861-7.055l3.222-4.601
				c0,0,13.688,35.639-0.281,70.411c-13.953,34.781-50.799,29.854-64.894,21.341C652.81,222.258,640.484,214.728,620.994,184.88z"/>
		</g>
	</g>
</g>
<g id="Eggshell_2_1_">
	<g>
		<g>
			<polygon fill="#FFE9E9" points="526.65,-109.083 521.942,-106.899 520.123,-112.257 515.733,-118.192 519.23,-125.308 
				515.883,-139.918 523.247,-147.5 519.391,-157.318 527.607,-161.33 526.732,-165.903 532.116,-173.456 533.325,-186.638 
				538.952,-197.104 542.169,-209.312 548.47,-215.589 550.159,-220.232 557.575,-221.306 555.013,-218.477 565.816,-209.755 
				550.906,-202.367 560.896,-177.468 536.54,-155.242 550.112,-122.559 			"/>
			<path fill="#FFE9E9" d="M556.684-173.595"/>
			<path fill="#F6AF82" d="M557.575-221.306l-7.413,1.07l-1.692,4.647l-6.301,6.277l-3.214,12.21l-5.63,10.464l-1.209,13.182
				l-5.385,7.554l0.862,4.579l-8.224,4.005l3.83,9.829l-7.375,7.583l3.307,14.623l-3.588,7.128l4.201,5.964l1.449,5.426
				c0,0-36.089-12.454-53.717-45.522c-17.646-33.062,9.837-58.095,25.422-63.406C508.491-221.003,522.187-225.593,557.575-221.306z"
				/>
		</g>
	</g>
</g>
<g id="Eggshell_1">
	<g>
		<polyline fill="#FFE9E9" points="-401.262,136.381 -397.154,136.254 -399.37,166.467 -411.606,167.998 -407.304,191.609 
			-428.607,199.619 -433.08,210.635 -450.886,218.189 -446.538,227.416 -461.274,236.273 -467.843,231.707 -470.264,214.146 
			-446.116,163.502 -409.233,132.255 -397.518,132.591 		"/>
		<path fill="#F6AF82" d="M-461.874,235.275l-1.441-5.01l0.178-5.342l3.322-5.221l0.089-1.939l1.667-2.885l2.443-2.547l5.06-1.963
			l-1.227-5.422c0,0,4.107-0.684,4.586-1.377c0.475-0.695,4.589-10.598,5.182-11.473c0.589-0.857,10.787-6.664,10.787-6.664
			l2.203-3.592l-0.859-7.711c0,0,5.791-3.674,6.04-5.539c0.253-1.867,4.657-6.494,4.657-6.494s3.86-9.074,4.154-9.885
			c0.302-0.807,1.878-2.031,2.47-2.9c0.588-0.865,0.108-5.008,0.108-5.008s3.452-2.484,3.927-3.186
			c0.468-0.688,7.186-1.988,7.186-1.988l0.08-2.742l4.11-0.125l-0.386-3.7c-4.529-3.064-35.955-21.807-60.141-16.846
			c-24.184,4.957-29.787,8.779-40.384,23.696c-10.605,14.916-7.346,40.484-2.875,51.895
			C-496.47,202.705-485.684,220.926-461.874,235.275z"/>
	</g>
</g>
<g id="Peanut_2">
	<g>
		<g>
			<path fill="#E5A045" d="M240.643-222.083c4.008,4.504,9.134,10.328,9.834,16.195c0.694,5.86,2.07,10.378-0.564,16.475
				c-2.637,6.085-7.185,10.503-8.414,13.297c-1.221,2.79-0.776,7.972-0.521,11.163c0.26,3.179,1.212,11.837-1.359,18.326
				c-2.562,6.489-7.211,9.563-9.273,11.313c-2.053,1.754-6.494,3.451-8.812,2.25c-2.331-1.196-6.042-5.746-7.694-7.903
				c-1.655-2.153-6.654-9.49-8.199-16.86c-1.541-7.378,3.436-18.903,5.124-20.97c1.696-2.063,6.155-5.335,5.98-8.892
				c-0.176-3.561-1.145-6.354-1.794-9.858c-0.648-3.501-0.721-11.266,1.814-16.435c2.523-5.167,9.248-11.403,13.307-12.084
				C234.141-226.77,238.411-224.6,240.643-222.083z"/>
		</g>
		<path fill="#6D4B22" d="M240.688-171.244c-0.813,0.195-4.203,0.894-8.873,0.334c-0.655-0.086-1.355-0.191-2.1-0.338
			c0.287-2.678,1.352-5.591,3.961-9.302c2.303-3.277,4.139-7.179,5.475-11.621c3.037,1.176,6.275,2.827,9.604,5.108
			c0.168-0.312,0.321-0.642,0.481-0.968c-3.396-2.304-6.691-3.982-9.789-5.176c0.107-0.386,0.208-0.775,0.314-1.17
			c1.073-4.275,1.734-9.031,1.938-14.12c0.009-0.172,0.012-0.336,0.021-0.508c4.535,2.115,7.892,4.55,9.06,5.439l-0.201-1.486
			c-1.683-1.211-4.837-3.298-8.829-5.118c0.094-4.731-0.209-8.745-0.471-11.203c-0.216-0.245-0.426-0.478-0.637-0.711
			c-0.181-0.208-0.393-0.393-0.603-0.602c0.252,1.97,0.729,6.463,0.646,12.043c-0.335-0.143-0.695-0.288-1.053-0.431
			c-4.215-1.67-8.324-2.56-12.208-2.636c-0.628-0.015-1.234-0.004-1.856,0.021c1.155-5.818,2.336-10.369,2.723-11.806
			c-0.416,0.188-0.842,0.413-1.287,0.664c-0.54,2.069-1.568,6.204-2.553,11.219c-3.086,0.274-6,1.075-8.736,2.401
			c-0.136,0.457-0.268,0.922-0.361,1.394c2.758-1.48,5.729-2.38,8.886-2.703c-0.102,0.502-0.192,0.997-0.282,1.504
			c-1.023,5.635-1.681,10.66-1.951,15.064c-3.381,0.25-5.667,0.888-6.463,1.144l0.238,1.062c0.641-0.209,2.845-0.855,6.163-1.116
			c-0.194,4.033-0.054,7.511,0.416,10.41c0.634,3.892,0.144,7.192-0.853,10.426c-2.932-1.443-6.057-3.501-9.166-6.429l-0.748,0.767
			c3.247,3.05,6.511,5.208,9.582,6.69c-0.59,1.723-1.308,3.445-2.055,5.244c-1.834,4.398-3.814,9.155-4.606,15.428
			c-4.522-2.094-7.667-4.605-8.89-5.662c0.016,0.056,0.01,0.102,0.023,0.151c0.117,0.534,0.242,1.061,0.392,1.586
			c1.689,1.334,4.536,3.322,8.353,5.051c-0.33,3.249-0.34,6.909,0.156,11.113l1.285,1.576c-0.674-4.689-0.73-8.709-0.396-12.246
			c3.686,1.544,7.477,2.473,11.285,2.768c0.826,0.063,1.648,0.092,2.476,0.104c-0.949,4.119-2.742,9.073-5.887,15.21
			c0.401,0.005,0.827-0.016,1.253-0.075c3.066-6.09,4.817-11.02,5.742-15.156c3.436-0.097,6.867-0.698,10.268-1.839
			c0.093-0.4,0.182-0.811,0.255-1.22c-3.393,1.188-6.84,1.855-10.283,1.98c1.278-6.518,0.486-10.975-0.221-14.871
			c-0.392-2.2-0.75-4.205-0.677-6.308c0.735,0.139,1.442,0.246,2.101,0.329c4.472,0.533,7.755-0.028,8.948-0.298L240.688-171.244
			 M225.566-196.04c-0.867-0.014-1.695-0.004-2.47,0.036c0.357-5.601,1.282-11.522,2.263-16.593c0.662-0.04,1.343-0.059,2.021-0.035
			c3.756,0.078,7.734,0.93,11.834,2.554c0.498,0.202,0.977,0.397,1.448,0.607c-0.007,0.311-0.017,0.629-0.029,0.943
			c-0.176,4.322-0.741,9.646-2.21,14.951C233.393-195.393,228.943-195.96,225.566-196.04z M222.491-173.563
			c1.067-3.406,1.608-6.882,0.925-11.064c-0.495-3.04-0.572-6.593-0.383-10.302c0.779-0.048,1.62-0.056,2.504-0.036
			c3.309,0.073,7.657,0.637,12.587,2.411c-1.185,3.98-2.888,7.912-5.337,11.383c-2.688,3.839-3.803,6.912-4.128,9.709
			C226.781-171.895,224.701-172.563,222.491-173.563z M215.547-151.878c0.748-6.302,2.73-11.064,4.561-15.46
			c0.746-1.783,1.457-3.487,2.055-5.203c2.295,1.038,4.459,1.718,6.413,2.155c-0.103,2.292,0.28,4.43,0.683,6.71
			c0.686,3.843,1.472,8.228,0.166,14.704c-0.863,0.003-1.731-0.032-2.601-0.09C223.021-149.351,219.227-150.299,215.547-151.878z"/>
	</g>
</g>
<g id="C">
	<path fill="#73DB71" d="M284.393-513.586c10.59,12.483,21.125,14.275,31.605,5.385c1.884-1.6,3.516-3.284,4.895-5.062
		c1.375-1.776,2.922-4.101,4.637-6.976c5.541,2.592,10.533,5.85,14.978,9.773c-1.155,2.096-2.298,3.979-3.419,5.633
		c-1.124,1.664-2.275,3.17-3.452,4.525c-1.182,1.354-2.394,2.641-3.644,3.852c-1.252,1.213-2.582,2.418-3.994,3.617
		c-5.006,4.248-10.096,7.172-15.266,8.774s-10.262,2.051-15.271,1.337c-5.008-0.709-9.858-2.518-14.552-5.424
		c-4.692-2.903-9.036-6.711-13.032-11.421c-3.998-4.712-7.03-9.655-9.099-14.837c-2.066-5.184-3.07-10.334-3.006-15.451
		c0.062-5.117,1.277-10.098,3.646-14.944c2.369-4.845,5.938-9.292,10.708-13.338c2.826-2.398,5.682-4.464,8.562-6.202
		c2.879-1.734,6.403-3.31,10.573-4.722c1.933,2.516,3.478,5.23,4.636,8.146c1.156,2.917,2.049,5.579,2.672,7.984
		c-1.526,0.589-2.898,1.146-4.123,1.675c-1.219,0.53-2.349,1.08-3.381,1.655c-1.033,0.57-2.027,1.188-2.986,1.85
		c-0.956,0.661-1.938,1.416-2.938,2.268c-4.769,4.047-7.103,8.785-6.998,14.219C276.245-525.836,278.994-519.943,284.393-513.586z"
		/>
</g>
<g id="Banana">
	<g>
		<path fill="#FFDD50" d="M-383.56,273.655c0,0-5.959,48.389,70.719,41.971c17.596-1.475,43.109-5.902,64.04-31.494
			c10.37-12.688,37.315-60.694,53.145-61.748c15.821-1.041,21.311,1.576,29.693-0.57c8.378-2.142,21.456-16.75,21.456-16.75
			l13.06,9.9c0,0-15.542,8.955-18.016,18.547c-1.875,7.271,1.1,9.832,6.454,16.705c8.393,10.791,6.808,61.657,1.883,88.737
			c-4.917,27.077-13.437,51.407,6.495,79.062c4.555,6.314,20.965,15.465,26.169,16.459c12.443,2.365,24.28-6.734,30.73-9.941
			c6.616-3.305,8.251-3.449,9.234-1.85c1.597,2.594-17.656,44.801-44.107,41.154c-26.47-3.65-47.319-16.188-60.17-53.562
			c-12.53-36.445-11.77-61.227-7.466-88.281c0,0-26.397,28.857-28.87,62.564c-2.447,33.469-0.023,36.527,3.981,45.727
			c4.46,10.223,11.81,19.785,24.767,27.799c12.962,8.008,14.246,6.781,16.12,7.668c1.873,0.896,2.758,3.854,1.952,5.539
			c-0.796,1.684-2.791,8.783-9.973,11.334c-7.191,2.551-37.577-3.174-54.062-20.213c-16.479-17.045-34.638-44.078-26.942-82.938
			c7.7-38.859,20.29-64.352,21.72-66.887c0,0-12.44,9.703-22.321,16.957c-9.883,7.254-52.022,23.35-69.017,21.695
			c-16.991-1.645-71.784-5.67-80.658-42.374c0,0-6.916-20.323,4.671-30.735C-385.886,266.455-384.059,271.802-383.56,273.655z"/>
		<path fill="#302A0F" d="M-149.645,240.201c-0.534-1.891-0.523-3.956,0.182-6.692c2.47-9.584,18.016-18.547,18.016-18.547
			l-13.059-9.9c0,0-13.079,14.61-21.458,16.752c-2.502,0.636-4.747,0.852-7.083,0.868
			C-170.003,228.409-163.448,236.243-149.645,240.201z"/>
	</g>
</g>
<g id="E">
	<path fill="#FF5B29" d="M606.051-500.396c-0.177,2.698-0.72,5.681-1.631,8.946l-22.306-1.463l-1.075,16.412l29.009,1.898
		c0.482,3.283,0.638,6.236,0.467,8.854c-0.188,2.853-0.731,5.873-1.641,9.062l-49.465-3.241l5.441-83.1l48.773,3.195
		c0.196,1.715,0.322,3.312,0.384,4.783c0.057,1.478,0.045,2.867-0.043,4.178c-0.165,2.541-0.673,5.565-1.521,9.07l-28.318-1.857
		l-0.832,12.714l22.308,1.464C606.073-506.041,606.224-503.016,606.051-500.396z"/>
</g>
<g id="L">
	<path fill="#73DB71" d="M518.739-557.068c2.097,0.198,3.988,0.423,5.677,0.676c1.687,0.255,3.166,0.54,4.442,0.853
		c1.35,0.333,2.848,0.779,4.502,1.342c1.646,0.562,3.41,1.236,5.289,2.012l-15.451,62.996l25.984,6.372
		c-0.087,1.968-0.24,3.659-0.471,5.073c-0.229,1.416-0.479,2.684-0.754,3.812c-0.312,1.274-0.697,2.59-1.148,3.952
		c-0.453,1.359-1.105,2.97-1.957,4.822l-45.896-11.254L518.739-557.068z"/>
</g>
<g id="Pi">
	<g>
		<path fill="#F34044" d="M357.091-528.888c1.42-1.092,3.608-2.739,6.567-4.952c2.959-2.205,6.845-4.707,11.65-7.496
			c3.539-2.06,7.307-3.797,11.301-5.224c3.994-1.426,7.975-2.063,11.945-1.913c3.973,0.151,7.828,1.371,11.569,3.664
			c3.741,2.292,7.161,6.109,10.264,11.452c2.752,4.742,4.323,9.099,4.709,13.071c0.386,3.972-0.062,7.58-1.349,10.824
			c-1.284,3.246-3.217,6.152-5.789,8.717c-2.572,2.566-5.462,4.781-8.664,6.64c-1.271,0.737-2.586,1.433-3.947,2.089
			c-1.357,0.654-2.346,1.074-2.957,1.248l13.549,23.339c-1.543,1.343-2.977,2.486-4.301,3.437c-1.326,0.947-2.588,1.771-3.79,2.469
			c-2.339,1.357-5.419,2.745-9.237,4.158L357.091-528.888z M394.076-505.092c0.41-0.059,1.035-0.289,1.875-0.688
			c0.844-0.396,1.695-0.85,2.564-1.352c2.871-1.668,4.725-3.861,5.557-6.576c0.836-2.713,0.264-5.777-1.715-9.186
			c-1.162-2.004-2.427-3.523-3.789-4.562c-1.36-1.039-2.785-1.688-4.271-1.94c-1.487-0.252-2.995-0.156-4.522,0.284
			c-1.531,0.441-3.029,1.089-4.5,1.939c-0.4,0.232-0.867,0.504-1.4,0.814c-0.536,0.309-1.049,0.654-1.544,1.029L394.076-505.092z"/>
	</g>
</g>
<g id="cO">
	<path fill="#FFE045" d="M306.281-563.247c-2.909-5.447-4.983-10.842-6.215-16.179c-1.234-5.338-1.449-10.411-0.647-15.219
		c0.802-4.804,2.711-9.261,5.726-13.368c3.014-4.106,7.313-7.651,12.899-10.636c5.584-2.984,10.901-4.58,15.959-4.787
		c5.056-0.206,9.803,0.693,14.244,2.697c4.44,2.005,8.539,5.002,12.294,8.993c3.75,3.992,7.084,8.712,9.997,14.159
		c2.909,5.451,4.965,10.809,6.161,16.078c1.197,5.271,1.382,10.293,0.562,15.063c-0.82,4.773-2.738,9.17-5.755,13.188
		c-3.021,4.02-7.317,7.523-12.901,10.507c-5.586,2.983-10.904,4.621-15.955,4.914c-5.055,0.295-9.795-0.543-14.215-2.517
		c-4.426-1.967-8.494-4.915-12.213-8.839C312.508-553.112,309.195-557.797,306.281-563.247z M351.536-587.432
		c-7.935-14.847-16.228-19.958-24.875-15.337c-8.853,4.732-9.312,14.521-1.378,29.367c3.968,7.423,7.998,12.384,12.089,14.881
		c4.093,2.498,8.387,2.543,12.881,0.141C358.971-563.039,359.398-572.722,351.536-587.432z"/>
</g>
<g id="Peanut_1">
	<g>
		<g>
			<path fill="#E5A045" d="M850.74-166.465c-5.962-0.95-13.614-2.204-17.872-6.295c-4.255-4.096-8.185-6.714-10.008-13.094
				c-1.817-6.379-1.107-12.681-1.92-15.615c-0.825-2.931-4.458-6.651-6.679-8.954c-2.219-2.302-8.443-8.395-10.57-15.038
				c-2.127-6.645-0.483-11.969,0.007-14.631c0.48-2.658,2.825-6.791,5.388-7.33c2.561-0.544,8.316,0.619,10.966,1.241
				c2.641,0.62,11.154,3.124,17.025,7.846c5.873,4.721,9.329,16.795,9.331,19.466c-0.006,2.664-1.389,8.014,1.006,10.665
				c2.391,2.64,4.905,4.181,7.643,6.479c2.727,2.301,7.688,8.262,9.018,13.862c1.325,5.596,0.065,14.68-2.631,17.789
				C858.739-166.965,854.053-165.936,850.74-166.465z"/>
		</g>
		<path fill="#6D4B22" d="M818.47-205.754c0.504-0.668,2.685-3.359,6.651-5.885c0.562-0.354,1.175-0.717,1.845-1.076
			c1.468,2.256,2.5,5.183,2.832,9.708c0.292,3.991,1.343,8.18,3.132,12.459c-3.1,1.015-6.646,1.793-10.663,2.137
			c0.065,0.354,0.157,0.708,0.233,1.062c4.089-0.369,7.702-1.167,10.859-2.207c0.162,0.367,0.328,0.736,0.497,1.108
			c1.88,4,4.386,8.089,7.444,12.145c0.101,0.137,0.21,0.273,0.301,0.404c-4.843,1.244-8.978,1.494-10.44,1.541l1.098,1.019
			c2.062-0.122,5.829-0.503,10.065-1.633c2.927,3.723,5.714,6.634,7.467,8.358c0.321,0.051,0.64,0.102,0.948,0.151
			c0.262,0.045,0.557,0.059,0.844,0.08c-1.44-1.36-4.663-4.535-8.13-8.906c0.353-0.1,0.713-0.221,1.081-0.334
			c4.323-1.387,8.063-3.298,11.123-5.704c0.487-0.378,0.962-0.777,1.421-1.19c2.792,5.236,4.765,9.504,5.377,10.857
			c0.204-0.406,0.396-0.854,0.577-1.327c-0.902-1.943-2.729-5.793-5.14-10.295c2.213-2.162,3.961-4.641,5.231-7.395
			c-0.182-0.44-0.384-0.877-0.601-1.306c-1.195,2.889-2.929,5.471-5.168,7.713c-0.24-0.443-0.477-0.881-0.724-1.328
			c-2.774-5.01-5.468-9.317-8.048-12.896c2.458-2.329,3.816-4.277,4.278-4.982l-0.855-0.659c-0.367,0.559-1.657,2.463-4.067,4.763
			c-2.399-3.24-4.711-5.84-6.911-7.79c-2.964-2.609-4.677-5.471-5.949-8.598c3.191-0.743,6.905-1.125,11.161-0.842l0.102-1.067
			c-4.447-0.301-8.338,0.109-11.664,0.902c-0.642-1.708-1.174-3.498-1.741-5.365c-1.369-4.562-2.849-9.494-6.206-14.845
			c4.822-1.248,8.843-1.297,10.461-1.251c-0.036-0.029-0.072-0.07-0.112-0.104c-0.423-0.339-0.856-0.663-1.31-0.979
			c-2.145,0.039-5.619,0.306-9.662,1.39c-1.805-2.728-4.118-5.558-7.164-8.503l-1.992-0.403c3.491,3.201,6.086,6.274,8.068,9.216
			c-3.822,1.151-7.349,2.834-10.477,5.022c-0.674,0.473-1.34,0.974-1.977,1.49c-1.888-3.797-3.64-8.752-5.098-15.49
			c-0.311,0.246-0.624,0.528-0.914,0.851c1.482,6.652,3.256,11.581,5.155,15.354c-2.597,2.252-4.863,4.906-6.773,7.932
			c0.196,0.369,0.379,0.739,0.585,1.098c1.867-3.067,4.115-5.77,6.699-8.043c3.148,5.852,6.587,8.794,9.596,11.361
			c1.696,1.449,3.244,2.772,4.517,4.443c-0.656,0.363-1.271,0.728-1.83,1.086c-3.799,2.417-5.979,4.937-6.731,5.902L818.47-205.754
			 M845.893-196.171c0.679-0.538,1.305-1.068,1.891-1.584c3.273,4.562,6.303,9.716,8.765,14.264
			c-0.492,0.452-1.005,0.896-1.541,1.312c-2.954,2.322-6.574,4.178-10.77,5.53c-0.511,0.157-1.007,0.31-1.509,0.449
			c-0.184-0.244-0.373-0.493-0.57-0.743c-2.604-3.458-5.538-7.933-7.767-12.964C839.426-191.708,843.224-194.089,845.893-196.171z
			 M834.015-215.497c1.334,3.317,3.128,6.341,6.304,9.141c2.308,2.041,4.619,4.736,6.824,7.723
			c-0.577,0.526-1.223,1.064-1.914,1.612c-2.603,2.039-6.324,4.364-11.265,6.118c-1.606-3.831-2.78-7.954-3.095-12.185
			c-0.344-4.676-1.436-7.761-2.952-10.126C829.643-214.068,831.676-214.876,834.015-215.497z M825.639-236.676
			c3.415,5.353,4.899,10.289,6.273,14.847c0.558,1.85,1.087,3.62,1.715,5.322c-2.429,0.657-4.542,1.503-6.324,2.402
			c-1.38-1.841-3.033-3.251-4.785-4.753c-2.968-2.536-6.356-5.436-9.452-11.269c0.668-0.552,1.355-1.079,2.067-1.58
			C818.261-233.887,821.798-235.564,825.639-236.676z"/>
	</g>
</g>
<g id="O">
	<path fill="#F34044" d="M541.425-619.752c1.721-5.932,4-11.24,6.846-15.924c2.846-4.68,6.232-8.463,10.161-11.344
		c3.931-2.88,8.407-4.739,13.435-5.573c5.022-0.835,10.578-0.371,16.661,1.391c6.079,1.762,11.001,4.334,14.769,7.716
		c3.761,3.382,6.533,7.342,8.313,11.877c1.777,4.536,2.617,9.543,2.521,15.02c-0.104,5.479-1.011,11.185-2.729,17.118
		c-1.722,5.934-3.991,11.203-6.814,15.812c-2.822,4.608-6.195,8.334-10.113,11.177c-3.918,2.844-8.36,4.652-13.328,5.424
		c-4.968,0.77-10.489,0.275-16.57-1.487c-6.083-1.764-11.035-4.304-14.854-7.622c-3.823-3.317-6.63-7.228-8.421-11.725
		c-1.792-4.498-2.646-9.45-2.566-14.853C538.807-608.151,539.705-613.818,541.425-619.752z M590.707-605.47
		c4.686-16.167,2.315-25.617-7.102-28.347c-9.642-2.794-16.804,3.894-21.489,20.061c-2.343,8.085-2.92,14.45-1.733,19.093
		c1.185,4.646,4.229,7.676,9.12,9.095C578.996-582.816,586.063-589.45,590.707-605.47z"/>
</g>
<g id="P">
	<path fill="#73DB71" d="M487.734-681.983c1.789-0.084,4.529-0.186,8.22-0.306c3.688-0.117,8.305,0.052,13.847,0.512
		c4.078,0.339,8.164,1.065,12.254,2.179c4.093,1.114,7.724,2.87,10.896,5.263c3.172,2.396,5.636,5.602,7.396,9.621
		c1.76,4.021,2.381,9.109,1.871,15.265c-0.454,5.463-1.656,9.935-3.611,13.415c-1.957,3.48-4.392,6.183-7.301,8.11
		c-2.912,1.928-6.154,3.208-9.73,3.84c-3.58,0.633-7.215,0.795-10.906,0.49c-1.463-0.122-2.939-0.303-4.432-0.542
		c-1.492-0.24-2.539-0.461-3.143-0.667l-2.23,26.894c-2.035,0.217-3.863,0.336-5.492,0.356c-1.63,0.02-3.136-0.027-4.521-0.143
		c-2.695-0.223-6.015-0.846-9.957-1.872L487.734-681.983z M504.464-641.311c0.371,0.186,1.016,0.355,1.932,0.509
		c0.918,0.154,1.877,0.272,2.877,0.355c3.311,0.274,6.086-0.462,8.321-2.215c2.238-1.75,3.519-4.589,3.845-8.513
		c0.191-2.31,0.024-4.279-0.498-5.911c-0.522-1.63-1.32-2.975-2.395-4.034c-1.075-1.058-2.367-1.843-3.873-2.355
		c-1.509-0.513-3.107-0.84-4.799-0.98c-0.464-0.038-1.003-0.084-1.617-0.135c-0.615-0.05-1.236-0.062-1.855-0.038L504.464-641.311z"
		/>
</g>
<g id="M">
	<path fill="#FF5B29" d="M377.152-662.914c1.526-0.586,3.193-1.182,4.994-1.793c1.803-0.606,3.492-1.091,5.075-1.452
		c1.505-0.343,3.163-0.621,4.976-0.837c1.812-0.214,3.498-0.38,5.056-0.499l25.61,38.355l7.024-45.793
		c1.454-0.567,2.931-1.122,4.433-1.663c1.498-0.538,3.002-0.98,4.512-1.324c1.578-0.36,3.219-0.634,4.919-0.825
		c1.698-0.188,3.364-0.35,4.997-0.485l22.215,79.757c-1.154,0.5-2.438,1.031-3.855,1.591c-1.416,0.56-3.33,1.116-5.738,1.664
		c-2.635,0.603-5.834,0.974-9.604,1.121l-12.236-46.393l-5.396,33.661c-1.304,0.534-2.613,1.032-3.936,1.49
		c-1.321,0.461-2.547,0.819-3.676,1.075c-1.132,0.257-2.31,0.467-3.541,0.629c-1.23,0.161-2.52,0.238-3.867,0.229l-17.99-27.855
		l9.31,46.584c-3.009,1.397-5.942,2.421-8.802,3.074c-2.639,0.6-5.764,0.956-9.38,1.069L377.152-662.914z"/>
</g>
<g id="Dirt">
</g>
<g id="Tomato">
	<g>
		<polyline fill="#FF9076" points="659.49,344.37 704.242,406.03 770.995,464.446 771.147,464.798 838.521,453.607 805.731,317.388 
			684.473,268.272 		"/>
		<path fill="#529756" d="M688.368,424.058c-1.94-1.242,5.604-18.471-3.384-20.023c-10.542-1.819-23.304-5.591-32.08-15.451
			c-6.397-1.667-11.718-2.368-14.543-1.705l22.857,20.53c0,0-26.702,18.345-41.037,27.351c0,0,49.822-14.177,59.993-12.879
			l11.036,43.175c0.058-2.479,2.168-8.912,4.216-16.735C687.522,436.39,688.368,424.058,688.368,424.058z"/>
		<path fill="#FF5B29" d="M684.473,268.272L684.473,268.272c-18.705,14.292-41.153,38.43-42.013,87.335
			c-0.266,15.302,4.02,25.768,10.447,32.975c8.771,9.855,20.435,13.437,30.976,15.25c8.982,1.554,2.229,12.372,3.238,19.72
			c0,0,0.402,12.836,8.306,24.768c2.027,3.062,4.626,6.102,7.979,8.903c16.398,13.664,45.147,30.413,82.833,26.309
			c15.909-1.732,35.452-12.904,52.473-29.87C838.441,453.647,690.879,396.824,684.473,268.272z"/>
		<path fill="#B53C1F" d="M742.366,376.105c8.739,9.431,26.145,23.695,36.867,27.928c10.718,4.222,9.803-25.802,11.718-32.82
			c2.762-10.119,11.79-28.13,2.489-34.025c-9.301-5.902-30.817-3.039-42.192-2.663c-8.18,0.271-31.852,1.212-31.526,7.783
			C720.051,348.884,742.366,376.105,742.366,376.105z"/>
		<path fill="#B53C1F" d="M811.477,341.232c-5.54-4.235-19.331,52.645-16.948,59.731c3.15,9.356,9.03,17.149,18.711,21.96
			c4.836,2.414,17.068-1.017,16.021-7.749"/>
		<path fill="#B53C1F" d="M793.396,312.397c-3.983,5.667-15.449,13.854-25.407,14.206c-13.045,0.464-39.697,8.629-47.616,5.552
			c-7.919-3.067-12.011-8.527-16.357-17.458c0,0-9.202-16.17,2.19-37.615L793.396,312.397z"/>
		<path fill="#F9A565" d="M801.747,398.011c5.416,3.03,6.381-2.278,6.999-5.447c0.627-3.15-1.53-11.446-3.31-8.907
			C803.656,386.202,794.733,394.086,801.747,398.011z"/>
		<path fill="#F9A565" d="M736.489,347.976c-1.086,5.013,1.75,6.684,4.37,6.98c2.623,0.299,13.665-2.294,13.154-4.258
			c-0.517-1.97-0.786-2.156-2.216-2.612C750.38,347.633,738.332,339.493,736.489,347.976z"/>
		<path fill="#F9A565" d="M717.064,308.773c1.234,5.086,0.999,6.984,4.182,7.259c3.192,0.277,15.206-3.786,17.274-5.79
			c2.082-2.003,0.924-2.704-0.548-3.795c-1.468-1.088-6.197-1.186-8.777-0.899C726.609,305.833,715.828,303.701,717.064,308.773z"/>
		<path fill="#F9A565" d="M818.365,406.082c5.719-0.503,4.808-6.021,2.452-10.389c-2.36-4.367-4.711-6.559-6.411-4.003
			C812.706,394.255,807.796,406.993,818.365,406.082z"/>
		<path fill="#F9A565" d="M774.293,389.871c4.28,1.924,7.392,0.817,8.07-1.104c0.687-1.92,2.485-8.934,2.229-10.963
			c-0.311-2.4-0.652-3.747-4.336-3.175c-2.007,0.324-4.706,1.833-8.997,8.415C768.78,386.858,771.746,388.726,774.293,389.871z"/>
		<path fill="#F9A565" d="M759.442,382.357c-2.819-3.993-2.687-5.169-1.155-7.274c1.533-2.108,8.858-5.879,10.597-5.067
			c1.741,0.822,1.606,0.663,1.163,3.133c-0.442,2.453-2.185,9.393-5.186,10.7C761.868,385.159,760.94,384.501,759.442,382.357z"/>
		<path fill="#F9A565" d="M726.429,322.465c0.349-4.885,1.599-5.784,5.392-6.648c3.801-0.862,16.091,0.187,17.407,1.854
			c1.33,1.649,1.312,1.463-1.515,3.227c-2.821,1.766-11.356,6.501-16.17,5.881C726.729,326.152,726.233,325.085,726.429,322.465z"/>
		<path fill="#F9A565" d="M715.284,289.323c-0.977,2.476-2.824,7.473,2.765,9.149c5.592,1.677,18.688,1.747,19.16-0.396
			c0.473-2.149-6.443-8.669-13.61-10.763C716.432,285.221,716.079,287.346,715.284,289.323z"/>
		<path fill="#F9A565" d="M746.27,365.981c1.966,3.377,2.377,5.254,4.156,5.899c1.77,0.671,10.191-6.041,10.479-10.466
			c0.159-2.504-3.166-3.023-4.983-2.222C754.124,359.979,743.325,360.931,746.27,365.981z"/>
	</g>
</g>
<g id="Tomato_1_">
	<g>
		<polyline fill="#FF9076" points="-314.359,199.878 -277.489,166.492 -244.271,119.055 -244.054,118.932 -256.059,75.99 
			-342.165,106.858 -365.509,189.019 		"/>
		<path fill="#529756" d="M-264.671,175.526c-0.669,1.347-12.382-2.338-12.758,3.605c-0.438,6.97-1.989,15.519-7.771,21.909
			c-0.631,4.27-0.712,7.772-0.083,9.56l11.716-16.281c0,0,13.786,16.04,20.64,24.711c0,0-12.708-31.34-12.582-38.032l27.246-10.202
			c-1.613,0.138-5.937-0.78-11.159-1.559C-256.607,175.207-264.671,175.526-264.671,175.526z"/>
		<path fill="#FF5B29" d="M-365.509,189.019L-365.509,189.019c10.592,11.135,27.839,24.006,59.642,21.122
			c9.951-0.904,16.442-4.423,20.667-9.102c5.779-6.387,7.283-14.208,7.718-21.178c0.376-5.939,7.873-2.317,12.571-3.49
			c0,0,8.303-1.164,15.491-7.134c1.845-1.531,3.635-3.432,5.217-5.806c7.715-11.604,16.562-31.442,11.246-55.613
			c-2.244-10.204-10.87-22.103-23.08-31.956C-256.027,76.039-282.523,175.813-365.509,189.019z"/>
		<path fill="#B53C1F" d="M-299.595,143.854c5.506-6.336,13.54-18.637,15.532-25.895c1.986-7.253-17.437-4.547-22.126-5.295
			c-6.762-1.081-19.088-5.673-22.26,0.778c-3.176,6.452,0.196,20.216,1.241,27.573c0.752,5.289,3.028,20.588,7.271,19.914
			C-315.692,160.253-299.595,143.854-299.595,143.854z"/>
		<path fill="#B53C1F" d="M-327.093,101.451c-2.359,3.895,35.53,8.842,39.961,6.797c5.851-2.703,10.496-7.068,12.937-13.689
			c1.227-3.31-1.861-11.007-6.157-9.854"/>
		<path fill="#B53C1F" d="M-344.536,115.217c3.958,2.187,10.079,9.052,11.009,15.49c1.219,8.435,8.394,25.158,6.955,30.516
			c-1.434,5.355-4.69,8.395-10.181,11.846c0,0-9.847,7.109-24.568,1.225L-344.536,115.217z"/>
		<path fill="#F9A565" d="M-289.556,103.771c1.585-3.729-1.928-3.981-4.028-4.159c-2.089-0.186-7.322,1.799-5.548,2.775
			C-297.354,103.363-291.61,108.6-289.556,103.771z"/>
		<path fill="#F9A565" d="M-317.438,149.647c3.33,0.353,4.214-1.605,4.223-3.327c0.01-1.724-2.45-8.709-3.689-8.238
			c-1.242,0.474-1.344,0.662-1.539,1.622C-318.639,140.656-323.074,149.049-317.438,149.647z"/>
		<path fill="#F9A565" d="M-341.516,165.014c3.214-1.158,4.462-1.139,4.417-3.225c-0.044-2.092-3.527-9.603-4.973-10.805
			c-1.447-1.21-1.82-0.408-2.425,0.623c-0.603,1.029-0.333,4.105,0.034,5.761C-344.096,159.026-344.721,166.174-341.516,165.014z"/>
		<path fill="#F9A565" d="M-285.486,92.416c-0.729-3.676-4.246-2.696-6.916-0.859c-2.668,1.839-3.925,3.519-2.146,4.442
			C-292.765,96.922-284.151,99.212-285.486,92.416z"/>
		<path fill="#F9A565" d="M-292.907,122.162c0.947-2.913,0.011-4.854-1.284-5.16c-1.294-0.311-5.974-0.984-7.272-0.676
			c-1.536,0.371-2.386,0.688-1.755,3.038c0.352,1.28,1.521,2.926,6.095,5.247C-294.475,125.953-293.471,123.896-292.907,122.162z"/>
		<path fill="#F9A565" d="M-296.739,132.33c-2.393,2.111-3.166,2.107-4.64,1.262c-1.476-0.847-4.438-5.336-4.034-6.521
			c0.411-1.188,0.317-1.089,1.952-0.975c1.623,0.113,6.25,0.757,7.309,2.612C-295.09,130.559-295.453,131.207-296.739,132.33z"/>
		<path fill="#F9A565" d="M-333.289,157.973c-3.195,0.118-3.867-0.631-4.694-3.031c-0.827-2.406-1.012-10.457-0.021-11.429
			c0.977-0.979,0.857-0.954,2.201,0.756c1.345,1.707,5.019,6.913,4.955,10.081C-330.917,157.52-331.574,157.916-333.289,157.973z"/>
		<path fill="#F9A565" d="M-354.015,167.539c1.675,0.459,5.049,1.307,5.744-2.438c0.695-3.748-0.181-12.253-1.606-12.408
			c-1.428-0.155-5.173,4.792-6.027,9.591C-356.758,167.082-355.354,167.162-354.015,167.539z"/>
		<path fill="#F9A565" d="M-306.44,142.032c2.054-1.513,3.243-1.913,3.537-3.112c0.311-1.195-4.638-6.189-7.531-6.065
			c-1.636,0.073-1.74,2.268-1.091,3.392C-310.889,137.357-309.511,144.299-306.44,142.032z"/>
	</g>
</g>
<g id="Tomato_2_">
	<g>
		<polyline fill="#FF9076" points="-506.042,-165.167 -487.117,-119.168 -453.735,-71.846 -453.693,-71.6 -409.223,-68.351 
			-409.103,-159.822 -478.499,-209.616 		"/>
		<path fill="#529756" d="M-499.959-110.168c-1.041-1.086,6.394-10.858,0.929-13.225c-6.41-2.773-13.928-7.127-17.982-14.733
			c-3.803-2.04-7.072-3.302-8.966-3.315l11.351,16.539c0,0-19.762,7.539-30.242,11.05c0,0,33.792-1.341,40.046,1.044l0.37,29.091
			c0.417-1.564,2.745-5.322,5.246-9.971C-502.39-102.473-499.959-110.168-499.959-110.168z"/>
		<path fill="#FF5B29" d="M-478.499-209.616L-478.499-209.616c-14.064,6.195-32.017,18.062-40.075,48.962
			c-2.52,9.669-1.407,16.968,1.563,22.528c4.052,7.601,10.902,11.665,17.312,14.435c5.461,2.366-0.486,8.193-0.974,13.011
			c0,0-1.717,8.206,1.465,16.991c0.816,2.255,1.998,4.582,3.695,6.875c8.306,11.189,23.975,26.233,48.518,29.418
			c10.36,1.344,24.477-2.742,37.883-10.893C-409.28-68.338-494.183-127.062-478.499-209.616z"/>
		<path fill="#B53C1F" d="M-458.33-132.3c4.097,7.327,12.95,19.052,19.103,23.385c6.152,4.325,10.184-14.866,12.477-19.024
			c3.307-5.997,11.803-16.039,6.807-21.208c-4.995-5.174-19.088-6.663-26.363-8.172c-5.232-1.084-20.397-4.124-21.2,0.096
			C-468.308-153-458.33-132.3-458.33-132.3z"/>
		<path fill="#B53C1F" d="M-409.12-143.81c-2.865-3.539-20.354,30.435-19.93,35.297c0.562,6.42,3.095,12.269,8.499,16.809
			c2.698,2.275,10.987,1.977,11.356-2.456"/>
		<path fill="#B53C1F" d="M-416.164-164.885c-3.398,2.984-11.931,6.418-18.304,5.111c-8.349-1.709-26.514-0.623-31.066-3.792
			c-4.553-3.163-6.311-7.256-7.697-13.591c0,0-3.354-11.674,7.169-23.531L-416.164-164.885z"/>
		<path fill="#F9A565" d="M-424.016-109.277c2.971,2.755,4.398-0.465,5.278-2.381c0.881-1.903,0.787-7.499-0.732-6.161
			C-420.991-116.477-427.864-112.846-424.016-109.277z"/>
		<path fill="#F9A565" d="M-457.737-151.051c-1.459,3.013,0.083,4.509,1.701,5.1c1.618,0.593,9.023,0.644,9.001-0.681
			c-0.025-1.329-0.168-1.488-1.005-1.998C-448.871-149.135-455.265-156.15-457.737-151.051z"/>
		<path fill="#F9A565" d="M-464.041-178.91c0.001,3.417-0.439,4.584,1.539,5.248c1.982,0.667,10.229-0.066,11.85-1.02
			c1.629-0.951,1.001-1.574,0.235-2.492c-0.764-0.916-3.75-1.704-5.432-1.92C-457.533-179.31-464.046-182.318-464.041-178.91z"/>
		<path fill="#F9A565" d="M-414.712-101.603c3.707,0.559,3.976-3.082,3.152-6.216c-0.827-3.133-1.981-4.885-3.453-3.524
			C-416.486-109.977-421.558-102.648-414.712-101.603z"/>
		<path fill="#F9A565" d="M-440.186-118.66c2.42,1.878,4.564,1.655,5.291,0.54c0.73-1.113,2.949-5.287,3.099-6.614
			c0.171-1.57,0.162-2.478-2.264-2.68c-1.323-0.103-3.268,0.439-7.001,3.958C-443.221-121.419-441.626-119.778-440.186-118.66z"/>
		<path fill="#F9A565" d="M-448.455-125.709c-1.175-2.966-0.911-3.692,0.385-4.793c1.297-1.102,6.524-2.369,7.502-1.587
			c0.979,0.789,0.918,0.667,0.257,2.167c-0.657,1.488-2.829,5.624-4.934,5.992C-447.346-123.558-447.833-124.119-448.455-125.709z"
			/>
		<path fill="#F9A565" d="M-460.202-168.784c0.971-3.046,1.903-3.424,4.442-3.39c2.544,0.037,10.182,2.59,10.76,3.851
			c0.591,1.251,0.608,1.129-1.457,1.814c-2.062,0.687-8.205,2.38-11.164,1.248C-460.579-166.398-460.729-167.151-460.202-168.784z"
			/>
		<path fill="#F9A565" d="M-462.183-191.525c-1,1.421-2.94,4.308,0.349,6.23c3.292,1.923,11.59,3.979,12.219,2.691
			c0.63-1.291-2.756-6.49-6.983-8.919C-460.824-193.952-461.375-192.658-462.183-191.525z"/>
		<path fill="#F9A565" d="M-454.297-138.124c0.728,2.445,0.701,3.699,1.73,4.382c1.02,0.697,7.395-2.268,8.257-5.031
			c0.485-1.564-1.544-2.405-2.821-2.176C-448.392-140.726-455.39-141.781-454.297-138.124z"/>
	</g>
</g>
<g id="I">
	<path fill="#228BE0" d="M465.158-482.524c-2.85,0.226-6.305,0.147-10.361-0.229l-6.493-82.441c2.054-0.47,3.921-0.851,5.603-1.138
		c1.681-0.287,3.176-0.483,4.484-0.585c1.387-0.109,2.951-0.155,4.695-0.138c1.743,0.02,3.628,0.101,5.652,0.251l6.496,82.442
		C471.209-483.349,467.852-482.736,465.158-482.524z"/>
</g>
<g id="Beet">
	<g>
		<path fill="#52A76C" d="M870.473,61.074c0.402-3.735,18.964-23.23,24.27-27.08c8.631-6.27,17.435-9.667,26.424-15.061
			c-7.799,6.935-10.906,9.782-17.861,25.396c-4.938,11.087-17.626,27.688-24.184,27.217c-0.994-0.073-1.926-0.258-2.762-0.571
			C871.639,69.276,870.25,64.115,870.473,61.074z"/>
		<path fill="#52A76C" d="M917.248,11.99c-6.213,1.294-14.028,3.2-21.945,5.697c-6.205,1.96-22.479,2.724-33.82-4.104
			c-3.901-2.348-6.345-5.454-7.257-9.216c-0.941-3.865-1.457-8.981,1.4-11.353c3.56-2.939,11.354-1.434,17.503,1.366
			C881.889-1.637,899.486,7.803,917.248,11.99z"/>
		<path fill="#52A76C" d="M781.657,73.312c-0.536-0.214-1.044-0.428-1.528-0.644c-10.017-4.642-7.991-12.011-5.062-19.157
			c1.871-4.56,25.093-13.969,33.547-14.438c8.301-0.461,75.795-12.712,92.375-18.606c10.234-3.64,15.053-5.314,17.164-6.035
			l0.362,0.458c-11.497,6.403-63.174,35.053-81.737,43.466c-2.16,0.975-4.311,1.958-6.461,2.948
			C811.605,69.926,793.938,78.064,781.657,73.312z"/>
		<path fill="#E23C7B" d="M916.777,6.867c-20.562-30.114-5.373-52.676,8.686-68.706c3.059,21.475,22.552,55.158,26.715,61.601
			c4.148,6.434,47.632,52.204,70.965,41.185c-6.832,3.289-14.514,6.386-22.596,9.659c-24.944,10.095-47.957-3.579-56.7-9.05
			C935.074,36.086,928.518,25.773,916.777,6.867z"/>
		<path fill="#B51561" d="M951.233-0.397c-4.156-6.444-25.886-40.855-27.648-61.767l0.003-0.005l-0.003,0.005l58.8,49.993
			l40.441,53.212l0.198,0.042c-0.031-0.002-0.423-0.15-0.458-0.128C999.244,51.976,955.385,6.038,951.233-0.397z"/>
	</g>
</g>
<g id="Beet_2_">
	<g>
		<path fill="#52A76C" d="M41.783-200.656c-0.821,4.112-23.408,23.933-29.692,27.684c-10.224,6.108-20.352,9.005-30.886,14.104
			c9.365-6.931,13.104-9.786,22.399-26.451c6.598-11.834,22.366-29.025,29.609-27.845c1.099,0.18,2.116,0.479,3.014,0.911
			C41.306-209.893,42.334-204.016,41.783-200.656z"/>
		<path fill="#52A76C" d="M-15.133-150.756c7.038-0.818,15.918-2.156,24.971-4.141c7.096-1.559,25.266-0.781,37.195,7.943
			c4.102,3.001,6.509,6.699,7.147,10.973c0.66,4.392,0.722,10.132-2.692,12.483c-4.252,2.913-12.768,0.459-19.325-3.269
			C22.821-132.07,4.198-144.326-15.133-150.756z"/>
		<path fill="#52A76C" d="M141.76-205.385c0.575,0.292,1.118,0.58,1.635,0.868c10.673,6.164,7.685,14.154,3.714,21.807
			c-2.538,4.883-29.298,13.023-38.745,12.701c-9.275-0.317-85.546,6.558-104.571,11.454c-11.743,3.024-17.269,4.404-19.688,4.995
			l-0.357-0.547c13.423-5.97,73.747-32.66,95.228-40.159c2.499-0.868,4.988-1.746,7.479-2.631
			C108.123-204.615,128.581-211.898,141.76-205.385z"/>
		<path fill="#E23C7B" d="M-15.122-145.013c19.854,35.539,0.708,59.107-16.525,75.525c-1.254-24.184-19.562-63.585-23.546-71.165
			c-3.97-7.568-47.744-62.806-74.789-52.888c7.925-2.973,16.776-5.649,26.09-8.48c28.745-8.73,52.965,8.773,62.14,15.731
			C-32.544-179.33-26.285-167.208-15.122-145.013z"/>
		<path fill="#B51561" d="M-54.159-140.381c3.977,7.581,24.698,48.015,24.568,71.442l-0.004,0.006l0.004-0.006l-60.382-61.464
			l-39.647-63.208l-0.216-0.066c0.035,0.005,0.455,0.21,0.497,0.189C-102.307-203.413-58.132-147.951-54.159-140.381z"/>
	</g>
</g>
<g id="Beet_1_">
	<g>
		<path fill="#52A76C" d="M-370.355,400.367c-2.592,2.721-29.183,6.904-35.736,6.732c-10.664-0.273-19.718-2.932-30.134-4.118
			c10.408-0.761,14.606-1.131,29.624-9.293c10.663-5.796,30.833-11.255,35.75-6.893c0.745,0.663,1.372,1.376,1.844,2.134
			C-366.292,393.147-368.329,398.09-370.355,400.367z"/>
		<path fill="#52A76C" d="M-437.339,410.875c5.718,2.752,13.081,5.994,20.884,8.827c6.117,2.219,19.498,11.512,24.348,23.829
			c1.667,4.237,1.718,8.188,0.154,11.729c-1.604,3.642-4.308,8.017-8.018,8.16c-4.613,0.168-9.884-5.769-13.061-11.731
			C-417.562,443.199-425.788,425.002-437.339,410.875z"/>
		<path fill="#52A76C" d="M-292.416,444.678c0.295,0.496,0.567,0.975,0.821,1.44c5.126,9.777-0.963,14.396-7.634,18.284
			c-4.259,2.481-28.413-4.176-35.41-8.943c-6.869-4.684-67.893-36.016-84.639-41.422c-10.337-3.335-15.18-4.938-17.294-5.65
			l-0.008-0.584c13.02,1.912,71.464,10.604,91.316,15.219c2.307,0.54,4.613,1.066,6.921,1.59
			C-318.247,429.148-299.272,433.436-292.416,444.678z"/>
		<path fill="#E23C7B" d="M-440.082,415.229c-1.996,36.409-27.776,45.078-48.685,49.25c10.635-18.906,15.651-57.499,16.266-65.145
			c0.62-7.63-6.053-70.409-31.276-75.855c7.424,1.546,15.405,3.759,23.811,6.078c25.939,7.16,35.888,32.011,39.5,41.672
			C-436.832,380.906-437.9,393.08-440.082,415.229z"/>
		<path fill="#B51561" d="M-471.849,400.034c-0.621,7.644-4.305,48.174-15.625,65.846l-0.006,0.001l0.006-0.001l-16.262-75.447
			l0.268-66.836l-0.133-0.153c0.024,0.021,0.244,0.377,0.286,0.38C-478.1,329.262-471.229,392.402-471.849,400.034z"/>
	</g>
</g>
</svg>
