<?xml version="1.0" encoding="utf-8"?>
<!-- Generator: Adobe Illustrator 16.0.0, SVG Export Plug-In . SVG Version: 6.00 Build 0)  -->
<!DOCTYPE svg PUBLIC "-//W3C//DTD SVG 1.1//EN" "http://www.w3.org/Graphics/SVG/1.1/DTD/svg11.dtd">
<svg version="1.1" id="Layer_1" xmlns="http://www.w3.org/2000/svg" xmlns:xlink="http://www.w3.org/1999/xlink" x="0px" y="0px"
	 width="300px" height="300px" viewBox="0 0 300 300" enable-background="new 0 0 300 300" xml:space="preserve">
<path fill="#754E34" d="M143.081,37.601c-38.179-1.575-36.771-4.484-48.43,4.933s-4.484-4.933-30.045,34.081
	S4.516,117.87,11.69,145.673s15.247,51.569,21.076,60.986s10.762,21.524,20.628,23.767s38.117,10.315,51.121,19.283
	s44.637,13.005,53.484,12.107s30.82-1.101,42.479,0.122s85.202-34.652,87.893-42.724s-5.829-42.6-10.313-46.188
	s-12.556-32.736-11.211-57.399s-6.728-83.857-15.247-91.48s-47.533-17.041-58.744-11.211S186.578,39.395,143.081,37.601z"/>
</svg>
