<?xml version="1.0" encoding="utf-8"?>
<!-- Generator: Adobe Illustrator 16.0.0, SVG Export Plug-In . SVG Version: 6.00 Build 0)  -->
<!DOCTYPE svg PUBLIC "-//W3C//DTD SVG 1.1//EN" "http://www.w3.org/Graphics/SVG/1.1/DTD/svg11.dtd">
<svg version="1.1" id="Layer_1" xmlns="http://www.w3.org/2000/svg" xmlns:xlink="http://www.w3.org/1999/xlink" x="0px" y="0px"
	 width="500px" height="67px" viewBox="0 0 500 67" enable-background="new 0 0 500 67" xml:space="preserve">
<g id="O">
	<path fill="#F34044" d="M176.989,29.953c0.036-3.309,0.449-6.375,1.245-9.2c0.796-2.825,2-5.263,3.614-7.314
		s3.657-3.653,6.131-4.806c2.471-1.152,5.405-1.711,8.797-1.676c3.391,0.036,6.3,0.656,8.73,1.86
		c2.428,1.205,4.426,2.85,5.996,4.935c1.569,2.085,2.723,4.548,3.459,7.388c0.734,2.842,1.086,5.917,1.052,9.225
		c-0.037,3.31-0.449,6.354-1.244,9.138c-0.793,2.784-1.999,5.191-3.612,7.221c-1.613,2.03-3.646,3.602-6.098,4.714
		c-2.453,1.111-5.374,1.649-8.763,1.613c-3.394-0.036-6.313-0.635-8.761-1.799c-2.449-1.162-4.46-2.777-6.03-4.84
		c-1.571-2.063-2.723-4.496-3.458-7.296C177.305,36.316,176.954,33.263,176.989,29.953z M204.472,30.243
		c0.096-9.016-2.486-13.551-7.737-13.607c-5.378-0.056-8.113,4.424-8.207,13.439c-0.047,4.508,0.569,7.875,1.849,10.101
		c1.28,2.227,3.285,3.354,6.013,3.383C201.683,43.615,204.377,39.176,204.472,30.243z"/>
</g>
<g id="Apple_1_">
	<g>
		<path fill="#2D261F" d="M391.571,14.447c0.145-1.978-1.043-5.702-2.326-7.28c0,0-0.274-0.27,0.019-0.435
			c0.295-0.164,0.926-0.642,1.083-0.606c0.157,0.037,0.234,0.107,0.243,0.213c0.01,0.109-0.023,0.139,0.009,0.283
			c0.03,0.146,1.042,6.164,1.989,7.004"/>
		<path fill="#E8DFB1" d="M402.528,16.161"/>
		<path fill="#E8DFB1" d="M387.113,45.312c1.893,1.197,3.782,0.692,4.354,0.72c0.572,0.028,2.869-0.748,3.732-0.955
			c0.862-0.208,2.174,0.133,3.614,0.38c1.441,0.248,8.5-2.736,9.325-3.067c0.824-0.33,5.521-3.28,5.631-3.313
			c0.11-0.033,0.935-0.766,0.87-1.107c-0.062-0.344,0.382-1.002,0.411-1.305"/>
		<path fill="#E8DFB1" d="M415.151,36.577l-2.014-0.594c-0.688,0.25-1.676,0.282-2.05,0.234l-7.853-2.22l-1.561-2.579l-1.564-8.327
			l1.537-4.351l4.118-6.164c0.163-0.161,0.695-0.301,0.595-0.361c-1.298-0.764-4.028-0.681-6.206-0.242
			c-2.18,0.439-10.711,3.145-12.322,3.732c-1.61,0.589-4.749,2.907-5.043,3.197c-0.294,0.29-1.49,1.759-1.559,2.422
			c-0.07,0.665,0.142,0.865,0.142,0.865c0.156,0.229,0.975,0.05,0.975,0.05l5.467,0.864l4.199,7.006l1.688,1.887l0.104,3.772
			l-3.168,6.633l-3.522,2.911"/>
		<path fill="#F34044" d="M381.354,22.17c0,0-0.476-0.597-0.395-1.065c0.081-0.467,0.227-1.102,0.357-1.463
			c0.133-0.36,1.541-2.107,4.025-3.062c2.486-0.953,2.423-1.499,3.092-1.941c0.668-0.443,3.071-1.492,4.14-1.736
			c1.07-0.244,1.967-0.335,2.693-0.595c0.727-0.261,1.442-0.616,1.992-0.664c0.548-0.045,1.149,0.215,1.997-0.041
			c0.847-0.258,2.17-0.274,2.756-0.192c0.589,0.086,3.473-0.142,4.356,0.818c-0.288-0.113-1.707-0.3-2.862-0.351
			c-1.154-0.052-2.248,0.278-2.496,0.313c-0.25,0.035-0.08,0.385,0.016,0.438c0.095,0.05,0.338,0.404,0.123,0.403
			c-0.214,0-0.399,0.496-0.533,0.537c-0.136,0.042,0.31,0.428,0.17,0.565c-0.139,0.136-1.109,0.677-1.3,0.863
			c-0.191,0.184-0.485,0.368-0.798,0.376s-1.344,0.232-1.492,0.385s-0.507,1.092-0.535,1.375c-0.028,0.284-0.3,0.205-0.3,0.205
			s-0.656-0.19-1.002-0.275c-0.346-0.083-0.941-0.278-1.475-0.356c-0.534-0.081-1.756-0.488-2.596-0.689
			c-0.838-0.202-2.185,0.045-3.024,0.192c-0.839,0.147-2.073,0.414-3.587,2.32c-1.514,1.907-2.151,1.75-2.618,1.893
			C381.596,20.563,381.289,21.868,381.354,22.17z"/>
		<path fill="#F34044" d="M387.084,45.041c0,0-0.06,0.326,0.068,0.419c0.128,0.091,1.291,0.714,1.542,0.808
			c0.25,0.097,1.912,0.836,3.782,0.945c1.18,0.07,2.143,0.142,3.293,0.009c1.167,0.009,1.692-0.421,2.312-0.598
			c0.829-0.235,3.244-1.594,4.081-1.833c0.841-0.239,2.11-0.052,3.421-0.351c1.449-0.331,3.818-1.007,4.377-1.283
			c0.561-0.278,1.315-0.394,2.492-1.469c1.448-1.323,1.808-2.588,1.953-2.844c0.022-0.04,0.259-0.608,0.259-0.608
			s0.212-1.04,0.31-1.305c0.04-0.109,0.078-0.127,0.078-0.267c-0.001-0.02,0.006-0.082-0.008-0.071
			c-0.047,0.039-0.818,0.168-0.876,0.179c-0.243,0.043-0.981,1.776-0.995,1.782c-0.334,0.138-1.198,0.624-1.654,0.381
			c-0.527-0.282-1.114-0.754-1.231-0.612c-0.118,0.144-0.18,0.397-0.43,0.633c-0.252,0.237,0.031,0.573-0.125,0.942
			c-0.158,0.368-2.557,0.774-3.34,1.011c-0.788,0.239-4.575,1.012-5.292,1.12c-0.718,0.111-2.371-0.568-2.475-0.378
			c-0.1,0.194-1.779,1.56-2.269,1.536c-0.49-0.025-2.472,0.867-3.096,0.938c-0.622,0.069-0.518-0.476-0.827-0.435
			c-0.31,0.04-1.223,0.744-1.9,1.166c-0.677,0.42-2.062,0.622-2.21,0.669C388.176,45.569,387.175,45.336,387.084,45.041z"/>
		<path fill="#D3B48C" d="M389.471,20.518c-0.124-2.185,3.875,0.776,4.255,2.029c0.379,1.253-0.298,1.94,0.546,3.134
			c0.843,1.19,0.325,3.199-0.516,2.809c-0.841-0.388-2.785-2.293-2.67-2.971C391.203,24.84,389.503,21.092,389.471,20.518z"/>
		<path fill="#D3B48C" d="M397.015,32.086c0.363,2.26,0.042,4.383-0.251,5.275c-0.293,0.894-1.761,2.075-1.721,2.385
			c0.043,0.309,2.322-0.131,2.57-0.367c0.251-0.237,0.845-2.264,0.717-2.947c-0.128-0.686-0.216-3.099-0.209-3.342
			c0.008-0.246-0.739-1.112-0.739-1.112L397.015,32.086z"/>
		<path fill="#D3B48C" d="M398.916,16.85c-0.452-0.162-0.825-0.333-1.06,0.483c-0.237,0.818-0.358,1.739-0.358,1.739
			s2.042,0.105,2.005-0.286c-0.038-0.392-1.145-0.59-0.319-1.056c0.823-0.464,1.236-0.428,1.737-0.901
			c0.501-0.473,0.562-0.537,0.722-0.804c0.162-0.268-0.373-1.233-0.373-1.233s-0.575-0.307-0.59,0.179
			c-0.013,0.486-0.008,1.567-0.362,1.455C399.961,16.316,398.916,16.85,398.916,16.85z"/>
		<path fill="#D3B48C" d="M405.312,36.332c1.229,0.914,1.142,1.423,2.042,1.472c0.9,0.047,1.455,0.818,1.686,0.521
			c0.234-0.298-0.326-0.021-0.23,0.298c0.097,0.319-0.324,0.528-0.573,0.763c-0.249,0.237-1.301,0.394-1.828,0.555
			c-0.528,0.16-1.65,0.177-1.65,0.177s-1.649-1.198-1.257-1.232c0.393-0.033,1.039-0.551,1.245-0.934
			C404.949,37.566,405.312,36.332,405.312,36.332z"/>
	</g>
</g>
<g id="Dirt">
</g>
<g id="S">
	<path fill="#FFDD50" d="M245.371,26.978c1.785,0.575,3.392,1.171,4.829,1.792c1.434,0.621,2.685,1.399,3.75,2.336
		c1.062,0.939,1.914,2.099,2.555,3.482c0.641,1.384,1.036,3.086,1.186,5.106c0.159,2.187-0.079,4.185-0.711,5.993
		c-0.636,1.81-1.649,3.4-3.042,4.767c-1.393,1.367-3.147,2.469-5.263,3.308c-2.116,0.841-4.577,1.364-7.38,1.571
		c-2.556,0.189-4.832,0.146-6.822-0.121c-1.99-0.267-4.152-0.754-6.483-1.453c0.058-1.456,0.234-3.015,0.527-4.673
		c0.292-1.66,0.665-3.356,1.119-5.09c3.916,1.371,7.275,1.954,10.081,1.747c2.104-0.156,3.721-0.594,4.85-1.32
		c1.128-0.726,1.635-1.871,1.521-3.44c-0.05-0.659-0.215-1.217-0.496-1.673c-0.282-0.458-0.642-0.835-1.078-1.135
		c-0.437-0.299-0.921-0.543-1.455-0.732c-0.532-0.189-1.074-0.367-1.625-0.535l-3.56-1.045c-1.526-0.426-2.923-0.967-4.194-1.62
		c-1.271-0.653-2.377-1.453-3.318-2.4c-0.942-0.947-1.698-2.063-2.268-3.348c-0.572-1.285-0.923-2.813-1.053-4.589
		c-0.162-2.185,0.067-4.152,0.686-5.897s1.554-3.255,2.809-4.53c1.253-1.274,2.808-2.279,4.663-3.017
		c1.852-0.737,3.953-1.193,6.306-1.365c2.104-0.155,4.151-0.097,6.14,0.171c1.99,0.269,4.127,0.713,6.411,1.333
		c-0.066,1.333-0.26,2.809-0.576,4.428c-0.315,1.62-0.753,3.156-1.308,4.606c-1.108-0.374-2.4-0.756-3.881-1.146
		c-1.479-0.389-3.292-0.504-5.436-0.347c-0.662,0.048-1.286,0.157-1.875,0.325c-0.59,0.168-1.111,0.404-1.565,0.706
		c-0.455,0.304-0.809,0.704-1.062,1.198c-0.257,0.496-0.356,1.094-0.305,1.795c0.088,1.196,0.544,2.055,1.372,2.575
		c0.824,0.521,1.789,0.947,2.893,1.281L245.371,26.978z"/>
</g>
<g id="T">
	<path fill="#73DB71" d="M270.766,20.857l-10.303,1.105c-0.56-1.728-0.918-3.334-1.077-4.814c-0.145-1.358-0.13-2.96,0.046-4.81
		l31.521-3.379c0.262,0.888,0.478,1.718,0.642,2.489c0.166,0.773,0.29,1.508,0.364,2.206c0.145,1.359,0.152,3.001,0.028,4.926
		l-10.304,1.106l3.706,34.544c-2.143,0.605-3.934,0.982-5.372,1.137c-1.521,0.162-3.372,0.173-5.547,0.033L270.766,20.857z"/>
</g>
<g id="Eggshell_3">
	<g>
		<g>
			<polygon fill="#FFE9E9" points="78.773,38.26 79.594,38.01 79.75,38.986 80.352,40.122 79.568,41.266 79.785,43.872 78.327,45 
				78.749,46.79 77.233,47.28 77.27,48.092 76.156,49.265 75.623,51.511 74.393,53.179 73.539,55.208 72.295,56.136 71.891,56.897 
				70.585,56.899 71.096,56.476 70.585,54.328 72.405,51.931 72.757,48.685 76.923,44.668 76.402,42.689 			"/>
			<path fill="#FFE9E9" d="M71.91,48.685"/>
			<path fill="#F6AF82" d="M70.585,56.899l1.305-0.002l0.407-0.761l1.241-0.928l0.855-2.029l1.23-1.668l0.532-2.246l1.113-1.173
				l-0.035-0.812l1.518-0.489L78.333,45l1.459-1.129l-0.211-2.606l0.793-1.143l-0.579-1.133l-0.117-0.972
				c0,0,5.926,3.037,8.158,9.178c2.234,6.143-3.126,9.789-5.948,10.324C79.066,58.054,76.589,58.51,70.585,56.899z"/>
		</g>
	</g>
</g>
<g id="Eggshell_2">
	<g>
		<g>
			<polygon fill="#FFE9E9" points="151.817,19.365 151.854,20.27 150.869,20.204 149.619,20.515 148.707,19.475 146.13,19.037 
				145.402,17.344 143.562,17.309 143.466,15.717 142.67,15.551 141.814,14.179 139.772,13.103 138.462,11.496 136.711,10.162 
				136.122,8.727 135.487,8.145 135.811,6.879 136.095,7.48 138.222,6.323 138.415,9.219 143.093,9.276 145.044,14.685 
				151.216,14.685 			"/>
			<path fill="#FFE9E9" d="M143.435,10.213"/>
			<path fill="#F6AF82" d="M135.811,6.879l-0.324,1.265l0.635,0.583l0.59,1.435l1.752,1.334l1.308,1.606l2.042,1.077l0.856,1.373
				l0.795,0.167l0.096,1.592l1.839,0.041l0.729,1.695l2.576,0.445l0.908,1.055l1.241-0.278l0.971,0.129c0,0-4.42,4.979-10.925,5.607
				c-6.506,0.631-8.699-5.471-8.512-8.336C132.576,14.804,132.753,12.292,135.811,6.879z"/>
		</g>
	</g>
</g>
<g id="Eggshell_1">
	<g>
		<polyline fill="#FFE9E9" points="2.666,46.092 2.04,45.743 5.086,41.425 7.052,42.296 8.531,38.38 12.435,39.097 14.093,37.853 
			17.433,38.322 17.612,36.553 20.61,36.553 21.182,37.825 19.966,40.668 11.807,46.068 3.486,47.425 1.766,46.323 		"/>
		<path fill="#F6AF82" d="M20.61,36.756l-0.234,0.877l-0.507,0.783l-0.965,0.482l-0.188,0.28l-0.508,0.281l-0.593,0.161
			l-0.933-0.161l-0.303,0.921c0,0-0.676-0.267-0.81-0.206c-0.133,0.061-1.638,1.171-1.805,1.249
			c-0.166,0.075-2.211,0.027-2.211,0.027L10.9,41.791l-0.564,1.231c0,0-1.195,0.028-1.4,0.283c-0.206,0.256-1.28,0.553-1.28,0.553
			s-1.393,1.009-1.509,1.104c-0.118,0.093-0.463,0.135-0.63,0.212C5.351,45.25,5.05,45.913,5.05,45.913s-0.739,0.061-0.873,0.123
			c-0.132,0.061-1.252-0.348-1.252-0.348l-0.259,0.403L2.041,45.74l-0.274,0.588c0.401,0.865,3.415,6.49,7.476,7.921
			c4.06,1.432,5.24,1.364,8.165,0.087c2.926-1.278,4.736-5.392,5.093-7.499C22.855,44.732,22.88,41.041,20.61,36.756z"/>
	</g>
</g>
<g id="C">
	<path fill="#73DB71" d="M17.134,29.256c-0.243,8.767,3.317,13.249,10.676,13.452c1.323,0.036,2.576-0.051,3.761-0.267
		c1.185-0.216,2.632-0.591,4.344-1.123c1.283,3.016,2.107,6.1,2.477,9.253c-1.209,0.423-2.339,0.765-3.377,1.023
		c-1.043,0.261-2.042,0.45-2.995,0.568c-0.956,0.117-1.9,0.197-2.832,0.233c-0.933,0.036-1.894,0.041-2.886,0.014
		c-3.516-0.097-6.59-0.751-9.224-1.962c-2.636-1.21-4.826-2.854-6.567-4.929c-1.743-2.074-3.03-4.53-3.862-7.368
		c-0.832-2.835-1.202-5.908-1.111-9.214c0.092-3.31,0.651-6.365,1.679-9.171c1.031-2.806,2.473-5.218,4.328-7.236
		c1.855-2.018,4.122-3.569,6.799-4.654c2.678-1.084,5.692-1.581,9.041-1.488c1.984,0.055,3.861,0.253,5.631,0.59
		c1.769,0.339,3.737,0.971,5.905,1.9c-0.128,1.695-0.484,3.329-1.065,4.906c-0.583,1.577-1.178,2.958-1.79,4.139
		c-0.82-0.311-1.566-0.58-2.243-0.807c-0.675-0.225-1.323-0.409-1.94-0.549c-0.616-0.143-1.233-0.251-1.853-0.331
		c-0.618-0.078-1.279-0.128-1.982-0.146c-3.349-0.092-5.974,0.962-7.877,3.166C18.267,21.458,17.255,24.79,17.134,29.256z"/>
</g>
<g id="Banana">
	<g>
		<path fill="#FFDD50" d="M148.598,35.964c0,0,0.937,7.995,12.985,3.968c2.766-0.925,6.686-2.633,9.042-7.556
			c1.167-2.44,3.611-11.195,6.109-11.983c2.498-0.785,3.48-0.58,4.741-1.252c1.26-0.67,2.787-3.526,2.787-3.526l2.482,1.078
			c0,0-2.144,2.044-2.166,3.679c-0.017,1.24,0.562,1.535,1.688,2.428c1.769,1.402,3.503,9.624,3.771,14.159
			c0.271,4.537-0.146,8.772,4.133,12.428c0.978,0.835,3.967,1.662,4.841,1.617c2.089-0.108,3.632-2.029,4.541-2.797
			c0.932-0.788,1.189-0.875,1.409-0.656c0.357,0.353-1.081,7.876-5.466,8.325c-4.39,0.45-8.223-0.747-11.746-6.238
			c-3.435-5.357-4.282-9.361-4.65-13.869c0,0-3.106,5.662-2.185,11.164c0.917,5.464,1.424,5.86,2.426,7.179
			c1.116,1.466,2.669,2.713,5.06,3.492c2.394,0.777,2.552,0.53,2.886,0.599c0.337,0.07,0.593,0.509,0.529,0.812
			c-0.061,0.301-0.104,1.519-1.156,2.208c-1.053,0.691-6.151,0.961-9.462-1.127c-3.309-2.09-7.28-5.717-7.564-12.251
			c-0.285-6.534,0.738-11.115,0.869-11.578c0,0-1.616,2.042-2.917,3.593c-1.301,1.549-7.433,5.779-10.223,6.178
			c-2.789,0.4-11.736,1.897-14.593-3.644c0,0-1.904-2.99-0.452-5.113C147.943,34.9,148.446,35.686,148.598,35.964z"/>
		<path fill="#302A0F" d="M184.812,21.452c-0.159-0.284-0.238-0.614-0.233-1.081c0.022-1.633,2.166-3.679,2.166-3.679l-2.483-1.077
			c0,0-1.526,2.856-2.787,3.526c-0.377,0.199-0.729,0.323-1.103,0.417C181.085,20.356,182.442,21.356,184.812,21.452z"/>
	</g>
</g>
<g id="E">
	<path fill="#F34044" d="M461.901,33.39c0.129,1.442,0.087,3.064-0.127,4.868l-11.927,1.062l0.781,8.775l15.51-1.382
		c0.526,1.698,0.853,3.249,0.976,4.648c0.137,1.525,0.096,3.168-0.123,4.931l-26.446,2.355l-3.961-44.43l26.078-2.325
		c0.245,0.892,0.443,1.726,0.597,2.5c0.151,0.778,0.258,1.514,0.321,2.215c0.121,1.359,0.103,3.002-0.059,4.926l-15.142,1.347
		l0.606,6.799l11.929-1.062C461.449,30.399,461.777,31.988,461.901,33.39z"/>
</g>
<g id="L">
	<path fill="#FFDD50" d="M403.788,13.363c1.086-0.305,2.076-0.557,2.968-0.757c0.894-0.196,1.687-0.34,2.384-0.43
		c0.74-0.093,1.574-0.16,2.51-0.197c0.93-0.036,1.942-0.04,3.03-0.014l4.424,34.461l14.215-1.824c0.335,1,0.584,1.874,0.742,2.625
		c0.158,0.752,0.276,1.434,0.357,2.05c0.09,0.697,0.152,1.43,0.188,2.196s0.021,1.698-0.048,2.787l-25.107,3.224L403.788,13.363z"/>
</g>
<g id="Pi">
	<g>
		<path fill="#228BE0" d="M337.018,13.579c0.878-0.388,2.225-0.968,4.046-1.745c1.82-0.771,4.16-1.58,7.013-2.422
			c2.105-0.623,4.286-1.049,6.546-1.284c2.258-0.235,4.412-0.062,6.458,0.52c2.049,0.583,3.9,1.708,5.556,3.375
			c1.658,1.668,2.951,4.086,3.888,7.263c0.831,2.816,1.096,5.283,0.793,7.398c-0.304,2.117-0.993,3.937-2.074,5.461
			c-1.08,1.526-2.454,2.792-4.12,3.802c-1.663,1.008-3.448,1.795-5.353,2.357c-0.753,0.221-1.526,0.417-2.317,0.586
			c-0.788,0.168-1.357,0.261-1.697,0.274l4.09,13.865c-0.975,0.502-1.866,0.917-2.675,1.242c-0.811,0.325-1.571,0.593-2.286,0.804
			c-1.389,0.41-3.168,0.742-5.334,0.992L337.018,13.579z M353.247,30.655c0.219,0.021,0.574-0.019,1.062-0.12
			c0.488-0.1,0.988-0.229,1.505-0.379c1.705-0.503,2.948-1.41,3.727-2.717s0.87-2.972,0.274-4.999
			c-0.352-1.19-0.817-2.141-1.394-2.854s-1.235-1.232-1.978-1.551c-0.74-0.32-1.538-0.46-2.388-0.425
			c-0.853,0.034-1.715,0.182-2.589,0.437c-0.237,0.07-0.516,0.152-0.831,0.246c-0.319,0.094-0.63,0.208-0.934,0.34L353.247,30.655z"
			/>
	</g>
</g>
<g id="cO">
	<path fill="#228BE0" d="M44.317,23.21c1.221-3.074,2.709-5.789,4.466-8.139c1.756-2.352,3.755-4.196,5.999-5.531
		c2.242-1.334,4.725-2.096,7.448-2.283c2.721-0.189,5.658,0.342,8.812,1.594c3.152,1.251,5.645,2.873,7.479,4.87
		c1.834,1.997,3.108,4.248,3.825,6.757c0.717,2.51,0.91,5.223,0.577,8.139c-0.335,2.915-1.111,5.911-2.331,8.987
		c-1.222,3.076-2.703,5.77-4.443,8.083c-1.742,2.313-3.731,4.127-5.964,5.442c-2.235,1.316-4.697,2.053-7.384,2.21
		c-2.689,0.155-5.608-0.39-8.76-1.64c-3.153-1.251-5.663-2.86-7.529-4.823c-1.87-1.965-3.167-4.193-3.891-6.684
		c-0.727-2.49-0.929-5.174-0.611-8.052C42.328,29.263,43.098,26.288,44.317,23.21z M69.865,33.347
		c3.326-8.382,2.546-13.541-2.335-15.478c-4.999-1.983-9.159,1.217-12.485,9.598c-1.663,4.19-2.297,7.554-1.903,10.092
		c0.395,2.538,1.863,4.309,4.4,5.316C62.463,44.827,66.57,41.652,69.865,33.347z"/>
</g>
<g id="Peanut_1">
	<g>
		<g>
			<path fill="#E5A045" d="M65.341,24.487c1.035-0.199,2.363-0.449,3.305-0.032c0.942,0.418,1.741,0.613,2.42,1.551
				c0.678,0.938,0.937,2.013,1.245,2.445c0.309,0.431,1.126,0.825,1.627,1.07c0.501,0.245,1.884,0.873,2.628,1.835
				c0.744,0.963,0.792,1.933,0.87,2.399c0.079,0.464-0.059,1.281-0.447,1.522c-0.387,0.242-1.4,0.394-1.872,0.45
				c-0.47,0.056-2.015,0.152-3.258-0.273c-1.244-0.424-2.529-2.198-2.689-2.635c-0.157-0.437-0.249-1.396-0.799-1.688
				c-0.549-0.291-1.054-0.394-1.638-0.607c-0.585-0.214-1.752-0.896-2.304-1.735c-0.55-0.838-0.885-2.402-0.628-3.073
				C64.06,25.045,64.767,24.598,65.341,24.487z"/>
		</g>
		<path fill="#6D4B22" d="M72.97,29.007c-0.043,0.139-0.24,0.71-0.74,1.36c-0.071,0.092-0.149,0.188-0.238,0.286
			c-0.375-0.282-0.718-0.701-1.042-1.423c-0.286-0.637-0.707-1.261-1.255-1.856c0.448-0.351,0.983-0.689,1.621-0.985
			c-0.032-0.054-0.068-0.107-0.102-0.16c-0.648,0.304-1.193,0.65-1.648,1.008c-0.049-0.05-0.098-0.101-0.148-0.152
			c-0.547-0.544-1.2-1.065-1.943-1.548c-0.024-0.016-0.05-0.032-0.073-0.048c0.72-0.492,1.383-0.78,1.62-0.875l-0.241-0.102
			c-0.331,0.143-0.926,0.43-1.553,0.867c-0.701-0.436-1.331-0.747-1.721-0.926c-0.056,0.011-0.111,0.021-0.165,0.032
			c-0.045,0.008-0.095,0.023-0.143,0.037c0.317,0.137,1.035,0.466,1.863,0.976c-0.052,0.037-0.104,0.079-0.158,0.119
			c-0.626,0.485-1.126,1.021-1.483,1.597c-0.058,0.091-0.112,0.185-0.163,0.28c-0.77-0.692-1.347-1.274-1.528-1.459
			c-0.009,0.079-0.014,0.163-0.016,0.252c0.263,0.265,0.792,0.787,1.456,1.381c-0.234,0.486-0.373,0.997-0.417,1.524
			c0.056,0.062,0.115,0.121,0.176,0.178c0.024-0.545,0.155-1.071,0.388-1.572c0.066,0.058,0.131,0.116,0.198,0.175
			c0.753,0.656,1.451,1.202,2.087,1.635c-0.265,0.528-0.372,0.928-0.405,1.071l0.18,0.057c0.027-0.113,0.125-0.502,0.383-1.023
			c0.586,0.388,1.12,0.677,1.596,0.866c0.641,0.251,1.092,0.618,1.487,1.055c-0.479,0.312-1.064,0.595-1.779,0.802l0.047,0.181
			c0.747-0.215,1.36-0.514,1.858-0.842c0.207,0.242,0.401,0.504,0.605,0.776c0.496,0.667,1.032,1.387,1.901,2.064
			c-0.716,0.492-1.372,0.739-1.64,0.828c0.008,0.002,0.016,0.007,0.025,0.01c0.089,0.031,0.18,0.058,0.272,0.083
			c0.349-0.134,0.904-0.384,1.501-0.803c0.458,0.339,1.006,0.666,1.681,0.967l0.351-0.052c-0.764-0.317-1.372-0.667-1.872-1.031
			c0.558-0.416,1.036-0.902,1.418-1.447c0.082-0.118,0.161-0.239,0.235-0.362c0.536,0.51,1.118,1.218,1.758,2.236
			c0.036-0.059,0.071-0.124,0.099-0.194c-0.639-1.002-1.223-1.705-1.759-2.21c0.292-0.524,0.505-1.094,0.638-1.704
			c-0.055-0.048-0.106-0.099-0.162-0.145c-0.123,0.614-0.331,1.191-0.619,1.717c-0.865-0.772-1.604-1.049-2.25-1.291
			c-0.364-0.137-0.697-0.261-1.005-0.459c0.086-0.099,0.165-0.195,0.235-0.287c0.479-0.623,0.686-1.165,0.752-1.368L72.97,29.007
			 M67.905,29.068c-0.079,0.128-0.15,0.252-0.215,0.372c-0.809-0.553-1.612-1.217-2.286-1.816c0.054-0.104,0.111-0.207,0.174-0.307
			c0.346-0.557,0.829-1.076,1.437-1.548c0.075-0.056,0.146-0.111,0.221-0.163c0.044,0.029,0.091,0.059,0.138,0.088
			c0.633,0.412,1.38,0.97,2.044,1.663C68.699,27.952,68.218,28.568,67.905,29.068z M71.001,31.529
			c-0.416-0.464-0.889-0.853-1.577-1.123c-0.5-0.197-1.039-0.501-1.578-0.859c0.062-0.121,0.137-0.248,0.217-0.378
			c0.306-0.489,0.777-1.092,1.483-1.673c0.491,0.532,0.929,1.138,1.232,1.813c0.335,0.746,0.698,1.187,1.087,1.484
			C71.634,31.035,71.349,31.288,71.001,31.529z M73.636,34.502c-0.878-0.674-1.416-1.395-1.912-2.06
			c-0.201-0.27-0.393-0.529-0.598-0.771c0.359-0.252,0.656-0.517,0.894-0.77c0.336,0.22,0.69,0.353,1.067,0.494
			c0.637,0.239,1.366,0.513,2.22,1.285c-0.077,0.13-0.158,0.258-0.245,0.382C74.68,33.605,74.2,34.091,73.636,34.502z"/>
	</g>
</g>
<g id="Beet">
	<g>
		<path fill="#52A76C" d="M93.673,40.401c0.633-0.17,4.974,1.617,5.935,2.236c1.564,1.007,2.672,2.224,4.117,3.345
			c-1.619-0.83-2.279-1.155-5.256-1.3c-2.114-0.103-5.614-1.117-5.952-2.213c-0.051-0.166-0.079-0.329-0.082-0.485
			C92.414,41.109,93.166,40.558,93.673,40.401z"/>
		<path fill="#52A76C" d="M104.607,44.907c-0.603-0.928-1.406-2.079-2.312-3.208c-0.71-0.885-1.862-3.482-1.468-5.757
			c0.135-0.783,0.486-1.376,1.04-1.762c0.569-0.396,1.369-0.804,1.935-0.489c0.703,0.393,0.95,1.755,0.883,2.932
			C104.589,38.298,104.166,41.754,104.607,44.907z"/>
		<path fill="#52A76C" d="M86.077,26.736c0-0.101,0.004-0.196,0.008-0.289c0.123-1.921,1.448-2.057,2.795-2.032
			c0.859,0.016,3.854,3.197,4.465,4.542c0.599,1.32,6.852,11.52,8.857,13.842c1.238,1.434,1.814,2.112,2.064,2.41l-0.052,0.088
			c-1.768-1.465-9.688-8.057-12.227-10.543c-0.295-0.29-0.591-0.577-0.887-0.864C88.518,31.391,86.08,29.032,86.077,26.736z"/>
		<path fill="#E23C7B" d="M105.41,44.507c3.597-5.244,8.225-4.2,11.717-2.926c-3.297,1.853-7.543,7.149-8.328,8.232
			c-0.784,1.081-5.479,11.04-2.214,14.137c-0.966-0.903-1.955-1.955-2.997-3.063c-3.216-3.418-2.446-8.022-2.109-9.789
			C101.815,49.326,103.078,47.609,105.41,44.507z"/>
		<path fill="#B51561" d="M106.585,63.95c-3.264-3.096,1.397-13.219,2.181-14.301c0.785-1.082,5.074-6.461,8.361-8.068l-4.48,12.39
			L106.585,63.95z"/>
	</g>
</g>
<g id="M">
	<path fill="#F34044" d="M88.545,7.922c0.866-0.129,1.807-0.247,2.821-0.357c1.012-0.107,1.952-0.165,2.822-0.169
		c0.826-0.004,1.726,0.043,2.7,0.141c0.972,0.099,1.872,0.208,2.701,0.326l8.932,23.032l8.996-23.128
		c0.826-0.127,1.663-0.246,2.511-0.354c0.847-0.107,1.685-0.164,2.514-0.168c0.867-0.004,1.756,0.043,2.667,0.141
		c0.911,0.099,1.799,0.208,2.669,0.327l2.345,44.286c-0.661,0.128-1.395,0.256-2.202,0.384c-0.805,0.128-1.87,0.196-3.193,0.203
		c-1.449,0.009-3.165-0.169-5.152-0.53l-1.007-25.681l-6.734,16.974c-0.744,0.128-1.487,0.236-2.231,0.321
		c-0.744,0.087-1.427,0.132-2.047,0.134c-0.622,0.003-1.262-0.023-1.923-0.082c-0.662-0.059-1.346-0.168-2.049-0.33l-6.169-16.656
		l-0.547,25.44c-1.736,0.38-3.389,0.575-4.96,0.584c-1.449,0.007-3.125-0.17-5.029-0.532L88.545,7.922z"/>
</g>
<g id="Tomato">
	<g>
		<polyline fill="#FF9076" points="271.333,38.78 261.154,41.18 250.219,46.539 250.167,46.539 248.015,55.664 267.002,58.729 
			279.646,45.975 		"/>
		<path fill="#529756" d="M259.712,38.214c0.26-0.18,2.043,1.688,2.715,0.633c0.789-1.239,1.942-2.655,3.656-3.244
			c0.551-0.722,0.921-1.359,0.987-1.751l-3.812,1.807c0,0-0.908-4.354-1.29-6.646c0,0-0.844,7.06-1.547,8.279l-6.052-0.89
			c0.311,0.139,1.013,0.746,1.896,1.42C258.195,37.454,259.712,38.214,259.712,38.214z"/>
		<path fill="#FF5B29" d="M279.646,45.975L279.646,45.975c-0.818-3.126-2.687-7.248-8.835-9.948
			c-1.923-0.844-3.475-0.856-4.729-0.424c-1.713,0.588-2.784,1.876-3.573,3.115c-0.672,1.055-1.684-0.373-2.668-0.634
			c0,0-1.646-0.629-3.576-0.261c-0.495,0.095-1.018,0.263-1.55,0.539c-2.6,1.353-6.244,4.106-7.721,9.096
			c-0.624,2.106-0.244,5.174,1.003,8.228C248.014,55.652,263.027,39.976,279.646,45.975z"/>
		<path fill="#B53C1F" d="M262.924,47.593c-1.657,0.607-4.386,2.055-5.49,3.189c-1.102,1.133,2.748,2.608,3.536,3.222
			c1.135,0.886,2.938,2.983,4.177,2.118c1.24-0.865,2.018-3.741,2.572-5.202c0.399-1.05,1.534-4.099,0.685-4.405
			C267.553,46.21,262.924,47.593,262.924,47.593z"/>
		<path fill="#B53C1F" d="M263.679,58.193c0.83-0.478-5.643-5.238-6.668-5.312c-1.351-0.096-2.648,0.235-3.771,1.206
			c-0.562,0.484-0.776,2.215,0.132,2.439"/>
		<path fill="#B53C1F" d="M268.287,57.431c-0.507-0.805-0.936-2.69-0.453-3.97c0.633-1.677,1.01-5.484,1.82-6.324
			c0.808-0.84,1.716-1.069,3.077-1.146c0,0,2.536-0.309,4.647,2.27L268.287,57.431z"/>
		<path fill="#F9A565" d="M257.004,53.952c-0.671,0.525-0.05,0.929,0.318,1.175c0.366,0.246,1.53,0.413,1.303,0.052
			C258.397,54.82,257.872,53.272,257.004,53.952z"/>
		<path fill="#F9A565" d="M266.796,48.339c-0.576-0.403-0.938-0.132-1.115,0.184c-0.177,0.315-0.433,1.852-0.157,1.891
			c0.276,0.039,0.314,0.015,0.447-0.143C266.104,50.116,267.774,49.022,266.796,48.339z"/>
		<path fill="#F9A565" d="M272.79,47.956c-0.709-0.112-0.938-0.243-1.141,0.145c-0.203,0.39-0.325,2.126-0.182,2.495
			c0.143,0.37,0.293,0.26,0.51,0.132c0.215-0.129,0.479-0.722,0.578-1.064C272.657,49.321,273.498,48.068,272.79,47.956z"/>
		<path fill="#F9A565" d="M255.101,55.629c-0.238,0.75,0.508,0.928,1.186,0.861c0.679-0.068,1.08-0.249,0.847-0.6
			C256.898,55.539,255.545,54.243,255.101,55.629z"/>
		<path fill="#F9A565" d="M259.488,50.907c-0.47,0.441-0.495,0.893-0.288,1.08c0.207,0.189,1,0.788,1.27,0.864
			c0.321,0.088,0.51,0.116,0.632-0.381c0.066-0.272,0.019-0.693-0.588-1.585C260.163,50.368,259.769,50.645,259.488,50.907z"/>
		<path fill="#F9A565" d="M261.227,49.425c0.655-0.146,0.797-0.067,0.982,0.239c0.186,0.306,0.275,1.434,0.08,1.611
			c-0.197,0.177-0.169,0.167-0.458-0.019c-0.288-0.187-1.074-0.774-1.08-1.224C260.744,49.583,260.876,49.5,261.227,49.425z"/>
		<path fill="#F9A565" d="M270.562,48.417c0.6,0.303,0.647,0.509,0.555,1.035c-0.092,0.527-0.876,2.029-1.156,2.106
			c-0.279,0.081-0.255,0.089-0.329-0.363c-0.073-0.451-0.221-1.782,0.112-2.359C270.078,48.26,270.238,48.254,270.562,48.417z"/>
		<path fill="#F9A565" d="M275.349,48.762c-0.262-0.255-0.797-0.753-1.306-0.135c-0.509,0.62-1.211,2.274-0.965,2.448
			c0.247,0.173,1.438-0.356,2.084-1.153C275.807,49.124,275.557,48.967,275.349,48.762z"/>
		<path fill="#F9A565" d="M263.999,48.624c-0.532,0.07-0.791,0.022-0.968,0.213c-0.178,0.189,0.226,1.611,0.771,1.882
			c0.308,0.153,0.551-0.241,0.546-0.513C264.343,49.937,264.794,48.519,263.999,48.624z"/>
	</g>
</g>
<g id="I">
	<path fill="#73DB71" d="M380.257,57.55c-1.508-0.273-3.285-0.787-5.335-1.537l7.915-43.583c1.129,0.038,2.148,0.096,3.059,0.177
		c0.909,0.082,1.709,0.185,2.4,0.31c0.734,0.134,1.55,0.324,2.451,0.571c0.9,0.249,1.865,0.548,2.893,0.903l-7.912,43.584
		C383.504,57.951,381.682,57.808,380.257,57.55z"/>
</g>
<g id="Eggshell_3_1_">
	<g>
		<g>
			<polygon fill="#FFE9E9" points="466.49,37.544 467.311,37.293 467.467,38.27 468.068,39.405 467.285,40.549 467.502,43.155 
				466.044,44.283 466.465,46.073 464.949,46.563 464.986,47.375 463.873,48.548 463.34,50.794 462.109,52.462 461.256,54.492 
				460.012,55.42 459.607,56.181 458.303,56.183 458.812,55.759 458.303,53.611 460.122,51.214 460.475,47.968 464.641,43.952 
				464.119,41.973 			"/>
			<path fill="#FFE9E9" d="M459.627,47.968"/>
			<path fill="#F6AF82" d="M458.303,56.183l1.305-0.002l0.406-0.761l1.242-0.928l0.855-2.029l1.23-1.668l0.531-2.246l1.113-1.173
				l-0.034-0.812l1.518-0.489l-0.42-1.79l1.46-1.129l-0.212-2.606l0.793-1.143l-0.579-1.133l-0.117-0.972
				c0,0,5.926,3.037,8.158,9.178c2.234,6.143-3.126,9.789-5.947,10.324C466.783,57.337,464.307,57.793,458.303,56.183z"/>
		</g>
	</g>
</g>
<g id="P">
	<path fill="#73DB71" d="M144.486,5.988c0.958-0.045,2.425-0.1,4.402-0.164c1.976-0.062,4.449,0.028,7.417,0.274
		c2.185,0.182,4.373,0.57,6.564,1.167c2.193,0.597,4.138,1.538,5.837,2.819c1.699,1.283,3.019,3.001,3.961,5.153
		c0.943,2.154,1.276,4.879,1.002,8.177c-0.243,2.926-0.887,5.322-1.934,7.186c-1.048,1.864-2.353,3.312-3.911,4.345
		c-1.559,1.032-3.296,1.718-5.211,2.057c-1.917,0.339-3.865,0.426-5.842,0.263c-0.784-0.065-1.574-0.163-2.375-0.291
		c-0.799-0.128-1.36-0.247-1.684-0.357l-1.194,14.406c-1.09,0.116-2.069,0.18-2.941,0.191c-0.873,0.01-1.681-0.015-2.422-0.077
		c-1.442-0.12-3.221-0.453-5.332-1.003L144.486,5.988z M153.447,27.774c0.199,0.1,0.544,0.19,1.035,0.272
		c0.492,0.083,1.005,0.146,1.541,0.19c1.774,0.146,3.26-0.248,4.457-1.187c1.199-0.937,1.885-2.458,2.06-4.56
		c0.102-1.237,0.013-2.292-0.267-3.167c-0.279-0.873-0.707-1.593-1.283-2.161c-0.576-0.566-1.268-0.987-2.075-1.262
		c-0.808-0.274-1.664-0.45-2.57-0.525c-0.249-0.02-0.538-0.045-0.866-0.072c-0.329-0.027-0.662-0.033-0.994-0.021L153.447,27.774z"
		/>
</g>
<g id="Peanut_2">
	<g>
		<g>
			<path fill="#E5A045" d="M338.808,49.002c-0.809-0.671-1.844-1.543-2.118-2.536c-0.273-0.992-0.628-1.734-0.334-2.855
				c0.296-1.119,0.965-1.999,1.104-2.512c0.137-0.514-0.074-1.396-0.202-1.939c-0.128-0.542-0.517-2.01-0.243-3.196
				c0.272-1.185,0.993-1.837,1.304-2.192c0.308-0.356,1.029-0.765,1.46-0.618c0.434,0.145,1.192,0.833,1.533,1.161
				c0.342,0.329,1.396,1.463,1.854,2.694c0.458,1.231-0.099,3.349-0.335,3.749c-0.238,0.4-0.922,1.081-0.8,1.69
				c0.124,0.61,0.364,1.067,0.567,1.654c0.202,0.587,0.419,1.923,0.116,2.881c-0.3,0.957-1.295,2.208-1.978,2.431
				C340.052,49.64,339.258,49.377,338.808,49.002z"/>
		</g>
		<path fill="#6D4B22" d="M337.472,40.237c0.135-0.056,0.702-0.263,1.521-0.29c0.115-0.002,0.238-0.003,0.371,0.004
			c0.021,0.469-0.089,1-0.44,1.707c-0.312,0.625-0.525,1.346-0.641,2.146c-0.554-0.124-1.155-0.323-1.789-0.629
			c-0.021,0.058-0.039,0.119-0.059,0.179c0.647,0.309,1.258,0.513,1.824,0.637c-0.009,0.07-0.016,0.139-0.023,0.21
			c-0.073,0.764-0.063,1.602,0.035,2.485c0.003,0.03,0.007,0.057,0.009,0.087c-0.837-0.246-1.479-0.578-1.704-0.701l0.073,0.25
			c0.322,0.166,0.921,0.443,1.656,0.652c0.107,0.819,0.265,1.503,0.373,1.92c0.044,0.037,0.087,0.072,0.129,0.106
			c0.036,0.031,0.076,0.057,0.119,0.088c-0.095-0.333-0.294-1.095-0.426-2.06c0.062,0.017,0.129,0.033,0.192,0.047
			c0.771,0.178,1.503,0.225,2.174,0.136c0.108-0.014,0.212-0.032,0.319-0.052c-0.047,1.034-0.131,1.849-0.16,2.106
			c0.066-0.044,0.134-0.093,0.204-0.147c0.039-0.372,0.108-1.111,0.146-2.001c0.525-0.129,1.007-0.342,1.445-0.643
			c0.01-0.083,0.021-0.166,0.025-0.25c-0.438,0.327-0.927,0.56-1.462,0.697c0.005-0.089,0.007-0.176,0.01-0.267
			c0.029-0.998,0.012-1.882-0.057-2.647c0.576-0.132,0.952-0.302,1.084-0.367l-0.068-0.177c-0.105,0.052-0.468,0.222-1.034,0.354
			c-0.07-0.7-0.187-1.297-0.343-1.784c-0.211-0.654-0.213-1.236-0.126-1.82c0.543,0.172,1.137,0.445,1.747,0.869l0.11-0.151
			c-0.64-0.441-1.258-0.729-1.827-0.905c0.056-0.311,0.136-0.628,0.218-0.957c0.201-0.807,0.419-1.679,0.391-2.781
			c0.835,0.243,1.443,0.595,1.681,0.744c-0.004-0.009-0.004-0.017-0.008-0.025c-0.034-0.089-0.068-0.177-0.109-0.264
			c-0.325-0.187-0.868-0.454-1.572-0.653c-0.028-0.568-0.122-1.2-0.316-1.912l-0.264-0.237c0.239,0.79,0.354,1.482,0.389,2.101
			c-0.676-0.171-1.354-0.232-2.018-0.184c-0.145,0.011-0.286,0.027-0.431,0.047c0.058-0.734,0.236-1.636,0.619-2.776
			c-0.069,0.01-0.143,0.024-0.214,0.045c-0.37,1.131-0.543,2.027-0.595,2.764c-0.59,0.107-1.166,0.299-1.723,0.586
			c-0.006,0.072-0.011,0.145-0.012,0.217c0.553-0.293,1.131-0.499,1.72-0.61c-0.05,1.157,0.202,1.905,0.428,2.559
			c0.125,0.368,0.239,0.705,0.282,1.068c-0.131-0.004-0.256-0.004-0.371-0.002c-0.785,0.026-1.337,0.208-1.535,0.286L337.472,40.237
			 M340.727,44.117c0.15-0.02,0.293-0.043,0.426-0.07c0.084,0.975,0.079,2.021,0.043,2.921c-0.113,0.024-0.23,0.045-0.348,0.059
			c-0.65,0.083-1.358,0.042-2.107-0.131c-0.091-0.022-0.178-0.043-0.266-0.067c-0.007-0.054-0.015-0.109-0.02-0.164
			c-0.083-0.75-0.125-1.682-0.01-2.635C339.36,44.211,340.143,44.191,340.727,44.117z M340.67,40.161
			c-0.096,0.615-0.098,1.229,0.129,1.932c0.165,0.511,0.271,1.121,0.336,1.767c-0.133,0.028-0.278,0.051-0.432,0.071
			c-0.572,0.074-1.337,0.091-2.233-0.087c0.101-0.718,0.291-1.44,0.623-2.103c0.362-0.732,0.476-1.291,0.459-1.781
			C339.887,39.986,340.264,40.047,340.67,40.161z M341.301,36.241c0.036,1.105-0.182,1.979-0.383,2.784
			c-0.082,0.328-0.16,0.64-0.218,0.951c-0.424-0.119-0.815-0.179-1.163-0.204c-0.042-0.397-0.163-0.756-0.292-1.139
			c-0.22-0.645-0.469-1.38-0.412-2.53c0.147-0.023,0.299-0.041,0.45-0.053C339.946,36,340.626,36.064,341.301,36.241z"/>
	</g>
</g>
</svg>
