<?xml version="1.0" encoding="utf-8"?>
<!-- Generator: Adobe Illustrator 16.0.0, SVG Export Plug-In . SVG Version: 6.00 Build 0)  -->
<!DOCTYPE svg PUBLIC "-//W3C//DTD SVG 1.1//EN" "http://www.w3.org/Graphics/SVG/1.1/DTD/svg11.dtd">
<svg version="1.1" id="Layer_1" xmlns="http://www.w3.org/2000/svg" xmlns:xlink="http://www.w3.org/1999/xlink" x="0px" y="0px"
	 width="102.899px" height="67.215px" viewBox="-3.019 -6.854 102.899 67.215"
	 enable-background="new -3.019 -6.854 102.899 67.215" xml:space="preserve">
<path fill="#73DB71" d="M35.6,53.082l0.215-16.423l59.058,0.003c0.67-3.881,1.012-7.201,1.008-9.966
	c-0.002-2.611-0.336-5.894-1.006-9.85l-59.066,0.001L35.6,0.426c0,0-34.619,22.328-34.619,26.329S35.6,53.082,35.6,53.082z"/>
<path fill="#F1FEF1" d="M39.758,12.848l58.496-0.001l0.564,3.332c0.703,4.149,1.061,7.687,1.062,10.515
	c0.004,2.984-0.345,6.469-1.066,10.649l-0.573,3.319l-58.478-0.003L39.505,60.36l-6.073-3.917
	C-3.019,32.935-3.019,28.914-3.019,26.754s0-6.18,36.451-29.69l6.076-3.919L39.758,12.848z"/>
<path fill="#73DB71" d="M35.6,53.082l0.215-16.423l59.058,0.003c0.67-3.881,1.012-7.201,1.008-9.966
	c-0.002-2.611-0.336-5.894-1.006-9.85l-59.066,0.001L35.6,0.426c0,0-34.619,22.328-34.619,26.329S35.6,53.082,35.6,53.082z"/>
</svg>
