<?xml version="1.0" encoding="utf-8"?>
<!-- Generator: Adobe Illustrator 16.0.0, SVG Export Plug-In . SVG Version: 6.00 Build 0)  -->
<!DOCTYPE svg PUBLIC "-//W3C//DTD SVG 1.1//EN" "http://www.w3.org/Graphics/SVG/1.1/DTD/svg11.dtd">
<svg version="1.1" id="Layer_1" xmlns="http://www.w3.org/2000/svg" xmlns:xlink="http://www.w3.org/1999/xlink" x="0px" y="0px"
	 width="128px" height="56.369px" viewBox="20.016 8.815 128 56.369" enable-background="new 20.016 8.815 128 56.369"
	 xml:space="preserve">
<g>
	<g>
		<path fill="#DEE1B9" d="M130.622,9.257h13.443c1.968,8.23,2.95,17.926,2.95,29.081c0,9.785-0.893,18.36-2.676,25.72h-12.346
			c-2.103-4.479-4.526-10.994-7.271-19.547h-1.166c-1.052,0-3.292,1.648-6.722,4.94c-1.736,1.646-4.115,2.973-7.134,3.976
			c-3.017,1.008-8.734,1.784-17.147,2.333c-1.324,0.138-2.285,0.434-2.88,0.893c-0.594,0.455-1.305,1.348-2.126,2.673
			c-2.378,3.613-4.984,5.419-7.819,5.419c-2.654,0-4.859-0.697-6.62-2.091c-1.758-1.396-2.643-3.306-2.643-5.729
			c0-1.601,0.186-3.2,0.552-4.801c-3.246,2.608-6.151,3.91-8.711,3.91c-1.601,0-2.962-0.468-4.081-1.407
			c-1.123-0.937-1.682-2.092-1.682-3.464c0-1.783,0.801-3.911,2.401-6.376c-2.104,0.777-4.116,1.164-6.038,1.164
			c-3.062,0-4.596-1.462-4.596-4.388c0-2.106,0.984-4.311,2.949-6.62c1.968-2.311,5.468-5.386,10.495-9.226
			C42.963,27.227,32.562,27.98,30.55,27.98c-6.355,0-9.534-1.782-9.534-5.349c0-1.462,0.48-2.595,1.441-3.394
			c0.959-0.801,2.207-1.374,3.738-1.716c1.533-0.345,6.574-1.086,15.124-2.229l21.606-2.88c5.896-0.777,10.059-1.167,12.482-1.167
			c1.875,0,7.132,0.481,15.775,1.441l34.362,3.91C126.733,14.218,128.425,11.771,130.622,9.257z"/>
	</g>
	<g>
		<path fill="#9C6E40" d="M125.545,16.595c1.188-2.377,2.88-4.824,5.075-7.339h13.443c1.968,8.231,2.949,17.925,2.949,29.082
			c0,9.785-0.892,18.358-2.674,25.72h-12.347c-2.103-4.48-4.526-10.996-7.271-19.548c0,0-2.579-7.583-2.343-13.922
			C122.742,20.908,125.545,16.595,125.545,16.595z"/>
	</g>
	<path fill="#C1AF79" d="M95.572,40.394c3.937-1.9,15.064,0.68,19-0.136s0.407-4.071,0.678-10.042
		c0.272-5.972,3.143-14.433,3.143-14.433l0,0l-27.211-3.096c-7.067-0.786-11.871-1.25-14.411-1.394
		c0.477,0.026,4.275,8.508,5.141,12.091c1.358,5.608-0.044,14.566,0.363,16.737C82.68,42.292,91.638,42.293,95.572,40.394z"/>
	<path fill="#C1AF79" d="M21.016,22.629c0,3.567,3.179,5.349,9.534,5.349c0.422,0,1.218-0.034,2.379-0.1
		c0.012-0.017,0.025-0.035,0.038-0.052c2.173-3.064,0.09-7.068,0-7.882c-0.09-0.813-2.125-3.196-2.125-3.197
		c-2.36,0.35-3.911,0.607-4.648,0.772c-1.532,0.343-2.778,0.916-3.738,1.716C21.496,20.035,21.016,21.168,21.016,22.629z"/>
</g>
</svg>
