<?xml version="1.0" encoding="utf-8"?>
<!-- Generator: Adobe Illustrator 16.0.0, SVG Export Plug-In . SVG Version: 6.00 Build 0)  -->
<!DOCTYPE svg PUBLIC "-//W3C//DTD SVG 1.1//EN" "http://www.w3.org/Graphics/SVG/1.1/DTD/svg11.dtd">
<svg version="1.1" id="Layer_1" xmlns="http://www.w3.org/2000/svg" xmlns:xlink="http://www.w3.org/1999/xlink" x="0px" y="0px"
	 width="168.031px" height="74px" viewBox="-72.429 9.655 168.031 74" enable-background="new -72.429 9.655 168.031 74"
	 xml:space="preserve">
<g>
	<g>
		<path fill="#DEE1B9" d="M72.102,10.63h17.456c2.554,10.688,3.83,23.275,3.83,37.762c0,12.704-1.158,23.837-3.474,33.395h-16.03
			c-2.73-5.817-5.878-14.276-9.44-25.382h-1.515c-1.364,0-4.274,2.141-8.728,6.414c-2.255,2.137-5.343,3.861-9.263,5.165
			c-3.918,1.307-11.34,2.314-22.264,3.028c-1.722,0.179-2.968,0.564-3.741,1.158c-0.771,0.592-1.692,1.752-2.761,3.472
			c-3.086,4.691-6.471,7.037-10.151,7.037c-3.444,0-6.31-0.906-8.596-2.716c-2.283-1.812-3.43-4.291-3.43-7.438
			c0-2.078,0.24-4.155,0.715-6.232c-4.215,3.384-7.985,5.075-11.311,5.075c-2.078,0-3.845-0.607-5.299-1.827
			c-1.456-1.216-2.182-2.715-2.182-4.496c0-2.317,1.039-5.078,3.116-8.281c-2.729,1.008-5.344,1.513-7.839,1.513
			c-3.977,0-5.967-1.899-5.967-5.699c0-2.732,1.278-5.596,3.83-8.595c2.555-2.998,7.097-6.992,13.625-11.979
			c-24.401,1.959-37.908,2.938-40.52,2.938c-8.253,0-12.38-2.315-12.38-6.946c0-1.899,0.624-3.369,1.871-4.407
			c1.245-1.039,2.865-1.783,4.853-2.228c1.99-0.446,8.536-1.41,19.638-2.895l28.055-3.74c7.657-1.009,13.061-1.515,16.207-1.515
			c2.437,0,9.262,0.624,20.484,1.872l44.618,5.075C67.056,17.073,69.252,13.896,72.102,10.63z"/>
	</g>
	<g>
		<path fill="#9C6E40" d="M65.512,20.16c1.544-3.087,3.74-6.264,6.59-9.529h17.456c2.554,10.688,3.83,23.274,3.83,37.762
			c0,12.704-1.158,23.837-3.474,33.395h-16.03c-2.73-5.817-5.878-14.276-9.44-25.382c0,0-3.349-9.845-3.042-18.076
			C61.872,25.759,65.512,20.16,65.512,20.16z"/>
	</g>
	<path fill="#C1AF79" d="M9.326,50.707c-0.527-2.818,1.293-14.448-0.469-21.731c-1.126-4.652-6.057-15.666-6.675-15.7
		c3.299,0.187,9.535,0.789,18.711,1.81l35.333,4.02l0,0c0,0-3.728,10.986-4.08,18.739c-0.353,7.754,4.229,11.982-0.881,13.041
		c-5.11,1.056-19.56-2.292-24.67,0.175S9.854,53.526,9.326,50.707z"/>
	<path fill="#C1AF79" d="M-68.343,23.589c1.245-1.039,2.865-1.783,4.853-2.228c0.957-0.215,2.97-0.549,6.035-1.003
		c0,0.001,2.642,3.095,2.761,4.151c0.115,1.058,2.819,6.256,0,10.235c-0.018,0.022-0.034,0.045-0.051,0.067
		c-1.508,0.086-2.541,0.13-3.089,0.13c-8.253,0-12.38-2.315-12.38-6.946C-70.214,26.097-69.59,24.627-68.343,23.589z"/>
</g>
</svg>
