<?xml version="1.0" encoding="utf-8"?>
<!-- Generator: Adobe Illustrator 16.0.0, SVG Export Plug-In . SVG Version: 6.00 Build 0)  -->
<!DOCTYPE svg PUBLIC "-//W3C//DTD SVG 1.1//EN" "http://www.w3.org/Graphics/SVG/1.1/DTD/svg11.dtd">
<svg version="1.1" id="Layer_1" xmlns="http://www.w3.org/2000/svg" xmlns:xlink="http://www.w3.org/1999/xlink" x="0px" y="0px"
	 width="116.862px" height="53.504px" viewBox="106.624 -40.064 116.862 53.504"
	 enable-background="new 106.624 -40.064 116.862 53.504" xml:space="preserve">
<g>
	<g>
		<g>
			<path fill="#DEE1B9" d="M211.153-34.714c-0.001,0-2.804,4.312-3.166,13.992c-0.235,6.34,2.343,13.923,2.343,13.923
				c0,0.001,0.001,0.002,0.001,0.004h-1.161c-1.051,0-3.293,1.648-6.721,4.941c-1.738,1.646-4.115,2.971-7.134,3.976
				c-3.019,1.007-8.733,1.782-17.147,2.331c-1.326,0.139-2.287,0.435-2.881,0.894c-0.594,0.455-1.304,1.349-2.125,2.675
				c-2.379,3.611-4.984,5.418-7.818,5.418c-2.654,0-4.859-0.697-6.621-2.091c-1.758-1.397-2.643-3.306-2.643-5.729
				c0-1.6,0.186-3.199,0.553-4.801c-3.248,2.608-6.152,3.91-8.711,3.91c-1.604,0-2.963-0.468-4.082-1.408
				c-1.123-0.937-1.684-2.09-1.684-3.463c0-1.783,0.799-3.912,2.4-6.377c-2.102,0.777-4.117,1.166-6.037,1.166
				c-3.062,0-4.598-1.464-4.598-4.39c0-2.106,0.984-4.312,2.949-6.62c1.969-2.311,5.469-5.388,10.496-9.227
				c-18.795,1.509-29.195,2.262-31.207,2.262c-6.357,0-9.535-1.782-9.535-5.349c0-1.463,0.479-2.595,1.441-3.395
				c0.959-0.801,2.207-1.374,3.736-1.716c1.533-0.344,6.574-1.085,15.123-2.229l21.607-2.88c5.896-0.777,10.057-1.168,12.482-1.168
				c1.873,0,7.131,0.481,15.775,1.441L211.153-34.714"/>
		</g>
		<path fill="#C1AF79" d="M181.182-10.914c3.936-1.902,15.064,0.679,19-0.137c3.936-0.816,0.406-4.071,0.678-10.042
			c0.271-5.972,3.143-14.432,3.143-14.432l0,0l-27.213-3.096c-7.066-0.787-11.871-1.25-14.41-1.394
			c0.477,0.026,4.273,8.508,5.141,12.091c1.357,5.609-0.045,14.566,0.361,16.737C168.289-9.017,177.246-9.015,181.182-10.914z"/>
		<path fill="#C1AF79" d="M106.623-28.68c0,3.567,3.178,5.349,9.533,5.349c0.424,0,1.219-0.034,2.379-0.099
			c0.014-0.018,0.023-0.035,0.039-0.052c2.172-3.065,0.09-7.069,0-7.883c-0.092-0.812-2.125-3.196-2.125-3.197
			c-2.361,0.35-3.91,0.608-4.648,0.773c-1.531,0.343-2.777,0.916-3.736,1.716C107.104-31.272,106.623-30.141,106.623-28.68z"/>
	</g>
	<path fill="#C1AF79" d="M207.987-20.722c0.362-9.68,3.165-13.992,3.166-13.992c0,0,9.204-0.373,9.081-0.164
		s-2.885,4.476-3.247,14.156c-0.235,6.34,2.372,14.109,2.388,14.328s-9.045-0.405-9.045-0.405S207.752-14.382,207.987-20.722z"/>
	<path fill="#7C6E50" d="M219.379-6.394c0.016-0.219,4.106-0.163,4.106-14.328c0-14.22-3.124-13.947-3.247-14.156
		c-0.123,0.209-2.885,4.476-3.247,14.156C216.756-14.382,219.363-6.612,219.379-6.394z"/>
</g>
</svg>
