<?xml version="1.0" encoding="utf-8"?>
<!-- Generator: Adobe Illustrator 16.0.0, SVG Export Plug-In . SVG Version: 6.00 Build 0)  -->
<!DOCTYPE svg PUBLIC "-//W3C//DTD SVG 1.1//EN" "http://www.w3.org/Graphics/SVG/1.1/DTD/svg11.dtd">
<svg version="1.1" id="Layer_1" xmlns="http://www.w3.org/2000/svg" xmlns:xlink="http://www.w3.org/1999/xlink" x="0px" y="0px"
	 width="500px" height="270px" viewBox="0 0 500 270" enable-background="new 0 0 500 270" xml:space="preserve">
<g id="Dirt">
</g>
<g id="S">
	<path fill="#FF5B29" d="M407.262,107.34c3.161,1.505,5.986,3.007,8.491,4.512c2.5,1.503,4.62,3.253,6.359,5.252
		c1.729,2,3.021,4.359,3.861,7.077c0.848,2.72,1.152,5.968,0.933,9.743c-0.248,4.087-1.186,7.725-2.8,10.912
		c-1.624,3.191-3.896,5.883-6.812,8.066c-2.916,2.186-6.436,3.789-10.559,4.813c-4.124,1.03-8.811,1.394-14.048,1.077
		c-4.775-0.279-8.979-0.927-12.595-1.913c-3.617-0.983-7.496-2.424-11.637-4.295c0.469-2.679,1.18-5.521,2.133-8.519
		c0.952-2.996,2.062-6.047,3.332-9.141c6.906,3.504,12.979,5.418,18.221,5.731c3.937,0.229,7.032-0.181,9.305-1.241
		c2.268-1.062,3.484-3.061,3.667-5.989c0.067-1.232-0.101-2.306-0.503-3.219c-0.408-0.916-0.981-1.704-1.716-2.367
		c-0.732-0.662-1.567-1.234-2.514-1.716c-0.938-0.482-1.896-0.945-2.874-1.392l-6.328-2.816c-2.717-1.166-5.168-2.514-7.354-4.037
		c-2.189-1.523-4.038-3.276-5.545-5.263c-1.513-1.986-2.631-4.237-3.367-6.757c-0.739-2.521-1.012-5.435-0.812-8.753
		c0.242-4.083,1.153-7.665,2.729-10.743c1.576-3.076,3.683-5.638,6.319-7.687c2.634-2.047,5.76-3.521,9.375-4.426
		c3.606-0.905,7.606-1.228,12.008-0.964c3.932,0.234,7.704,0.849,11.314,1.837c3.614,0.991,7.46,2.343,11.532,4.055
		c-0.454,2.449-1.176,5.132-2.164,8.05c-0.98,2.919-2.175,5.652-3.562,8.199c-1.957-0.966-4.252-1.995-6.896-3.082
		c-2.641-1.086-5.967-1.749-9.972-1.99c-1.237-0.075-2.418-0.028-3.55,0.136c-1.137,0.165-2.156,0.472-3.072,0.919
		c-0.917,0.45-1.671,1.101-2.261,1.953c-0.603,0.854-0.935,1.936-1.013,3.247c-0.133,2.235,0.498,3.938,1.9,5.104
		c1.396,1.167,3.076,2.195,5.035,3.086L407.262,107.34z"/>
</g>
<g id="T">
	<path fill="#73DB71" d="M448.524,141.548l-17.021-9.194c0.966-3.25,2.111-6.1,3.435-8.545c1.216-2.242,2.935-4.692,5.154-7.352
		l52.072,28.133c-0.536,1.643-1.084,3.146-1.646,4.508c-0.562,1.365-1.146,2.627-1.771,3.779c-1.214,2.244-2.938,4.777-5.165,7.609
		l-17.021-9.193l-30.822,57.066c-3.938-1.334-7.095-2.646-9.471-3.93c-2.514-1.359-5.371-3.305-8.566-5.814L448.524,141.548z"/>
</g>
<g id="Eggshell_3">
	<g>
		<g>
			<polygon fill="#FFE9E9" points="385.614,54.308 387.146,53.841 387.439,55.663 388.562,57.783 387.1,59.919 387.503,64.784 
				384.782,66.89 385.568,70.232 382.739,71.147 382.809,72.663 380.729,74.852 379.732,79.046 377.438,82.159 375.842,85.948 
				373.521,87.681 372.766,89.102 370.329,89.106 371.281,88.314 370.329,84.304 373.727,79.829 374.384,73.769 382.161,66.271 
				381.188,62.577 			"/>
			<path fill="#FFE9E9" d="M372.802,73.769"/>
			<path fill="#F6AF82" d="M370.329,89.106l2.437-0.004l0.763-1.421l2.313-1.733l1.601-3.789l2.297-3.113l0.994-4.194l2.075-2.189
				l-0.062-1.516l2.833-0.914l-0.784-3.342l2.729-2.107l-0.396-4.865l1.479-2.134l-1.08-2.116l-0.222-1.814
				c0,0,11.062,5.669,15.229,17.135c4.17,11.467-5.836,18.275-11.104,19.273C386.161,91.261,381.538,92.112,370.329,89.106z"/>
		</g>
	</g>
</g>
<g id="P">
	<path fill="#228BE0" d="M238.897,14.81c1.789-0.084,4.528-0.186,8.219-0.306c3.688-0.117,8.305,0.052,13.847,0.512
		c4.078,0.339,8.164,1.065,12.254,2.179c4.094,1.114,7.725,2.87,10.896,5.263c3.172,2.396,5.636,5.602,7.396,9.621
		c1.761,4.021,2.382,9.109,1.871,15.265c-0.454,5.463-1.655,9.935-3.61,13.415c-1.957,3.48-4.393,6.183-7.302,8.11
		c-2.911,1.928-6.153,3.208-9.729,3.84c-3.58,0.633-7.216,0.795-10.906,0.49c-1.463-0.122-2.938-0.303-4.433-0.542
		c-1.491-0.24-2.539-0.461-3.146-0.667l-2.229,26.894c-2.033,0.217-3.861,0.336-5.49,0.356c-1.629,0.02-3.137-0.027-4.521-0.143
		c-2.693-0.223-6.014-0.846-9.955-1.872L238.897,14.81z M255.626,55.483c0.371,0.186,1.017,0.355,1.933,0.509
		c0.918,0.154,1.877,0.272,2.877,0.355c3.312,0.274,6.086-0.462,8.32-2.215c2.238-1.75,3.52-4.589,3.846-8.513
		c0.19-2.31,0.023-4.279-0.498-5.911c-0.521-1.63-1.315-2.975-2.396-4.034c-1.075-1.058-2.367-1.843-3.873-2.355
		c-1.509-0.513-3.106-0.84-4.799-0.98c-0.464-0.038-1.003-0.084-1.617-0.135c-0.614-0.05-1.235-0.062-1.854-0.038L255.626,55.483z"
		/>
</g>
<g id="Apple_1_">
	<g>
		<path fill="#2D261F" d="M227.935,26.332c2.633-2.601,5.541-9.294,5.678-13.088c0,0-0.055-0.716,0.561-0.588
			c0.615,0.132,2.089,0.236,2.266,0.479c0.176,0.246,0.197,0.438,0.081,0.598c-0.12,0.165-0.203,0.166-0.336,0.408
			c-0.136,0.242-6.111,9.942-5.814,12.288"/>
		<path fill="#E8DFB1" d="M241.223,42.208"/>
		<path fill="#E8DFB1" d="M183.938,64c1.188,4.007,4.171,6.039,4.941,6.78c0.769,0.742,4.952,2.476,6.418,3.245
			c1.467,0.769,2.89,2.86,4.612,4.976c1.722,2.12,15.308,6.604,16.873,7.153c1.564,0.55,11.789,2.176,11.985,2.266
			c0.196,0.088,2.254,0.072,2.585-0.488c0.335-0.561,1.846-1.048,2.259-1.438c0,0-1.558-2.731-2.151-3.021s-2.478-1.842-2.946-2.371
			l-8.306-12.77l0.977-5.541l8.035-13.624l7.509-4.226l13.364-3.599c0.425-0.026,1.347,0.432,1.28,0.223
			c-0.888-2.668-4.825-5.907-8.424-7.968c-3.604-2.062-18.917-8.747-21.903-9.901c-2.986-1.152-10.247-1.751-11.016-1.707
			c-0.769,0.047-4.254,0.641-5.165,1.489c-0.917,0.848-0.781,1.148-0.781,1.148c-0.062,0.512,1.223,1.509,1.223,1.509l6.62,7.933
			l-2.709,15.008l0.053,4.725l-4.492,5.429l-12.604,5.426L183.938,64z"/>
		<path fill="#F34044" d="M204.084,24.626c0,0,0.066-1.423,0.754-1.981c0.688-0.556,1.672-1.27,2.302-1.616
			c0.628-0.344,4.755-1.069,9.417,0.644c4.666,1.717,5.246,0.873,6.732,1.072c1.484,0.199,6.149,1.678,7.95,2.649
			c1.805,0.973,3.176,1.947,4.516,2.474c1.341,0.528,2.784,0.908,3.615,1.517c0.826,0.61,1.35,1.715,2.857,2.396
			c1.506,0.679,3.386,2.283,4.11,3.118c0.721,0.844,4.974,4.231,5.036,6.666c-0.268-0.514-1.951-2.681-3.512-4.174
			c-1.557-1.491-3.5-2.372-3.893-2.627c-0.394-0.257-0.584,0.444-0.515,0.636c0.07,0.187-0.023,0.982-0.323,0.718
			c-0.301-0.264-1.171,0.205-1.41,0.098c-0.242-0.109-0.092,0.981-0.457,1.003c-0.361,0.021-2.389-0.412-2.887-0.385
			c-0.495,0.024-1.134-0.078-1.584-0.452c-0.448-0.371-2.173-1.324-2.568-1.292c-0.396,0.031-2.055,0.911-2.442,1.274
			c-0.39,0.364-0.674-0.081-0.674-0.081s-0.687-1.074-1.069-1.618c-0.385-0.541-0.982-1.548-1.635-2.314
			c-0.651-0.77-1.868-2.843-2.801-4.157c-0.93-1.314-3.125-2.622-4.486-3.448c-1.36-0.824-3.422-1.966-7.892-1.149
			c-4.47,0.819-5.174-0.185-6.004-0.557C206.398,22.667,204.364,24.123,204.084,24.626z"/>
		<path fill="#F34044" d="M184.025,63.808c0,0-0.485,0.385-0.419,0.673c0.068,0.285,0.938,2.591,1.173,3.03
			c0.235,0.443,1.659,3.525,4.155,5.979c1.572,1.548,2.837,2.832,4.615,4.059c1.63,1.447,2.897,1.488,3.984,2
			c1.455,0.69,6.519,1.747,7.989,2.44c1.476,0.697,3.03,2.521,5.239,3.712c2.441,1.315,6.602,3.278,7.727,3.577
			c1.127,0.297,2.332,1.063,5.307,0.999c3.662-0.08,5.72-1.415,6.24-1.596c0.079-0.028,1.11-0.536,1.11-0.536
			s1.577-1.201,2.039-1.454c0.189-0.104,0.265-0.083,0.438-0.279c0.024-0.028,0.109-0.108,0.076-0.108
			c-0.113-0.004-1.356-0.771-1.451-0.826c-0.393-0.238-3.561,1.289-3.588,1.28c-0.638-0.217-2.451-0.596-2.793-1.498
			c-0.395-1.043-0.637-2.43-0.978-2.374c-0.342,0.058-0.739,0.337-1.382,0.362c-0.645,0.023-0.66,0.843-1.333,1.17
			c-0.675,0.324-4.543-2.053-5.937-2.684c-1.399-0.632-7.671-4.201-8.812-4.93c-1.145-0.727-2.633-3.713-3.013-3.572
			c-0.38,0.149-4.417,0.003-5.074-0.632c-0.659-0.636-4.539-1.818-5.502-2.487c-0.959-0.668-0.144-1.304-0.629-1.628
			c-0.484-0.325-2.633-0.456-4.103-0.697c-1.467-0.243-3.664-1.66-3.93-1.776C184.912,65.892,183.79,64.335,184.025,63.808z"/>
		<path fill="#D3B48C" d="M217.52,32.281c2.511-3.222,4.491,5.854,3.485,8.082c-1.007,2.227-2.804,2.359-3.084,5.074
			c-0.279,2.709-3.475,4.895-4.177,3.312c-0.705-1.577-1.095-6.645-0.099-7.456C214.642,40.484,216.861,33.129,217.52,32.281z"/>
		<path fill="#D3B48C" d="M213.903,57.81c-2.269,3.622-5.329,6.21-6.836,7.104c-1.51,0.896-5.026,0.752-5.351,1.236
			c-0.318,0.487,3.426,2.671,4.065,2.644c0.643-0.027,3.969-2.144,4.628-3.262c0.664-1.121,3.507-4.619,3.816-4.953
			c0.312-0.335,0.327-2.471,0.327-2.471L213.903,57.81z"/>
		<path fill="#D3B48C" d="M235.301,38.737c-0.437-0.783-0.75-1.483-2.084-0.624c-1.337,0.858-2.64,2.003-2.64,2.003
			s2.741,2.659,3.169,2.064c0.427-0.598-0.884-2.236,0.848-1.877c1.729,0.359,2.264,0.917,3.55,0.869
			c1.284-0.05,1.449-0.063,2.001-0.242c0.557-0.178,0.991-2.191,0.991-2.191s-0.431-1.139-1.048-0.474
			c-0.616,0.668-1.938,2.193-2.298,1.599C237.425,39.271,235.301,38.737,235.301,38.737z"/>
		<path fill="#D3B48C" d="M222.443,81.489c-0.258,0.568-1.104,0.344-1.743,0.368c-0.641,0.028-2.313-1.045-3.251-1.468
			c-0.938-0.424-2.536-1.779-2.536-1.779s-0.847-3.711-0.252-3.277c0.593,0.436,2.137,0.503,2.897,0.218
			c0.759-0.289,2.785-1.578,2.785-1.578c0.605,2.795-0.145,3.403,1.061,4.579C222.505,79.875,222.443,81.489,222.443,81.489z"/>
	</g>
</g>
<g id="Eggshell_2">
	<g>
		<g>
			<polygon fill="#FFE9E9" points="92.138,227.951 92.207,229.641 90.369,229.518 88.035,230.098 86.332,228.156 81.521,227.339 
				80.162,224.178 76.728,224.111 76.548,221.141 75.063,220.831 73.465,218.27 69.652,216.26 67.207,213.262 63.938,210.77 
				62.838,208.091 61.652,207.003 62.256,204.641 62.787,205.764 66.758,203.604 67.117,209.01 75.852,209.115 79.494,219.214 
				91.016,219.214 			"/>
			<path fill="#FFE9E9" d="M76.49,210.865"/>
			<path fill="#F6AF82" d="M62.256,204.641l-0.604,2.361l1.186,1.089l1.101,2.679l3.271,2.492l2.443,2.998l3.812,2.01l1.599,2.562
				l1.484,0.312l0.178,2.973l3.433,0.076l1.36,3.164l4.81,0.832l1.695,1.969l2.318-0.52l1.812,0.237c0,0-8.252,9.296-20.396,10.472
				c-12.145,1.178-16.239-10.217-15.891-15.562C56.218,219.436,56.548,214.745,62.256,204.641z"/>
		</g>
	</g>
</g>
<g id="Eggshell_1">
	<g>
		<polyline fill="#FFE9E9" points="94.176,210.916 93.008,210.264 98.694,202.203 102.365,203.828 105.125,196.518 112.413,197.855 
			115.509,195.533 121.745,196.41 122.079,193.107 127.677,193.107 128.744,195.482 126.474,200.789 111.241,210.871 
			95.708,213.404 92.495,211.346 		"/>
		<path fill="#F6AF82" d="M127.677,193.486l-0.438,1.639l-0.946,1.461l-1.803,0.9l-0.351,0.521l-0.949,0.525l-1.108,0.301
			l-1.741-0.301l-0.566,1.719c0,0-1.262-0.498-1.512-0.385c-0.248,0.11-3.058,2.188-3.369,2.332
			c-0.309,0.141-4.129,0.051-4.129,0.051l-1.217,0.633l-1.054,2.302c0,0-2.231,0.053-2.614,0.526
			c-0.384,0.479-2.389,1.031-2.389,1.031s-2.6,1.885-2.817,2.062c-0.22,0.174-0.864,0.252-1.176,0.396
			c-0.31,0.143-0.87,1.379-0.87,1.379s-1.38,0.111-1.63,0.229c-0.246,0.111-2.339-0.646-2.339-0.646l-0.482,0.752l-1.168-0.654
			l-0.513,1.102c0.75,1.615,6.376,12.115,13.957,14.787c7.58,2.674,9.784,2.547,15.243,0.162c5.462-2.389,8.841-10.064,9.507-14
			C131.868,208.377,131.914,201.484,127.677,193.486z"/>
	</g>
</g>
<g id="C">
	<path fill="#73DB71" d="M35.554,183.207c10.592,12.484,21.127,14.275,31.606,5.385c1.884-1.6,3.516-3.283,4.894-5.061
		c1.377-1.777,2.922-4.103,4.637-6.978c5.543,2.593,10.533,5.851,14.979,9.771c-1.154,2.096-2.298,3.979-3.419,5.633
		c-1.124,1.664-2.276,3.17-3.452,4.522c-1.182,1.354-2.395,2.644-3.645,3.854c-1.252,1.213-2.582,2.418-3.993,3.617
		c-5.007,4.248-10.095,7.172-15.265,8.771c-5.172,1.604-10.263,2.051-15.271,1.336c-5.008-0.709-9.857-2.52-14.553-5.426
		c-4.691-2.9-9.035-6.711-13.031-11.42c-3.998-4.713-7.03-9.654-9.1-14.838c-2.065-5.186-3.069-10.334-3.006-15.451
		c0.062-5.115,1.278-10.098,3.646-14.941c2.369-4.848,5.939-9.293,10.708-13.338c2.826-2.396,5.681-4.46,8.562-6.203
		c2.881-1.734,6.404-3.31,10.574-4.722c1.934,2.516,3.477,5.23,4.635,8.146c1.157,2.917,2.051,5.577,2.674,7.979
		c-1.527,0.59-2.899,1.146-4.123,1.676c-1.219,0.529-2.35,1.08-3.381,1.654c-1.033,0.568-2.028,1.188-2.987,1.852
		c-0.956,0.66-1.937,1.416-2.938,2.27c-4.768,4.051-7.102,8.785-6.998,14.223C27.407,170.957,30.155,176.85,35.554,183.207z"/>
</g>
<g>
	<path fill="#E5A045" d="M251.646,213.534l-0.707-0.513l-1.812,1.057l-1.226-0.49l-1.547-0.212l-1.097,1.054l-0.878,0.303
		l-0.726,0.36l-0.304,1.046l-1.527-0.174l-0.896,2.235l-0.303,0.883l0.013,0.034c-0.027,0.223-0.076,1.168-0.075,1.809
		c0.005,1.578,0.015,3.54,0.487,5.527c0.654,2.727,2.1,4.171,3.774,5.84c0.16,0.162,0.323,0.325,0.486,0.486l0,0l0,0l0.011,0.014
		c0.038,0.039,0.075,0.078,0.114,0.117l0.111,0.113c0.117,0.117,0.235,0.233,0.352,0.356c1.996,2.097,5.709,2.937,8.583,3.521
		c0,0.002,0.004,0.002,0.004,0.008c0.143,0.027,0.283,0.058,0.42,0.085H254.9h0.002c0-0.001,0-0.001,0-0.001
		c0.007,0.002,0.013,0.003,0.021,0.004c0.272,0.058,0.565,0.093,0.873,0.104c1.394,0.062,3.335-0.353,4.604-1.688
		c0.246-0.266,0.478-0.628,0.687-1.062l0,0c0,0,0,0,0.001,0.002c0.003-0.006,0.004-0.008,0.005-0.012
		c0.023-0.045,0.046-0.097,0.067-0.146c0.004-0.006,0.008-0.016,0.012-0.021c0.021-0.042,0.038-0.081,0.059-0.127
		c0-0.002-0.002-0.004-0.004-0.004l0.002-0.002l0,0c0.879-2.048,1.326-5.366,0.896-7.639c-0.099-0.494-0.252-1.008-0.447-1.516
		c0.003-0.002,0.003-0.002,0.005-0.004c-0.033-0.096-0.07-0.188-0.109-0.281c-0.002-0.002-0.002-0.004-0.002-0.006
		c-0.004-0.005-0.006-0.013-0.008-0.021c0,0.002,0,0.002,0,0.002c-0.927-2.233-2.594-4.407-3.742-5.47
		c-0.408-0.375-0.812-0.713-1.203-1.043l0,0c-0.008-0.008-0.016-0.017-0.021-0.021l-0.169-0.143v0.002l0,0l0.169,0.143
		c-0.029-0.021-0.058-0.05-0.086-0.07c-0.881-0.74-1.713-1.439-2.513-2.402c-0.44-0.534-0.61-1.229-0.649-1.965l0.002-0.004
		l-0.814-0.42L251.646,213.534z"/>
	<polyline opacity="0.2" fill="#6D4B22" enable-background="new    " points="240.635,219.115 245.53,221.482 253.145,215.582 
		253.337,213.607 252.52,213.189 251.646,213.534 250.939,213.021 249.127,214.078 247.901,213.588 246.355,213.374 245.256,214.43 
		244.38,214.73 243.654,215.091 243.348,216.139 241.82,215.963 240.924,218.2 240.621,219.083 	"/>
	<path fill="#C88B43" d="M254.146,220.293l-0.1-0.146c-0.857-1.273-1.713-2.379-2.544-3.297l-0.188,0.151
		c0.83,0.914,1.688,2.033,2.562,3.336l0.078,0.116l-0.104,0.089c-0.289,0.243-0.629,0.504-1.037,0.798
		c-1.77,1.268-3.792,2.256-6.011,2.936l-0.141,0.046l-0.05-0.14c-0.359-0.974-0.643-1.93-0.859-2.871l-0.221,0.172
		c0.211,0.906,0.485,1.824,0.827,2.752l0.06,0.158l-0.162,0.047c-1.723,0.482-3.547,0.772-5.427,0.863
		c0.011,0.057,0.044,0.244,0.044,0.244c1.914-0.097,3.763-0.395,5.499-0.884l0.136-0.037c0,0,0.203,0.519,0.281,0.711
		c0.88,2.104,2.08,4.265,3.565,6.427c0,0,0.121,0.174,0.148,0.221l0.119,0.188l-0.218,0.048c-2.217,0.469-4.116,0.557-5.097,0.564
		c0.042,0.041,0.083,0.085,0.123,0.128l0.113,0.108c0.997-0.017,2.936-0.123,5.147-0.609l0.101-0.021l0.062,0.084
		c1.396,1.944,2.736,3.48,3.629,4.438c0.145,0.026,0.283,0.06,0.42,0.085c-0.854-0.898-2.248-2.467-3.709-4.48l-0.137-0.188
		l0.229-0.057c0.115-0.023,0.234-0.061,0.357-0.094l0.199-0.055c2.26-0.618,4.223-1.52,5.84-2.678
		c0.252-0.184,0.506-0.374,0.752-0.578l0.152-0.126l0.086,0.18c1.184,2.474,2.048,4.533,2.414,5.437
		c0.002-0.004,0.005-0.006,0.007-0.01c0.021-0.045,0.046-0.1,0.067-0.146c0.004-0.013,0.008-0.021,0.012-0.028
		c0.02-0.044,0.036-0.086,0.057-0.13l0,0c-0.74-1.789-1.566-3.644-2.396-5.364l-0.052-0.104l0.088-0.079
		c1.15-1.033,2.1-2.243,2.806-3.6c0.001-0.002,0.002-0.004,0.003-0.004c-0.033-0.099-0.07-0.188-0.109-0.282
		c0-0.003,0-0.005-0.004-0.007c0-0.006-0.004-0.014-0.008-0.021c-0.678,1.354-1.596,2.571-2.732,3.618l-0.152,0.143l-0.091-0.188
		c-0.114-0.233-0.228-0.467-0.347-0.702c-1.309-2.621-2.604-4.922-3.864-6.837l-0.073-0.112l0.104-0.09
		c1.143-0.991,1.854-1.854,2.218-2.341l-0.002-0.002c-0.007-0.003-0.017-0.012-0.021-0.02l-0.169-0.141l0,0
		c-0.357,0.48-1.055,1.316-2.135,2.266L254.146,220.293z M254.193,220.807c1.375,2.104,2.797,4.659,4.225,7.594l0.053,0.109
		l-0.092,0.079c-0.301,0.252-0.574,0.466-0.836,0.651c-1.592,1.144-3.527,2.031-5.75,2.643l-0.061,0.018
		c-0.25,0.063-0.49,0.127-0.734,0.188l-0.104,0.021l-0.062-0.086c-0.089-0.131-0.184-0.264-0.275-0.396
		c-1.599-2.322-2.856-4.646-3.748-6.914l-0.061-0.152l0.16-0.054c2.219-0.688,4.255-1.685,6.047-2.959
		c0.357-0.264,0.693-0.521,1.008-0.771l0.137-0.107L254.193,220.807z"/>
</g>
<g id="Banana">
	<g>
		<path fill="#FFDD50" d="M333.758,213.243c0,0,5.172,15.007,26.688,2.173c4.938-2.947,11.771-7.889,14.231-18.365
			c1.224-5.193,2.242-23.088,6.726-25.658c4.479-2.562,6.459-2.584,8.604-4.41c2.146-1.818,3.884-7.967,3.884-7.967l5.235,1.031
			c0,0-3.269,4.84-2.621,8c0.49,2.395,1.729,2.719,4.275,3.965c3.998,1.957,10.803,17.064,13.229,25.69
			c2.438,8.624,3.415,16.958,13.198,22.2c2.235,1.197,8.343,1.529,10.008,1.076c3.979-1.088,6.146-5.439,7.568-7.307
			c1.464-1.906,1.922-2.188,2.438-1.854c0.837,0.529,1.235,15.629-7.021,18.342c-8.271,2.715-16.154,2.025-25.255-7.07
			c-8.874-8.872-12.193-16.23-14.806-24.76c0,0-3.6,12.215,0.494,22.428c4.067,10.141,5.213,10.689,7.699,12.809
			c2.766,2.354,6.283,4.104,11.218,4.6c4.938,0.484,5.144-0.059,5.812-0.062c0.677-0.006,1.354,0.73,1.356,1.342
			c0.015,0.604,0.438,2.971-1.297,4.74c-1.738,1.772-11.44,4.439-18.704,1.812c-7.256-2.637-16.433-7.945-19.729-20.414
			c-3.306-12.467-3.265-21.729-3.204-22.67c0,0-2.252,4.611-4.104,8.146c-1.854,3.531-11.884,14.268-17.092,16.209
			c-5.205,1.945-21.812,8.604-29.646-0.871c0,0-4.932-4.957-3.025-9.654C332.049,211.469,333.348,212.771,333.758,213.243z"/>
		<path fill="#302A0F" d="M397.408,170.029c-0.426-0.479-0.718-1.082-0.903-1.984c-0.646-3.156,2.621-8,2.621-8l-5.235-1.029
			c0,0-1.735,6.146-3.884,7.967c-0.642,0.543-1.267,0.934-1.948,1.271C389.768,169.488,392.805,170.844,397.408,170.029z"/>
	</g>
</g>
<g id="E">
	<path fill="#228BE0" d="M354.139,187.146c-0.002,2.703-0.352,5.713-1.049,9.026l-22.354-0.014l-0.013,16.442l29.069,0.019
		c0.694,3.245,1.042,6.187,1.04,8.81c-0.002,2.854-0.352,5.903-1.05,9.146l-49.57-0.027l0.04-83.272l48.878,0.021
		c0.312,1.698,0.536,3.284,0.693,4.748c0.148,1.477,0.229,2.855,0.229,4.172c0,2.551-0.312,5.604-0.932,9.149l-28.379-0.021
		l-0.006,12.742l22.354,0.015C353.794,181.51,354.141,184.52,354.139,187.146z"/>
</g>
<g>
	<g>
		<path fill="#FF5B29" d="M194.865,215.36c6.431,1.358,7.411,1.83,13.027,4.955l0,0c-0.015-0.016,0.137-0.245,0.154-0.294
			c1.441-5.094,3.928-10.898,4.127-16.114c0.301-7.79-0.572-7.487-6.171-10.544c-3.76-2.053-3.73-2.101-8.632-3.032
			c-19.403-3.386-19.206,3.543-21.708,10.354c-2.043,5.731-3.017,11.881-3.805,17.824
			C178.263,213.828,186.526,213.59,194.865,215.36z"/>
	</g>
	<g>
		<path fill="#EA4D28" d="M194.915,215.295c-8.337-1.77-16.625-1.501-23.029,3.178c13.751,8.676,15.931,9.691,18.107,9.979
			c1.216,0.16,6.059-1.778,18.005-8.268C202.378,217.059,201.349,216.652,194.915,215.295z"/>
	</g>
	<g>
		<g>
			<g>
				<g>
					<defs>
						<path id="SVGID_1_" d="M194.865,215.36c6.431,1.358,7.411,1.83,13.027,4.955l0,0c-0.015-0.016,0.137-0.245,0.154-0.294
							c1.441-5.094,3.928-10.898,4.127-16.114c0.301-7.79-0.572-7.487-6.171-10.544c-3.76-2.053-3.73-2.101-8.632-3.032
							c-19.403-3.386-19.206,3.543-21.708,10.354c-2.043,5.731-3.017,11.881-3.805,17.824
							C178.263,213.828,186.526,213.59,194.865,215.36z"/>
					</defs>
					<clipPath id="SVGID_2_">
						<use xlink:href="#SVGID_1_"  overflow="visible"/>
					</clipPath>
					<g clip-path="url(#SVGID_2_)">
						<g>
							<path fill="#EA4D28" d="M205.316,196.48c1.583,0.656,3.096,1.5,4.427,2.584"/>
						</g>
						<g>
							<path fill="#EA4D28" d="M176.327,198.3c6.969-3.392,15.091-5.095,22.875-3.539"/>
						</g>
						<g>
							<path fill="#EA4D28" d="M169.19,208.05c2.775-3.907,8.232-6.001,12.692-7.178c4.613-1.197,8.068-0.19,12.542,0.059"/>
						</g>
						<g>
							<path fill="#EA4D28" d="M192.458,204.527c3.486,0.025,7.381,0.214,10.494,1.951"/>
						</g>
						<g>
							<path fill="#EA4D28" d="M169.134,212.816c2.826-3.411,6.971-5.474,11.156-6.697"/>
						</g>
						<g>
							<path fill="#EA4D28" d="M199.094,212.117c6.555,1.501,12.729,4.876,17.671,9.414"/>
						</g>
						<g>
							<path fill="#EA4D28" d="M179.976,212.341c5.475-2.434,5.962-1.801,9.962-1.092"/>
						</g>
						<g>
							<path fill="#EA4D28" d="M168.556,217.17c1.47-1.878,3.799-2.842,6.018-3.512"/>
						</g>
					</g>
				</g>
			</g>
		</g>
	</g>
</g>
<g id="L">
	<path fill="#FFDD50" d="M269.9,139.725c2.098,0.198,3.988,0.424,5.678,0.676c1.688,0.262,3.166,0.541,4.441,0.854
		c1.351,0.333,2.849,0.779,4.502,1.343c1.646,0.562,3.41,1.235,5.289,2.012l-15.451,62.996l25.984,6.373
		c-0.092,1.967-0.24,3.658-0.476,5.071c-0.229,1.416-0.479,2.685-0.754,3.812c-0.312,1.273-0.697,2.596-1.146,3.951
		c-0.453,1.359-1.104,2.977-1.957,4.822l-45.896-11.254L269.9,139.725z"/>
</g>
<g id="Pi">
	<g>
		<path fill="#F34044" d="M108.253,167.906c1.42-1.092,3.607-2.74,6.566-4.953c2.961-2.205,6.846-4.707,11.65-7.496
			c3.54-2.059,7.309-3.797,11.301-5.223c3.996-1.426,7.976-2.064,11.946-1.914c3.974,0.152,7.828,1.371,11.569,3.664
			c3.742,2.293,7.16,6.104,10.264,11.453c2.752,4.742,4.323,9.098,4.709,13.064c0.385,3.979-0.062,7.58-1.349,10.824
			c-1.284,3.246-3.216,6.146-5.789,8.717c-2.572,2.562-5.462,4.781-8.664,6.646c-1.271,0.73-2.586,1.432-3.947,2.088
			c-1.356,0.654-2.346,1.074-2.957,1.248l13.55,23.34c-1.545,1.342-2.978,2.486-4.302,3.436c-1.325,0.947-2.588,1.771-3.79,2.469
			c-2.339,1.357-5.419,2.746-9.238,4.158L108.253,167.906z M145.239,191.701c0.41-0.059,1.035-0.289,1.875-0.688
			c0.843-0.396,1.693-0.854,2.564-1.354c2.87-1.668,4.723-3.861,5.557-6.576c0.834-2.713,0.263-5.774-1.715-9.188
			c-1.162-2.004-2.428-3.521-3.789-4.562s-2.785-1.688-4.271-1.938c-1.486-0.252-2.995-0.151-4.521,0.283
			c-1.532,0.44-3.03,1.09-4.5,1.938c-0.401,0.231-0.869,0.504-1.401,0.813c-0.536,0.309-1.05,0.649-1.544,1.024L145.239,191.701z"/>
	</g>
</g>
<g id="cO">
	<path fill="#FF5B29" d="M57.442,133.547c-2.908-5.447-4.982-10.842-6.213-16.179c-1.235-5.338-1.451-10.411-0.648-15.219
		c0.802-4.804,2.711-9.261,5.727-13.368c3.012-4.106,7.312-7.651,12.898-10.636c5.584-2.984,10.9-4.58,15.959-4.787
		c5.057-0.206,9.803,0.693,14.244,2.697c4.441,2.005,8.539,5.002,12.294,8.993c3.75,3.992,7.084,8.712,9.997,14.159
		c2.91,5.451,4.965,10.809,6.162,16.078c1.195,5.271,1.381,10.293,0.562,15.063c-0.819,4.773-2.739,9.169-5.755,13.188
		c-3.021,4.021-7.318,7.522-12.902,10.507s-10.904,4.621-15.953,4.914c-5.056,0.295-9.795-0.543-14.217-2.516
		c-4.425-1.967-8.494-4.916-12.212-8.84C63.67,143.682,60.358,138.996,57.442,133.547z M102.698,109.362
		c-7.936-14.847-16.227-19.958-24.875-15.337c-8.854,4.732-9.312,14.521-1.377,29.367c3.967,7.423,7.996,12.383,12.088,14.881
		c4.093,2.498,8.387,2.543,12.881,0.141C110.133,133.755,110.56,124.072,102.698,109.362z"/>
</g>
<g id="O">
	<path fill="#F34044" d="M292.587,77.041c1.722-5.932,4-11.24,6.847-15.924c2.851-4.68,6.231-8.463,10.162-11.344
		c3.933-2.88,8.405-4.739,13.437-5.573c5.021-0.835,10.578-0.371,16.66,1.391c6.077,1.762,11.002,4.334,14.771,7.716
		c3.764,3.382,6.533,7.342,8.312,11.877c1.773,4.536,2.616,9.543,2.521,15.02c-0.104,5.479-1.011,11.185-2.729,17.118
		c-1.726,5.934-3.989,11.203-6.812,15.812c-2.82,4.608-6.192,8.334-10.111,11.177c-3.918,2.844-8.358,4.652-13.325,5.424
		c-4.973,0.77-10.49,0.275-16.569-1.487c-6.084-1.764-11.035-4.304-14.854-7.622c-3.821-3.317-6.629-7.228-8.42-11.725
		c-1.793-4.498-2.646-9.45-2.564-14.853C289.969,88.642,290.867,82.975,292.587,77.041z M341.869,91.324
		c4.688-16.167,2.312-25.617-7.104-28.347c-9.645-2.794-16.807,3.894-21.487,20.061c-2.345,8.085-2.92,14.45-1.732,19.093
		c1.188,4.646,4.229,7.676,9.12,9.095C330.158,113.977,337.227,107.344,341.869,91.324z"/>
</g>
<g id="M">
	<path fill="#FFE045" d="M128.313,33.88c1.527-0.586,3.194-1.182,4.996-1.793c1.801-0.606,3.491-1.091,5.074-1.452
		c1.504-0.343,3.163-0.621,4.977-0.837c1.812-0.214,3.496-0.38,5.055-0.499l25.609,38.355l7.025-45.793
		c1.454-0.567,2.93-1.122,4.432-1.663c1.5-0.538,3.004-0.98,4.513-1.324c1.579-0.36,3.219-0.634,4.919-0.825
		c1.699-0.188,3.363-0.35,4.997-0.485l22.215,79.757c-1.153,0.5-2.438,1.031-3.856,1.591c-1.414,0.56-3.328,1.116-5.736,1.664
		c-2.637,0.603-5.836,0.974-9.604,1.121L190.69,55.304l-5.396,33.661c-1.304,0.534-2.614,1.032-3.937,1.49
		c-1.32,0.461-2.547,0.819-3.676,1.075c-1.131,0.257-2.309,0.467-3.539,0.629c-1.231,0.161-2.521,0.238-3.867,0.229l-17.991-27.855
		l9.31,46.584c-3.009,1.397-5.941,2.421-8.802,3.074c-2.638,0.6-5.763,0.956-9.38,1.069L128.313,33.88z"/>
</g>
<g id="Tomato">
	<g>
		<polyline fill="#FF9076" points="277.578,122.682 253.436,128.375 227.501,141.084 227.376,141.086 222.271,162.729 
			267.307,169.996 297.295,139.748 		"/>
		<path fill="#529756" d="M250.015,121.342c0.617-0.427,4.844,4.004,6.439,1.5c1.871-2.938,4.606-6.297,8.672-7.694
			c1.306-1.712,2.185-3.222,2.34-4.154l-9.039,4.286c0,0-2.153-10.326-3.058-15.763c0,0-2.003,16.746-3.671,19.638l-14.354-2.111
			c0.737,0.329,2.404,1.771,4.497,3.369C246.417,119.538,250.015,121.342,250.015,121.342z"/>
		<path fill="#FF5B29" d="M297.295,139.748L297.295,139.748c-1.941-7.414-6.371-17.19-20.952-23.593
			c-4.562-2.003-8.243-2.031-11.217-1.006c-4.062,1.396-6.604,4.449-8.474,7.387c-1.596,2.503-3.995-0.885-6.329-1.505
			c0,0-3.906-1.492-8.482-0.618c-1.175,0.224-2.414,0.623-3.677,1.278c-6.165,3.208-14.808,9.738-18.312,21.573
			c-1.479,4.996-0.578,12.271,2.379,19.514C222.269,162.699,257.879,125.518,297.295,139.748z"/>
		<path fill="#B53C1F" d="M257.632,143.586c-3.931,1.439-10.402,4.875-13.021,7.564c-2.614,2.688,6.519,6.186,8.386,7.643
			c2.692,2.102,6.968,7.076,9.907,5.023c2.941-2.051,4.785-8.873,6.102-12.338c0.946-2.49,3.639-9.725,1.624-10.447
			C268.611,140.305,257.632,143.586,257.632,143.586z"/>
		<path fill="#B53C1F" d="M259.422,168.727c1.969-1.133-13.383-12.422-15.812-12.598c-3.205-0.229-6.285,0.559-8.946,2.861
			c-1.333,1.148-1.84,5.254,0.313,5.785"/>
		<path fill="#B53C1F" d="M270.354,166.918c-1.201-1.908-2.22-6.381-1.074-9.416c1.5-3.977,2.396-13.008,4.316-14.999
			c1.916-1.993,4.07-2.536,7.299-2.72c0,0,6.019-0.731,11.022,5.385L270.354,166.918z"/>
		<path fill="#F9A565" d="M243.591,158.668c-1.591,1.246-0.117,2.203,0.756,2.787c0.868,0.584,3.631,0.979,3.092,0.125
			C246.897,160.727,245.651,157.055,243.591,158.668z"/>
		<path fill="#F9A565" d="M266.818,145.355c-1.368-0.955-2.229-0.314-2.646,0.436c-0.42,0.75-1.027,4.393-0.374,4.486
			c0.656,0.092,0.746,0.035,1.062-0.338C265.177,149.57,269.136,146.975,266.818,145.355z"/>
		<path fill="#F9A565" d="M281.035,144.447c-1.684-0.268-2.225-0.577-2.706,0.344c-0.483,0.924-0.772,5.043-0.433,5.916
			c0.34,0.877,0.691,0.617,1.209,0.312c0.512-0.311,1.136-1.713,1.373-2.523C280.719,147.684,282.714,144.713,281.035,144.447z"/>
		<path fill="#F9A565" d="M239.078,162.646c-0.567,1.773,1.204,2.198,2.812,2.041c1.609-0.16,2.562-0.59,2.008-1.422
			C243.342,162.432,240.133,159.357,239.078,162.646z"/>
		<path fill="#F9A565" d="M249.485,151.445c-1.115,1.045-1.174,2.117-0.683,2.562c0.49,0.447,2.371,1.869,3.013,2.048
			c0.766,0.209,1.207,0.274,1.498-0.902c0.155-0.646,0.041-1.646-1.396-3.76C251.083,150.168,250.149,150.824,249.485,151.445z"/>
		<path fill="#F9A565" d="M253.607,147.93c1.555-0.346,1.891-0.158,2.33,0.566c0.438,0.727,0.647,3.4,0.188,3.82
			c-0.466,0.42-0.398,0.396-1.087-0.045c-0.685-0.441-2.547-1.836-2.562-2.902C252.462,148.307,252.775,148.109,253.607,147.93z"/>
		<path fill="#F9A565" d="M275.746,145.539c1.423,0.719,1.536,1.207,1.318,2.455c-0.219,1.25-2.078,4.811-2.744,4.996
			c-0.662,0.191-0.604,0.211-0.778-0.861c-0.176-1.068-0.524-4.227,0.267-5.596C274.602,145.166,274.982,145.152,275.746,145.539z"
			/>
		<path fill="#F9A565" d="M287.102,146.357c-0.621-0.605-1.891-1.787-3.097-0.32c-1.206,1.469-2.873,5.395-2.288,5.805
			c0.586,0.412,3.413-0.846,4.942-2.734C288.188,147.217,287.596,146.844,287.102,146.357z"/>
		<path fill="#F9A565" d="M260.184,146.031c-1.263,0.166-1.877,0.053-2.295,0.506c-0.425,0.447,0.533,3.82,1.826,4.463
			c0.73,0.363,1.307-0.57,1.293-1.217C260.998,149.145,262.068,145.781,260.184,146.031z"/>
	</g>
</g>
<g>
	<path fill="#E5A045" d="M254.055,197.591l0.799-0.452l-0.004-0.005c0.012-0.735,0.152-1.435,0.572-1.985
		c0.762-0.993,1.564-1.729,2.414-2.504c0.027-0.022,0.057-0.052,0.082-0.076l-0.162,0.146v-0.001v0.001l0.164-0.148
		c0.004-0.006,0.016-0.012,0.021-0.02v0.002c0.377-0.347,0.766-0.701,1.158-1.093c1.107-1.104,2.688-3.345,3.521-5.615
		c0,0,0,0,0,0.002c0.002-0.007,0.002-0.015,0.006-0.021c0-0.002,0.002-0.004,0.002-0.006c0.033-0.094,0.065-0.188,0.099-0.284
		c0-0.001,0-0.003-0.002-0.005c0.176-0.519,0.312-1.029,0.387-1.529c0.347-2.285-0.235-5.584-1.196-7.596l0,0l0,0
		c0-0.002,0.002-0.004,0.002-0.008c-0.021-0.043-0.041-0.084-0.062-0.121c-0.004-0.01-0.008-0.021-0.014-0.026
		c-0.023-0.046-0.049-0.097-0.07-0.144c-0.002-0.002-0.004-0.004-0.008-0.012l0,0l0,0c-0.229-0.424-0.475-0.777-0.729-1.027
		c-1.319-1.285-3.276-1.619-4.669-1.502c-0.305,0.022-0.598,0.07-0.865,0.14c-0.007,0.003-0.016,0.004-0.021,0.006c0,0,0,0,0-0.002
		l-0.004,0.002c0.004-0.002,0.004-0.002,0.004-0.002c-0.138,0.034-0.272,0.067-0.418,0.104c0,0,0,0-0.004,0.002
		c-2.845,0.705-6.524,1.692-8.434,3.86c-0.111,0.134-0.224,0.257-0.335,0.377l-0.106,0.119c-0.038,0.039-0.073,0.079-0.111,0.119
		l-0.011,0.017l0,0l0,0c-0.156,0.17-0.313,0.34-0.463,0.506c-1.607,1.732-2.997,3.233-3.539,5.983
		c-0.392,2.005-0.324,3.972-0.266,5.544c0.026,0.641,0.115,1.583,0.149,1.809l-0.012,0.029l0.336,0.871l0.989,2.198l1.519-0.231
		l0.344,1.028l0.743,0.331l0.889,0.271l1.139,1.01l1.536-0.273l1.208-0.543l1.853,0.982l0.688-0.541L254.055,197.591z"/>
	<polyline opacity="0.2" fill="#6D4B22" enable-background="new    " points="241.927,192.178 242.263,193.05 243.251,195.249 
		244.772,195.014 245.116,196.046 245.857,196.376 246.747,196.645 247.886,197.652 249.421,197.38 250.629,196.837 252.48,197.82 
		253.168,197.279 254.055,197.591 254.854,197.139 254.582,195.175 246.735,189.585 241.938,192.146 	"/>
	<path fill="#C88B43" d="M255.533,190.537c1.115,0.902,1.844,1.71,2.223,2.178v0.001l0.164-0.147
		c0.008-0.006,0.016-0.014,0.021-0.02v-0.001c-0.379-0.473-1.127-1.304-2.312-2.247l-0.104-0.086l0.065-0.115
		c1.183-1.965,2.392-4.314,3.591-6.99c0.106-0.237,0.213-0.477,0.313-0.715l0.084-0.188l0.157,0.137
		c1.183,0.998,2.148,2.178,2.88,3.502c0.002-0.006,0.004-0.011,0.006-0.017c0.002-0.002,0.002-0.005,0.002-0.013
		c0.039-0.092,0.065-0.188,0.104-0.28c0-0.002-0.002-0.007-0.002-0.009c-0.765-1.321-1.754-2.498-2.949-3.479l-0.09-0.072
		l0.047-0.106c0.759-1.757,1.513-3.644,2.179-5.46c0-0.002,0-0.002,0-0.002c-0.021-0.043-0.041-0.084-0.062-0.125
		c-0.004-0.01-0.009-0.021-0.014-0.028c-0.021-0.048-0.049-0.099-0.07-0.144c-0.002-0.004-0.002-0.006-0.012-0.01
		c-0.326,0.914-1.105,3.012-2.189,5.524l-0.078,0.187l-0.156-0.119c-0.256-0.193-0.518-0.377-0.777-0.547
		c-1.662-1.099-3.658-1.916-5.938-2.441l-0.206-0.047c-0.122-0.026-0.244-0.055-0.361-0.078l-0.229-0.045l0.132-0.194
		c1.381-2.073,2.713-3.694,3.524-4.628c-0.138,0.034-0.272,0.066-0.418,0.104c-0.851,0.994-2.127,2.582-3.445,4.582l-0.059,0.086
		l-0.101-0.02c-2.229-0.396-4.17-0.428-5.167-0.404l-0.108,0.118c-0.041,0.044-0.077,0.087-0.121,0.13
		c0.981-0.029,2.882-0.016,5.116,0.361l0.221,0.036l-0.105,0.192c-0.027,0.049-0.145,0.227-0.145,0.227
		c-1.396,2.219-2.51,4.425-3.305,6.564c-0.069,0.192-0.253,0.723-0.253,0.723l-0.135-0.032c-1.754-0.42-3.615-0.642-5.53-0.663
		c0,0-0.027,0.188-0.036,0.247c1.882,0.015,3.717,0.229,5.456,0.646l0.165,0.039l-0.052,0.16c-0.303,0.941-0.539,1.87-0.716,2.785
		l0.23,0.162c0.176-0.947,0.42-1.917,0.742-2.904l0.044-0.141l0.142,0.037c2.246,0.592,4.305,1.496,6.125,2.691
		c0.42,0.275,0.771,0.523,1.067,0.756l0.11,0.086l-0.075,0.121c-0.817,1.334-1.636,2.483-2.429,3.436l0.197,0.141
		c0.793-0.946,1.603-2.086,2.41-3.395l0.092-0.15L255.533,190.537z M255.33,190.059l-0.137-0.104
		c-0.322-0.238-0.666-0.482-1.039-0.729c-1.844-1.205-3.917-2.117-6.163-2.717l-0.16-0.047l0.054-0.152
		c0.797-2.304,1.964-4.679,3.463-7.062c0.092-0.143,0.183-0.271,0.264-0.409l0.06-0.089l0.104,0.021c0.248,0.047,0.49,0.1,0.74,0.15
		l0.062,0.02c2.246,0.52,4.211,1.33,5.852,2.408c0.271,0.178,0.553,0.379,0.861,0.615l0.094,0.072l-0.049,0.107
		c-1.311,2.992-2.627,5.604-3.914,7.764L255.33,190.059z"/>
</g>
<g id="I">
	<path fill="#73DB71" d="M216.319,214.27c-2.85,0.229-6.305,0.146-10.36-0.229l-6.493-82.441c2.055-0.47,3.922-0.851,5.604-1.138
		c1.68-0.287,3.175-0.483,4.483-0.585c1.388-0.109,2.951-0.155,4.695-0.138c1.743,0.02,3.628,0.101,5.653,0.251l6.496,82.441
		C222.371,213.445,219.013,214.057,216.319,214.27z"/>
</g>
<g id="Beet">
	<g>
		<path fill="#52A76C" d="M167.774,122.597c1.182-0.318,9.285,3.018,11.08,4.174c2.92,1.88,4.988,4.152,7.686,6.244
			c-3.023-1.549-4.255-2.157-9.812-2.427c-3.947-0.192-10.481-2.086-11.111-4.132c-0.096-0.31-0.148-0.614-0.152-0.905
			C165.423,123.917,166.825,122.888,167.774,122.597z"/>
		<path fill="#52A76C" d="M185.74,132.396c-1.058-1.775-3.209-3.458-4.816-6.081c-1.262-1.702-2.489-6.7-1.591-10.915
			c0.309-1.45,1.005-2.532,2.066-3.212c1.09-0.699,2.611-1.402,3.644-0.773c1.283,0.784,1.646,3.343,1.436,5.532
			C186.183,120.066,185.144,126.484,185.74,132.396z"/>
		<path fill="#52A76C" d="M152.133,98.001c0.001-0.188,0.007-0.367,0.015-0.54c0.229-3.587,2.703-3.841,5.218-3.794
			c1.604,0.03,7.196,5.969,8.336,8.479c1.118,2.465,12.792,21.505,16.536,25.842c2.311,2.677,3.387,3.942,3.854,4.498l-0.097,0.164
			c-3.299-2.735-18.085-15.041-22.826-19.683c-0.551-0.541-1.104-1.078-1.656-1.614C156.69,106.691,152.139,102.288,152.133,98.001z
			"/>
		<path fill="#E23C7B" d="M187.06,129.177c6.715-9.79,15.354-7.84,21.875-5.463c-6.156,3.46-14.082,13.347-15.547,15.369
			c-1.463,2.019-10.229,20.61-4.134,26.392c-1.804-1.686-3.649-3.646-5.595-5.719c-6.004-6.381-4.566-14.977-3.938-18.275
			C180.349,138.174,182.705,134.969,187.06,129.177z"/>
		<path fill="#B51561" d="M189.254,165.475c-6.094-5.779,2.608-24.679,4.071-26.697c1.466-2.021,9.473-12.062,15.61-15.062
			l-8.364,23.132L189.254,165.475z"/>
	</g>
</g>
<g>
	<path fill="#E5A045" d="M98.279,46.062l0.225-0.845l-1.635-1.312l0.019-1.323l-0.355-1.519l-1.378-0.648l-0.597-0.71l-0.597-0.55
		l-1.084,0.091l-0.385-1.488l-2.409-0.038l-0.933,0.036l-0.026,0.024c-0.218,0.055-1.12,0.347-1.718,0.576
		c-1.47,0.571-3.299,1.284-4.986,2.438c-2.311,1.586-3.14,3.455-4.099,5.617c-0.093,0.204-0.187,0.416-0.282,0.626l0,0l0,0
		l-0.007,0.015c-0.023,0.05-0.044,0.098-0.066,0.148l-0.067,0.146c-0.068,0.151-0.137,0.302-0.212,0.457
		c-1.237,2.611-0.692,6.382-0.214,9.274c0,0.002-0.001,0.005-0.001,0.005c0.023,0.144,0.047,0.286,0.069,0.423c0,0,0,0,0-0.002
		v0.002l0,0c0.001,0.006,0.002,0.013,0.004,0.02c0.045,0.275,0.117,0.562,0.214,0.852c0.443,1.323,1.524,2.989,3.225,3.693
		c0.333,0.138,0.758,0.222,1.238,0.263l0,0c0,0.001,0,0.001-0.001,0.001c0.005,0,0.008,0.002,0.012,0.002
		c0.051,0.003,0.106,0.006,0.16,0.01c0.01,0.001,0.018,0.001,0.028,0.001c0.045,0.005,0.089,0.008,0.138,0.01
		c0.001-0.001,0.004-0.004,0.005-0.005l0,0c0.001,0,0.001,0,0.001,0c2.227,0.087,5.485-0.684,7.449-1.903
		c0.43-0.267,0.849-0.595,1.254-0.96c0.001,0,0.002,0,0.003,0c0.076-0.066,0.149-0.133,0.223-0.202
		c0.001-0.002,0.003-0.005,0.004-0.005c0.005-0.005,0.01-0.009,0.016-0.014l0,0c1.755-1.664,3.188-3.996,3.765-5.453
		c0.204-0.517,0.376-1.014,0.544-1.498h-0.001c0.004-0.007,0.006-0.019,0.009-0.026l0.072-0.209h-0.001h0.001l-0.071,0.207
		c0.012-0.034,0.025-0.07,0.036-0.104c0.378-1.088,0.732-2.116,1.346-3.208c0.34-0.605,0.926-1.011,1.598-1.311h0.005l0.099-0.912
		L98.279,46.062z"/>
	<polyline opacity="0.2" fill="#6D4B22" enable-background="new    " points="89.123,37.779 88.667,43.197 96.906,48.192 
		98.816,47.665 98.916,46.752 98.279,46.062 98.504,45.216 96.87,43.904 96.889,42.581 96.533,41.062 95.155,40.414 94.559,39.704 
		93.962,39.154 92.877,39.245 92.492,37.757 90.082,37.719 89.149,37.755 	"/>
	<path fill="#C88B43" d="M92.867,50.816l0.102-0.142c0.881-1.261,1.606-2.453,2.164-3.557l-0.208-0.126
		c-0.558,1.103-1.292,2.308-2.195,3.589l-0.081,0.118l-0.123-0.07c-0.328-0.182-0.695-0.405-1.117-0.682
		c-1.815-1.197-3.462-2.731-4.893-4.56l-0.091-0.115l0.11-0.096c0.781-0.687,1.575-1.294,2.375-1.832l-0.239-0.146
		c-0.77,0.522-1.53,1.107-2.275,1.759l-0.126,0.111l-0.101-0.135c-1.068-1.434-1.993-3.034-2.75-4.757
		c-0.051,0.031-0.214,0.131-0.214,0.131c0.778,1.751,1.718,3.372,2.797,4.816l0.084,0.113c0,0-0.412,0.376-0.565,0.518
		c-1.649,1.577-3.237,3.47-4.723,5.631c0,0-0.118,0.176-0.151,0.218l-0.133,0.178l-0.121-0.188
		c-1.231-1.903-1.995-3.642-2.356-4.555c-0.022,0.055-0.048,0.107-0.072,0.161l-0.067,0.146c0.375,0.924,1.169,2.695,2.417,4.585
		l0.057,0.085L80.316,52.1c-1.316,2.002-2.27,3.804-2.845,4.978c0.023,0.144,0.047,0.286,0.069,0.423
		c0.536-1.117,1.496-2.98,2.856-5.07l0.127-0.194l0.132,0.193c0.068,0.1,0.143,0.201,0.216,0.301l0.123,0.17
		c1.385,1.887,2.93,3.396,4.592,4.488c0.259,0.173,0.532,0.341,0.81,0.497l0.172,0.097L86.43,58.13
		c-1.882,1.991-3.499,3.537-4.208,4.203c0.005,0.002,0.007,0.002,0.011,0.002c0.051,0.006,0.107,0.007,0.16,0.011
		c0.01,0,0.02,0,0.03,0c0.047,0.002,0.094,0.005,0.141,0.006l0,0c1.405-1.331,2.839-2.77,4.153-4.16l0.079-0.084l0.105,0.051
		c1.377,0.709,2.847,1.157,4.366,1.331c0.001,0,0.002,0,0.004,0c0.076-0.067,0.15-0.134,0.222-0.204
		c0.003-0.002,0.004-0.005,0.006-0.007c0.005-0.002,0.008-0.007,0.013-0.011c-1.507-0.145-2.971-0.569-4.355-1.259l-0.188-0.091
		l0.143-0.153c0.178-0.19,0.354-0.377,0.532-0.574c1.98-2.158,3.664-4.198,5.001-6.059l0.079-0.109l0.12,0.062
		c1.333,0.712,2.393,1.071,2.978,1.234v-0.002c0.003-0.007,0.007-0.017,0.009-0.026l0.072-0.209h-0.001
		c-0.58-0.163-1.61-0.512-2.879-1.181L92.867,50.816z M92.403,51.044c-1.472,2.036-3.349,4.279-5.578,6.665l-0.083,0.087
		l-0.105-0.058c-0.343-0.189-0.639-0.37-0.908-0.548c-1.638-1.077-3.161-2.563-4.528-4.418l-0.038-0.053
		c-0.149-0.209-0.294-0.411-0.435-0.621l-0.058-0.087l0.059-0.086c0.09-0.13,0.179-0.263,0.271-0.403
		c1.598-2.321,3.318-4.331,5.115-5.973l0.123-0.113l0.105,0.131c1.437,1.827,3.095,3.37,4.93,4.585
		c0.375,0.244,0.736,0.464,1.081,0.666l0.149,0.085L92.403,51.044z"/>
</g>
<g>
	<path fill="#E5A045" d="M115.852,51.332l-0.766-0.417l-1.664,1.28l-1.278-0.33l-1.562-0.012l-0.954,1.186l-0.832,0.412
		l-0.674,0.452l-0.168,1.075l-1.537,0.025l-0.603,2.331l-0.188,0.914l0.018,0.032c0.001,0.225,0.074,1.169,0.157,1.805
		c0.208,1.564,0.468,3.508,1.192,5.419c0.998,2.619,2.617,3.867,4.492,5.307c0.179,0.14,0.361,0.28,0.544,0.421l0,0l0,0l0.014,0.011
		c0.042,0.033,0.083,0.067,0.126,0.101l0.126,0.099c0.131,0.102,0.263,0.205,0.395,0.312c2.248,1.818,6.039,2.176,8.963,2.393
		c0,0.002,0.002,0.002,0.004,0.004c0.143,0.012,0.288,0.021,0.426,0.031l0,0h0.002c0-0.002,0-0.002,0-0.002
		c0.006,0.002,0.013,0.002,0.021,0.002c0.278,0.021,0.573,0.019,0.878-0.007c1.39-0.119,3.263-0.776,4.35-2.263
		c0.212-0.292,0.395-0.684,0.546-1.142l0,0c0,0,0,0,0,0.002c0.002-0.006,0.003-0.008,0.005-0.012
		c0.017-0.047,0.032-0.101,0.048-0.153c0.003-0.007,0.005-0.017,0.008-0.026c0.015-0.043,0.028-0.085,0.042-0.133
		c-0.001-0.002-0.002-0.003-0.003-0.003v-0.002l0,0c0.609-2.144,0.628-5.492-0.094-7.688c-0.157-0.48-0.378-0.966-0.637-1.444
		c0.001-0.002,0.001-0.002,0.002-0.004c-0.047-0.09-0.096-0.178-0.147-0.265c-0.001-0.001-0.001-0.004-0.002-0.006
		c-0.003-0.004-0.006-0.011-0.01-0.019c0,0.002,0,0.002,0,0.002c-1.203-2.098-3.133-4.04-4.412-4.945
		c-0.453-0.32-0.896-0.603-1.328-0.881l0,0c-0.008-0.006-0.016-0.01-0.024-0.016l-0.185-0.118v0.001V55.06l0.185,0.118
		c-0.032-0.019-0.063-0.042-0.094-0.061c-0.968-0.621-1.883-1.209-2.8-2.061c-0.506-0.474-0.763-1.138-0.895-1.864v-0.004
		l-0.864-0.312L115.852,51.332z"/>
	<polyline opacity="0.2" fill="#6D4B22" enable-background="new    " points="105.646,58.278 110.804,60 117.6,53.171 
		117.537,51.188 116.674,50.878 115.852,51.332 115.085,50.915 113.422,52.194 112.144,51.865 110.583,51.851 109.628,53.039 
		108.798,53.451 108.124,53.901 107.955,54.978 106.418,55 105.815,57.334 105.627,58.248 	"/>
	<path fill="#C88B43" d="M119.198,57.714l-0.115-0.133c-1.018-1.155-2.002-2.14-2.945-2.942l-0.172,0.175
		c0.94,0.8,1.937,1.799,2.972,2.979l0.092,0.105L118.936,58c-0.254,0.276-0.557,0.579-0.925,0.924
		c-1.592,1.482-3.472,2.722-5.585,3.682l-0.134,0.061l-0.068-0.131c-0.481-0.919-0.885-1.832-1.22-2.737l-0.196,0.198
		c0.326,0.872,0.715,1.747,1.172,2.625l0.079,0.149l-0.154,0.067c-1.646,0.7-3.419,1.221-5.272,1.552
		c0.018,0.056,0.076,0.238,0.076,0.238c1.886-0.343,3.682-0.874,5.34-1.583l0.13-0.055c0,0,0.267,0.488,0.37,0.67
		c1.144,1.973,2.609,3.963,4.36,5.916c0,0,0.141,0.157,0.176,0.2l0.142,0.17l-0.211,0.074c-2.139,0.747-4.011,1.079-4.982,1.215
		c0.046,0.035,0.093,0.073,0.138,0.11l0.127,0.097c0.987-0.146,2.896-0.5,5.027-1.269l0.096-0.034l0.071,0.075
		c1.636,1.751,3.162,3.104,4.167,3.938c0.145,0.01,0.288,0.021,0.428,0.031c-0.96-0.783-2.545-2.157-4.253-3.969l-0.159-0.171
		l0.217-0.082c0.113-0.042,0.228-0.09,0.344-0.138l0.194-0.081c2.159-0.901,3.991-2.046,5.445-3.404
		c0.228-0.212,0.454-0.437,0.672-0.671l0.136-0.144l0.108,0.167c1.489,2.299,2.612,4.233,3.092,5.08
		c0.002-0.004,0.003-0.005,0.005-0.01c0.016-0.047,0.032-0.103,0.048-0.153c0.003-0.01,0.005-0.02,0.008-0.029
		c0.013-0.046,0.024-0.09,0.038-0.136l0,0c-0.963-1.68-2.022-3.411-3.065-5.015l-0.063-0.098l0.076-0.09
		c1.011-1.172,1.793-2.494,2.32-3.929c0.001-0.002,0.001-0.004,0.002-0.004c-0.047-0.09-0.096-0.178-0.147-0.266
		c-0.001-0.002-0.001-0.005-0.004-0.006c-0.002-0.006-0.006-0.01-0.009-0.016c-0.498,1.429-1.252,2.753-2.249,3.937l-0.134,0.161
		l-0.115-0.176c-0.143-0.217-0.284-0.432-0.433-0.652c-1.631-2.433-3.215-4.547-4.709-6.285l-0.088-0.103l0.09-0.102
		c1.004-1.128,1.602-2.077,1.898-2.605h-0.001c-0.007-0.003-0.017-0.01-0.023-0.016l-0.186-0.117l0,0
		c-0.296,0.525-0.877,1.443-1.828,2.519L119.198,57.714z M119.309,58.217c1.632,1.91,3.371,4.263,5.164,6.991l0.065,0.102
		l-0.08,0.09c-0.266,0.288-0.509,0.535-0.746,0.753c-1.432,1.339-3.237,2.467-5.363,3.358l-0.058,0.025
		c-0.238,0.095-0.47,0.189-0.704,0.275l-0.1,0.037l-0.071-0.079c-0.104-0.117-0.213-0.236-0.327-0.359
		c-1.881-2.099-3.429-4.245-4.601-6.377l-0.08-0.146l0.152-0.071c2.113-0.965,4.004-2.214,5.618-3.71
		c0.325-0.307,0.624-0.606,0.9-0.895l0.119-0.125L119.309,58.217z"/>
</g>
</svg>
