<?xml version="1.0" encoding="utf-8"?>
<!-- Generator: Adobe Illustrator 16.0.0, SVG Export Plug-In . SVG Version: 6.00 Build 0)  -->
<!DOCTYPE svg PUBLIC "-//W3C//DTD SVG 1.1//EN" "http://www.w3.org/Graphics/SVG/1.1/DTD/svg11.dtd">
<svg version="1.1" id="Layer_1" xmlns="http://www.w3.org/2000/svg" xmlns:xlink="http://www.w3.org/1999/xlink" x="0px" y="0px"
	 width="500px" height="270px" viewBox="0 0 500 270" enable-background="new 0 0 500 270" xml:space="preserve">
<g id="S">
	<path fill="#228BE0" d="M410.898,99.833c3.002,1.801,5.671,3.567,8.02,5.304c2.345,1.736,4.287,3.682,5.827,5.838
		c1.535,2.158,2.593,4.629,3.171,7.415c0.577,2.788,0.575,6.051-0.011,9.788c-0.638,4.044-1.915,7.575-3.833,10.594
		c-1.922,3.021-4.438,5.482-7.549,7.377c-3.112,1.896-6.769,3.156-10.972,3.785c-4.203,0.631-8.897,0.539-14.084-0.275
		c-4.729-0.741-8.846-1.782-12.351-3.111s-7.229-3.13-11.171-5.39c0.723-2.621,1.704-5.38,2.94-8.272
		c1.235-2.893,2.63-5.819,4.191-8.78c6.539,4.153,12.398,6.637,17.589,7.451c3.89,0.611,7.017,0.498,9.375-0.345
		c2.359-0.841,3.766-2.708,4.224-5.609c0.189-1.219,0.126-2.304-0.192-3.252c-0.319-0.951-0.814-1.79-1.48-2.521
		c-0.667-0.729-1.444-1.379-2.333-1.948c-0.888-0.57-1.797-1.122-2.728-1.661l-6.03-3.41c-2.592-1.421-4.904-2.997-6.938-4.723
		c-2.035-1.726-3.705-3.648-5.015-5.77c-1.31-2.121-2.211-4.47-2.704-7.049c-0.494-2.579-0.484-5.507,0.032-8.79
		c0.633-4.041,1.883-7.519,3.747-10.432c1.864-2.911,4.205-5.259,7.027-7.045c2.818-1.785,6.071-2.954,9.755-3.508
		c3.683-0.554,7.696-0.492,12.046,0.191c3.891,0.61,7.587,1.583,11.091,2.913c3.504,1.333,7.2,3.047,11.092,5.142
		c-0.688,2.394-1.662,4.996-2.926,7.806c-1.262,2.811-2.707,5.418-4.333,7.819c-1.855-1.149-4.041-2.393-6.567-3.728
		c-2.525-1.334-5.772-2.312-9.736-2.936c-1.224-0.193-2.404-0.259-3.546-0.205c-1.144,0.056-2.191,0.263-3.146,0.62
		c-0.956,0.36-1.769,0.936-2.438,1.728c-0.676,0.794-1.11,1.838-1.314,3.135c-0.347,2.212,0.119,3.968,1.403,5.262
		c1.278,1.296,2.852,2.48,4.717,3.555L410.898,99.833z"/>
</g>
<g id="T">
	<path fill="#FFE045" d="M453.357,133.108l-17.018-9.194c0.966-3.25,2.111-6.1,3.432-8.545c1.212-2.242,2.931-4.692,5.157-7.352
		L497,136.15c-0.536,1.643-1.084,3.146-1.646,4.508c-0.562,1.365-1.152,2.626-1.775,3.779c-1.214,2.244-2.936,4.777-5.165,7.61
		l-17.02-9.194l-30.829,57.066c-3.934-1.334-7.088-2.645-9.464-3.929c-2.514-1.359-5.373-3.298-8.573-5.815L453.357,133.108z"/>
</g>
<g id="Eggshell_3">
	<g>
		<g>
			<polygon fill="#FFE9E9" points="390.447,45.868 391.979,45.401 392.274,47.223 393.396,49.343 391.932,51.479 392.336,56.344 
				389.615,58.45 390.402,61.792 387.572,62.707 387.64,64.223 385.562,66.412 384.566,70.606 382.271,73.719 380.675,77.508 
				378.355,79.241 377.598,80.662 375.162,80.666 376.114,79.874 375.162,75.864 378.559,71.389 379.217,65.329 386.994,57.831 
				386.021,54.137 			"/>
			<path fill="#FFE9E9" d="M377.635,65.329"/>
			<path fill="#F6AF82" d="M375.162,80.666l2.436-0.004l0.759-1.421l2.318-1.733l1.597-3.789l2.296-3.113l0.994-4.194l2.078-2.189
				l-0.065-1.516l2.833-0.914l-0.784-3.342l2.724-2.107l-0.394-4.865l1.481-2.134l-1.079-2.116l-0.218-1.814
				c0,0,11.062,5.669,15.229,17.135c4.17,11.467-5.836,18.275-11.104,19.273C390.994,82.821,386.371,83.672,375.162,80.666z"/>
		</g>
	</g>
</g>
<g id="Apple">
	<g>
		<path fill="#2D261F" d="M388.217,193.339c-0.525-3.663-4.178-9.981-7.146-12.348c0,0-0.608-0.382-0.139-0.8
			c0.471-0.416,1.431-1.539,1.731-1.537c0.302,0.005,0.47,0.103,0.529,0.291c0.061,0.193,0.012,0.261,0.129,0.513
			c0.113,0.253,4.358,10.824,6.421,11.981"/>
		<path fill="#E8DFB1" d="M408.883,192.098"/>
		<path fill="#E8DFB1" d="M392.397,251.411c3.927,1.429,7.173-0.246,8.227-0.425c1.054-0.176,4.936-2.51,6.425-3.229
			c1.49-0.722,4.017-0.623,6.743-0.749c2.729-0.124,14.413-8.38,15.785-9.312c1.372-0.931,8.76-8.185,8.95-8.289
			c0.188-0.105,1.398-1.769,1.145-2.368c-0.252-0.602,0.296-1.977,0.227-2.541"/>
		<path fill="#E8DFB1" d="M440.048,224.298l-3.909-0.28c-1.156,0.729-2.943,1.18-3.647,1.242l-15.205-0.917l-3.875-4.079
			l-6.174-14.562l1.069-8.55l5.053-12.885c0.232-0.356,1.149-0.826,0.941-0.896c-2.673-0.874-7.618,0.366-11.416,2.034
			c-3.801,1.671-18.281,10.006-20.984,11.721c-2.704,1.716-7.502,7.197-7.925,7.842c-0.42,0.645-2.013,3.799-1.875,5.038
			c0.137,1.241,0.604,1.522,0.604,1.522c0.375,0.353,1.795-0.297,1.795-0.297l10.315-0.606l10.455,11.104l3.83,2.767l1.693,6.84
			l-3.133,13.36l-5.263,6.713"/>
		<path fill="#F34044" d="M372.662,211.5c0,0-1.105-0.898-1.144-1.784c-0.037-0.885-0.027-2.099,0.069-2.812
			c0.096-0.709,1.967-4.458,6.118-7.188c4.154-2.729,3.821-3.698,4.865-4.774c1.043-1.076,5.005-3.947,6.858-4.816
			c1.856-0.873,3.454-1.396,4.674-2.16c1.222-0.765,2.385-1.699,3.369-2.004c0.981-0.302,2.182-0.066,3.626-0.873
			c1.441-0.807,3.848-1.365,4.951-1.451c1.107-0.078,6.278-1.642,8.272-0.244c-0.572-0.091-3.233,0.135-5.361,0.5
			c-2.126,0.366-3.989,1.405-4.428,1.568c-0.441,0.163,0.01,0.734,0.205,0.792c0.192,0.054,0.776,0.604,0.385,0.688
			s-0.531,1.063-0.76,1.192c-0.231,0.13,0.735,0.657,0.536,0.964c-0.199,0.303-1.751,1.676-2.027,2.092
			c-0.274,0.412-0.737,0.864-1.305,1.004c-0.565,0.14-2.356,0.959-2.566,1.296c-0.211,0.338-0.489,2.194-0.429,2.722
			c0.062,0.529-0.465,0.493-0.465,0.493s-1.271-0.086-1.937-0.101c-0.663-0.013-1.828-0.131-2.832-0.063
			c-1.006,0.067-3.396-0.187-5.008-0.22c-1.609-0.035-3.965,0.953-5.439,1.556c-1.473,0.604-3.615,1.581-5.617,5.661
			c-2,4.08-3.226,4.05-4.019,4.496C372.463,208.475,372.424,210.977,372.662,211.5z"/>
		<path fill="#F34044" d="M392.235,250.927c0,0,0.02,0.619,0.291,0.737c0.27,0.116,2.641,0.787,3.134,0.859
			c0.496,0.074,3.82,0.762,7.277,0.216c2.179-0.345,3.963-0.599,6.008-1.298c2.133-0.45,2.919-1.445,3.977-2.014
			c1.42-0.76,5.28-4.203,6.713-4.972c1.437-0.771,3.828-0.938,6.099-2.005c2.51-1.18,6.562-3.358,7.471-4.085
			c0.908-0.729,2.242-1.243,3.958-3.671c2.114-2.993,2.265-5.441,2.429-5.967c0.024-0.08,0.229-1.211,0.229-1.211
			s-0.028-1.983,0.044-2.504c0.029-0.214,0.09-0.263,0.036-0.519c-0.007-0.036-0.021-0.152-0.042-0.125
			c-0.071,0.089-1.425,0.632-1.527,0.675c-0.425,0.174-1.08,3.629-1.104,3.646c-0.555,0.384-1.937,1.615-2.865,1.354
			c-1.074-0.302-2.333-0.934-2.49-0.625c-0.156,0.309-0.17,0.795-0.531,1.326c-0.364,0.531,0.286,1.031,0.148,1.768
			c-0.14,0.735-4.351,2.432-5.688,3.178c-1.339,0.748-7.938,3.668-9.203,4.151c-1.265,0.488-4.551-0.092-4.663,0.298
			c-0.106,0.394-2.624,3.553-3.526,3.704c-0.903,0.151-4.161,2.567-5.271,2.943c-1.108,0.375-1.134-0.659-1.684-0.462
			c-0.549,0.195-1.932,1.846-2.999,2.883c-1.068,1.035-3.515,1.96-3.765,2.104C394.438,251.454,392.517,251.43,392.235,250.927z"/>
		<path fill="#D3B48C" d="M386.807,205.251c-1.098-3.935,7.377-0.129,8.569,2.004c1.191,2.134,0.229,3.657,2.245,5.496
			c2.012,1.836,1.869,5.705,0.18,5.328c-1.688-0.37-5.994-3.07-6.054-4.354C391.689,212.443,387.096,206.284,386.807,205.251z"/>
		<path fill="#D3B48C" d="M405.18,223.34c1.562,3.977,1.823,7.977,1.646,9.721c-0.178,1.746-2.385,4.488-2.188,5.037
			c0.203,0.545,4.184-1.166,4.544-1.697c0.359-0.533,0.635-4.465,0.129-5.661c-0.506-1.2-1.628-5.566-1.712-6.013
			c-0.084-0.449-1.792-1.734-1.792-1.734L405.18,223.34z"/>
		<path fill="#D3B48C" d="M402.571,194.795c-0.889-0.115-1.638-0.279-1.742,1.305c-0.104,1.584,0.042,3.312,0.042,3.312
			s3.768-0.622,3.543-1.319c-0.227-0.698-2.323-0.62-1.005-1.798c1.317-1.176,2.084-1.275,2.81-2.338
			c0.723-1.062,0.81-1.202,0.995-1.753c0.188-0.554-1.172-2.101-1.172-2.101s-1.173-0.33-1.004,0.562
			c0.17,0.894,0.61,2.862-0.082,2.799C404.263,193.405,402.571,194.795,402.571,194.795z"/>
		<path fill="#D3B48C" d="M422.004,227.773c2.606,1.177,2.649,2.141,4.311,1.871c1.66-0.271,2.979,0.912,3.281,0.277
			c0.306-0.636-0.605,0.092-0.302,0.635c0.304,0.545-0.38,1.092-0.741,1.621c-0.36,0.531-2.216,1.238-3.114,1.74
			s-2.938,0.982-2.938,0.982s-3.487-1.527-2.784-1.746c0.702-0.217,1.675-1.42,1.897-2.201
			C421.836,230.17,422.004,227.773,422.004,227.773z"/>
	</g>
</g>
<g id="Eggshell_2">
	<g>
		<g>
			<polygon fill="#FFE9E9" points="61.165,240.405 61.234,242.093 59.396,241.97 57.063,242.55 55.36,240.609 50.549,239.792 
				49.189,236.631 45.755,236.564 45.575,233.593 44.091,233.284 42.492,230.723 38.679,228.713 36.235,225.714 32.966,223.223 
				31.865,220.544 30.68,219.456 31.283,217.093 31.814,218.216 35.785,216.057 36.145,221.463 44.879,221.568 48.521,231.667 
				60.043,231.667 			"/>
			<path fill="#FFE9E9" d="M45.518,223.318"/>
			<path fill="#F6AF82" d="M31.283,217.093l-0.604,2.362l1.186,1.089l1.101,2.679l3.27,2.491l2.443,2.999l3.813,2.01l1.599,2.562
				l1.484,0.312l0.178,2.973l3.433,0.076l1.36,3.164l4.81,0.832l1.695,1.969l2.318-0.518l1.812,0.242c0,0-8.251,9.296-20.396,10.467
				c-12.144,1.176-16.239-10.212-15.89-15.562C25.245,231.889,25.575,227.198,31.283,217.093z"/>
		</g>
	</g>
</g>
<g id="Eggshell_1">
	<g>
		<polyline fill="#FFE9E9" points="69.009,232.477 67.841,231.823 73.527,223.764 77.198,225.389 79.958,218.078 87.246,219.416 
			90.342,217.093 96.578,217.971 96.912,214.667 102.51,214.667 103.577,217.043 101.307,222.35 86.074,232.432 70.541,234.965 
			67.328,232.906 		"/>
		<path fill="#F6AF82" d="M102.51,215.046l-0.438,1.64l-0.946,1.461l-1.803,0.899l-0.35,0.526l-0.949,0.525l-1.109,0.301
			l-1.741-0.301l-0.567,1.719c0,0-1.261-0.498-1.511-0.385c-0.249,0.115-3.058,2.188-3.37,2.332
			c-0.308,0.142-4.128,0.051-4.128,0.051l-1.217,0.633l-1.054,2.296c0,0-2.232,0.054-2.614,0.532
			c-0.384,0.479-2.389,1.031-2.389,1.031s-2.599,1.885-2.817,2.062c-0.22,0.175-0.865,0.252-1.176,0.396
			c-0.309,0.142-0.87,1.379-0.87,1.379s-1.38,0.114-1.63,0.23c-0.246,0.114-2.339-0.65-2.339-0.65l-0.482,0.752l-1.168-0.654
			l-0.513,1.096c0.75,1.615,6.376,12.116,13.957,14.788c7.58,2.673,9.785,2.546,15.244,0.161c5.461-2.383,8.84-10.065,9.506-13.999
			C106.701,229.938,106.747,223.044,102.51,215.046z"/>
	</g>
</g>
<g id="Peanut_2">
	<g>
		<g>
			<path fill="#E5A045" d="M259.057,234.301c1.656-1.054,3.795-2.398,5.717-2.318c1.92,0.082,3.443-0.125,5.265,1.039
				c1.819,1.164,3.002,2.855,3.836,3.396c0.833,0.537,2.521,0.664,3.56,0.748c1.035,0.082,3.868,0.226,5.82,1.39
				c1.952,1.162,2.698,2.816,3.153,3.57c0.457,0.751,0.772,2.266,0.265,2.949c-0.506,0.686-2.162,1.643-2.941,2.061
				c-0.778,0.42-3.396,1.645-5.846,1.758c-2.451,0.112-5.896-2.088-6.472-2.738c-0.575-0.652-1.394-2.256-2.547-2.385
				s-2.101,0.037-3.261,0.064s-3.659-0.355-5.188-1.438c-1.53-1.08-3.183-3.566-3.192-4.906
				C257.212,236.146,258.132,234.886,259.057,234.301z"/>
		</g>
		<path fill="#6D4B22" d="M275.398,236.932c0.021,0.271,0.069,1.397-0.354,2.869c-0.062,0.206-0.132,0.426-0.218,0.657
			c-0.846-0.231-1.727-0.726-2.783-1.757c-0.934-0.911-2.092-1.704-3.45-2.364c0.536-0.915,1.235-1.87,2.142-2.821
			c-0.092-0.07-0.19-0.137-0.287-0.205c-0.917,0.971-1.627,1.943-2.172,2.877c-0.119-0.055-0.239-0.108-0.36-0.162
			c-1.319-0.568-2.812-1.028-4.437-1.358c-0.055-0.012-0.108-0.021-0.162-0.033c0.916-1.348,1.873-2.3,2.219-2.629l-0.488-0.013
			c-0.477,0.478-1.312,1.383-2.104,2.572c-1.516-0.277-2.822-0.388-3.625-0.432c-0.09,0.057-0.176,0.112-0.262,0.168
			c-0.076,0.047-0.147,0.105-0.225,0.162c0.646,0.021,2.115,0.102,3.904,0.419c-0.063,0.101-0.129,0.209-0.193,0.316
			c-0.756,1.268-1.256,2.542-1.482,3.786c-0.037,0.201-0.066,0.397-0.09,0.598c-1.81-0.674-3.211-1.29-3.652-1.489
			c0.039,0.144,0.088,0.292,0.146,0.448c0.637,0.281,1.912,0.827,3.473,1.404c-0.073,1.006,0.033,1.984,0.317,2.933
			c0.14,0.067,0.282,0.133,0.429,0.188c-0.332-0.963-0.467-1.965-0.406-2.996c0.156,0.059,0.31,0.113,0.468,0.169
			c1.758,0.622,3.339,1.095,4.741,1.411c-0.096,1.1-0.01,1.867,0.031,2.137l0.353-0.021c-0.034-0.217-0.127-0.959-0.038-2.039
			c1.286,0.272,2.411,0.408,3.367,0.408c1.285-0.001,2.32,0.328,3.307,0.816c-0.617,0.867-1.441,1.765-2.543,2.611l0.207,0.281
			c1.15-0.885,2.012-1.822,2.65-2.732c0.522,0.279,1.039,0.6,1.578,0.934c1.318,0.818,2.744,1.702,4.718,2.283
			c-0.908,1.345-1.878,2.224-2.282,2.562c0.018-0.002,0.033,0.002,0.05,0c0.177-0.009,0.353-0.022,0.53-0.043
			c0.516-0.473,1.304-1.285,2.057-2.421c1.028,0.275,2.204,0.468,3.581,0.528l0.573-0.331c-1.542-0.028-2.837-0.219-3.956-0.51
			c0.687-1.104,1.183-2.274,1.476-3.483c0.064-0.262,0.116-0.525,0.162-0.79c1.275,0.519,2.774,1.353,4.582,2.683
			c0.023-0.129,0.039-0.266,0.041-0.406c-1.797-1.303-3.291-2.122-4.572-2.635c0.148-1.109,0.133-2.243-0.056-3.395
			c-0.124-0.051-0.251-0.1-0.379-0.145c0.205,1.152,0.24,2.295,0.101,3.408c-2.028-0.75-3.502-0.728-4.791-0.703
			c-0.727,0.011-1.39,0.022-2.062-0.111c0.083-0.229,0.154-0.451,0.215-0.658c0.404-1.41,0.394-2.494,0.37-2.892L275.398,236.932
			 M266.643,240.501c-0.05,0.278-0.09,0.545-0.117,0.796c-1.782-0.406-3.637-1.012-5.215-1.591c0.021-0.215,0.051-0.435,0.094-0.651
			c0.22-1.203,0.701-2.438,1.436-3.671c0.09-0.149,0.178-0.293,0.27-0.434c0.1,0.019,0.201,0.038,0.302,0.059
			c1.38,0.281,3.062,0.74,4.69,1.488C267.258,238.02,266.844,239.42,266.643,240.501z M273.706,242.659
			c-1.039-0.521-2.128-0.875-3.508-0.873c-1.003,0.001-2.148-0.159-3.331-0.413c0.025-0.253,0.066-0.523,0.119-0.807
			c0.195-1.059,0.603-2.428,1.43-3.92c1.218,0.588,2.393,1.34,3.381,2.308c1.094,1.063,2.023,1.582,2.905,1.832
			C274.466,241.367,274.143,242.001,273.706,242.659z M280.314,246.02c-1.986-0.569-3.414-1.453-4.731-2.271
			c-0.534-0.332-1.045-0.649-1.565-0.931c0.453-0.683,0.784-1.344,1.026-1.949c0.731,0.152,1.438,0.141,2.192,0.13
			c1.271-0.021,2.721-0.045,4.734,0.712c-0.043,0.277-0.1,0.555-0.164,0.831C281.516,243.749,281.014,244.919,280.314,246.02z"/>
	</g>
</g>
<g id="C">
	<path fill="#73DB71" d="M40.387,174.768c10.591,12.483,21.126,14.275,31.606,5.385c1.884-1.6,3.516-3.285,4.894-5.062
		c1.376-1.777,2.922-4.101,4.637-6.976c5.542,2.592,10.533,5.85,14.978,9.774c-1.155,2.096-2.298,3.978-3.419,5.633
		c-1.124,1.664-2.276,3.17-3.452,4.525c-1.182,1.354-2.394,2.641-3.644,3.852c-1.252,1.213-2.582,2.418-3.994,3.617
		c-5.006,4.248-10.095,7.172-15.265,8.774c-5.171,1.603-10.262,2.051-15.271,1.337c-5.008-0.709-9.858-2.518-14.552-5.424
		c-4.692-2.903-9.036-6.711-13.032-11.421c-3.998-4.712-7.03-9.655-9.099-14.837c-2.066-5.184-3.07-10.334-3.006-15.451
		c0.062-5.117,1.278-10.098,3.646-14.944c2.369-4.845,5.939-9.292,10.708-13.338c2.826-2.398,5.681-4.464,8.562-6.202
		c2.88-1.734,6.404-3.31,10.574-4.722c1.933,2.516,3.477,5.23,4.635,8.146c1.157,2.917,2.05,5.579,2.673,7.984
		c-1.527,0.589-2.899,1.146-4.123,1.675c-1.219,0.53-2.349,1.08-3.381,1.655c-1.033,0.57-2.028,1.188-2.987,1.85
		c-0.956,0.661-1.937,1.416-2.938,2.267c-4.768,4.047-7.102,8.786-6.998,14.219C32.24,162.518,34.989,168.41,40.387,174.768z"/>
</g>
<g id="Banana">
	<g>
		<path fill="#FFDD50" d="M127.587,231.756c0,0,5.243,14.983,26.696,2.045c4.923-2.97,11.73-7.943,14.146-18.433
			c1.196-5.199,2.133-23.099,6.601-25.69c4.467-2.587,6.447-2.615,8.584-4.451c2.136-1.834,3.845-7.985,3.845-7.985l5.24,1.005
			c0,0-3.244,4.857-2.582,8.013c0.502,2.392,1.74,2.71,4.294,3.944c4.007,1.938,10.884,17.013,13.354,25.627
			c2.473,8.613,3.496,16.943,13.305,22.138c2.24,1.185,8.35,1.488,10.012,1.027c3.973-1.106,6.115-5.468,7.534-7.336
			c1.455-1.919,1.911-2.197,2.429-1.872c0.84,0.527,1.311,15.623-6.935,18.376c-8.252,2.754-16.146,2.103-25.29-6.95
			c-8.916-8.829-12.27-16.171-14.918-24.689c0,0-3.54,12.232,0.602,22.426c4.115,10.121,5.264,10.664,7.76,12.771
			c2.777,2.341,6.302,4.071,11.24,4.54c4.939,0.467,5.136-0.076,5.811-0.088c0.676-0.009,1.361,0.727,1.369,1.335
			c0.011,0.606,0.453,2.966-1.275,4.747c-1.731,1.782-11.425,4.496-18.695,1.901c-7.269-2.597-16.47-7.866-19.831-20.318
			c-3.36-12.452-3.364-21.709-3.312-22.655c0,0-2.231,4.627-4.068,8.17c-1.838,3.543-11.814,14.321-17.013,16.291
			c-5.196,1.971-21.769,8.703-29.655-0.729c0,0-4.951-4.933-3.072-9.644C125.869,229.99,127.174,231.287,127.587,231.756z"/>
		<path fill="#302A0F" d="M191.03,188.238c-0.429-0.475-0.724-1.079-0.913-1.979c-0.662-3.153,2.582-8.013,2.582-8.013l-5.24-1.005
			c0,0-1.709,6.151-3.845,7.985c-0.639,0.547-1.263,0.934-1.942,1.276C183.386,187.734,186.43,189.075,191.03,188.238z"/>
	</g>
</g>
<g id="E">
	<path fill="#FF5B29" d="M362.046,187.958c-0.177,2.698-0.72,5.681-1.631,8.946l-22.306-1.463l-1.075,16.412l29.009,1.899
		c0.482,3.283,0.638,6.236,0.467,8.853c-0.188,2.853-0.732,5.873-1.641,9.062l-49.465-3.241l5.442-83.1l48.773,3.196
		c0.196,1.715,0.322,3.311,0.384,4.783c0.057,1.477,0.045,2.867-0.043,4.178c-0.165,2.541-0.673,5.565-1.521,9.07l-28.318-1.857
		l-0.832,12.713l22.308,1.464C362.068,182.312,362.219,185.338,362.046,187.958z"/>
</g>
<g id="L">
	<path fill="#73DB71" d="M274.734,131.285c2.097,0.198,3.988,0.423,5.677,0.676c1.687,0.255,3.166,0.54,4.442,0.853
		c1.35,0.333,2.848,0.779,4.502,1.342c1.646,0.563,3.41,1.236,5.289,2.012l-15.451,62.996l25.984,6.372
		c-0.086,1.968-0.24,3.659-0.47,5.073c-0.228,1.416-0.479,2.684-0.754,3.812c-0.313,1.274-0.697,2.59-1.149,3.952
		c-0.453,1.359-1.105,2.97-1.957,4.822l-45.896-11.254L274.734,131.285z"/>
</g>
<g id="Pi">
	<g>
		<path fill="#F34044" d="M113.086,159.466c1.42-1.092,3.608-2.739,6.567-4.952c2.96-2.205,6.845-4.707,11.65-7.496
			c3.54-2.06,7.308-3.797,11.301-5.224c3.995-1.426,7.975-2.063,11.946-1.913c3.973,0.151,7.828,1.371,11.569,3.664
			c3.742,2.292,7.161,6.109,10.264,11.452c2.752,4.742,4.323,9.099,4.709,13.071c0.385,3.972-0.062,7.58-1.349,10.824
			c-1.284,3.246-3.216,6.153-5.789,8.717c-2.572,2.567-5.462,4.781-8.664,6.64c-1.271,0.737-2.586,1.433-3.947,2.089
			c-1.357,0.654-2.346,1.074-2.957,1.248l13.549,23.339c-1.544,1.343-2.977,2.486-4.301,3.437c-1.326,0.947-2.588,1.77-3.79,2.468
			c-2.339,1.358-5.419,2.745-9.238,4.158L113.086,159.466z M150.072,183.262c0.41-0.059,1.035-0.289,1.875-0.688
			c0.843-0.396,1.694-0.85,2.564-1.352c2.871-1.668,4.724-3.861,5.557-6.576c0.835-2.713,0.263-5.777-1.715-9.185
			c-1.162-2.004-2.427-3.524-3.789-4.562c-1.361-1.039-2.785-1.688-4.271-1.941c-1.487-0.252-2.995-0.156-4.522,0.284
			c-1.532,0.442-3.03,1.089-4.5,1.94c-0.401,0.232-0.868,0.504-1.401,0.814c-0.536,0.309-1.049,0.654-1.544,1.029L150.072,183.262z"
			/>
	</g>
</g>
<g id="cO">
	<path fill="#FFE045" d="M62.276,125.107c-2.909-5.447-4.983-10.842-6.214-16.179c-1.235-5.338-1.45-10.411-0.648-15.219
		c0.802-4.804,2.711-9.261,5.726-13.368c3.013-4.106,7.313-7.651,12.899-10.636c5.584-2.984,10.901-4.58,15.959-4.787
		c5.056-0.206,9.803,0.693,14.244,2.697c4.441,2.005,8.539,5.002,12.294,8.993c3.75,3.992,7.084,8.712,9.997,14.159
		c2.91,5.451,4.965,10.809,6.162,16.078c1.196,5.271,1.381,10.293,0.562,15.063c-0.82,4.773-2.739,9.17-5.755,13.188
		c-3.021,4.02-7.318,7.523-12.902,10.507c-5.585,2.984-10.904,4.621-15.954,4.914c-5.055,0.295-9.795-0.543-14.216-2.516
		c-4.425-1.967-8.494-4.915-12.212-8.839C68.503,135.241,65.191,130.556,62.276,125.107z M107.531,100.922
		c-7.935-14.847-16.227-19.958-24.875-15.337c-8.853,4.732-9.312,14.521-1.377,29.367c3.967,7.423,7.997,12.384,12.088,14.881
		c4.093,2.498,8.387,2.543,12.881,0.141C114.966,125.315,115.393,115.632,107.531,100.922z"/>
</g>
<g id="Peanut_1">
	<g>
		<g>
			<path fill="#E5A045" d="M112.419,43.296c1.93-0.372,4.411-0.839,6.169-0.06c1.757,0.78,3.251,1.145,4.518,2.895
				c1.265,1.75,1.748,3.757,2.323,4.565c0.578,0.805,2.103,1.54,3.039,1.998c0.935,0.458,3.517,1.63,4.906,3.427
				s1.478,3.609,1.624,4.478c0.148,0.867-0.11,2.392-0.834,2.842c-0.723,0.451-2.614,0.735-3.494,0.839
				c-0.877,0.104-3.761,0.284-6.082-0.509c-2.322-0.792-4.722-4.103-5.019-4.92c-0.294-0.816-0.466-2.607-1.493-3.152
				c-1.025-0.542-1.966-0.734-3.059-1.133c-1.09-0.401-3.271-1.674-4.3-3.24c-1.028-1.565-1.652-4.485-1.172-5.736
				C110.027,44.338,111.346,43.502,112.419,43.296z"/>
		</g>
		<path fill="#6D4B22" d="M126.661,51.733c-0.08,0.26-0.448,1.326-1.381,2.54c-0.133,0.171-0.28,0.35-0.445,0.534
			c-0.7-0.527-1.341-1.308-1.946-2.656c-0.533-1.189-1.32-2.354-2.343-3.465c0.836-0.655,1.835-1.287,3.026-1.839
			c-0.06-0.101-0.127-0.199-0.19-0.299c-1.21,0.567-2.227,1.213-3.078,1.882c-0.09-0.094-0.182-0.189-0.275-0.284
			c-1.02-1.015-2.241-1.988-3.628-2.889c-0.046-0.031-0.095-0.06-0.137-0.09c1.344-0.919,2.581-1.455,3.024-1.632l-0.449-0.19
			c-0.618,0.267-1.728,0.802-2.899,1.619c-1.309-0.814-2.486-1.395-3.214-1.728c-0.104,0.02-0.207,0.04-0.307,0.059
			c-0.085,0.015-0.177,0.044-0.267,0.069c0.592,0.256,1.931,0.87,3.478,1.822c-0.097,0.07-0.194,0.147-0.294,0.222
			c-1.169,0.905-2.101,1.906-2.77,2.982c-0.107,0.17-0.208,0.345-0.303,0.522c-1.436-1.292-2.514-2.379-2.852-2.725
			c-0.017,0.147-0.026,0.305-0.029,0.47c0.492,0.495,1.479,1.47,2.717,2.58c-0.437,0.907-0.696,1.86-0.779,2.844
			c0.105,0.115,0.215,0.226,0.329,0.333c0.045-1.017,0.288-2,0.724-2.935c0.123,0.109,0.244,0.217,0.369,0.326
			c1.406,1.225,2.709,2.244,3.896,3.052c-0.493,0.986-0.692,1.733-0.755,2l0.335,0.107c0.05-0.212,0.233-0.938,0.715-1.91
			c1.095,0.725,2.091,1.264,2.981,1.616c1.197,0.469,2.039,1.154,2.776,1.97c-0.894,0.582-1.988,1.112-3.322,1.498l0.088,0.338
			c1.394-0.402,2.539-0.96,3.469-1.572c0.386,0.451,0.748,0.94,1.129,1.448c0.926,1.244,1.927,2.589,3.549,3.853
			c-1.337,0.918-2.562,1.38-3.062,1.546c0.014,0.005,0.03,0.013,0.046,0.019c0.167,0.057,0.336,0.108,0.509,0.154
			c0.652-0.25,1.686-0.718,2.803-1.499c0.855,0.634,1.878,1.243,3.137,1.806l0.655-0.098c-1.425-0.592-2.56-1.244-3.494-1.924
			c1.042-0.777,1.934-1.684,2.648-2.701c0.154-0.22,0.302-0.447,0.439-0.676c1,0.952,2.087,2.274,3.282,4.174
			c0.068-0.11,0.132-0.231,0.185-0.362c-1.193-1.871-2.283-3.182-3.284-4.126c0.544-0.978,0.943-2.042,1.191-3.18
			c-0.101-0.091-0.198-0.184-0.301-0.271c-0.23,1.146-0.618,2.223-1.156,3.206c-1.614-1.441-2.993-1.959-4.199-2.41
			c-0.68-0.255-1.301-0.488-1.876-0.858c0.16-0.184,0.308-0.364,0.439-0.536c0.894-1.162,1.281-2.175,1.404-2.554L126.661,51.733
			 M117.204,51.848c-0.148,0.24-0.28,0.472-0.402,0.695c-1.509-1.032-3.009-2.273-4.268-3.391c0.101-0.193,0.208-0.386,0.326-0.573
			c0.646-1.039,1.547-2.009,2.681-2.889c0.139-0.105,0.274-0.207,0.412-0.305c0.083,0.054,0.169,0.109,0.257,0.164
			c1.181,0.769,2.576,1.812,3.818,3.104C118.687,49.763,117.789,50.914,117.204,51.848z M122.987,56.442
			c-0.777-0.867-1.662-1.593-2.945-2.097c-0.933-0.368-1.94-0.936-2.947-1.605c0.118-0.225,0.256-0.461,0.407-0.706
			c0.57-0.913,1.45-2.038,2.767-3.124c0.917,0.994,1.735,2.125,2.302,3.385c0.625,1.393,1.301,2.216,2.028,2.771
			C124.166,55.519,123.634,55.992,122.987,56.442z M127.904,61.992c-1.64-1.258-2.643-2.604-3.57-3.846
			c-0.376-0.504-0.735-0.987-1.116-1.438c0.67-0.471,1.223-0.965,1.668-1.438c0.627,0.41,1.29,0.658,1.993,0.923
			c1.19,0.446,2.549,0.957,4.145,2.398c-0.143,0.243-0.295,0.481-0.457,0.713C129.852,60.319,128.956,61.225,127.904,61.992z"/>
	</g>
</g>
<g id="O">
	<path fill="#F34044" d="M297.42,68.601c1.721-5.932,4-11.24,6.846-15.924c2.845-4.68,6.232-8.463,10.161-11.344
		c3.93-2.88,8.407-4.739,13.434-5.573c5.023-0.835,10.578-0.371,16.661,1.391c6.08,1.762,11.001,4.334,14.769,7.716
		c3.761,3.382,6.533,7.342,8.313,11.877c1.778,4.536,2.618,9.543,2.521,15.02c-0.104,5.479-1.011,11.185-2.729,17.118
		c-1.721,5.934-3.991,11.203-6.814,15.812c-2.822,4.608-6.195,8.334-10.113,11.177c-3.918,2.844-8.361,4.652-13.328,5.424
		c-4.968,0.77-10.49,0.275-16.571-1.487c-6.083-1.764-11.035-4.304-14.854-7.622c-3.823-3.317-6.63-7.228-8.421-11.725
		c-1.792-4.498-2.646-9.45-2.566-14.853C294.802,80.202,295.7,74.535,297.42,68.601z M346.702,82.884
		c4.686-16.167,2.316-25.617-7.101-28.347c-9.642-2.794-16.804,3.894-21.49,20.061c-2.342,8.085-2.92,14.45-1.733,19.093
		c1.185,4.646,4.228,7.676,9.12,9.095C334.991,105.537,342.059,98.904,346.702,82.884z"/>
</g>
<g id="P">
	<path fill="#73DB71" d="M243.73,6.37c1.789-0.084,4.529-0.186,8.219-0.306c3.688-0.117,8.305,0.052,13.847,0.512
		c4.078,0.339,8.164,1.065,12.254,2.179c4.093,1.114,7.724,2.87,10.896,5.263c3.171,2.396,5.635,5.602,7.396,9.621
		c1.759,4.021,2.38,9.109,1.871,15.265c-0.454,5.463-1.657,9.935-3.612,13.415c-1.957,3.48-4.391,6.183-7.3,8.11
		c-2.913,1.928-6.155,3.208-9.731,3.84c-3.58,0.633-7.215,0.795-10.906,0.49c-1.463-0.122-2.939-0.303-4.432-0.542
		c-1.492-0.24-2.539-0.461-3.142-0.667l-2.231,26.894c-2.035,0.217-3.863,0.336-5.492,0.356c-1.629,0.02-3.136-0.027-4.521-0.143
		c-2.694-0.223-6.014-0.846-9.956-1.872L243.73,6.37z M260.459,47.043c0.371,0.186,1.016,0.355,1.932,0.509
		c0.918,0.154,1.877,0.272,2.877,0.355c3.31,0.274,6.086-0.462,8.321-2.215c2.238-1.75,3.519-4.589,3.845-8.513
		c0.191-2.31,0.024-4.279-0.498-5.911c-0.523-1.63-1.321-2.975-2.395-4.034c-1.075-1.058-2.367-1.843-3.873-2.355
		c-1.509-0.513-3.107-0.84-4.799-0.98c-0.464-0.038-1.003-0.084-1.617-0.135c-0.615-0.05-1.236-0.062-1.855-0.038L260.459,47.043z"
		/>
</g>
<g id="M">
	<path fill="#FF5B29" d="M133.147,25.44c1.527-0.586,3.194-1.182,4.995-1.793c1.802-0.606,3.492-1.091,5.075-1.452
		c1.504-0.343,3.163-0.621,4.976-0.837c1.812-0.214,3.497-0.38,5.055-0.499l25.61,38.355l7.025-45.793
		c1.454-0.567,2.93-1.122,4.432-1.663c1.499-0.538,3.003-0.98,4.512-1.324c1.579-0.36,3.219-0.634,4.919-0.825
		c1.699-0.188,3.364-0.35,4.997-0.485l22.215,79.757c-1.154,0.5-2.438,1.031-3.856,1.591c-1.415,0.56-3.329,1.116-5.737,1.664
		c-2.636,0.603-5.835,0.974-9.604,1.121l-12.237-46.393l-5.396,33.661c-1.304,0.534-2.614,1.032-3.936,1.49
		c-1.321,0.461-2.547,0.819-3.676,1.075c-1.131,0.257-2.309,0.467-3.54,0.629c-1.231,0.161-2.52,0.238-3.867,0.229l-17.991-27.855
		l9.31,46.584c-3.009,1.397-5.942,2.421-8.802,3.074c-2.638,0.6-5.763,0.956-9.38,1.069L133.147,25.44z"/>
</g>
<g id="Dirt">
</g>
<g id="Tomato">
	<g>
		<polyline fill="#FF9076" points="282.411,114.242 258.268,119.935 232.334,132.644 232.209,132.646 227.104,154.288 
			272.139,161.557 302.128,131.308 		"/>
		<path fill="#529756" d="M254.848,112.902c0.617-0.427,4.844,4.004,6.439,1.5c1.871-2.938,4.607-6.297,8.672-7.694
			c1.305-1.712,2.184-3.222,2.34-4.154l-9.039,4.286c0,0-2.154-10.326-3.058-15.763c0,0-2.003,16.746-3.671,19.638l-14.354-2.111
			c0.737,0.329,2.404,1.771,4.497,3.369C251.25,111.098,254.848,112.902,254.848,112.902z"/>
		<path fill="#FF5B29" d="M302.128,131.308L302.128,131.308c-1.942-7.414-6.371-17.19-20.952-23.593
			c-4.562-2.003-8.244-2.031-11.217-1.006c-4.062,1.396-6.604,4.449-8.473,7.387c-1.596,2.503-3.996-0.885-6.33-1.505
			c0,0-3.906-1.492-8.482-0.618c-1.175,0.224-2.414,0.623-3.677,1.278c-6.165,3.208-14.808,9.738-18.311,21.573
			c-1.479,4.996-0.579,12.27,2.378,19.514C227.102,154.259,262.712,117.078,302.128,131.308z"/>
		<path fill="#B53C1F" d="M262.465,135.146c-3.931,1.44-10.402,4.875-13.021,7.564c-2.615,2.688,6.518,6.187,8.385,7.644
			c2.692,2.101,6.968,7.075,9.907,5.023c2.941-2.052,4.785-8.874,6.102-12.338c0.946-2.491,3.639-9.719,1.624-10.447
			C273.445,131.864,262.465,135.146,262.465,135.146z"/>
		<path fill="#B53C1F" d="M264.255,160.286c1.968-1.132-13.383-12.422-15.811-12.597c-3.206-0.229-6.286,0.558-8.947,2.861
			c-1.333,1.149-1.84,5.254,0.314,5.786"/>
		<path fill="#B53C1F" d="M275.188,158.479c-1.201-1.908-2.22-6.381-1.074-9.416c1.5-3.977,2.396-13.008,4.316-15
			c1.916-1.993,4.07-2.536,7.299-2.719c0,0,6.012-0.732,11.022,5.385L275.188,158.479z"/>
		<path fill="#F9A565" d="M248.424,150.229c-1.591,1.246-0.118,2.203,0.756,2.787c0.868,0.584,3.63,0.978,3.091,0.125
			C251.73,152.286,250.484,148.615,248.424,150.229z"/>
		<path fill="#F9A565" d="M271.652,136.916c-1.369-0.956-2.227-0.314-2.645,0.436c-0.42,0.75-1.029,4.392-0.374,4.485
			c0.656,0.093,0.746,0.035,1.062-0.337C270.01,141.131,273.969,138.535,271.652,136.916z"/>
		<path fill="#F9A565" d="M285.868,136.008c-1.683-0.269-2.224-0.578-2.706,0.344c-0.484,0.924-0.773,5.043-0.432,5.916
			c0.34,0.877,0.697,0.617,1.209,0.312c0.511-0.305,1.135-1.713,1.373-2.523C285.552,139.244,287.547,136.273,285.868,136.008z"/>
		<path fill="#F9A565" d="M243.911,154.206c-0.567,1.78,1.204,2.2,2.812,2.042c1.609-0.16,2.562-0.591,2.008-1.423
			C248.175,153.992,244.966,150.917,243.911,154.206z"/>
		<path fill="#F9A565" d="M254.318,143.006c-1.115,1.044-1.174,2.117-0.682,2.562c0.49,0.447,2.371,1.869,3.012,2.047
			c0.76,0.209,1.207,0.275,1.498-0.903c0.156-0.644,0.041-1.644-1.396-3.76C255.916,141.729,254.982,142.385,254.318,143.006z"/>
		<path fill="#F9A565" d="M258.441,139.489c1.554-0.345,1.89-0.157,2.33,0.567c0.441,0.726,0.653,3.4,0.191,3.82
			c-0.466,0.42-0.402,0.4-1.087-0.044c-0.681-0.442-2.547-1.837-2.563-2.903C257.295,139.866,257.609,139.67,258.441,139.489z"/>
		<path fill="#F9A565" d="M280.579,137.1c1.423,0.719,1.536,1.207,1.319,2.455c-0.219,1.25-2.078,4.809-2.744,4.995
			c-0.663,0.192-0.604,0.211-0.779-0.86c-0.176-1.07-0.525-4.228,0.266-5.596C279.434,136.727,279.816,136.712,280.579,137.1z"/>
		<path fill="#F9A565" d="M291.934,137.917c-0.621-0.604-1.89-1.787-3.096-0.319c-1.206,1.469-2.873,5.393-2.288,5.805
			c0.586,0.412,3.413-0.846,4.942-2.736C293.021,138.777,292.428,138.405,291.934,137.917z"/>
		<path fill="#F9A565" d="M265.016,137.591c-1.262,0.166-1.877,0.054-2.295,0.507c-0.424,0.447,0.534,3.82,1.827,4.463
			c0.731,0.362,1.306-0.572,1.293-1.218C265.831,140.704,266.902,137.341,265.016,137.591z"/>
	</g>
</g>
<g id="I">
	<path fill="#228BE0" d="M221.153,205.829c-2.85,0.226-6.305,0.147-10.361-0.229l-6.493-82.442c2.054-0.47,3.921-0.851,5.603-1.138
		c1.68-0.287,3.175-0.483,4.484-0.585c1.387-0.109,2.951-0.155,4.695-0.138c1.743,0.02,3.628,0.101,5.653,0.251l6.496,82.442
		C227.204,205.005,223.846,205.617,221.153,205.829z"/>
</g>
<g id="Beet">
	<g>
		<path fill="#52A76C" d="M169.983,113.073c1.181-0.318,9.285,3.018,11.079,4.174c2.92,1.88,4.989,4.152,7.686,6.244
			c-3.024-1.549-4.255-2.157-9.813-2.427c-3.947-0.192-10.481-2.086-11.111-4.132c-0.095-0.31-0.148-0.614-0.152-0.905
			C167.631,114.394,169.033,113.364,169.983,113.073z"/>
		<path fill="#52A76C" d="M190.393,121.484c-1.125-1.733-2.625-3.881-4.316-5.989c-1.326-1.652-3.476-6.501-2.741-10.748
			c0.253-1.461,0.907-2.569,1.942-3.289c1.062-0.741,2.554-1.501,3.61-0.913c1.312,0.734,1.774,3.277,1.649,5.473
			C190.361,109.146,189.57,115.599,190.393,121.484z"/>
		<path fill="#52A76C" d="M155.8,87.561c0.001-0.188,0.006-0.367,0.015-0.54c0.228-3.587,2.703-3.841,5.217-3.794
			c1.604,0.03,7.197,5.969,8.336,8.479c1.119,2.465,12.792,21.505,16.536,25.842c2.311,2.677,3.387,3.942,3.855,4.498l-0.097,0.164
			c-3.298-2.735-18.085-15.041-22.826-19.683c-0.551-0.541-1.103-1.078-1.657-1.614C160.357,96.251,155.804,91.848,155.8,87.561z"/>
		<path fill="#E23C7B" d="M191.892,120.737c6.716-9.79,15.354-7.84,21.876-5.463c-6.157,3.46-14.082,13.346-15.547,15.369
			c-1.463,2.018-10.229,20.61-4.134,26.392c-1.804-1.686-3.649-3.651-5.595-5.719c-6.004-6.381-4.566-14.976-3.937-18.275
			C185.181,129.734,187.538,126.529,191.892,120.737z"/>
		<path fill="#B51561" d="M198.158,130.338c1.466-2.021,9.349-12.672,15.487-15.672h0.002h-0.002l-8.241,23.739l-11.383,18.545
			l0.011,0.065c-0.003-0.009-0.004-0.146-0.015-0.154C187.923,151.082,196.695,132.356,198.158,130.338z"/>
	</g>
</g>
</svg>
