<?xml version="1.0" encoding="utf-8"?>
<!-- Generator: Adobe Illustrator 16.0.0, SVG Export Plug-In . SVG Version: 6.00 Build 0)  -->
<!DOCTYPE svg PUBLIC "-//W3C//DTD SVG 1.1//EN" "http://www.w3.org/Graphics/SVG/1.1/DTD/svg11.dtd">
<svg version="1.1" id="Layer_1" xmlns="http://www.w3.org/2000/svg" xmlns:xlink="http://www.w3.org/1999/xlink" x="0px" y="0px"
	 width="500px" height="270px" viewBox="0 0 500 270" enable-background="new 0 0 500 270" xml:space="preserve">
<g id="Dirt">
</g>
<g id="S">
	<path fill="#FF5B29" d="M407.262,107.34c3.161,1.505,5.986,3.007,8.491,4.512c2.5,1.503,4.62,3.253,6.359,5.252
		c1.734,2,3.023,4.359,3.866,7.077c0.843,2.72,1.152,5.968,0.928,9.743c-0.248,4.087-1.181,7.725-2.8,10.912
		c-1.624,3.191-3.894,5.883-6.809,8.066c-2.916,2.186-6.436,3.789-10.559,4.818c-4.124,1.03-8.806,1.389-14.046,1.077
		c-4.777-0.284-8.977-0.927-12.592-1.913c-3.617-0.988-7.496-2.424-11.637-4.295c0.469-2.679,1.18-5.52,2.133-8.516
		c0.952-2.998,2.062-6.045,3.332-9.142c6.906,3.507,12.978,5.419,18.221,5.731c3.932,0.233,7.032-0.177,9.3-1.241
		s3.488-3.058,3.667-5.989c0.071-1.232-0.096-2.306-0.503-3.219c-0.408-0.916-0.981-1.704-1.715-2.367
		c-0.733-0.662-1.568-1.234-2.51-1.716c-0.938-0.482-1.896-0.945-2.874-1.392l-6.328-2.816c-2.717-1.166-5.168-2.514-7.359-4.037
		c-2.191-1.523-4.038-3.276-5.545-5.263c-1.508-1.986-2.629-4.237-3.367-6.757c-0.739-2.52-1.01-5.435-0.811-8.753
		c0.242-4.083,1.153-7.665,2.729-10.743c1.576-3.076,3.683-5.638,6.319-7.686c2.634-2.047,5.76-3.522,9.375-4.426
		c3.611-0.905,7.611-1.228,12.008-0.964c3.932,0.234,7.704,0.849,11.319,1.837c3.614,0.991,7.459,2.343,11.532,4.055
		c-0.454,2.449-1.176,5.132-2.164,8.05c-0.985,2.919-2.175,5.652-3.562,8.199c-1.957-0.966-4.252-1.995-6.896-3.082
		c-2.641-1.086-5.967-1.749-9.972-1.99c-1.237-0.075-2.418-0.028-3.55,0.136c-1.134,0.165-2.156,0.472-3.072,0.919
		c-0.917,0.45-1.671,1.101-2.261,1.953c-0.598,0.855-0.93,1.936-1.008,3.247c-0.133,2.235,0.498,3.938,1.9,5.104
		c1.396,1.167,3.076,2.195,5.035,3.086L407.262,107.34z"/>
</g>
<g id="T">
	<path fill="#73DB71" d="M448.524,141.548l-17.02-9.194c0.966-3.25,2.111-6.1,3.433-8.545c1.213-2.242,2.932-4.692,5.156-7.352
		l52.072,28.133c-0.536,1.643-1.084,3.146-1.646,4.508c-0.562,1.365-1.15,2.627-1.773,3.779c-1.214,2.244-2.938,4.777-5.165,7.609
		l-17.021-9.193l-30.827,57.066c-3.936-1.334-7.09-2.646-9.466-3.93c-2.514-1.359-5.372-3.3-8.571-5.814L448.524,141.548z"/>
</g>
<g id="Eggshell_3">
	<g>
		<g>
			<polygon fill="#FFE9E9" points="385.614,54.308 387.146,53.841 387.439,55.663 388.562,57.783 387.1,59.919 387.503,64.784 
				384.782,66.89 385.568,70.232 382.739,71.147 382.809,72.663 380.729,74.852 379.732,79.046 377.438,82.159 375.842,85.948 
				373.521,87.681 372.766,89.102 370.329,89.106 371.281,88.314 370.329,84.304 373.727,79.829 374.384,73.769 382.161,66.271 
				381.188,62.577 			"/>
			<path fill="#FFE9E9" d="M372.802,73.769"/>
			<path fill="#F6AF82" d="M370.329,89.106l2.437-0.004l0.76-1.421l2.316-1.733l1.598-3.789l2.297-3.113l0.994-4.194l2.078-2.189
				l-0.065-1.516l2.833-0.914l-0.784-3.342l2.724-2.107l-0.394-4.865l1.481-2.134l-1.08-2.116l-0.219-1.814
				c0,0,11.062,5.669,15.229,17.135c4.17,11.467-5.836,18.275-11.104,19.273C386.161,91.261,381.538,92.112,370.329,89.106z"/>
		</g>
	</g>
</g>
<g id="P">
	<path fill="#228BE0" d="M238.897,14.81c1.789-0.084,4.528-0.186,8.219-0.306c3.688-0.117,8.305,0.052,13.847,0.512
		c4.078,0.339,8.164,1.065,12.254,2.179c4.094,1.114,7.725,2.87,10.896,5.263c3.172,2.396,5.636,5.602,7.396,9.621
		c1.761,4.021,2.382,9.109,1.871,15.265c-0.454,5.463-1.655,9.935-3.61,13.415c-1.957,3.48-4.393,6.183-7.302,8.11
		c-2.911,1.928-6.153,3.208-9.729,3.84c-3.58,0.633-7.215,0.795-10.906,0.49c-1.463-0.122-2.939-0.303-4.432-0.542
		c-1.492-0.24-2.539-0.461-3.144-0.667l-2.229,26.894c-2.035,0.217-3.863,0.336-5.492,0.356c-1.629,0.02-3.137-0.027-4.521-0.143
		c-2.693-0.223-6.014-0.846-9.955-1.872L238.897,14.81z M255.626,55.483c0.371,0.186,1.017,0.355,1.933,0.509
		c0.918,0.154,1.877,0.272,2.877,0.355c3.311,0.274,6.086-0.462,8.32-2.215c2.238-1.75,3.52-4.589,3.846-8.513
		c0.19-2.31,0.023-4.279-0.498-5.911c-0.522-1.63-1.32-2.975-2.396-4.034c-1.075-1.058-2.367-1.843-3.873-2.355
		c-1.509-0.513-3.106-0.84-4.799-0.98c-0.464-0.038-1.003-0.084-1.617-0.135c-0.614-0.05-1.235-0.062-1.854-0.038L255.626,55.483z"
		/>
</g>
<g id="Apple_1_">
	<g>
		<path fill="#2D261F" d="M227.935,26.332c2.633-2.601,5.541-9.294,5.678-13.088c0,0-0.055-0.716,0.561-0.588
			c0.615,0.132,2.089,0.236,2.266,0.479c0.176,0.246,0.197,0.438,0.081,0.598c-0.12,0.165-0.203,0.166-0.336,0.408
			c-0.136,0.242-6.111,9.942-5.814,12.288"/>
		<path fill="#E8DFB1" d="M241.223,42.208"/>
		<path fill="#E8DFB1" d="M183.733,64.226c1.188,4.007,4.463,5.621,5.233,6.362c0.769,0.742,4.952,2.476,6.418,3.245
			c1.467,0.769,2.89,2.86,4.612,4.976c1.722,2.12,15.308,6.604,16.873,7.153c1.564,0.55,11.789,2.176,11.985,2.266
			c0.196,0.088,2.254,0.072,2.585-0.488c0.335-0.561,1.766-0.938,2.179-1.328"/>
		<path fill="#E8DFB1" d="M233.868,86.412l-2.099-3.309c-1.274-0.495-2.7-1.664-3.168-2.193l-8.306-12.77l0.977-5.541l8.035-13.624
			l7.509-4.226l13.364-3.599c0.425-0.026,1.347,0.432,1.28,0.223c-0.888-2.668-4.824-5.907-8.424-7.968
			c-3.604-2.062-18.917-8.747-21.903-9.901c-2.986-1.152-10.247-1.751-11.016-1.707c-0.769,0.047-4.254,0.641-5.165,1.489
			c-0.917,0.848-0.865,1.39-0.865,1.39c-0.062,0.512,1.307,1.267,1.307,1.267l6.62,7.933l-2.709,15.008l0.053,4.725l-4.492,5.429
			l-12.604,5.426l-8.526-0.239"/>
		<path fill="#F34044" d="M204.084,24.626c0,0,0.066-1.423,0.754-1.981c0.688-0.556,1.672-1.27,2.302-1.616
			c0.628-0.344,4.755-1.069,9.417,0.644c4.666,1.717,5.246,0.873,6.732,1.072c1.484,0.199,6.149,1.678,7.95,2.649
			c1.805,0.973,3.176,1.947,4.516,2.474c1.341,0.528,2.784,0.908,3.615,1.517c0.826,0.61,1.35,1.715,2.857,2.396
			c1.506,0.679,3.386,2.283,4.11,3.118c0.721,0.844,5.054,4.07,5.116,6.505c-0.268-0.514-2.031-2.52-3.592-4.013
			c-1.557-1.491-3.5-2.372-3.893-2.627c-0.394-0.257-0.584,0.444-0.515,0.636c0.07,0.187-0.023,0.982-0.323,0.718
			c-0.301-0.264-1.171,0.205-1.41,0.098c-0.242-0.109-0.092,0.981-0.457,1.003c-0.361,0.021-2.389-0.412-2.887-0.385
			c-0.495,0.024-1.134-0.078-1.584-0.452c-0.448-0.371-2.173-1.324-2.568-1.292c-0.396,0.031-2.055,0.911-2.442,1.274
			c-0.39,0.364-0.674-0.081-0.674-0.081s-0.687-1.074-1.069-1.618c-0.385-0.541-0.982-1.548-1.635-2.314
			c-0.651-0.77-1.868-2.843-2.801-4.157c-0.93-1.314-3.125-2.622-4.486-3.448c-1.36-0.824-3.422-1.966-7.892-1.149
			c-4.47,0.819-5.174-0.185-6.004-0.557C206.398,22.667,204.364,24.123,204.084,24.626z"/>
		<path fill="#F34044" d="M184.025,63.808c0,0-0.485,0.385-0.419,0.673c0.068,0.285,0.938,2.591,1.173,3.03
			c0.235,0.443,1.659,3.525,4.155,5.978c1.572,1.548,2.837,2.832,4.615,4.059c1.63,1.447,2.897,1.488,3.984,2
			c1.455,0.69,6.519,1.747,7.989,2.44c1.476,0.697,3.03,2.521,5.239,3.712c2.441,1.315,6.602,3.278,7.727,3.577
			c1.127,0.297,2.332,1.063,5.307,0.999c3.662-0.08,5.72-1.415,6.24-1.596c0.079-0.028,1.11-0.536,1.11-0.536
			s1.577-1.201,2.039-1.454c0.189-0.104,0.265-0.083,0.438-0.279c0.024-0.028,0.109-0.108,0.076-0.108
			c-0.113-0.004-1.356-0.771-1.451-0.826c-0.393-0.238-3.561,1.289-3.588,1.28c-0.638-0.217-2.451-0.596-2.793-1.498
			c-0.395-1.043-0.637-2.43-0.978-2.374c-0.342,0.058-0.739,0.337-1.382,0.362c-0.645,0.023-0.66,0.843-1.333,1.17
			c-0.675,0.324-4.543-2.053-5.937-2.684c-1.399-0.632-7.671-4.201-8.812-4.93c-1.145-0.727-2.633-3.713-3.013-3.572
			c-0.38,0.149-4.417,0.003-5.074-0.632c-0.659-0.636-4.539-1.818-5.502-2.487c-0.959-0.668-0.144-1.304-0.629-1.628
			c-0.484-0.325-2.633-0.456-4.103-0.697c-1.467-0.243-3.664-1.66-3.93-1.776C184.912,65.892,183.79,64.335,184.025,63.808z"/>
		<path fill="#D3B48C" d="M217.52,32.281c2.511-3.222,4.491,5.854,3.485,8.082c-1.007,2.227-2.804,2.359-3.084,5.074
			c-0.279,2.709-3.475,4.895-4.177,3.312c-0.705-1.577-1.095-6.645-0.099-7.456C214.642,40.484,216.861,33.129,217.52,32.281z"/>
		<path fill="#D3B48C" d="M213.903,57.81c-2.269,3.622-5.329,6.21-6.836,7.104c-1.51,0.896-5.026,0.752-5.351,1.236
			c-0.318,0.487,3.426,2.671,4.065,2.644c0.643-0.027,3.969-2.144,4.628-3.262c0.664-1.121,3.507-4.619,3.816-4.953
			c0.312-0.335,0.327-2.471,0.327-2.471L213.903,57.81z"/>
		<path fill="#D3B48C" d="M235.301,38.737c-0.437-0.783-0.75-1.483-2.084-0.624c-1.337,0.858-2.64,2.003-2.64,2.003
			s2.741,2.659,3.169,2.064c0.427-0.598-0.884-2.236,0.848-1.877c1.728,0.359,2.264,0.917,3.55,0.869
			c1.284-0.05,1.449-0.063,2.001-0.242c0.557-0.178,0.991-2.191,0.991-2.191s-0.431-1.139-1.048-0.474
			c-0.616,0.668-1.938,2.193-2.298,1.599C237.425,39.271,235.301,38.737,235.301,38.737z"/>
		<path fill="#D3B48C" d="M220.343,73.973c0.605,2.795-0.145,3.403,1.061,4.579c1.205,1.172,1.038,2.938,1.729,2.802
			c0.694-0.131-0.434-0.43-0.69,0.135c-0.258,0.568-1.104,0.344-1.743,0.368c-0.641,0.028-2.313-1.045-3.251-1.468
			c-0.938-0.424-2.536-1.779-2.536-1.779s-0.847-3.711-0.252-3.277c0.593,0.436,2.137,0.503,2.897,0.218
			C218.317,75.262,220.343,73.973,220.343,73.973z"/>
	</g>
</g>
<g id="Eggshell_2">
	<g>
		<g>
			<polygon fill="#FFE9E9" points="92.138,227.951 92.207,229.641 90.369,229.518 88.035,230.098 86.332,228.156 81.521,227.339 
				80.162,224.178 76.728,224.111 76.548,221.141 75.063,220.831 73.465,218.27 69.652,216.26 67.207,213.261 63.938,210.77 
				62.838,208.091 61.652,207.003 62.256,204.641 62.787,205.764 66.758,203.604 67.117,209.01 75.852,209.115 79.494,219.214 
				91.016,219.214 			"/>
			<path fill="#FFE9E9" d="M76.49,210.865"/>
			<path fill="#F6AF82" d="M62.256,204.641l-0.604,2.361l1.186,1.089l1.101,2.679l3.271,2.491l2.443,2.999l3.812,2.01l1.599,2.562
				l1.484,0.312l0.178,2.973l3.433,0.076l1.36,3.164l4.81,0.832l1.695,1.969l2.318-0.52l1.812,0.242c0,0-8.252,9.296-20.396,10.467
				c-12.145,1.178-16.239-10.212-15.891-15.562C56.218,219.436,56.548,214.745,62.256,204.641z"/>
		</g>
	</g>
</g>
<g id="Eggshell_1">
	<g>
		<polyline fill="#FFE9E9" points="94.176,210.916 93.008,210.264 98.694,202.203 102.365,203.828 105.125,196.518 112.413,197.855 
			115.509,195.533 121.745,196.41 122.079,193.107 127.677,193.107 128.744,195.482 126.474,200.789 111.241,210.871 
			95.708,213.404 92.495,211.346 		"/>
		<path fill="#F6AF82" d="M127.677,193.486l-0.438,1.639l-0.946,1.461l-1.803,0.9l-0.351,0.524l-0.949,0.525l-1.108,0.301
			l-1.741-0.301l-0.566,1.719c0,0-1.262-0.498-1.512-0.385c-0.248,0.114-3.058,2.188-3.369,2.332
			c-0.309,0.141-4.129,0.051-4.129,0.051l-1.217,0.633l-1.054,2.298c0,0-2.231,0.053-2.614,0.53
			c-0.384,0.479-2.389,1.031-2.389,1.031s-2.6,1.885-2.817,2.062c-0.22,0.174-0.864,0.252-1.176,0.396
			c-0.31,0.143-0.87,1.379-0.87,1.379s-1.38,0.114-1.63,0.229c-0.246,0.113-2.339-0.649-2.339-0.649l-0.482,0.752l-1.168-0.654
			l-0.513,1.099c0.75,1.615,6.376,12.115,13.957,14.787c7.58,2.674,9.784,2.547,15.243,0.162c5.462-2.386,8.841-10.066,9.507-14
			C131.868,208.377,131.914,201.484,127.677,193.486z"/>
	</g>
</g>
<g id="Peanut_2">
	<g>
		<g>
			<path fill="#E5A045" d="M204.135,225.497c1.656-1.054,3.795-2.397,5.717-2.317c1.92,0.081,3.443-0.125,5.266,1.038
				c1.818,1.164,3.002,2.855,3.836,3.396c0.833,0.537,2.521,0.664,3.561,0.748c1.035,0.082,3.867,0.228,5.819,1.392
				c1.952,1.162,2.698,2.815,3.153,3.57c0.457,0.75,0.771,2.266,0.265,2.948c-0.506,0.687-2.161,1.644-2.94,2.062
				c-0.778,0.42-3.396,1.646-5.846,1.758c-2.451,0.111-5.896-2.088-6.473-2.737c-0.575-0.652-1.395-2.256-2.547-2.386
				c-1.153-0.129-2.102,0.037-3.262,0.064c-1.159,0.024-3.658-0.354-5.188-1.439c-1.529-1.079-3.184-3.563-3.191-4.903
				C202.291,227.343,203.21,226.083,204.135,225.497z"/>
		</g>
		<path fill="#6D4B22" d="M220.477,228.128c0.021,0.271,0.068,1.397-0.354,2.869c-0.062,0.207-0.132,0.426-0.218,0.657
			c-0.846-0.231-1.727-0.727-2.783-1.758c-0.934-0.91-2.092-1.703-3.45-2.362c0.536-0.916,1.235-1.871,2.142-2.822
			c-0.092-0.069-0.189-0.137-0.286-0.205c-0.917,0.974-1.628,1.943-2.173,2.877c-0.118-0.055-0.238-0.106-0.359-0.161
			c-1.318-0.566-2.812-1.027-4.438-1.357c-0.055-0.012-0.107-0.021-0.162-0.033c0.916-1.348,1.873-2.299,2.22-2.629l-0.488-0.012
			c-0.477,0.477-1.312,1.383-2.104,2.57c-1.516-0.275-2.821-0.388-3.625-0.433c-0.09,0.058-0.176,0.112-0.262,0.168
			c-0.076,0.047-0.146,0.104-0.225,0.162c0.646,0.021,2.115,0.103,3.904,0.42c-0.063,0.101-0.129,0.209-0.193,0.315
			c-0.756,1.269-1.256,2.541-1.482,3.785c-0.037,0.201-0.065,0.396-0.09,0.598c-1.81-0.674-3.211-1.288-3.652-1.487
			c0.039,0.144,0.089,0.291,0.146,0.446c0.637,0.281,1.912,0.828,3.473,1.404c-0.072,1.006,0.033,1.984,0.317,2.935
			c0.14,0.065,0.282,0.133,0.429,0.188c-0.332-0.964-0.467-1.966-0.406-2.996c0.156,0.059,0.311,0.112,0.469,0.17
			c1.758,0.621,3.339,1.094,4.74,1.41c-0.096,1.1-0.01,1.866,0.031,2.137l0.354-0.021c-0.034-0.217-0.127-0.959-0.038-2.039
			c1.286,0.273,2.411,0.408,3.367,0.408c1.284,0,2.319,0.328,3.307,0.816c-0.616,0.867-1.44,1.766-2.543,2.61l0.207,0.281
			c1.149-0.885,2.013-1.821,2.649-2.731c0.522,0.278,1.039,0.6,1.578,0.934c1.318,0.818,2.744,1.703,4.719,2.283
			c-0.908,1.346-1.879,2.225-2.282,2.562c0.019-0.002,0.033,0.002,0.05,0c0.178-0.01,0.354-0.021,0.53-0.043
			c0.517-0.473,1.304-1.284,2.058-2.422c1.027,0.274,2.203,0.469,3.58,0.528l0.573-0.332c-1.542-0.026-2.837-0.219-3.956-0.51
			c0.688-1.104,1.184-2.272,1.477-3.481c0.063-0.263,0.115-0.524,0.162-0.791c1.274,0.521,2.773,1.354,4.582,2.685
			c0.022-0.129,0.038-0.267,0.041-0.406c-1.798-1.303-3.291-2.121-4.572-2.635c0.147-1.109,0.133-2.242-0.057-3.396
			c-0.124-0.052-0.251-0.103-0.379-0.146c0.205,1.151,0.24,2.295,0.102,3.407c-2.028-0.75-3.502-0.728-4.791-0.702
			c-0.728,0.012-1.391,0.022-2.062-0.109c0.083-0.23,0.154-0.451,0.215-0.658c0.404-1.41,0.395-2.494,0.37-2.893L220.477,228.128
			 M211.721,231.698c-0.05,0.276-0.09,0.545-0.117,0.795c-1.781-0.406-3.637-1.013-5.215-1.591c0.021-0.215,0.051-0.436,0.094-0.651
			c0.221-1.203,0.701-2.438,1.437-3.67c0.091-0.149,0.179-0.293,0.271-0.435c0.1,0.019,0.201,0.037,0.302,0.06
			c1.38,0.28,3.062,0.739,4.69,1.487C212.336,229.216,211.922,230.616,211.721,231.698z M218.785,233.855
			c-1.039-0.521-2.128-0.875-3.508-0.873c-1.003,0-2.148-0.159-3.331-0.414c0.025-0.252,0.066-0.522,0.119-0.807
			c0.195-1.059,0.603-2.428,1.43-3.92c1.218,0.588,2.393,1.34,3.381,2.309c1.094,1.062,2.023,1.582,2.905,1.832
			C219.544,232.562,219.221,233.198,218.785,233.855z M225.393,237.216c-1.986-0.567-3.414-1.452-4.731-2.271
			c-0.534-0.332-1.045-0.649-1.565-0.932c0.453-0.684,0.784-1.344,1.026-1.949c0.731,0.152,1.438,0.142,2.192,0.131
			c1.271-0.021,2.721-0.045,4.734,0.712c-0.044,0.276-0.101,0.555-0.164,0.831C226.594,234.945,226.092,236.116,225.393,237.216z"/>
	</g>
</g>
<g id="C">
	<path fill="#73DB71" d="M35.554,183.207c10.592,12.484,21.127,14.275,31.606,5.385c1.884-1.6,3.516-3.283,4.894-5.061
		c1.377-1.777,2.922-4.102,4.637-6.977c5.543,2.592,10.533,5.85,14.979,9.772c-1.154,2.096-2.298,3.979-3.419,5.633
		c-1.124,1.664-2.276,3.17-3.452,4.524c-1.182,1.354-2.395,2.642-3.645,3.853c-1.252,1.213-2.582,2.418-3.993,3.617
		c-5.007,4.248-10.095,7.172-15.265,8.774c-5.172,1.603-10.263,2.051-15.271,1.336c-5.008-0.709-9.857-2.518-14.553-5.424
		c-4.691-2.902-9.035-6.711-13.031-11.42c-3.998-4.713-7.03-9.656-9.1-14.838c-2.065-5.184-3.069-10.334-3.006-15.451
		c0.062-5.117,1.278-10.098,3.646-14.943c2.369-4.846,5.939-9.293,10.708-13.338c2.826-2.397,5.681-4.463,8.562-6.202
		c2.881-1.734,6.404-3.31,10.574-4.722c1.934,2.516,3.477,5.23,4.635,8.146c1.157,2.917,2.051,5.579,2.674,7.983
		c-1.527,0.59-2.899,1.146-4.123,1.676c-1.219,0.529-2.35,1.08-3.381,1.654c-1.033,0.569-2.028,1.188-2.987,1.85
		c-0.956,0.662-1.937,1.416-2.938,2.268c-4.768,4.047-7.102,8.785-6.998,14.219C27.407,170.957,30.155,176.85,35.554,183.207z"/>
</g>
<g id="Banana">
	<g>
		<path fill="#FFDD50" d="M333.758,213.243c0,0,5.172,15.007,26.688,2.173c4.937-2.947,11.769-7.889,14.234-18.365
			c1.221-5.193,2.242-23.088,6.723-25.658c4.479-2.565,6.459-2.584,8.604-4.41c2.146-1.823,3.884-7.967,3.884-7.967l5.235,1.031
			c0,0-3.269,4.84-2.621,8c0.49,2.395,1.729,2.719,4.275,3.965c3.998,1.957,10.803,17.064,13.23,25.69
			c2.433,8.624,3.415,16.958,13.198,22.2c2.235,1.197,8.343,1.529,10.008,1.076c3.979-1.088,6.142-5.439,7.568-7.302
			c1.464-1.911,1.922-2.188,2.438-1.858c0.837,0.529,1.235,15.629-7.023,18.342c-8.266,2.715-16.154,2.025-25.255-7.07
			c-8.874-8.872-12.193-16.23-14.801-24.76c0,0-3.6,12.215,0.494,22.428c4.067,10.141,5.213,10.689,7.699,12.809
			c2.766,2.354,6.283,4.102,11.218,4.595c4.938,0.489,5.139-0.054,5.812-0.062c0.677-0.006,1.356,0.732,1.361,1.342
			c0.01,0.605,0.438,2.968-1.297,4.74c-1.739,1.774-11.445,4.441-18.704,1.812c-7.256-2.633-16.433-7.945-19.733-20.414
			c-3.301-12.467-3.26-21.725-3.204-22.67c0,0-2.252,4.615-4.106,8.15c-1.854,3.532-11.882,14.264-17.09,16.209
			c-5.205,1.946-21.811,8.6-29.65-0.871c0,0-4.928-4.957-3.025-9.658C332.049,211.469,333.348,212.771,333.758,213.243z"/>
		<path fill="#302A0F" d="M397.408,170.029c-0.426-0.478-0.718-1.082-0.903-1.984c-0.646-3.156,2.621-8,2.621-8l-5.235-1.029
			c0,0-1.738,6.144-3.884,7.967c-0.642,0.543-1.267,0.929-1.948,1.267C389.768,169.488,392.805,170.844,397.408,170.029z"/>
	</g>
</g>
<g id="E">
	<path fill="#228BE0" d="M354.139,187.146c-0.003,2.703-0.352,5.713-1.049,9.031l-22.354-0.014l-0.01,16.447l29.071,0.014
		c0.694,3.245,1.042,6.182,1.04,8.805c-0.002,2.859-0.35,5.908-1.05,9.149l-49.57-0.027l0.04-83.276l48.878,0.024
		c0.308,1.698,0.536,3.284,0.693,4.748c0.153,1.472,0.229,2.858,0.229,4.172c0,2.546-0.312,5.599-0.931,9.149l-28.379-0.018
		l-0.006,12.742l22.356,0.014C353.794,181.51,354.141,184.52,354.139,187.146z"/>
</g>
<g id="L">
	<path fill="#FFDD50" d="M269.9,139.725c2.098,0.198,3.988,0.424,5.678,0.676c1.688,0.257,3.166,0.541,4.441,0.854
		c1.351,0.333,2.849,0.779,4.502,1.343c1.646,0.562,3.41,1.235,5.289,2.012l-15.451,62.996l25.984,6.373
		c-0.087,1.967-0.24,3.657-0.471,5.071c-0.229,1.416-0.479,2.685-0.754,3.812c-0.312,1.273-0.697,2.591-1.148,3.951
		c-0.453,1.359-1.104,2.972-1.957,4.822l-45.896-11.254L269.9,139.725z"/>
</g>
<g id="Pi">
	<g>
		<path fill="#F34044" d="M108.253,167.906c1.42-1.092,3.607-2.74,6.566-4.953c2.961-2.205,6.846-4.707,11.65-7.496
			c3.54-2.059,7.309-3.797,11.301-5.223c3.996-1.426,7.976-2.064,11.946-1.914c3.974,0.152,7.828,1.371,11.569,3.664
			c3.742,2.293,7.16,6.108,10.264,11.453c2.752,4.742,4.323,9.098,4.709,13.069c0.385,3.974-0.062,7.58-1.349,10.824
			c-1.284,3.246-3.216,6.151-5.789,8.717c-2.572,2.565-5.462,4.781-8.664,6.642c-1.271,0.735-2.586,1.432-3.947,2.088
			c-1.356,0.654-2.346,1.074-2.957,1.248l13.55,23.34c-1.545,1.342-2.978,2.486-4.302,3.436c-1.325,0.947-2.588,1.771-3.79,2.469
			c-2.339,1.357-5.419,2.746-9.238,4.158L108.253,167.906z M145.239,191.701c0.41-0.059,1.035-0.289,1.875-0.688
			c0.843-0.396,1.693-0.851,2.564-1.353c2.87-1.668,4.723-3.861,5.557-6.576c0.834-2.713,0.263-5.776-1.715-9.187
			c-1.162-2.004-2.428-3.522-3.789-4.562s-2.785-1.688-4.271-1.938c-1.486-0.252-2.995-0.156-4.521,0.283
			c-1.532,0.44-3.03,1.09-4.5,1.938c-0.401,0.231-0.869,0.504-1.401,0.813c-0.536,0.31-1.05,0.654-1.544,1.029L145.239,191.701z"/>
	</g>
</g>
<g id="cO">
	<path fill="#FF5B29" d="M57.442,133.547c-2.908-5.447-4.982-10.842-6.213-16.179c-1.235-5.338-1.451-10.411-0.648-15.219
		c0.802-4.804,2.711-9.261,5.727-13.368c3.012-4.106,7.312-7.651,12.898-10.636c5.584-2.984,10.9-4.58,15.959-4.787
		c5.057-0.206,9.803,0.693,14.244,2.697c4.441,2.005,8.539,5.002,12.294,8.993c3.75,3.992,7.084,8.712,9.997,14.159
		c2.91,5.451,4.965,10.809,6.162,16.078c1.195,5.271,1.381,10.293,0.562,15.063c-0.819,4.773-2.739,9.169-5.755,13.188
		c-3.021,4.021-7.318,7.522-12.902,10.507s-10.904,4.621-15.953,4.914c-5.056,0.295-9.795-0.543-14.217-2.516
		c-4.425-1.967-8.494-4.916-12.212-8.84C63.67,143.682,60.358,138.996,57.442,133.547z M102.698,109.362
		c-7.936-14.847-16.227-19.958-24.875-15.337c-8.854,4.732-9.312,14.521-1.377,29.367c3.967,7.423,7.996,12.383,12.088,14.881
		c4.093,2.498,8.387,2.543,12.881,0.141C110.133,133.755,110.56,124.072,102.698,109.362z"/>
</g>
<g id="Peanut_1">
	<g>
		<g>
			<path fill="#E5A045" d="M107.586,51.736c1.931-0.372,4.411-0.839,6.169-0.06c1.758,0.78,3.251,1.145,4.518,2.895
				c1.266,1.75,1.748,3.757,2.324,4.565c0.577,0.805,2.103,1.54,3.038,1.998c0.935,0.458,3.517,1.63,4.906,3.427
				s1.478,3.609,1.624,4.478c0.148,0.867-0.109,2.392-0.834,2.842c-0.723,0.451-2.614,0.735-3.494,0.839
				c-0.877,0.104-3.761,0.284-6.082-0.509c-2.322-0.792-4.722-4.103-5.02-4.92c-0.293-0.816-0.465-2.607-1.492-3.152
				c-1.025-0.542-1.967-0.734-3.059-1.133c-1.091-0.401-3.271-1.674-4.301-3.24c-1.027-1.565-1.652-4.485-1.172-5.736
				C105.194,52.778,106.513,51.942,107.586,51.736z"/>
		</g>
		<path fill="#6D4B22" d="M121.828,60.173c-0.08,0.26-0.448,1.326-1.382,2.54c-0.133,0.171-0.279,0.35-0.444,0.534
			c-0.7-0.527-1.341-1.308-1.946-2.656c-0.533-1.189-1.32-2.354-2.343-3.465c0.836-0.655,1.835-1.287,3.026-1.839
			c-0.061-0.101-0.127-0.199-0.19-0.299c-1.21,0.567-2.228,1.213-3.077,1.882c-0.091-0.094-0.183-0.189-0.275-0.284
			c-1.021-1.015-2.241-1.988-3.629-2.889c-0.045-0.031-0.094-0.06-0.137-0.09c1.344-0.919,2.582-1.455,3.024-1.632l-0.449-0.19
			c-0.618,0.267-1.728,0.802-2.899,1.619c-1.309-0.814-2.485-1.395-3.213-1.728c-0.104,0.02-0.207,0.04-0.308,0.059
			c-0.085,0.015-0.177,0.044-0.267,0.069c0.592,0.256,1.931,0.87,3.478,1.822c-0.097,0.07-0.194,0.147-0.294,0.222
			c-1.169,0.905-2.102,1.906-2.77,2.982c-0.107,0.17-0.209,0.345-0.303,0.522c-1.437-1.292-2.515-2.379-2.853-2.725
			c-0.017,0.147-0.026,0.305-0.029,0.47c0.492,0.495,1.479,1.47,2.718,2.58c-0.438,0.907-0.697,1.86-0.779,2.844
			c0.104,0.115,0.215,0.226,0.328,0.333c0.045-1.017,0.289-2,0.725-2.935c0.123,0.109,0.244,0.217,0.369,0.326
			c1.406,1.225,2.709,2.244,3.896,3.052c-0.494,0.986-0.693,1.733-0.756,2l0.335,0.107c0.05-0.212,0.233-0.938,0.716-1.91
			c1.094,0.725,2.09,1.264,2.98,1.616c1.197,0.469,2.039,1.154,2.775,1.97c-0.894,0.582-1.987,1.112-3.321,1.498l0.088,0.338
			c1.394-0.402,2.539-0.96,3.469-1.572c0.386,0.451,0.748,0.94,1.13,1.448c0.926,1.244,1.926,2.589,3.549,3.853
			c-1.338,0.918-2.562,1.38-3.062,1.546c0.014,0.005,0.029,0.013,0.046,0.019c0.167,0.057,0.336,0.108,0.509,0.154
			c0.652-0.25,1.687-0.718,2.803-1.499c0.855,0.634,1.879,1.243,3.138,1.806l0.655-0.098c-1.426-0.592-2.561-1.244-3.494-1.924
			c1.042-0.777,1.934-1.684,2.648-2.701c0.153-0.22,0.301-0.447,0.438-0.676c1,0.952,2.087,2.274,3.282,4.174
			c0.067-0.11,0.132-0.231,0.185-0.362c-1.192-1.871-2.283-3.182-3.284-4.126c0.545-0.978,0.943-2.042,1.191-3.18
			c-0.102-0.091-0.198-0.184-0.301-0.271c-0.23,1.146-0.618,2.223-1.156,3.206c-1.614-1.441-2.993-1.959-4.199-2.41
			c-0.68-0.255-1.301-0.488-1.876-0.858c0.16-0.184,0.308-0.364,0.438-0.536c0.895-1.162,1.281-2.175,1.404-2.554L121.828,60.173
			 M112.371,60.288c-0.147,0.24-0.28,0.472-0.402,0.695c-1.509-1.032-3.009-2.273-4.268-3.391c0.101-0.193,0.208-0.386,0.325-0.573
			c0.646-1.039,1.548-2.009,2.682-2.889c0.139-0.105,0.273-0.207,0.412-0.305c0.083,0.054,0.169,0.109,0.257,0.164
			c1.181,0.769,2.576,1.812,3.817,3.104C113.854,58.203,112.956,59.354,112.371,60.288z M118.153,64.882
			c-0.776-0.867-1.661-1.593-2.944-2.097c-0.933-0.368-1.94-0.936-2.946-1.605c0.117-0.225,0.256-0.461,0.406-0.706
			c0.57-0.913,1.45-2.038,2.768-3.124c0.916,0.994,1.734,2.125,2.301,3.385c0.625,1.393,1.302,2.216,2.029,2.771
			C119.333,63.959,118.801,64.432,118.153,64.882z M123.071,70.432c-1.641-1.258-2.643-2.604-3.57-3.846
			c-0.376-0.504-0.734-0.987-1.116-1.438c0.671-0.471,1.224-0.965,1.669-1.438c0.627,0.41,1.289,0.658,1.992,0.923
			c1.189,0.446,2.549,0.957,4.145,2.398c-0.143,0.243-0.295,0.481-0.457,0.713C125.019,68.759,124.123,69.665,123.071,70.432z"/>
	</g>
</g>
<g id="O">
	<path fill="#F34044" d="M292.587,77.041c1.722-5.932,4-11.24,6.847-15.924c2.846-4.68,6.231-8.463,10.162-11.344
		c3.93-2.88,8.405-4.739,13.434-5.573c5.021-0.835,10.578-0.371,16.66,1.391c6.08,1.762,11.002,4.334,14.77,7.716
		c3.762,3.382,6.533,7.342,8.312,11.877c1.777,4.536,2.619,9.543,2.521,15.02c-0.104,5.479-1.011,11.185-2.729,17.118
		c-1.722,5.934-3.99,11.203-6.813,15.812c-2.822,4.608-6.194,8.334-10.113,11.177c-3.918,2.844-8.36,4.652-13.327,5.424
		c-4.969,0.77-10.49,0.275-16.57-1.487c-6.084-1.764-11.035-4.304-14.854-7.622c-3.823-3.317-6.63-7.228-8.421-11.725
		c-1.792-4.498-2.646-9.45-2.566-14.853C289.969,88.642,290.867,82.975,292.587,77.041z M341.869,91.324
		c4.688-16.167,2.314-25.617-7.102-28.347c-9.643-2.794-16.805,3.894-21.49,20.061c-2.342,8.085-2.92,14.45-1.732,19.093
		c1.186,4.646,4.229,7.676,9.12,9.095C330.158,113.977,337.227,107.344,341.869,91.324z"/>
</g>
<g id="M">
	<path fill="#FFE045" d="M128.313,33.88c1.527-0.586,3.194-1.182,4.996-1.793c1.801-0.606,3.491-1.091,5.074-1.452
		c1.504-0.343,3.163-0.621,4.977-0.837c1.812-0.214,3.496-0.38,5.055-0.499l25.609,38.355l7.025-45.793
		c1.454-0.567,2.93-1.122,4.432-1.663c1.5-0.538,3.004-0.98,4.513-1.324c1.579-0.36,3.219-0.634,4.919-0.825
		c1.699-0.188,3.363-0.35,4.997-0.485l22.215,79.757c-1.153,0.5-2.438,1.031-3.856,1.591c-1.414,0.56-3.328,1.116-5.736,1.664
		c-2.637,0.603-5.836,0.974-9.604,1.121L190.69,55.304l-5.396,33.661c-1.304,0.534-2.614,1.032-3.937,1.49
		c-1.32,0.461-2.547,0.819-3.676,1.075c-1.131,0.257-2.309,0.467-3.539,0.629c-1.231,0.161-2.521,0.238-3.867,0.229l-17.991-27.855
		l9.31,46.584c-3.009,1.397-5.941,2.421-8.802,3.074c-2.638,0.6-5.763,0.956-9.38,1.069L128.313,33.88z"/>
</g>
<g id="Tomato">
	<g>
		<polyline fill="#FF9076" points="277.578,122.682 253.436,128.375 227.501,141.084 227.376,141.086 222.271,162.729 
			267.307,169.996 297.295,139.748 		"/>
		<path fill="#529756" d="M250.015,121.342c0.617-0.427,4.844,4.004,6.439,1.5c1.871-2.938,4.606-6.297,8.672-7.694
			c1.306-1.712,2.185-3.222,2.34-4.154l-9.039,4.286c0,0-2.153-10.326-3.058-15.763c0,0-2.003,16.746-3.671,19.638l-14.354-2.111
			c0.737,0.329,2.404,1.771,4.497,3.369C246.417,119.538,250.015,121.342,250.015,121.342z"/>
		<path fill="#FF5B29" d="M297.295,139.748L297.295,139.748c-1.941-7.414-6.371-17.19-20.952-23.593
			c-4.562-2.003-8.243-2.031-11.217-1.006c-4.062,1.396-6.604,4.449-8.474,7.387c-1.596,2.503-3.995-0.885-6.329-1.505
			c0,0-3.906-1.492-8.482-0.618c-1.175,0.224-2.414,0.623-3.677,1.278c-6.165,3.208-14.808,9.738-18.312,21.573
			c-1.479,4.996-0.578,12.271,2.379,19.514C222.269,162.699,257.879,125.518,297.295,139.748z"/>
		<path fill="#B53C1F" d="M257.632,143.586c-3.931,1.439-10.402,4.875-13.021,7.564c-2.614,2.688,6.519,6.186,8.386,7.643
			c2.692,2.102,6.968,7.076,9.907,5.023c2.941-2.051,4.785-8.873,6.102-12.338c0.946-2.49,3.639-9.72,1.624-10.447
			C268.611,140.305,257.632,143.586,257.632,143.586z"/>
		<path fill="#B53C1F" d="M259.422,168.727c1.969-1.133-13.383-12.422-15.812-12.598c-3.205-0.229-6.285,0.559-8.946,2.861
			c-1.333,1.148-1.84,5.254,0.313,5.785"/>
		<path fill="#B53C1F" d="M270.354,166.918c-1.201-1.908-2.22-6.381-1.074-9.416c1.5-3.977,2.396-13.008,4.316-14.999
			c1.916-1.993,4.07-2.536,7.299-2.72c0,0,6.014-0.731,11.022,5.385L270.354,166.918z"/>
		<path fill="#F9A565" d="M243.591,158.668c-1.591,1.246-0.117,2.203,0.756,2.787c0.868,0.584,3.631,0.979,3.092,0.125
			C246.897,160.727,245.651,157.055,243.591,158.668z"/>
		<path fill="#F9A565" d="M266.818,145.355c-1.368-0.955-2.228-0.314-2.646,0.436c-0.42,0.75-1.028,4.393-0.374,4.486
			c0.656,0.092,0.746,0.035,1.062-0.338C265.177,149.57,269.136,146.975,266.818,145.355z"/>
		<path fill="#F9A565" d="M281.035,144.447c-1.684-0.268-2.225-0.577-2.706,0.344c-0.483,0.924-0.772,5.043-0.433,5.916
			c0.34,0.877,0.696,0.617,1.209,0.312c0.512-0.306,1.136-1.713,1.373-2.523C280.719,147.684,282.714,144.713,281.035,144.447z"/>
		<path fill="#F9A565" d="M239.078,162.646c-0.567,1.778,1.204,2.199,2.812,2.041c1.609-0.16,2.562-0.59,2.008-1.422
			C243.342,162.432,240.133,159.357,239.078,162.646z"/>
		<path fill="#F9A565" d="M249.485,151.445c-1.115,1.045-1.174,2.117-0.683,2.562c0.49,0.447,2.371,1.869,3.013,2.048
			c0.761,0.209,1.207,0.274,1.498-0.902c0.155-0.646,0.041-1.646-1.396-3.76C251.083,150.168,250.149,150.824,249.485,151.445z"/>
		<path fill="#F9A565" d="M253.607,147.93c1.555-0.346,1.891-0.158,2.33,0.566c0.44,0.727,0.652,3.4,0.19,3.82
			c-0.466,0.42-0.401,0.397-1.087-0.045c-0.682-0.441-2.547-1.836-2.562-2.902C252.462,148.307,252.775,148.109,253.607,147.93z"/>
		<path fill="#F9A565" d="M275.746,145.539c1.423,0.719,1.536,1.207,1.318,2.455c-0.219,1.25-2.078,4.811-2.744,4.996
			c-0.662,0.191-0.604,0.211-0.778-0.861c-0.176-1.068-0.524-4.227,0.267-5.596C274.602,145.166,274.982,145.152,275.746,145.539z"
			/>
		<path fill="#F9A565" d="M287.102,146.357c-0.621-0.605-1.891-1.787-3.097-0.32c-1.206,1.469-2.873,5.395-2.288,5.805
			c0.586,0.412,3.413-0.846,4.942-2.734C288.188,147.217,287.596,146.844,287.102,146.357z"/>
		<path fill="#F9A565" d="M260.184,146.031c-1.263,0.166-1.877,0.053-2.295,0.506c-0.425,0.447,0.533,3.82,1.826,4.463
			c0.73,0.363,1.307-0.57,1.293-1.217C260.998,149.145,262.068,145.781,260.184,146.031z"/>
	</g>
</g>
<g id="I">
	<path fill="#73DB71" d="M216.319,214.27c-2.85,0.226-6.305,0.146-10.36-0.229l-6.493-82.441c2.055-0.47,3.922-0.851,5.604-1.138
		c1.68-0.287,3.175-0.483,4.483-0.585c1.388-0.109,2.951-0.155,4.695-0.138c1.743,0.02,3.628,0.101,5.653,0.251l6.496,82.442
		C222.371,213.445,219.013,214.057,216.319,214.27z"/>
</g>
<g id="Beet">
	<g>
		<path fill="#52A76C" d="M165.149,121.513c1.182-0.318,9.285,3.018,11.08,4.174c2.92,1.88,4.988,4.152,7.686,6.244
			c-3.023-1.549-4.255-2.157-9.812-2.427c-3.947-0.192-10.481-2.086-11.111-4.132c-0.096-0.31-0.148-0.614-0.152-0.905
			C162.798,122.834,164.2,121.804,165.149,121.513z"/>
		<path fill="#52A76C" d="M185.56,129.924c-1.125-1.733-2.625-3.881-4.315-5.989c-1.326-1.652-3.476-6.501-2.741-10.748
			c0.253-1.461,0.907-2.569,1.941-3.289c1.062-0.741,2.555-1.501,3.611-0.913c1.312,0.734,1.773,3.277,1.648,5.473
			C185.528,117.586,184.737,124.039,185.56,129.924z"/>
		<path fill="#52A76C" d="M150.967,96.001c0.001-0.188,0.007-0.367,0.015-0.54c0.229-3.587,2.703-3.841,5.218-3.794
			c1.604,0.03,7.196,5.969,8.336,8.479c1.118,2.465,12.792,21.505,16.536,25.842c2.311,2.677,3.387,3.942,3.854,4.498l-0.097,0.164
			c-3.299-2.735-18.085-15.041-22.826-19.683c-0.551-0.541-1.104-1.078-1.656-1.614C155.524,104.691,150.972,100.288,150.967,96.001
			z"/>
		<path fill="#E23C7B" d="M187.06,129.177c6.715-9.79,15.354-7.84,21.875-5.463c-6.156,3.46-14.082,13.347-15.547,15.369
			c-1.463,2.019-10.229,20.61-4.134,26.392c-1.804-1.686-3.649-3.649-5.595-5.719c-6.004-6.381-4.566-14.977-3.938-18.275
			C180.349,138.174,182.705,134.969,187.06,129.177z"/>
		<path fill="#B51561" d="M189.254,165.475c-6.094-5.779,2.608-24.679,4.071-26.697c1.466-2.021,9.473-12.063,15.61-15.063
			l-8.364,23.13L189.254,165.475z"/>
	</g>
</g>
</svg>
