<?xml version="1.0" encoding="utf-8"?>
<!-- Generator: Adobe Illustrator 16.0.0, SVG Export Plug-In . SVG Version: 6.00 Build 0)  -->
<!DOCTYPE svg PUBLIC "-//W3C//DTD SVG 1.1//EN" "http://www.w3.org/Graphics/SVG/1.1/DTD/svg11.dtd">
<svg version="1.1" id="Layer_1" xmlns="http://www.w3.org/2000/svg" xmlns:xlink="http://www.w3.org/1999/xlink" x="0px" y="0px"
	 width="155.132px" height="124.183px" viewBox="0 0 155.132 124.183" enable-background="new 0 0 155.132 124.183"
	 xml:space="preserve">
<g>
	<g>
		<path fill="#F3FFF3" d="M3.967,59.859c2.131,0,3.153,1.05,3.153,3.26c0,1.251-0.27,2.102-0.843,2.68
			c-0.626,0.618-1.092,0.763-2.58,0.763H2.412v5.361H0.745V59.859H3.967z M3.628,65.183c1.379,0,1.915-0.543,1.915-1.989
			c0-1.379-0.591-1.976-1.951-1.976H2.394v3.965H3.628z M15.285,67.519c0,2.376-0.092,2.848-0.629,3.499
			c-0.591,0.724-1.54,1.085-2.758,1.085c-1.485,0-2.56-0.543-2.971-1.52C8.64,69.931,8.55,69.133,8.55,67.54v-7.681h1.647v8.172
			c0,2.005,0.448,2.679,1.755,2.679c1.291,0,1.739-0.689,1.739-2.679v-8.172h1.594V67.519z M20.367,59.859
			c1.341,0,2.042,0.163,2.561,0.579c0.573,0.491,0.892,1.342,0.892,2.481c0,1.687-0.516,2.395-2.057,2.791
			c1.467,0.346,1.663,0.651,1.825,2.955l0.073,1.119c0.071,1.053,0.158,1.434,0.429,2.139h-1.827
			c-0.162-0.416-0.197-0.598-0.231-1.033l-0.091-1.248l-0.108-1.289c-0.126-1.608-0.465-1.916-2.04-1.916h-0.967v5.486H17.18V59.859
			H20.367z M20.045,65.112c1.486,0,2.113-0.598,2.113-1.993c0-1.449-0.519-1.92-2.113-1.92H18.81v3.913H20.045z M31.565,68.081
			c0,0.164,0,0.271,0,0.328c0,2.59-0.967,3.693-3.187,3.693c-1.703,0-2.74-0.613-3.08-1.848c-0.181-0.635-0.217-1.339-0.217-2.971
			v-2.986c0-2.284,0.128-2.954,0.717-3.641c0.574-0.653,1.415-0.977,2.526-0.977c1.127,0,1.824,0.252,2.435,0.868
			c0.27,0.29,0.465,0.599,0.571,0.905c0.197,0.598,0.234,0.853,0.234,1.758v0.124h-1.631c0-0.088,0-0.197,0-0.288
			c0-1.357-0.536-2.029-1.575-2.029c-1.221,0-1.629,0.598-1.629,2.375v4.433c0,2.43,0.304,2.975,1.629,2.975
			c1.254,0,1.522-0.471,1.558-2.719H31.565z M39.271,71.923h-1.646v-5.524h-3.422v5.524h-1.666V59.859h1.666v5.164h3.422v-5.164
			h1.646V71.923z M48.849,71.923h-1.649l-0.714-2.681h-3.941l-0.695,2.681H40.29l3.26-12.064h2.04L48.849,71.923z M46.18,67.812
			l-1.591-6.774l-1.703,6.774H46.18z M54.793,63.317c0-0.161,0-0.271,0-0.341c-0.02-1.36-0.54-1.995-1.649-1.995
			c-1.001,0-1.593,0.635-1.593,1.667c0,0.89,0.449,1.523,1.45,2.083l1.095,0.598c1.807,0.996,2.416,1.885,2.416,3.479
			c0,2.135-1.197,3.295-3.438,3.295c-2.381,0-3.526-1.141-3.526-3.512c0-0.182,0-0.309,0.017-0.655h1.684c0,0.257,0,0.383,0,0.491
			c0,1.665,0.52,2.355,1.789,2.355c1.181,0,1.861-0.672,1.861-1.848c0-1.07-0.501-1.65-2.147-2.518
			c-1.754-0.945-2.399-1.56-2.684-2.52c-0.108-0.359-0.161-0.741-0.161-1.141c0-1.992,1.144-3.077,3.238-3.077
			c2.22,0,3.296,1.068,3.296,3.313c0,0.054,0,0.164,0,0.325H54.793z M63.544,59.859v1.414h-3.741v3.822h3.547v1.395h-3.547v4.001
			h3.976v1.433h-5.656V59.859H63.544z M100.026,68.081c0,0.164,0,0.271,0,0.328c0,2.59-0.965,3.693-3.185,3.693
			c-1.702,0-2.741-0.613-3.08-1.848c-0.183-0.635-0.215-1.339-0.215-2.971v-2.986c0-2.284,0.124-2.954,0.714-3.641
			c0.576-0.653,1.414-0.977,2.53-0.977c1.121,0,1.819,0.252,2.434,0.868c0.266,0.29,0.459,0.599,0.57,0.905
			c0.196,0.598,0.231,0.853,0.231,1.758v0.124h-1.63c0-0.088,0-0.197,0-0.288c0-1.357-0.534-2.029-1.573-2.029
			c-1.216,0-1.626,0.598-1.626,2.375v4.433c0,2.43,0.302,2.975,1.626,2.975c1.256,0,1.521-0.471,1.559-2.719H100.026z M108,67.503
			c0,2.57-0.139,3.151-0.909,3.822c-0.627,0.545-1.396,0.777-2.458,0.777c-1.932,0-3.184-0.795-3.413-2.208
			c-0.094-0.489-0.109-1.197-0.109-2.392v-3.984c0-2.028,0.251-2.754,1.144-3.314c0.61-0.363,1.38-0.525,2.379-0.525
			c1.225,0,2.065,0.289,2.619,0.905c0.569,0.615,0.748,1.303,0.748,2.934V67.503z M102.74,67.41c0,2.014,0.032,2.358,0.323,2.774
			c0.266,0.381,0.836,0.615,1.519,0.615c0.771,0,1.343-0.292,1.574-0.779c0.18-0.436,0.198-0.58,0.198-2.518v-3.984
			c0-2.066-0.36-2.554-1.876-2.554c-1.398,0-1.738,0.507-1.738,2.554V67.41z M120.053,71.923h-1.436V60.818l-2.86,11.104h-1.38
			l-2.936-11.104v11.104h-1.417V59.859h2.774l1.773,7.047c0.057,0.181,0.107,0.472,0.178,0.868c0.073,0.378,0.109,0.652,0.146,0.797
			l0.106,0.725l0.108,0.705c0.143-1.158,0.359-2.351,0.559-3.095l1.765-7.047h2.619V71.923z M125.528,59.859
			c2.131,0,3.151,1.05,3.151,3.26c0,1.251-0.27,2.102-0.84,2.68c-0.631,0.618-1.097,0.763-2.581,0.763h-1.288v5.361h-1.666V59.859
			H125.528z M125.19,65.183c1.372,0,1.913-0.543,1.913-1.989c0-1.379-0.59-1.976-1.953-1.976h-1.201v3.965H125.19z M137.129,67.503
			c0,2.57-0.142,3.151-0.91,3.822c-0.627,0.545-1.397,0.777-2.456,0.777c-1.934,0-3.19-0.795-3.421-2.208
			c-0.093-0.489-0.105-1.197-0.105-2.392v-3.984c0-2.028,0.254-2.754,1.146-3.314c0.609-0.363,1.38-0.525,2.38-0.525
			c1.218,0,2.059,0.289,2.615,0.905c0.572,0.615,0.751,1.303,0.751,2.934V67.503z M131.865,67.41c0,2.014,0.04,2.358,0.321,2.774
			c0.267,0.381,0.841,0.615,1.52,0.615c0.772,0,1.349-0.292,1.583-0.779c0.175-0.436,0.189-0.58,0.189-2.518v-3.984
			c0-2.066-0.353-2.554-1.875-2.554c-1.4,0-1.738,0.507-1.738,2.554V67.41z M144.092,63.317c0-0.161,0-0.271,0-0.341
			c-0.015-1.36-0.537-1.995-1.645-1.995c-1.005,0-1.595,0.635-1.595,1.667c0,0.89,0.445,1.523,1.45,2.083l1.093,0.598
			c1.809,0.996,2.418,1.885,2.418,3.479c0,2.135-1.199,3.295-3.438,3.295c-2.38,0-3.528-1.141-3.528-3.512
			c0-0.182,0-0.309,0.019-0.655h1.68c0,0.257,0,0.383,0,0.491c0,1.665,0.522,2.355,1.793,2.355c1.181,0,1.866-0.672,1.866-1.848
			c0-1.07-0.505-1.65-2.153-2.518c-1.755-0.945-2.396-1.56-2.686-2.52c-0.106-0.359-0.159-0.741-0.159-1.141
			c0-1.992,1.144-3.077,3.241-3.077c2.219,0,3.295,1.068,3.295,3.313c0,0.054,0,0.164,0,0.325H144.092z M153.896,59.859v1.431h-2.9
			v10.633h-1.667V61.31h-2.918v-1.451H153.896z M77.229,42.092c1.456,0.014,2.328-0.024,3.947-0.179V13.027
			C82.56,9.83,89.959,5.189,86.534,0H71.876c-3.429,5.189,3.973,9.83,5.353,13.027V42.092z M73.27,2.638h11.883
			c1.51-0.003-5.95,7.602-5.95,7.602S71.759,2.635,73.27,2.638z M81.176,49.788v-1.314c-1.315,0.132-2.098,0.243-3.947,0.293v1.021
			c-0.518,7.043-7.981,1.297-7.981,6.129c-0.007,14.112,8.74,20.542,9.955,20.081c1.223,0.462,9.959-5.969,9.956-20.083
			C89.154,51.084,81.694,56.831,81.176,49.788z M105.474,28.081c-0.29-0.604-0.668-1.195-1.128-1.76
			c-0.473-0.566-1.018-1.108-1.652-1.619c-0.156-0.127-0.328-0.248-0.495-0.372c-0.159-0.126-0.326-0.247-0.519-0.369
			c-0.183-0.12-0.367-0.239-0.549-0.354l-0.539-0.315l-0.295-0.169l-0.306-0.158c-0.199-0.105-0.4-0.208-0.608-0.305
			c-0.428-0.194-0.836-0.394-1.276-0.563c-0.869-0.365-1.798-0.673-2.736-0.948c-0.942-0.271-1.908-0.505-2.884-0.691
			c-1.264-0.252-2.548-0.428-3.813-0.549c-0.673-0.066-1.349-0.113-2.014-0.152c-1.901-0.106-3.73-0.092-5.449,0.002
			c-0.306,0.013-0.608,0.036-0.908,0.057l0.005,0.407c1.957-0.079,4.042-0.056,6.193,0.143c0.719,0.063,1.435,0.148,2.16,0.251
			c2.874,0.405,5.754,1.129,8.199,2.229c0.393,0.163,0.744,0.356,1.118,0.539c0.173,0.088,0.344,0.19,0.519,0.288l0.259,0.148
			l0.24,0.143l0.521,0.326l0.446,0.315c0.15,0.101,0.287,0.218,0.43,0.329c0.141,0.117,0.286,0.226,0.423,0.341
			c0.535,0.466,0.984,0.962,1.379,1.469c0.377,0.513,0.679,1.049,0.9,1.595c0.881,2.19,0.347,4.576-1.335,6.759
			c-1.68,2.191-4.522,4.172-8.069,5.736c-3.577,1.548-7.833,2.674-12.284,3.17c-4.44,0.503-9.019,0.402-12.99-0.299
			c-0.995-0.175-1.952-0.383-2.86-0.626c-0.898-0.248-1.762-0.522-2.567-0.827c-0.793-0.31-1.559-0.635-2.227-1.005l-0.129-0.065
			l-0.065-0.035l-0.033-0.015c-0.007-0.007,0.007,0.004,0.014,0.006c-0.005,0,0,0-0.005,0l-0.271-0.157
			c-0.177-0.1-0.368-0.209-0.533-0.312c-0.277-0.181-0.568-0.347-0.837-0.56c-2.249-1.588-3.414-3.445-3.731-5.211
			c-0.347-1.775,0.161-3.457,1.019-4.882c0.448-0.711,0.974-1.362,1.532-1.949c0.13-0.137,0.262-0.266,0.394-0.398v0.005
			c0,0,2.185-1.697,5.021-2.997c1.97-0.896,4.249-1.606,6.33-1.423c0,0-2.96,0.556-6.222,2.352
			c-1.453,0.798-2.966,1.848-4.303,3.197c0,0,3.381,2.481,7.759,0.755c4.368-1.729,7.948-8.362,7.948-8.362
			s-7.807-2.433-11.755-0.505c-3.318,1.625-4.587,4.375-4.779,6.112c-1.128,0.793-2.328,1.758-3.371,2.932
			c-1.257,1.436-2.32,3.185-2.448,5.196c-0.014,0.248-0.026,0.505,0.004,0.76c0.006,0.256,0.046,0.518,0.092,0.775
			c0.033,0.268,0.129,0.531,0.196,0.799c0.106,0.265,0.19,0.531,0.332,0.802c0.07,0.133,0.138,0.266,0.208,0.401
			c0.071,0.138,0.166,0.267,0.248,0.403c0.16,0.267,0.378,0.532,0.584,0.802c0.447,0.53,0.962,1.057,1.6,1.56
			c0.299,0.25,0.688,0.511,1.045,0.765c0.179,0.116,0.341,0.221,0.516,0.323l0.258,0.168l0.072,0.042l0.036,0.022l0.079,0.043
			l0.153,0.081c0.803,0.467,1.721,0.88,2.68,1.277c0.975,0.391,2.031,0.74,3.142,1.049c1.117,0.298,2.289,0.559,3.494,0.775
			c4.87,0.837,10.305,0.837,15.324,0.141c5.043-0.695,9.726-2.037,13.551-3.83c3.831-1.783,6.846-4.019,8.57-6.471
			C106.219,33.177,106.623,30.515,105.474,28.081z M0,104.998v-3.231h1.455V85.865H0v-3.257h8.9v3.257H7.417v15.901H8.9v3.231H0z
			 M24.479,104.998l-8.815-13.562v10.33h1.568v3.231h-5.563v-3.231h1.512V85.865h-1.512v-3.257h5.677l7.446,11.513v-8.256h-1.769
			v-3.257h5.85v3.257h-1.569v19.133H24.479z M31.244,104.998v-3.231h1.455V85.865h-1.455v-3.257h8.901v3.257h-1.484v15.901h1.484
			v3.231H31.244z M45.768,104.998v-3.231h1.54V85.865h-2.14v3.985h-3.024v-7.242h16.318v7.242h-3.053v-3.985h-2.14v15.901h1.567
			v3.231H45.768z M60.463,104.998v-3.231h1.454V85.865h-1.454v-3.257h8.899v3.257h-1.484v15.901h1.484v3.231H60.463z
			 M81.314,104.998v-3.26h1.055l-0.428-2.336h-4.476l-0.458,2.336h1.171v3.26h-7.045v-3.26H73.3l4.022-19.13h6.445l4.621,19.13
			h1.796v3.26H81.314z M79.717,87.338l-1.766,9.265h3.448L79.717,87.338z M92.873,104.998v-3.231h1.538V85.865h-2.139v3.985h-3.023
			v-7.242h16.32v7.242h-3.052v-3.985h-2.141v15.901h1.566v3.231H92.873z M107.566,104.998v-3.231h1.455V85.865h-1.455v-3.257h8.904
			v3.257h-1.481v15.901h1.481v3.231H107.566z M124.429,104.998l-4.906-19.133h-1.252v-3.257h8.844v3.257h-1.176l2.769,15.065
			l2.882-15.065h-1.312v-3.257h7.044v3.257h-2.164l-4.308,19.133H124.429z M138.982,104.998v-3.231h1.511V85.865h-1.511v-3.257
			h16.002v7.242h-3.051v-3.87h-5.479V92.3h1.715v-3.289h2.309v9.439h-2.309v-3.148h-1.715v6.349h5.625v-4.04h3.053v7.388H138.982z
			 M60.084,116.021v0.941h-2.493v2.548h2.361v0.931h-2.361v2.67h2.648v0.952h-3.771v-8.042H60.084z M65.67,118.326
			c0-0.106,0-0.179,0-0.229c-0.013-0.906-0.358-1.328-1.099-1.328c-0.669,0-1.061,0.422-1.061,1.111
			c0,0.592,0.296,1.014,0.964,1.389l0.729,0.399c1.206,0.664,1.613,1.255,1.613,2.317c0,1.424-0.802,2.197-2.292,2.197
			c-1.587,0-2.353-0.761-2.353-2.343c0-0.122,0-0.202,0.011-0.437h1.123c0,0.169,0,0.256,0,0.33c0,1.107,0.347,1.567,1.194,1.567
			c0.786,0,1.239-0.444,1.239-1.229c0-0.713-0.333-1.102-1.431-1.679c-1.172-0.628-1.599-1.042-1.789-1.681
			c-0.072-0.24-0.108-0.492-0.108-0.759c0-1.327,0.764-2.054,2.16-2.054c1.481,0,2.196,0.712,2.196,2.211c0,0.037,0,0.109,0,0.216
			H65.67z M73.159,116.021v0.953h-1.934v7.089h-1.11v-7.078H68.17v-0.964H73.159z M82.877,124.062h-4.254v-0.896l0.291-0.406
			l0.735-1.043l0.992-1.375c0.765-1.088,1.005-1.653,1.005-2.415c0-0.761-0.359-1.173-1.013-1.173c-0.657,0-0.885,0.341-0.933,1.377
			h-1.078c0.026-0.857,0.168-1.303,0.551-1.677c0.373-0.363,0.839-0.519,1.505-0.519c1.302,0,2.002,0.735,2.002,2.102
			c0,0.855-0.16,1.289-0.894,2.38c-0.237,0.36-0.475,0.685-0.715,0.985l-0.812,1.04l-0.56,0.724h3.176V124.062z M89.419,121.392
			c0,1.39-0.028,1.511-0.372,1.994c-0.36,0.508-0.943,0.75-1.733,0.75c-0.869,0-1.491-0.23-1.813-0.714
			c-0.348-0.532-0.383-0.699-0.383-2.175v-2.414c0-1.281,0.083-1.737,0.395-2.187c0.335-0.47,0.904-0.71,1.718-0.71
			c1.623,0,2.189,0.7,2.189,2.74V121.392z M86.177,121.247c0,1.68,0.207,2.08,1.053,2.08c0.884,0,1.11-0.412,1.11-2.006v-2.645
			c0-1.473-0.25-1.922-1.074-1.922c-0.856,0-1.089,0.424-1.089,2.02V121.247z M94.133,124.062H93.08v-6.788
			c-0.274,0.207-0.379,0.291-0.599,0.414l-0.417,0.239l-0.201,0.121v-0.991l0.218-0.133c0.674-0.447,0.76-0.519,1.155-0.904h0.896
			V124.062z M98.058,121.853c0.035,1.085,0.324,1.485,1.062,1.485c0.73,0,1.098-0.47,1.098-1.39c0-0.846-0.199-1.316-0.643-1.508
			c-0.299-0.123-0.346-0.135-0.967-0.135v-0.93h0.06c0.921,0,1.374-0.422,1.374-1.317c0-0.832-0.362-1.304-0.98-1.304
			c-0.665,0-0.908,0.389-0.921,1.453h-1.072v-0.232c0-0.797,0.132-1.232,0.492-1.559c0.352-0.325,0.808-0.48,1.44-0.48
			c1.376,0,2.103,0.725,2.103,2.074c0,1.027-0.432,1.569-1.398,1.775c0.489,0.099,0.68,0.172,0.93,0.361
			c0.443,0.341,0.648,0.85,0.648,1.586c0,1.107-0.312,1.774-0.978,2.122c-0.375,0.194-0.789,0.28-1.207,0.28
			c-0.969,0-1.64-0.351-1.909-1.017c-0.171-0.409-0.196-0.578-0.204-1.267H98.058z"/>
	</g>
	<g>
		<g>
			<path fill="#F3FFF3" d="M4.758,45.294l-0.121,0.381H3.359L2.233,49.44c-0.374,1.238-0.564,1.958-0.564,2.159
				c0,0.138,0.032,0.242,0.091,0.314c0.06,0.072,0.146,0.106,0.26,0.106c0.204,0,0.471-0.195,0.799-0.585
				c0.331-0.391,0.626-0.882,0.888-1.474h0.375c-0.346,0.856-0.741,1.51-1.188,1.961c-0.446,0.452-0.858,0.678-1.226,0.678
				c-0.288,0-0.521-0.105-0.692-0.311c-0.174-0.208-0.259-0.469-0.259-0.784c0-0.271,0.173-0.989,0.528-2.156l1.098-3.673H1.168
				l0.118-0.381h1.169l0.785-2.613h1.022l-0.784,2.613H4.758z"/>
		</g>
		<g>
			<path fill="#F3FFF3" d="M4.868,52.487H3.854l2.993-9.959c0.171-0.564,0.254-0.893,0.254-0.986c0-0.131-0.038-0.226-0.114-0.283
				C6.91,41.2,6.721,41.171,6.421,41.171H6.146l0.104-0.364c0.903-0.021,1.572-0.125,2.011-0.307h0.213L6.54,46.933
				c1.022-1.254,1.956-1.88,2.798-1.88c0.378,0,0.663,0.082,0.851,0.241c0.187,0.162,0.279,0.404,0.279,0.732
				c0,0.258-0.166,0.874-0.502,1.847l-0.75,2.164c-0.288,0.846-0.434,1.334-0.434,1.468c0,0.143,0.029,0.254,0.085,0.329
				c0.057,0.074,0.142,0.111,0.255,0.111c0.206,0,0.435-0.125,0.691-0.373c0.256-0.247,0.473-0.553,0.655-0.919h0.42
				c-0.289,0.583-0.634,1.057-1.033,1.414c-0.398,0.355-0.774,0.533-1.132,0.533c-0.264,0-0.486-0.098-0.675-0.295
				c-0.185-0.193-0.282-0.453-0.282-0.776c0-0.343,0.162-0.956,0.48-1.836l0.725-1.991c0.336-0.914,0.502-1.489,0.502-1.726
				c0-0.141-0.039-0.25-0.114-0.324c-0.078-0.07-0.197-0.105-0.356-0.105c-0.253,0-0.556,0.104-0.903,0.312
				c-0.346,0.21-0.707,0.562-1.081,1.051c-0.377,0.492-0.65,0.952-0.826,1.386c-0.17,0.431-0.396,1.118-0.676,2.061L4.868,52.487z"
				/>
		</g>
		<g>
			<path fill="#F3FFF3" d="M15.056,50.159h0.409c-0.722,1.626-1.647,2.44-2.777,2.44c-0.467,0-0.848-0.165-1.139-0.498
				c-0.291-0.331-0.438-0.777-0.438-1.34c0-0.712,0.189-1.519,0.568-2.415c0.377-0.896,0.915-1.671,1.609-2.321
				c0.697-0.648,1.304-0.973,1.821-0.973c0.317,0,0.56,0.102,0.724,0.307c0.167,0.203,0.249,0.457,0.249,0.763
				c0,0.621-0.308,1.217-0.921,1.789c-0.613,0.573-1.534,1.123-2.762,1.651c-0.16,0.5-0.239,0.976-0.239,1.423
				c0,0.369,0.071,0.645,0.214,0.829c0.142,0.184,0.353,0.275,0.629,0.275C13.781,52.09,14.465,51.445,15.056,50.159z
				 M12.524,49.124c0.734-0.334,1.393-0.794,1.978-1.38c0.584-0.587,0.878-1.12,0.878-1.596c0-0.218-0.046-0.381-0.134-0.487
				c-0.087-0.106-0.221-0.16-0.395-0.16c-0.342,0-0.744,0.336-1.207,1.005C13.181,47.175,12.81,48.048,12.524,49.124z"/>
		</g>
	</g>
	<g>
		<rect x="106.505" y="118.97" fill="#F3FFF3" width="23.311" height="0.91"/>
	</g>
	<g>
		<rect x="28.275" y="118.97" fill="#F3FFF3" width="23.307" height="0.91"/>
	</g>
</g>
</svg>
