<?xml version="1.0" encoding="utf-8"?>
<!-- Generator: Adobe Illustrator 16.0.0, SVG Export Plug-In . SVG Version: 6.00 Build 0)  -->
<!DOCTYPE svg PUBLIC "-//W3C//DTD SVG 1.1//EN" "http://www.w3.org/Graphics/SVG/1.1/DTD/svg11.dtd">
<svg version="1.1" id="Layer_1" xmlns="http://www.w3.org/2000/svg" xmlns:xlink="http://www.w3.org/1999/xlink" x="0px" y="0px"
	 width="168.031px" height="74px" viewBox="-72.429 9.655 168.031 74" enable-background="new -72.429 9.655 168.031 74"
	 xml:space="preserve">
<g>
	<g>
		<path fill="#DEE1B9" d="M-42.338,20.16L2.28,15.084c11.223-1.248,18.048-1.872,20.484-1.872c3.146,0,8.55,0.506,16.207,1.515
			l28.055,3.74c11.102,1.484,17.647,2.448,19.638,2.895c1.987,0.444,3.607,1.188,4.853,2.228c1.247,1.038,1.871,2.508,1.871,4.407
			c0,4.631-4.127,6.946-12.38,6.946c-2.611,0-16.118-0.979-40.52-2.938c6.528,4.986,11.07,8.98,13.625,11.979
			c2.552,2.999,3.83,5.862,3.83,8.595c0,3.8-1.99,5.699-5.967,5.699c-2.495,0-5.109-0.505-7.839-1.513
			c2.077,3.203,3.116,5.964,3.116,8.281c0,1.781-0.726,3.28-2.182,4.496c-1.454,1.22-3.221,1.827-5.299,1.827
			c-3.325,0-7.096-1.691-11.311-5.075c0.475,2.077,0.715,4.154,0.715,6.232c0,3.146-1.146,5.625-3.43,7.438
			c-2.286,1.81-5.151,2.716-8.596,2.716c-3.681,0-7.065-2.346-10.151-7.037c-1.068-1.72-1.99-2.88-2.761-3.472
			c-0.773-0.594-2.02-0.979-3.741-1.158c-10.924-0.714-18.346-1.722-22.264-3.028c-3.92-1.304-7.008-3.028-9.263-5.165
			c-4.453-4.273-7.363-6.414-8.728-6.414h-1.515c-3.562,11.105-6.71,19.564-9.44,25.382h-16.03
			c-2.315-9.558-3.474-20.69-3.474-33.395c0-14.486,1.276-27.074,3.83-37.762h17.456C-46.078,13.896-43.882,17.073-42.338,20.16z"/>
	</g>
	<g>
		<path fill="#9C6E40" d="M-38.228,38.329c0.307,8.231-3.042,18.076-3.042,18.076c-3.562,11.105-6.71,19.564-9.44,25.382h-16.03
			c-2.315-9.558-3.474-20.69-3.474-33.395c0-14.487,1.276-27.074,3.83-37.762h17.456c2.85,3.266,5.046,6.442,6.59,9.529
			C-42.338,20.16-38.698,25.759-38.228,38.329z"/>
	</g>
	<path fill="#C1AF79" d="M13.848,50.707c0.527-2.818-1.293-14.448,0.469-21.731c1.126-4.652,6.057-15.666,6.675-15.7
		c-3.299,0.187-9.535,0.789-18.711,1.81l-35.333,4.02l0,0c0,0,3.728,10.986,4.08,18.739c0.353,7.754-4.229,11.982,0.881,13.041
		c5.11,1.056,19.56-2.292,24.67,0.175S13.319,53.526,13.848,50.707z"/>
	<path fill="#C1AF79" d="M91.517,23.589c-1.245-1.039-2.865-1.783-4.853-2.228c-0.957-0.215-2.97-0.549-6.035-1.003
		c0,0.001-2.642,3.095-2.761,4.151c-0.115,1.058-2.819,6.256,0,10.235c0.018,0.022,0.034,0.045,0.051,0.067
		c1.508,0.086,2.541,0.13,3.089,0.13c8.253,0,12.38-2.315,12.38-6.946C93.388,26.097,92.764,24.627,91.517,23.589z"/>
</g>
</svg>
