<?xml version="1.0" encoding="utf-8"?>
<!-- Generator: Adobe Illustrator 16.0.0, SVG Export Plug-In . SVG Version: 6.00 Build 0)  -->
<!DOCTYPE svg PUBLIC "-//W3C//DTD SVG 1.1//EN" "http://www.w3.org/Graphics/SVG/1.1/DTD/svg11.dtd">
<svg version="1.1" id="Layer_1" xmlns="http://www.w3.org/2000/svg" xmlns:xlink="http://www.w3.org/1999/xlink" x="0px" y="0px"
	 width="102.899px" height="67.215px" viewBox="-3.019 -6.854 102.899 67.215"
	 enable-background="new -3.019 -6.854 102.899 67.215" xml:space="preserve">
<path fill="#73DB71" d="M61.261,0.424l-0.215,16.423L1.989,16.844c-0.67,3.881-1.012,7.201-1.008,9.966
	c0.002,2.611,0.336,5.894,1.006,9.85l59.066-0.001l0.208,16.422c0,0,34.619-22.328,34.619-26.329S61.261,0.424,61.261,0.424z"/>
<path fill="#F1FEF1" d="M57.103,40.658l-58.496,0.001l-0.564-3.332c-0.703-4.149-1.06-7.687-1.062-10.515
	c-0.004-2.985,0.345-6.469,1.066-10.649l0.573-3.319l58.478,0.003l0.258-19.701l6.073,3.917C99.88,20.571,99.88,24.591,99.88,26.751
	c0,2.16,0,6.18-36.451,29.69l-6.076,3.919L57.103,40.658z"/>
<path fill="#73DB71" d="M61.261,0.424l-0.215,16.423L1.989,16.844c-0.67,3.881-1.012,7.201-1.008,9.966
	c0.002,2.611,0.336,5.894,1.006,9.85l59.066-0.001l0.208,16.422c0,0,34.619-22.328,34.619-26.329S61.261,0.424,61.261,0.424z"/>
</svg>
