<?xml version="1.0" encoding="utf-8"?>
<!-- Generator: Adobe Illustrator 16.0.0, SVG Export Plug-In . SVG Version: 6.00 Build 0)  -->
<!DOCTYPE svg PUBLIC "-//W3C//DTD SVG 1.1//EN" "http://www.w3.org/Graphics/SVG/1.1/DTD/svg11.dtd">
<svg version="1.1" id="Layer_1" xmlns="http://www.w3.org/2000/svg" xmlns:xlink="http://www.w3.org/1999/xlink" x="0px" y="0px"
	 width="116.862px" height="53.504px" viewBox="106.624 -40.064 116.862 53.504"
	 enable-background="new 106.624 -40.064 116.862 53.504" xml:space="preserve">
<g>
	<g>
		<g>
			<path fill="#DEE1B9" d="M118.956-34.714c0.001,0,2.804,4.312,3.166,13.992c0.235,6.34-2.343,13.923-2.343,13.923
				c0,0.001-0.001,0.002-0.001,0.004h1.161c1.051,0,3.293,1.648,6.721,4.941c1.738,1.646,4.115,2.971,7.134,3.976
				c3.019,1.007,8.733,1.782,17.147,2.331c1.326,0.139,2.287,0.435,2.881,0.894c0.594,0.455,1.304,1.349,2.125,2.675
				c2.379,3.611,4.984,5.418,7.818,5.418c2.654,0,4.859-0.697,6.621-2.091c1.758-1.397,2.643-3.306,2.643-5.729
				c0-1.6-0.186-3.199-0.553-4.801c3.248,2.608,6.152,3.91,8.711,3.91c1.604,0,2.963-0.468,4.082-1.408
				c1.123-0.937,1.684-2.09,1.684-3.463c0-1.783-0.799-3.912-2.4-6.377c2.102,0.777,4.117,1.166,6.037,1.166
				c3.062,0,4.598-1.464,4.598-4.39c0-2.106-0.984-4.312-2.949-6.62c-1.969-2.311-5.469-5.388-10.496-9.227
				c18.795,1.509,29.195,2.262,31.207,2.262c6.357,0,9.535-1.782,9.535-5.349c0-1.463-0.479-2.595-1.441-3.395
				c-0.959-0.801-2.207-1.374-3.736-1.716c-1.533-0.344-6.574-1.085-15.123-2.229l-21.607-2.88
				c-5.896-0.777-10.057-1.168-12.482-1.168c-1.873,0-7.131,0.481-15.775,1.441L118.956-34.714"/>
		</g>
		<path fill="#C1AF79" d="M162.229-11.187c0.406-2.171-0.996-11.127,0.361-16.737c0.867-3.583,4.664-12.065,5.141-12.091
			c-2.539,0.144-7.344,0.607-14.41,1.394l-27.213,3.096l0,0c0,0,2.871,8.46,3.143,14.432c0.271,5.971-3.258,9.226,0.678,10.042
			c3.936,0.815,15.064-1.766,19,0.137C152.863-9.015,161.82-9.017,162.229-11.187z"/>
		<path fill="#C1AF79" d="M222.045-32.073c-0.959-0.8-2.205-1.373-3.736-1.716c-0.738-0.165-2.287-0.423-4.648-0.773
			c0,0.001-2.033,2.385-2.125,3.197c-0.09,0.814-2.172,4.818,0,7.883c0.016,0.017,0.025,0.034,0.039,0.052
			c1.16,0.065,1.955,0.099,2.379,0.099c6.355,0,9.533-1.782,9.533-5.349C223.486-30.141,223.006-31.272,222.045-32.073z"/>
	</g>
	<path fill="#C1AF79" d="M122.122-20.722c-0.362-9.68-3.165-13.992-3.166-13.992c0,0-9.204-0.373-9.081-0.164
		s2.885,4.476,3.247,14.156c0.235,6.34-2.372,14.109-2.388,14.328s9.045-0.405,9.045-0.405S122.357-14.382,122.122-20.722z"/>
	<path fill="#7C6E50" d="M110.73-6.394c-0.016-0.219-4.106-0.163-4.106-14.328c0-14.22,3.124-13.947,3.247-14.156
		c0.123,0.209,2.885,4.476,3.247,14.156C113.354-14.382,110.746-6.612,110.73-6.394z"/>
</g>
</svg>
