<?xml version="1.0" encoding="utf-8"?>
<!-- Generator: Adobe Illustrator 16.0.0, SVG Export Plug-In . SVG Version: 6.00 Build 0)  -->
<!DOCTYPE svg PUBLIC "-//W3C//DTD SVG 1.1//EN" "http://www.w3.org/Graphics/SVG/1.1/DTD/svg11.dtd">
<svg version="1.1" id="Layer_1" xmlns="http://www.w3.org/2000/svg" xmlns:xlink="http://www.w3.org/1999/xlink" x="0px" y="0px"
	 width="128px" height="56.369px" viewBox="0 0 128 56.369" enable-background="new 0 0 128 56.369" xml:space="preserve">
<g>
	<g>
		<path fill="#DEE1B9" d="M22.471,7.779l34.362-3.91c8.644-0.96,13.901-1.441,15.775-1.441c2.425,0,6.586,0.391,12.483,1.168
			l21.606,2.88c8.55,1.144,13.591,1.885,15.123,2.229c1.53,0.342,2.778,0.915,3.737,1.716c0.962,0.8,1.442,1.932,1.442,3.395
			c0,3.567-3.179,5.349-9.535,5.349c-2.012,0-12.413-0.753-31.207-2.262c5.026,3.839,8.527,6.916,10.495,9.227
			c1.965,2.308,2.949,4.513,2.949,6.62c0,2.926-1.535,4.389-4.597,4.389c-1.921,0-3.935-0.388-6.038-1.165
			c1.602,2.465,2.401,4.593,2.401,6.376c0,1.373-0.56,2.527-1.683,3.464c-1.119,0.94-2.48,1.408-4.082,1.408
			c-2.56,0-5.464-1.302-8.711-3.91c0.366,1.601,0.552,3.2,0.552,4.801c0,2.423-0.884,4.331-2.643,5.729
			c-1.761,1.394-3.966,2.09-6.62,2.09c-2.835,0-5.44-1.806-7.818-5.418c-0.822-1.326-1.532-2.219-2.126-2.674
			c-0.594-0.459-1.555-0.755-2.88-0.893c-8.414-0.549-14.129-1.325-17.148-2.332c-3.018-1.004-5.396-2.33-7.133-3.976
			c-3.429-3.292-5.671-4.941-6.722-4.941h-1.167c-2.743,8.552-5.168,15.067-7.27,19.547H3.675C1.892,47.884,1,39.308,1,29.522
			c0-11.155,0.982-20.85,2.95-29.08h13.442C19.591,2.955,21.283,5.402,22.471,7.779z"/>
	</g>
	<g>
		<path fill="#9C6E40" d="M25.636,21.771c0.236,6.34-2.343,13.923-2.343,13.923c-2.744,8.553-5.168,15.068-7.27,19.548H3.677
			c-1.783-7.362-2.674-15.936-2.674-25.721c0-11.156,0.981-20.851,2.949-29.081h13.442c2.196,2.515,3.888,4.961,5.076,7.339
			C22.471,7.779,25.274,12.091,25.636,21.771z"/>
	</g>
	<path fill="#C1AF79" d="M65.742,31.306c0.406-2.171-0.996-11.128,0.361-16.737c0.867-3.583,4.664-12.065,5.142-12.091
		c-2.54,0.144-7.344,0.607-14.411,1.394L29.622,6.968l0,0c0,0,2.87,8.46,3.142,14.432c0.271,5.971-3.258,9.226,0.678,10.042
		s15.064-1.765,19,0.137C56.377,33.477,65.335,33.476,65.742,31.306z"/>
	<path fill="#C1AF79" d="M125.559,10.42c-0.959-0.8-2.206-1.373-3.737-1.716c-0.737-0.165-2.287-0.423-4.647-0.773
		c0,0.001-2.035,2.385-2.126,3.197c-0.089,0.814-2.172,4.818,0,7.883c0.015,0.017,0.026,0.034,0.039,0.052
		c1.161,0.065,1.956,0.099,2.379,0.099c6.355,0,9.534-1.782,9.534-5.349C127,12.352,126.52,11.22,125.559,10.42z"/>
</g>
</svg>
