<?xml version="1.0" standalone="no"?>
<!DOCTYPE svg PUBLIC "-//W3C//DTD SVG 20010904//EN"
 "http://www.w3.org/TR/2001/REC-SVG-20010904/DTD/svg10.dtd">
<svg version="1.0" xmlns="http://www.w3.org/2000/svg"
 width="700.000000pt" height="700.000000pt" viewBox="0 0 700.000000 700.000000"
 preserveAspectRatio="xMidYMid meet">
<metadata>
Created by potrace 1.11, written by Peter Selinger 2001-2013
</metadata>
<g transform="translate(0.000000,700.000000) scale(0.100000,-0.100000)"
fill="#000000" stroke="none">
<path d="M4824 6649 c-10 -16 -9 -11 -18 -99 -21 -185 -96 -409 -217 -647 -88
-171 -118 -216 -138 -207 -20 8 -153 55 -166 58 -5 2 -17 6 -25 9 -33 13 -159
47 -228 62 -44 9 -119 15 -185 14 -129 -1 -182 9 -407 81 -229 73 -339 93
-511 93 -103 -1 -189 -9 -237 -22 -64 -19 -232 -143 -257 -190 -8 -16 -18 -54
-21 -84 l-6 -55 52 -53 c46 -48 126 -138 172 -194 9 -11 56 -68 105 -126 48
-58 106 -127 128 -154 22 -27 45 -53 50 -59 6 -6 38 -45 71 -86 l60 -75 -12
-70 c-7 -38 -14 -81 -17 -95 -6 -28 -24 -129 -32 -175 -2 -16 -14 -79 -25
-140 -11 -60 -23 -126 -26 -145 -2 -19 -9 -55 -14 -80 -5 -25 -14 -72 -20
-105 -5 -33 -12 -69 -14 -80 -2 -11 -7 -40 -12 -65 -4 -25 -8 -47 -9 -50 -1
-3 -7 -39 -14 -80 -7 -41 -15 -86 -17 -100 -3 -14 -5 -114 -4 -223 l1 -198
-68 -82 c-37 -45 -75 -91 -85 -102 -223 -269 -212 -258 -284 -289 -87 -37 -92
-39 -314 -134 -102 -44 -270 -117 -375 -161 -104 -45 -205 -89 -224 -98 -32
-14 -115 -19 -166 -9 -11 2 -63 7 -115 11 -52 4 -111 8 -130 10 -19 2 -84 6
-145 10 -119 8 -140 11 -155 20 -6 3 -14 -5 -20 -19 -10 -27 4 -79 57 -206 27
-65 32 -75 93 -185 32 -59 127 -205 139 -215 3 -3 24 -27 45 -54 128 -159 483
-466 600 -519 100 -46 323 -122 493 -168 305 -82 373 -110 475 -190 34 -27 70
-55 78 -62 9 -7 36 -28 60 -48 73 -58 205 -133 411 -233 272 -131 483 -211
617 -233 57 -10 291 -10 347 -1 173 27 376 111 540 223 110 74 122 85 108 91
-6 3 -42 50 -78 105 -51 76 -79 108 -123 138 -31 21 -88 65 -127 97 -72 61
-123 133 -445 630 -52 81 -145 224 -207 318 -75 114 -111 178 -108 191 2 11 7
36 10 55 5 40 10 65 30 170 7 41 17 93 20 115 13 77 16 88 27 109 22 41 182
312 215 363 18 28 33 54 33 57 0 3 26 49 59 103 32 54 111 188 176 298 64 110
128 217 141 237 24 37 42 48 484 296 25 14 61 34 80 45 19 10 40 23 45 27 9 7
263 77 580 161 61 16 153 41 205 55 52 14 144 39 203 54 60 16 111 30 113 33
3 2 30 -2 60 -9 l56 -13 -7 37 c-18 97 -99 206 -306 413 -189 189 -285 269
-395 329 -88 48 -142 89 -218 165 -64 64 -94 81 -236 135 -141 53 -210 86
-367 177 -68 40 -132 74 -143 78 -11 3 -20 10 -20 14 0 54 193 450 344 704 25
43 46 80 46 82 0 2 14 24 30 48 17 25 30 50 30 56 0 6 4 11 8 11 15 0 30 45
21 62 -11 19 -47 29 -161 43 -42 5 -58 4 -64 -6z"/>
</g>
</svg>
