<?xml version="1.0" encoding="utf-8"?>
<!-- Generator: Adobe Illustrator 16.0.0, SVG Export Plug-In . SVG Version: 6.00 Build 0)  -->
<!DOCTYPE svg PUBLIC "-//W3C//DTD SVG 1.1//EN" "http://www.w3.org/Graphics/SVG/1.1/DTD/svg11.dtd">
<svg version="1.1" id="Layer_1" xmlns="http://www.w3.org/2000/svg" xmlns:xlink="http://www.w3.org/1999/xlink" x="0px" y="0px"
	 width="300px" height="300px" viewBox="0 0 300 300" enable-background="new 0 0 300 300" xml:space="preserve">
<polygon fill="#C88B43" points="113.792,124.892 127.617,124.892 131.95,132.25 144.119,139.75 145.5,149.375 151,154.125 
	153.917,165.404 149.338,172.555 144.119,175.279 109.983,148.654 "/>
<path fill="#E5A045" d="M115.604,150.45l0.401-0.536c0.101-0.127,0.456-0.66,0.456-0.66c3.28-4.767,6.725-9.098,10.285-12.945
	c-1.169-1.502-1.107-3.888-2.262-5.023c-0.725-0.712-1.76-0.222-2.678-0.55c-1.621-0.579-1.096-0.879-2.08-1.638
	c-0.545-0.419-0.191-0.849-1.012-1.286c-0.627-0.335-1.604,0.245-2.223-0.032c-0.57-0.255-0.723-0.105-1.264-0.546
	c-0.661-0.538-0.307-1.747-1.088-2.22c-0.092-0.056-0.215-0.092-0.35-0.121c-1.936,2.887-3.321,6.001-4.807,9.35
	c-0.279,0.616-0.564,1.256-0.851,1.891l-0.005,0.009c1.091,2.759,3.396,8.002,7.109,13.741L115.604,150.45z"/>
<path fill="#E5A045" d="M115.176,151.158l-0.172-0.258c-3.765-5.7-6.159-11.039-7.293-13.833c-0.205,0.455-0.413,0.909-0.64,1.377
	c-3.732,7.879-2.09,19.258-0.647,27.991c1.735-3.545,4.614-8.979,8.583-15.018L115.176,151.158z"/>
<path fill="#E5A045" d="M141.124,154.291c-1.576-1.447-1.584-5.772-2.157-7.549c-0.385-1.193-0.888-2.472-1.093-3.693
	c-1.466-0.119-4.711,1.456-5.656,0.941c-0.861-0.468-1.325-2.982-1.81-3.825c-0.522-0.909-1.241-2.292-2.009-2.984
	c-0.33-0.297-0.716-0.277-1.058-0.383c-3.562,3.83-7.001,8.134-10.268,12.878c-0.277,0.422-0.548,0.824-0.818,1.217l-0.178,0.258
	l0.175,0.266c0.426,0.633,0.864,1.242,1.314,1.873l0.115,0.16c4.125,5.602,8.725,10.088,13.67,13.34
	c0.812,0.539,1.705,1.084,2.742,1.654l0.317,0.176l0.25-0.264c3.438-3.68,6.595-7.244,9.457-10.674
	c-0.064-0.561-0.164-1.107-0.396-1.578C142.907,154.453,142.282,155.355,141.124,154.291z"/>
<path fill="#E5A045" d="M146.917,168.779c-0.254-1.201-0.305-2.691-0.443-3.922c-0.15-1.326,0.122-2.414-0.565-3.594
	c-0.254-0.436-1.138-0.49-1.267-0.734c-0.27-0.512-0.358-1.145-0.422-1.803c-2.197,2.615-4.557,5.305-7.087,8.062
	c-0.538,0.596-1.069,1.16-1.606,1.732l-0.432,0.463l0.568,0.273c4.178,2.084,8.598,3.363,13.148,3.803
	c-0.016,0.01-0.023,0.025-0.039,0.031c-0.006,0.006-0.008,0.016-0.018,0.021c-0.219,0.211-0.441,0.412-0.671,0.615
	c-0.006,0-0.009,0-0.013,0c-4.586-0.525-9.025-1.877-13.184-4.018l-0.316-0.156l-0.239,0.254
	c-3.967,4.199-8.297,8.543-12.539,12.561c-0.142-0.002-0.283-0.012-0.426-0.018c-0.029,0-0.06,0-0.091,0
	c-0.159-0.012-0.327-0.014-0.482-0.033c-0.011,0-0.018,0-0.031-0.006c2.141-2.01,7.021-6.678,12.705-12.691l0.416-0.441
	l-0.519-0.293c-0.839-0.473-1.663-0.98-2.446-1.5c-5.018-3.299-9.684-7.855-13.863-13.553l-0.373-0.514
	c-0.221-0.303-0.445-0.605-0.652-0.908l-0.398-0.584l-0.383,0.588c-4.104,6.309-7.002,11.932-8.621,15.305
	c0.001,0.006,0.002,0.012,0.003,0.018c0,0,0,0,0-0.006c0,0.006,0,0.006,0,0.006c0.003,0.02,0.007,0.039,0.013,0.061
	c0.135,0.83,0.354,1.697,0.646,2.572c1.339,3.996,4.603,9.025,9.737,11.15c1.007,0.418,2.291,0.67,3.74,0.795
	c0,0.002,0,0.002-0.004,0.002c0.016,0,0.023,0.006,0.035,0.006c0.155,0.01,0.32,0.02,0.482,0.031
	c0.031,0.004,0.056,0.004,0.085,0.004c0.136,0.014,0.269,0.023,0.417,0.029c0.003-0.004,0.012-0.012,0.015-0.018
	c0.003,0,0.003,0,0.003,0c6.725,0.266,16.561-2.062,22.492-5.742c1.298-0.809,2.562-1.799,3.786-2.898c0.003,0,0.006,0,0.009,0
	c0.229-0.201,0.45-0.402,0.673-0.611c0.005-0.006,0.011-0.014,0.013-0.014c0.016-0.018,0.029-0.029,0.049-0.043
	c0.175-0.166,0.345-0.338,0.517-0.508C148.151,171.639,147.281,170.5,146.917,168.779z"/>
<path fill="#C88B43" d="M107.914,136.625c0.065-0.152,0.129-0.297,0.2-0.449l0.016-0.034c-0.001-0.003-0.002-0.007-0.004-0.011
	c-0.066,0.164-0.146,0.322-0.218,0.486l-0.202,0.439c0.002,0.004,0.003,0.008,0.005,0.012c0-0.001,0.001-0.002,0.001-0.003
	L107.914,136.625z"/>
<path fill="#C88B43" d="M106.426,166.447c-0.001-0.004-0.001-0.008-0.002-0.012c-0.002,0.004-0.004,0.008-0.006,0.012
	c0.069,0.436,0.142,0.865,0.208,1.277c0-0.002,0.002-0.004,0.002-0.004c-0.065-0.408-0.137-0.83-0.205-1.26
	C106.423,166.461,106.426,166.453,106.426,166.447z"/>
<path fill="#C88B43" d="M115.632,151.828l0.398,0.584c0.207,0.303,0.432,0.605,0.652,0.908l0.373,0.514
	c4.18,5.697,8.846,10.254,13.863,13.553c0.783,0.52,1.607,1.027,2.446,1.5l0.519,0.293l-0.416,0.441
	c-5.684,6.014-10.564,10.682-12.705,12.691c0.014,0.006,0.021,0.006,0.031,0.006c0.155,0.02,0.323,0.021,0.482,0.033
	c0.031,0,0.062,0,0.091,0c0.143,0.006,0.284,0.016,0.426,0.018c4.242-4.018,8.572-8.361,12.539-12.561l0.239-0.254l0.316,0.156
	c4.158,2.141,8.598,3.492,13.184,4.018c0.004,0,0.007,0,0.013,0c0.229-0.203,0.452-0.404,0.671-0.615
	c0.01-0.006,0.012-0.016,0.018-0.021c0.016-0.006,0.023-0.021,0.039-0.031c-4.551-0.439-8.971-1.719-13.148-3.803l-0.568-0.273
	l0.432-0.463c0.537-0.572,1.068-1.137,1.606-1.732c2.53-2.758,4.89-5.447,7.087-8.062c-0.032-0.346-0.061-0.697-0.101-1.045
	c-2.862,3.43-6.019,6.994-9.457,10.674l-0.25,0.264l-0.317-0.176c-1.037-0.57-1.93-1.115-2.742-1.654
	c-4.945-3.252-9.545-7.738-13.67-13.34l-0.115-0.16c-0.45-0.631-0.889-1.24-1.314-1.873l-0.175-0.266l0.178-0.258
	c0.271-0.393,0.541-0.795,0.818-1.217c3.267-4.744,6.705-9.048,10.268-12.878c-0.148-0.046-0.29-0.114-0.412-0.245
	c-0.069-0.075-0.12-0.164-0.183-0.244c-3.561,3.848-7.005,8.179-10.285,12.945c0,0-0.355,0.533-0.456,0.66l-0.401,0.536
	l-0.365-0.567c-3.713-5.739-6.019-10.982-7.109-13.741l-0.016,0.034c-0.071,0.152-0.135,0.297-0.2,0.449l-0.202,0.44
	c0,0.001-0.001,0.002-0.001,0.003c1.134,2.794,3.528,8.133,7.293,13.833l0.172,0.258l-0.169,0.26
	c-3.969,6.039-6.848,11.473-8.583,15.018c0.001,0.004,0.001,0.008,0.002,0.012c0,0.006-0.003,0.014-0.003,0.014
	c0.068,0.43,0.14,0.852,0.205,1.26c1.619-3.373,4.517-8.996,8.621-15.305L115.632,151.828z"/>
</svg>
