<?xml version="1.0" encoding="utf-8"?>
<!-- Generator: Adobe Illustrator 16.0.0, SVG Export Plug-In . SVG Version: 6.00 Build 0)  -->
<!DOCTYPE svg PUBLIC "-//W3C//DTD SVG 1.1//EN" "http://www.w3.org/Graphics/SVG/1.1/DTD/svg11.dtd">
<svg version="1.1" id="Layer_1" xmlns="http://www.w3.org/2000/svg" xmlns:xlink="http://www.w3.org/1999/xlink" x="0px" y="0px"
	 width="300px" height="300px" viewBox="0 0 300 300" enable-background="new 0 0 300 300" xml:space="preserve">
<g>
	<path fill="#2D261F" d="M142.716,97.977c2.934-7.898,2.509-24.517-0.853-32.477c0,0-0.804-1.428,0.593-1.751
		c1.396-0.323,4.537-1.523,5.138-1.189c0.603,0.336,0.83,0.711,0.742,1.158c-0.085,0.448-0.256,0.535-0.299,1.163
		c-0.046,0.627-3.059,26.401-0.198,30.961"/>
	<path fill="#E8DFB1" d="M205.742,106.437c0.343,0.362-2.002,0.308-2.854,0.767c-0.856,0.459-2.394,2.032-2.527,4.487
		c-0.138,2.456-2.093,3.337-4.008,4.093c-1.914,0.76-9.307,1.863-10.939,2.208c-1.634,0.345-2.317,1.54-2.636,2.322
		c-0.317,0.778-0.927,1.194-1.206,1.689c-0.282,0.494-0.278,0.944-0.148,1.35c0.126,0.41-0.227,2.048-0.912,2.71
		c-0.688,0.663-0.174,2.95-1.417,5.09c-1.245,2.141-4.149,9.661-5.037,10.736c-0.89,1.071-1.573,2.144-2.449,4.077
		c-0.882,1.932-3.609,6.748-3.173,9.239c0.437,2.49,1.078,4.979,1.42,6.164c0.339,1.182,0.198,3.31,0.184,5.562
		c-0.02,2.247,0.166,7.934-0.269,9.208c-0.437,1.272-1.004,1.811-1.86,2.062c-0.854,0.258-1.593,0.225-1.543,0.838
		c0.046,0.613,3.113,7.781,6.586,11.179c3.476,3.397,4.305,4.369,6.293,6.643c1.989,2.269,8.249,6.127,9.912,8.4
		c1.663,2.271,5.773,4.189,7.254,4.829c1.48,0.639,5.422,1.738,8.526,1.542c3.107-0.2,5.069-0.382,5.731,0.263
		c0.662,0.647,2.001,3.457,1.524,4.669c-0.479,1.212-3.071,3.367-3.22,4.843c-0.147,1.475-4.38,3.484-4.872,3.49
		c-0.491,0.005-23.169,6.475-26.926,6.842c-3.761,0.37-36.124,4.165-41.72,1.443c-5.593-2.718-10.535-5.663-14.302-5.843
		c-3.767-0.176-14.07,0.266-16.37-0.527c-2.302-0.793-10.622-0.976-16.92-8.106c-0.868-0.98,3.113-2.052,3.764-2.495
		c0.651-0.443,3.689-2.005,5.216-2.021c1.527-0.019,3.905-2.007,4.764-3.325c0.857-1.318,3.446-3.966,4.745-4.853
		c1.299-0.888,4.986-2.891,6.284-3.998c1.299-1.104,2.583-3.085,4.976-3.982c2.39-0.899,6.044-5.959,6.249-7.053
		c0.205-1.092,0.844-2.626,0.611-4.152c-0.236-1.526,2.134-4.169,2.337-5.699c0.201-1.53,1.271-3.287,1.906-5.258
		c0.632-1.972-0.744-7.848-1.203-10.025c-0.461-2.177-0.486-4.359-1.402-8.276c-0.917-3.917-2.476-6.954-4.701-10.857
		c-2.226-3.905-7.773-12.353-9.991-15.6c-2.217-3.25-5.951-5.39-7.722-7.555c-1.769-2.162-4.189-3.88-7.907-4.711
		c0,0-3.551-0.25-3.915-1.36c0,0-0.626-1.074,0.451-3.702c1.074-2.632,7.693-7.207,9.237-8.04c1.547-0.836,17.113-6.573,24.39-7.062
		c7.277-0.488,45.318-1.4,54.736-0.605C190.111,98.875,201.353,101.778,205.742,106.437z"/>
	<path fill="#F34044" d="M91.828,117.38c0,0-1.231-3.004-0.342-4.815c0.89-1.808,2.228-4.225,3.196-5.543
		c0.966-1.321,8.789-6.78,20.071-7.722c11.281-0.942,11.666-3.24,14.926-4.258c3.261-1.018,14.309-2.449,18.968-2.171
		c4.662,0.272,8.432,0.969,11.703,0.771c3.271-0.202,6.618-0.811,8.916-0.344c2.297,0.465,4.443,2.241,8.207,2.201
		c3.764-0.042,9.182,1.454,11.483,2.491c2.304,1.04,14.351,3.546,16.817,8.514c-1.043-0.807-6.613-3.253-11.268-4.839
		c-4.652-1.584-9.509-1.53-10.564-1.683c-1.06-0.152-0.783,1.482-0.453,1.805c0.331,0.324,0.897,2.064,0.021,1.799
		c-0.879-0.263-2.221,1.552-2.82,1.559c-0.602,0.007,0.759,2.12,0.027,2.511c-0.731,0.39-5.331,1.449-6.333,1.979
		c-1.004,0.53-2.418,0.928-3.705,0.586c-1.283-0.34-5.762-0.646-6.547-0.201c-0.786,0.447-3.367,3.858-3.816,4.98
		c-0.454,1.121-1.471,0.48-1.471,0.48s-2.444-1.556-3.762-2.304c-1.315-0.75-3.516-2.254-5.6-3.212
		c-2.085-0.958-6.591-4.072-9.776-5.893c-3.182-1.819-8.972-2.411-12.576-2.807c-3.605-0.396-8.956-0.774-17.402,5.21
		c-8.443,5.986-10.859,4.594-12.93,4.617C94.725,111.111,91.923,116.07,91.828,117.38z"/>
	<path fill="#F34044" d="M88.067,217.563c0,0-0.636,1.26-0.224,1.786c0.419,0.528,4.43,4.454,5.336,5.138
		c0.91,0.686,6.816,5.677,14.33,8.351c4.727,1.684,8.578,3.112,13.424,3.945c4.763,1.42,7.417,0.283,10.15,0.302
		c3.669,0.024,15.136-2.658,18.846-2.641c3.711,0.02,8.675,2.295,14.378,2.628c6.304,0.371,16.778,0.423,19.392-0.044
		c2.613-0.465,5.841-0.046,11.914-3.033c7.487-3.685,10.457-8.418,11.354-9.289c0.138-0.134,1.775-2.176,1.775-2.176
		s2.102-4.003,2.816-4.963c0.289-0.392,0.463-0.426,0.637-1c0.022-0.077,0.12-0.324,0.051-0.294
		c-0.239,0.103-3.54-0.285-3.795-0.313c-1.035-0.111-6.108,6.09-6.179,6.096c-1.526,0.163-5.632,1.126-7.206-0.411
		c-1.819-1.779-3.647-4.406-4.297-3.964c-0.651,0.446-1.212,1.407-2.516,2.076c-1.301,0.668-0.547,2.377-1.623,3.699
		c-1.078,1.321-11.346,0.124-14.836,0.161c-3.49,0.042-19.872-1.306-22.931-1.708c-3.062-0.401-9.003-5.139-9.65-4.477
		c-0.649,0.663-9.119,4.246-11.091,3.567c-1.971-0.683-11.121,0.606-13.744,0.151c-2.625-0.456-1.557-2.554-2.868-2.758
		c-1.311-0.203-5.873,1.592-9.136,2.501c-3.265,0.91-9.165,0.103-9.82,0.108C91.9,221.011,88.081,218.872,88.067,217.563z"/>
	<path fill="#D3B48C" d="M126.932,120.275c2.082-9.068,14.896,7.772,14.958,13.337c0.062,5.563-3.517,7.566-1.489,13.436
		c2.029,5.869-2.47,13.446-5.443,10.861c-2.974-2.585-8.65-12.67-7.37-15.302C128.867,139.974,126.384,122.654,126.932,120.275z"/>
	<path fill="#D3B48C" d="M143.997,176.468c-1.202,9.648-5.038,17.938-7.293,21.232c-2.254,3.3-9.656,6.389-9.852,7.7
		c-0.195,1.31,9.634,2.213,10.936,1.545c1.3-0.669,6.128-8.235,6.423-11.185c0.295-2.95,2.804-12.906,3.12-13.891
		c0.318-0.986-1.697-5.421-1.697-5.421L143.997,176.468z"/>
	<path fill="#D3B48C" d="M169.848,116.52c-1.648-1.202-2.972-2.347-4.901,0.709c-1.929,3.057-3.525,6.676-3.525,6.676
		s8.215,2.854,8.523,1.215c0.31-1.641-3.972-3.77-0.053-4.689c3.92-0.919,5.563-0.283,8.167-1.619
		c2.601-1.34,2.928-1.526,3.899-2.425c0.972-0.904-0.06-5.474-0.06-5.474s-1.987-1.941-2.619,0.029
		c-0.633,1.971-1.893,6.383-3.213,5.509C174.747,115.574,169.848,116.52,169.848,116.52z"/>
	<path fill="#D3B48C" d="M172.83,203.644c3.93,5.192,2.968,7.167,6.583,8.438c3.615,1.268,4.968,5.069,6.265,4.128
		c1.298-0.939-1.313-0.479-1.297,0.941s-1.945,1.77-3.248,2.439c-1.301,0.668-5.779,0.062-8.126,0.091
		c-2.346,0.026-6.943-1.235-6.943-1.235s-5.313-6.85-3.671-6.523c1.641,0.327,4.897-1.018,6.191-2.339
		C169.88,208.258,172.83,203.644,172.83,203.644z"/>
</g>
</svg>
