<?xml version="1.0" encoding="utf-8"?>
<!-- Generator: Adobe Illustrator 16.0.0, SVG Export Plug-In . SVG Version: 6.00 Build 0)  -->
<!DOCTYPE svg PUBLIC "-//W3C//DTD SVG 1.1//EN" "http://www.w3.org/Graphics/SVG/1.1/DTD/svg11.dtd">
<svg version="1.1" id="Layer_1" xmlns="http://www.w3.org/2000/svg" xmlns:xlink="http://www.w3.org/1999/xlink" x="0px" y="0px"
	 width="300px" height="300px" viewBox="0 0 300 300" enable-background="new 0 0 300 300" xml:space="preserve">
<g>
	<path fill="#FFDD50" d="M6.403,228.749c0,0,27.24,33.007,69.438-19.729c9.682-12.097,22.257-31.027,18.588-59.809
		c-1.817-14.269-16.14-60.413-7.259-71.13c8.883-10.714,13.867-12.635,17.561-19.268c3.691-6.628,2.28-23.783,2.28-23.783
		l14.19-2.349c0,0-3.68,15.316,0.938,22.674c3.5,5.58,6.931,5.232,14.54,5.978c11.942,1.165,43.394,32.883,57.676,52.367
		c14.286,19.481,24.646,39.595,54.299,43.582c6.765,0.911,22.506-4.017,26.277-6.738c9.016-6.503,10.371-19.526,12.214-25.578
		c1.892-6.209,2.786-7.34,4.396-6.999c2.621,0.55,17.89,38.292-0.408,52.948c-18.292,14.656-38.868,20.372-70.439,5.998
		c-30.785-14.016-46.115-29.459-60.761-48.537c0,0,2.454,34.245,22.438,56.159c19.845,21.765,23.255,22.068,31.532,25.068
		c9.209,3.329,19.737,4.422,32.666,0.998c12.927-3.424,12.918-4.981,14.612-5.634c1.703-0.658,4.124,0.559,4.712,2.089
		c0.593,1.528,3.909,7.084,1.193,13.205c-2.717,6.121-24.7,22.023-45.51,22.238c-20.803,0.211-48.992-4.537-69.105-32.896
		c-20.112-28.362-28.753-51.774-29.5-54.223c0,0-1.322,13.788-2.672,24.46c-1.351,10.674-16.531,47.244-27.842,57.072
		c-11.305,9.828-46.937,42.311-75.685,25.805c0,0-17.125-7.856-16.766-21.521C0.414,225.879,4.919,227.947,6.403,228.749z"/>
	<path fill="#302A0F" d="M126.296,59.514c-1.523-0.792-2.838-2.055-4.158-4.158c-4.618-7.358-0.938-22.674-0.938-22.674
		l-14.19,2.349c0,0,1.411,17.154-2.28,23.783c-1.102,1.979-2.322,3.534-3.72,5.038C106.494,65.366,115.438,65.92,126.296,59.514z"/>
</g>
</svg>
