<?xml version="1.0" encoding="utf-8"?>
<!-- Generator: Adobe Illustrator 16.0.0, SVG Export Plug-In . SVG Version: 6.00 Build 0)  -->
<!DOCTYPE svg PUBLIC "-//W3C//DTD SVG 1.1//EN" "http://www.w3.org/Graphics/SVG/1.1/DTD/svg11.dtd">
<svg version="1.1" id="Layer_1" xmlns="http://www.w3.org/2000/svg" xmlns:xlink="http://www.w3.org/1999/xlink" x="0px" y="0px"
	 width="300px" height="300px" viewBox="0 0 300 300" enable-background="new 0 0 300 300" xml:space="preserve">
<g id="Beet">
	<g>
		<path fill="#52A76C" d="M103.917,128.033c3.68-0.992,28.91,9.395,34.498,12.995c9.091,5.853,15.531,12.925,23.928,19.441
			c-9.414-4.823-13.248-6.717-30.551-7.558c-12.289-0.598-32.634-6.494-34.595-12.864c-0.298-0.965-0.462-1.912-0.475-2.818
			C96.596,132.145,100.962,128.938,103.917,128.033z"/>
		<path fill="#52A76C" d="M167.463,154.22c-3.503-5.396-8.173-12.084-13.437-18.646c-4.128-5.145-10.82-20.241-8.534-33.464
			c0.788-4.549,2.825-8,6.045-10.24c3.308-2.308,7.953-4.673,11.244-2.843c4.083,2.285,5.521,10.203,5.131,17.04
			C167.365,115.806,164.903,135.897,167.463,154.22z"/>
		<path fill="#52A76C" d="M59.759,48.601c0.004-0.585,0.022-1.143,0.046-1.681c0.711-11.167,8.416-11.958,16.245-11.812
			c4.995,0.093,22.405,18.583,25.954,26.399c3.481,7.674,39.828,66.954,51.485,80.458c7.194,8.335,10.544,12.275,12.001,14.003
			l-0.302,0.512c-10.271-8.515-56.307-46.83-71.068-61.283c-1.715-1.684-3.436-3.355-5.157-5.025
			C73.949,75.657,59.775,61.949,59.759,48.601z"/>
		<path fill="#E23C7B" d="M172.134,151.893c20.906-30.479,47.803-24.409,68.106-17.008c-19.167,10.772-43.844,41.553-48.404,47.852
			c-4.556,6.283-31.846,64.167-12.87,82.17c-5.616-5.248-11.363-11.368-17.419-17.805c-18.693-19.866-14.218-46.626-12.26-56.9
			C151.239,179.904,158.576,169.926,172.134,151.893z"/>
		<path fill="#B51561" d="M191.641,181.786c4.563-6.293,29.107-39.454,48.217-48.794h0.006h-0.006l-25.656,73.911l-35.439,57.739
			l0.033,0.204c-0.009-0.027-0.015-0.453-0.045-0.48C159.773,246.371,187.086,188.068,191.641,181.786z"/>
	</g>
</g>
</svg>
