<?xml version="1.0" encoding="utf-8"?>
<!-- Generator: Adobe Illustrator 16.0.0, SVG Export Plug-In . SVG Version: 6.00 Build 0)  -->
<!DOCTYPE svg PUBLIC "-//W3C//DTD SVG 1.1//EN" "http://www.w3.org/Graphics/SVG/1.1/DTD/svg11.dtd">
<svg version="1.1" id="Layer_1" xmlns="http://www.w3.org/2000/svg" xmlns:xlink="http://www.w3.org/1999/xlink" x="0px" y="0px"
	 width="300px" height="300px" viewBox="0 0 300 300" enable-background="new 0 0 300 300" xml:space="preserve">
<g>
	<g>
		<polygon fill="#FFE9E9" points="73.964,72.918 75.067,75.245 83.31,70.767 85.521,75.42 91.165,76 98.637,82.021 103.293,83.44 
			103.508,85.833 107.067,86.571 109.349,89.834 111.932,91.051 118.772,96.825 120.788,101.705 127.987,104.413 127.009,111.848 
			129.262,115.457 132.638,119.39 135.895,122.138 136.082,125.223 132.289,124.757 127.46,125.853 123.931,121.773 
			113.947,120.052 111.124,113.484 104,113.332 103.629,107.165 100.549,106.519 97.226,101.202 89.311,97.032 84.244,90.806 
			77.458,85.633 75.173,80.077 72.711,77.816 		"/>
		<path fill="#F6AF82" d="M73.964,72.918l-1.253,4.898l2.462,2.26l2.284,5.557l6.786,5.172l5.067,6.226l7.915,4.17l3.323,5.315
			l3.079,0.647l0.371,6.168l7.121,0.158l2.824,6.566l9.979,1.727l3.522,4.087l4.812-1.073l3.76,0.501
			c0,0-17.124,19.295-42.328,21.727c-25.205,2.437-33.706-21.199-32.98-32.302C61.432,103.622,62.12,93.885,73.964,72.918z"/>
	</g>
	<g>
		<path fill="#FFE9E9" d="M249.795,197.67c1.172,1.658,2.238,6.804,2.981,8.666c1.329,3.341-21.684,6.114-22.203,6.354
			c-0.515,0.238-5.73,4.467-6.378,4.764c-0.641,0.298-6.262,2.698-6.262,2.698s-2.301,1.567-2.903,2.627
			c-0.606,1.064-4.046,0.449-4.046,0.449s-5.643-1.169-6.434-0.179c-0.794,0.993-4.956,2.143-4.956,2.143s-5.393,3.908-5.848,4.28
			c-0.457,0.365-1.795,0.521-2.44,0.819c-0.641,0.297-1.803,2.865-1.803,2.865s-2.867,0.238-3.382,0.479
			c-0.513,0.236-4.857-1.352-4.857-1.352l-0.999,1.561l-2.428-1.357l1.39-2.955l6.845-5.907l3.522-0.535l6.93-5.169
			c0,0,5.048-3.988,5.243-4.234c0.198-0.254,4.978-0.585,4.978-0.585l3.166-0.523l2.214-1.796l3.319-1.246l3.571,0.467l3.675-2.964
			l3.785-2.312l4.877-0.831l3.631-2.798l4.564-0.105l2.387-1.225l2.387-0.643l2.177-0.83L249.795,197.67z"/>
		<path fill="#F6AF82" d="M249.795,197.67l-0.909,3.398l-1.971,3.035l-3.735,1.865l-0.728,1.092l-1.972,1.09l-2.299,0.627
			l-3.614-0.627l-1.178,3.568c0,0-2.621-1.035-3.139-0.795c-0.514,0.238-6.344,4.534-6.991,4.833
			c-0.641,0.297-8.569,0.109-8.569,0.109l-2.525,1.312l-2.185,4.77c0,0-4.639,0.111-5.43,1.102
			c-0.794,0.993-4.956,2.143-4.956,2.143s-5.393,3.908-5.848,4.28c-0.457,0.365-1.795,0.521-2.44,0.819
			c-0.641,0.297-1.803,2.865-1.803,2.865s-2.867,0.238-3.382,0.479c-0.513,0.236-4.857-1.352-4.857-1.352l-0.999,1.561l-2.428-1.357
			l-1.064,2.271c1.559,3.352,13.235,25.148,28.968,30.692c15.73,5.549,20.311,5.286,31.64,0.337
			c11.335-4.944,18.346-20.893,19.731-29.057C258.492,228.572,258.59,214.266,249.795,197.67z"/>
	</g>
</g>
</svg>
