<?xml version="1.0" encoding="utf-8"?>
<!-- Generator: Adobe Illustrator 16.0.0, SVG Export Plug-In . SVG Version: 6.00 Build 0)  -->
<!DOCTYPE svg PUBLIC "-//W3C//DTD SVG 1.1//EN" "http://www.w3.org/Graphics/SVG/1.1/DTD/svg11.dtd">
<svg version="1.1" id="Layer_1" xmlns="http://www.w3.org/2000/svg" xmlns:xlink="http://www.w3.org/1999/xlink" x="0px" y="0px"
	 width="300px" height="300px" viewBox="0 0 300 300" enable-background="new 0 0 300 300" xml:space="preserve">
<g>
	<g>
		<path fill="#E5A045" d="M120.026,136.361c3.816-2.422,8.736-5.515,13.156-5.33c4.422,0.188,7.93-0.291,12.117,2.389
			c4.185,2.678,6.913,6.573,8.828,7.814c1.916,1.239,5.806,1.526,8.194,1.718c2.385,0.192,8.904,0.521,13.397,3.199
			c4.493,2.675,6.208,6.483,7.257,8.215c1.05,1.732,1.779,5.216,0.611,6.79c-1.167,1.577-4.981,3.782-6.774,4.744
			c-1.791,0.964-7.813,3.782-13.455,4.042c-5.642,0.262-13.572-4.802-14.896-6.303c-1.322-1.501-3.205-5.19-5.86-5.485
			c-2.653-0.297-4.831,0.083-7.504,0.149c-2.671,0.064-8.419-0.823-11.943-3.307s-7.319-8.211-7.345-11.297
			C115.783,140.612,117.897,137.711,120.026,136.361z"/>
	</g>
	<path fill="#6D4B22" d="M157.642,142.415c0.047,0.628,0.157,3.22-0.819,6.606c-0.136,0.477-0.303,0.984-0.497,1.516
		c-1.948-0.534-3.977-1.668-6.41-4.044c-2.148-2.096-4.813-3.922-7.941-5.441c1.236-2.108,2.844-4.305,4.931-6.494
		c-0.212-0.163-0.44-0.316-0.661-0.474c-2.114,2.232-3.748,4.474-5.002,6.625c-0.273-0.126-0.552-0.252-0.832-0.374
		c-3.038-1.316-6.473-2.37-10.207-3.128c-0.124-0.025-0.25-0.049-0.373-0.074c2.106-3.105,4.306-5.296,5.105-6.051l-1.124-0.025
		c-1.097,1.094-3.02,3.174-4.841,5.912c-3.49-0.637-6.501-0.89-8.344-0.988c-0.203,0.128-0.405,0.256-0.602,0.381
		c-0.172,0.109-0.344,0.245-0.515,0.375c1.483,0.048,4.868,0.233,8.986,0.966c-0.15,0.236-0.299,0.481-0.447,0.726
		c-1.737,2.921-2.887,5.854-3.414,8.72c-0.084,0.46-0.153,0.917-0.206,1.373c-4.167-1.551-7.394-2.972-8.408-3.428
		c0.087,0.33,0.204,0.676,0.338,1.033c1.467,0.646,4.404,1.901,7.992,3.232c-0.17,2.312,0.076,4.569,0.732,6.75
		c0.322,0.154,0.649,0.303,0.985,0.438c-0.764-2.219-1.073-4.527-0.93-6.897c0.353,0.129,0.707,0.257,1.068,0.385
		c4.043,1.436,7.691,2.521,10.917,3.249c-0.223,2.527-0.021,4.295,0.072,4.917l0.808-0.053c-0.076-0.492-0.292-2.206-0.084-4.69
		c2.958,0.629,5.548,0.943,7.749,0.941c2.963-0.004,5.343,0.753,7.609,1.877c-1.422,2-3.322,4.062-5.851,6.013l0.474,0.649
		c2.646-2.036,4.626-4.197,6.101-6.29c1.205,0.642,2.394,1.38,3.637,2.148c3.033,1.882,6.313,3.915,10.854,5.253
		c-2.09,3.095-4.32,5.117-5.254,5.896c0.037-0.001,0.078,0.003,0.116,0.001c0.405-0.018,0.812-0.054,1.219-0.098
		c1.188-1.085,3.005-2.958,4.734-5.571c2.368,0.633,5.075,1.076,8.245,1.219l1.318-0.763c-3.55-0.065-6.529-0.502-9.105-1.171
		c1.579-2.545,2.723-5.237,3.396-8.019c0.146-0.603,0.268-1.211,0.369-1.82c2.94,1.193,6.388,3.111,10.547,6.171
		c0.056-0.296,0.088-0.605,0.093-0.931c-4.133-3-7.573-4.886-10.515-6.064c0.339-2.555,0.295-5.169-0.133-7.813
		c-0.287-0.117-0.578-0.227-0.872-0.331c0.472,2.653,0.553,5.282,0.23,7.844c-4.67-1.725-8.061-1.672-11.028-1.62
		c-1.669,0.026-3.195,0.053-4.741-0.254c0.191-0.531,0.355-1.04,0.493-1.518c0.93-3.243,0.904-5.738,0.852-6.653L157.642,142.415
		 M137.488,150.637c-0.118,0.641-0.209,1.251-0.276,1.83c-4.102-0.938-8.363-2.327-12-3.66c0.054-0.496,0.122-0.999,0.217-1.5
		c0.508-2.771,1.62-5.61,3.303-8.448c0.206-0.343,0.413-0.675,0.621-1c0.229,0.044,0.458,0.089,0.691,0.136
		c3.179,0.646,7.044,1.705,10.795,3.422C138.902,144.924,137.95,148.148,137.488,150.637z M153.744,155.6
		c-2.391-1.2-4.9-2.013-8.073-2.01c-2.307,0.004-4.941-0.365-7.668-0.95c0.067-0.584,0.158-1.204,0.277-1.855
		c0.451-2.434,1.385-5.589,3.29-9.024c2.802,1.355,5.508,3.087,7.782,5.307c2.514,2.454,4.654,3.648,6.683,4.221
		C155.49,152.626,154.75,154.09,153.744,155.6z M168.958,163.336c-4.577-1.312-7.86-3.346-10.893-5.226
		c-1.229-0.762-2.409-1.493-3.604-2.138c1.041-1.573,1.806-3.099,2.364-4.489c1.684,0.351,3.312,0.325,5.043,0.297
		c2.924-0.05,6.266-0.104,10.899,1.64c-0.103,0.64-0.229,1.28-0.381,1.912C171.715,158.107,170.562,160.803,168.958,163.336z"/>
</g>
</svg>
