<?xml version="1.0" encoding="utf-8"?>
<!-- Generator: Adobe Illustrator 16.0.0, SVG Export Plug-In . SVG Version: 6.00 Build 0)  -->
<!DOCTYPE svg PUBLIC "-//W3C//DTD SVG 1.1//EN" "http://www.w3.org/Graphics/SVG/1.1/DTD/svg11.dtd">
<svg version="1.1" id="Layer_1" xmlns="http://www.w3.org/2000/svg" xmlns:xlink="http://www.w3.org/1999/xlink" x="0px" y="0px"
	 width="300px" height="300px" viewBox="0 0 300 300" enable-background="new 0 0 300 300" xml:space="preserve">
<g>
	<path fill="#FF9076" d="M169.853,95.034l-42.42,35.064l-39.08,50.777l-0.247,0.127l11.131,48.056c0,0,39.294-7.913,77.992-47.667
		c17.631-18.111,25.119-22.617,48.614-71.803"/>
	<path fill="#529756" d="M113.715,119.474c0.812-1.458,13.573,3.2,14.284-3.348c0.83-7.682,2.975-17.057,9.68-23.831
		c0.913-4.689,1.176-8.554,0.57-10.562l-13.759,17.41c0,0-14.445-18.414-21.586-28.342c0,0,12.482,35.273,12.008,42.667
		l-30.628,9.913c1.796-0.071,6.531,1.16,12.261,2.277C104.787,119.422,113.715,119.474,113.715,119.474z"/>
	<path fill="#FF5B29" d="M225.844,109.588L225.844,109.588c-11.147-12.834-29.571-27.924-64.858-26.321
		c-11.054,0.501-18.4,4.068-23.306,9.028c-6.705,6.774-8.757,15.342-9.589,23.024c-0.709,6.543-8.815,2.168-14.07,3.229
		c0,0-9.233,0.873-17.475,7.109c-2.118,1.603-4.191,3.616-6.054,6.158c-9.105,12.441-19.875,33.928-15.206,60.91
		c1.97,11.39,10.911,24.97,23.916,36.473C99.203,229.002,133.462,120.045,225.844,109.588z"/>
	<path fill="#B53C1F" d="M150.737,156.219c-6.401,6.73-15.896,19.929-18.458,27.847c-2.562,7.922,18.934,6.896,24.189,6.96
		c5.252,0.063,9.516-2.356,13.348-9.331c3.833-6.973,6.207-16.755,6.143-22.668c-0.062-5.911,2.837-21.2-1.887-20.664
		C169.35,138.896,150.737,156.219,150.737,156.219z"/>
	<path fill="#B53C1F" d="M122.941,199.184c-5.065,3.346-8.777,8.068-10.109,14.583c-0.668,3.255,3.248,9.79,7.089,8.106
		c4.88-2.138,9.012-4.427,11.148-5.467c6.043-2.933,22.672-11.752,24.316-15.704C157.031,196.745,126.778,196.648,122.941,199.184z"
		/>
	<path fill="#B53C1F" d="M183.329,159.959c-0.132,5.016,5.558,9.565,7.503,7.486c7.701-8.235,19.722-25.269,26.963-41.742
		c2.08-4.727-10.924-5.51-16.708-3.581c-5.786,1.929-9.37,3.832-11.592,7.725C187.271,133.742,183.503,153.387,183.329,159.959z"/>
	<path fill="#F9A565" d="M125.833,203.011c-0.949,3.7,2.356,3.435,4.336,3.302c1.976-0.122,6.564-2.712,4.775-3.37
		C133.155,202.285,127.062,198.226,125.833,203.011z"/>
	<path fill="#F9A565" d="M170.75,153.78c-3.661-0.557-4.738,1.564-4.83,3.465c-0.093,1.903,2.271,9.749,3.669,9.29
		c1.398-0.463,1.514-0.665,1.78-1.711C171.63,163.775,176.949,154.722,170.75,153.78z"/>
	<path fill="#F9A565" d="M200.036,130.596c-3.249,0.476-4.441,0.303-4.727,1.897c-0.283,1.594,1.841,7.748,3.03,8.847
		c1.192,1.102,1.677,0.542,2.413-0.166c0.74-0.706,0.972-3.082,0.884-4.389C201.547,135.477,203.282,130.119,200.036,130.596z"/>
	<path fill="#F9A565" d="M123.651,214.157c1.195,3.324,4.334,1.913,6.56-0.175c2.227-2.09,3.156-3.832,1.371-4.44
		C129.792,208.933,121.446,208.023,123.651,214.157z"/>
	<path fill="#F9A565" d="M142.267,179.864c-1.19,3.172-0.253,5.365,1.165,5.769c1.413,0.403,6.555,1.38,8,1.105
		c1.716-0.33,2.67-0.637,2.091-3.266c-0.315-1.438-1.537-3.311-6.474-6.106C144.188,175.751,142.976,177.974,142.267,179.864z"/>
	<path fill="#F9A565" d="M147.004,168.812c2.753-2.208,3.606-2.169,5.194-1.161c1.59,1.008,4.645,6.117,4.139,7.41
		c-0.509,1.291-0.409,1.193-2.203,0.98c-1.795-0.212-6.874-1.144-7.953-3.246C145.098,170.693,145.532,169.995,147.004,168.812z"/>
	<path fill="#F9A565" d="M191.066,134.912c3.069,0.316,3.59,0.967,4,2.9c0.409,1.934-0.693,8.077-1.789,8.697
		c-1.092,0.622-0.968,0.617-1.983-0.853c-1.016-1.473-3.693-5.895-3.128-8.296C188.731,134.959,189.425,134.739,191.066,134.912z"/>
	<path fill="#F9A565" d="M210.871,131.194c-1.53-0.566-4.612-1.634-5.868,1.127c-1.256,2.76-1.772,9.341-0.435,9.641
		c1.337,0.299,5.691-2.989,7.268-6.532C213.411,131.885,212.088,131.647,210.871,131.194z"/>
	<path fill="#F9A565" d="M158.213,158.575c-2.347,1.572-3.677,1.954-4.07,3.266c-0.395,1.31,4.825,7.074,8.029,7.078
		c1.812,0.004,2.032-2.422,1.378-3.688C162.896,163.965,161.722,156.224,158.213,158.575z"/>
</g>
</svg>
